<svg id="Layer_1" enable-background="new 0 0 512 512" height="512" viewBox="0 0 512 512" width="512" xmlns="http://www.w3.org/2000/svg"><path d="m473.976 312.207c22.303-9.097 38.024-30.978 38.024-56.547 0-25.651-15.813-47.594-38.22-56.639-1.339-.536-1.782-2.194-.907-3.327 14.773-19.027 17.441-45.843 4.656-67.992-12.826-22.211-37.488-33.306-61.419-29.937-1.422.206-2.637-1.01-2.442-2.431 3.276-23.859-7.819-48.419-29.968-61.203-22.211-12.826-49.119-10.106-68.157 4.78-1.133.886-2.792.443-3.338-.886-9.095-22.304-30.976-38.025-56.545-38.025-25.652 0-47.594 15.813-56.639 38.22-.536 1.339-2.194 1.782-3.327.906-19.027-14.773-45.843-17.441-67.992-4.656-22.211 12.826-33.306 37.488-29.937 61.42.206 1.422-1.01 2.637-2.431 2.441-23.859-3.276-48.419 7.819-61.203 29.968-12.826 22.211-10.106 49.119 4.78 68.157.886 1.133.443 2.792-.886 3.338-22.304 9.096-38.025 30.977-38.025 56.546 0 25.651 15.813 47.594 38.22 56.639 1.339.536 1.782 2.194.907 3.327-14.773 19.027-17.441 45.843-4.656 67.992 12.826 22.211 37.488 33.306 61.419 29.937 1.422-.206 2.637 1.01 2.442 2.431-3.276 23.859 7.819 48.419 29.968 61.203 22.211 12.826 49.119 10.106 68.157-4.78 1.133-.886 2.792-.443 3.338.886 9.095 22.304 30.976 38.025 56.545 38.025 25.652 0 47.594-15.813 56.639-38.22.536-1.339 2.194-1.782 3.328-.906 19.027 14.773 45.843 17.441 67.992 4.656 22.211-12.826 33.306-37.488 29.937-61.42-.206-1.422 1.01-2.637 2.431-2.441 23.859 3.276 48.419-7.819 61.203-29.968 12.826-22.211 10.106-49.119-4.78-68.157-.886-1.133-.443-2.791.886-3.337zm-123.539 35.458c.196 1.422-1.01 2.637-2.442 2.442-11.188-1.473-22.932.587-33.471 6.665-10.59 6.119-18.265 15.329-22.571 25.827-.546 1.339-2.194 1.782-3.338.906-8.952-6.882-20.15-10.971-32.317-10.971-12.228 0-23.488 4.141-32.461 11.085-1.143.876-2.792.443-3.338-.886-4.327-10.436-11.971-19.584-22.509-25.662-10.59-6.109-22.406-8.159-33.656-6.634-1.422.196-2.637-1.01-2.442-2.441 1.473-11.188-.587-22.932-6.665-33.471-6.119-10.59-15.329-18.265-25.827-22.571-1.339-.546-1.782-2.194-.907-3.338 6.882-8.952 10.971-20.15 10.971-32.317 0-12.228-4.141-23.488-11.085-32.461-.876-1.144-.443-2.792.886-3.338 10.436-4.327 19.584-11.971 25.662-22.51 6.109-10.59 8.159-22.406 6.634-33.656-.196-1.422 1.01-2.637 2.442-2.442 11.188 1.473 22.932-.587 33.471-6.665 10.59-6.119 18.265-15.329 22.571-25.827.546-1.339 2.194-1.782 3.338-.906 8.952 6.882 20.15 10.971 32.317 10.971 12.228 0 23.488-4.141 32.461-11.085 1.143-.876 2.792-.443 3.338.886 4.327 10.436 11.971 19.584 22.509 25.662 10.59 6.109 22.406 8.159 33.656 6.634 1.422-.196 2.637 1.01 2.442 2.441-1.473 11.188.587 22.932 6.665 33.471 6.119 10.59 15.329 18.265 25.827 22.571 1.339.546 1.782 2.194.907 3.338-6.882 8.952-10.971 20.15-10.971 32.317 0 12.228 4.141 23.488 11.085 32.461.876 1.144.443 2.792-.886 3.338-10.436 4.327-19.584 11.971-25.662 22.51-6.109 10.591-8.159 22.407-6.634 33.656z" fill="#ae583e"/><path d="m418.707 245.873c-7.325-8.365-12.795-18.378-15.782-29.309-2.998-11.013-3.358-22.509-1.247-33.522 1.411-7.355-2.637-14.67-9.725-17.07-12.29-4.172-23.416-11.538-32.131-21.541-6.377-7.304-11.178-15.7-14.258-24.662-2.421-7.047-9.581-11.178-16.895-9.725-4.749.948-9.591 1.442-14.453 1.442-18.306 0-35.418-6.624-48.614-18.059-5.697-4.924-14.072-4.914-19.749.041-13.207 11.538-30.39 18.224-48.841 18.224-4.77 0-9.519-.464-14.175-1.38-7.232-1.422-14.505 2.792-16.885 9.776-3.039 8.973-7.809 17.369-14.155 24.704-8.715 10.065-19.852 17.482-32.162 21.695-7.036 2.4-11.023 9.694-9.591 16.988 2.153 10.94 1.865 22.355-1.04 33.326-2.926 11.054-8.386 21.181-15.751 29.659-4.935 5.676-4.904 14 .041 19.666 7.325 8.365 12.795 18.378 15.782 29.309 2.998 11.013 3.358 22.509 1.247 33.522-1.411 7.355 2.637 14.67 9.725 17.07 12.29 4.172 23.416 11.538 32.131 21.541 6.377 7.304 11.177 15.7 14.258 24.662 2.421 7.047 9.581 11.177 16.895 9.725 4.749-.948 9.591-1.442 14.453-1.442 18.306 0 35.418 6.624 48.614 18.059 5.697 4.924 14.072 4.914 19.749-.041 13.207-11.538 30.39-18.224 48.841-18.224 4.77 0 9.519.464 14.175 1.38 7.232 1.422 14.505-2.792 16.885-9.776 3.039-8.973 7.809-17.369 14.155-24.704 8.715-10.065 19.852-17.492 32.162-21.695 7.036-2.4 11.023-9.694 9.591-16.988-2.153-10.94-1.865-22.355 1.04-33.326 2.926-11.054 8.386-21.181 15.751-29.659 4.935-5.676 4.904-14-.041-19.666zm-35.974 45.627c-10.436 4.327-19.584 11.971-25.662 22.51-6.109 10.59-8.159 22.406-6.634 33.656.196 1.422-1.01 2.637-2.442 2.442-11.188-1.473-22.932.587-33.471 6.665-10.59 6.119-18.265 15.329-22.571 25.827-.546 1.339-2.194 1.782-3.338.906-8.952-6.882-20.15-10.971-32.317-10.971-12.228 0-23.488 4.141-32.461 11.085-1.143.876-2.792.443-3.338-.886-4.327-10.436-11.971-19.584-22.509-25.662-10.59-6.109-22.406-8.159-33.656-6.634-1.422.196-2.637-1.01-2.442-2.441 1.473-11.188-.587-22.932-6.665-33.471-6.119-10.59-15.329-18.265-25.827-22.571-1.339-.546-1.782-2.194-.907-3.338 6.882-8.952 10.971-20.15 10.971-32.317 0-12.228-4.141-23.488-11.085-32.461-.876-1.144-.443-2.792.886-3.338 10.436-4.327 19.584-11.971 25.662-22.51 6.109-10.59 8.159-22.406 6.634-33.656-.196-1.422 1.01-2.637 2.442-2.442 11.188 1.473 22.932-.587 33.471-6.665 10.59-6.119 18.265-15.329 22.571-25.827.546-1.339 2.194-1.782 3.338-.906 8.952 6.882 20.15 10.971 32.317 10.971 12.228 0 23.488-4.141 32.461-11.085 1.143-.876 2.792-.443 3.338.886 4.327 10.436 11.971 19.584 22.509 25.662 10.59 6.109 22.406 8.159 33.656 6.634 1.422-.196 2.637 1.01 2.442 2.441-1.473 11.188.587 22.932 6.665 33.471 6.119 10.59 15.329 18.265 25.827 22.571 1.339.546 1.782 2.194.907 3.338-6.882 8.952-10.971 20.15-10.971 32.317 0 12.228 4.141 23.488 11.085 32.461.875 1.144.443 2.792-.886 3.338z" fill="#954c35"/><path d="m270.133 74.704-28.845-23.694c-3.299-2.707-8.166-2.23-10.875 1.066-2.709 3.298-2.231 8.166 1.066 10.875 31.385 25.781 30.057 25.45 33.745 25.45 7.204 0 10.521-9.085 4.909-13.697z" fill="#e7387f"/><path d="m348.725 65.615c-3.184-2.839-8.068-2.56-10.908.624l-24.846 27.859c-2.841 3.185-2.561 8.069.624 10.909 3.182 2.839 8.068 2.562 10.908-.624l24.846-27.859c2.841-3.185 2.561-8.069-.624-10.909z" fill="#fed22b"/><path d="m176.04 89.414c3.682-2.156 4.919-6.889 2.763-10.571-2.157-3.684-6.891-4.919-10.572-2.763l-32.212 18.863c-6.797 3.98-3.914 14.394 3.911 14.394 2.877.001.953.665 36.11-19.923z" fill="#24d3b5"/><path d="m94.909 178.016c2.28 3.609 7.052 4.683 10.659 2.405 3.607-2.28 4.684-7.052 2.404-10.659l-19.94-31.557c-2.278-3.607-7.05-4.683-10.659-2.405-3.607 2.28-4.684 7.052-2.404 10.659z" fill="#fed22b"/><path d="m73.095 222.004c-3.661-2.191-8.406-1.002-10.599 2.659l-19.179 32.025c-2.192 3.661-1.002 8.406 2.659 10.599 3.662 2.192 8.407 1.001 10.599-2.659l19.179-32.025c2.192-3.661 1.002-8.407-2.659-10.599z" fill="#e7387f"/><path d="m252.363 448.361-28.845-23.694c-3.299-2.707-8.167-2.23-10.875 1.066-2.709 3.298-2.231 8.166 1.066 10.875 31.385 25.781 30.057 25.45 33.745 25.45 7.204 0 10.521-9.085 4.909-13.697z" fill="#24d3b5"/><path d="m180.137 394.974c-3.184-2.839-8.067-2.56-10.909.624l-24.846 27.86c-4.454 4.995-.85 12.869 5.764 12.869 2.126 0 4.242-.872 5.769-2.583l24.846-27.86c2.84-3.186 2.56-8.07-.624-10.91z" fill="#fed22b"/><path d="m338.64 405.097-32.212 18.863c-6.797 3.98-3.914 14.394 3.911 14.394 2.877 0 .953.664 36.11-19.924 3.682-2.156 4.919-6.889 2.763-10.571-2.157-3.683-6.891-4.918-10.572-2.762z" fill="#e7387f"/><path d="m122.532 368.404-36.87-5.833c-4.213-.659-8.172 2.21-8.839 6.425-.667 4.214 2.209 8.172 6.424 8.839 39.447 6.241 37.086 5.929 38.087 5.929 3.735 0 7.02-2.714 7.622-6.52.667-4.215-2.21-8.173-6.424-8.84z" fill="#e7387f"/><path d="m83.671 278.782c-4.149.997-6.703 5.169-5.706 9.318l8.726 36.295c.995 4.14 5.158 6.706 9.318 5.706 4.149-.997 6.703-5.169 5.706-9.318l-8.726-36.295c-.997-4.149-5.17-6.705-9.318-5.706z" fill="#24d3b5"/><path d="m401.981 338.449c-2.279-3.608-7.051-4.682-10.659-2.405-3.607 2.28-4.684 7.052-2.404 10.659l19.94 31.557c2.277 3.605 7.047 4.686 10.659 2.405 3.607-2.28 4.684-7.052 2.404-10.659z" fill="#fed22b"/><path d="m448.511 255.015c-3.661-2.192-8.406-1.002-10.599 2.659l-19.179 32.025c-2.192 3.661-1.002 8.406 2.659 10.599 3.662 2.192 8.407 1.001 10.599-2.659l19.179-32.025c2.192-3.661 1.002-8.407-2.659-10.599z" fill="#24d3b5"/><path d="m400.006 196.077c-1.197 4.096 1.152 8.386 5.247 9.583 39.085 11.428 36.448 10.789 38.001 10.789 3.344 0 6.427-2.188 7.412-5.56 1.197-4.096-1.152-8.386-5.247-9.584l-35.829-10.475c-4.099-1.204-8.387 1.152-9.584 5.247z" fill="#fed22b"/><path d="m408.947 158.531c6.804 0 10.337-8.275 5.486-13.167l-26.286-26.506c-3.005-3.03-7.896-3.049-10.927-.045-3.03 3.004-3.05 7.896-.045 10.927 28.262 28.499 27.431 28.791 31.772 28.791z" fill="#e7387f"/></svg>