<svg id="Layer_1" enable-background="new 0 0 512 512" height="512" viewBox="0 0 512 512" width="512" xmlns="http://www.w3.org/2000/svg"><path d="m467.618 310.556c21.651-8.83 36.912-30.07 36.912-54.89 0-24.9-15.351-46.2-37.102-54.98-1.3-.52-1.73-2.13-.88-3.23 14.341-18.47 16.931-44.5 4.52-66-12.451-21.56-36.392-32.33-59.624-29.06-1.38.2-2.56-.98-2.37-2.36 3.18-23.16-7.59-47-29.092-59.41-21.561-12.45-47.683-9.81-66.164 4.64-1.1.86-2.71.43-3.24-.86-8.83-21.65-30.072-36.91-54.893-36.91-24.902 0-46.203 15.35-54.983 37.1-.52 1.3-2.13 1.73-3.23.88-18.471-14.34-44.503-16.93-66.004-4.52-21.561 12.45-32.332 36.39-29.062 59.62.2 1.38-.98 2.56-2.36 2.37-23.161-3.18-47.003 7.59-59.414 29.09-12.451 21.56-9.811 47.68 4.64 66.16.86 1.1.43 2.71-.86 3.24-21.651 8.83-36.912 30.07-36.912 54.89 0 24.9 15.351 46.2 37.102 54.98 1.3.52 1.73 2.13.88 3.23-14.341 18.47-16.931 44.5-4.52 66 12.451 21.56 36.392 32.33 59.624 29.06 1.38-.2 2.56.98 2.37 2.36-3.18 23.16 7.59 47 29.092 59.41 21.561 12.45 47.683 9.81 66.164-4.64 1.1-.86 2.71-.43 3.24.86 8.831 21.65 30.072 36.91 54.893 36.91 24.902 0 46.203-15.35 54.983-37.1.52-1.3 2.13-1.73 3.23-.88 18.471 14.34 44.503 16.93 66.004 4.52 21.561-12.45 32.332-36.39 29.062-59.62-.2-1.38.98-2.56 2.36-2.37 23.161 3.18 47.003-7.59 59.414-29.09 12.451-21.56 9.811-47.68-4.64-66.16-.86-1.101-.43-2.711.86-3.24zm-119.927 34.419c.19 1.38-.98 2.56-2.37 2.37-10.861-1.43-22.261.57-32.492 6.47-10.281 5.94-17.731 14.88-21.911 25.07-.53 1.3-2.13 1.73-3.24.88-8.691-6.68-19.561-10.65-31.372-10.65-11.871 0-22.801 4.02-31.512 10.76-1.11.85-2.71.43-3.24-.86-4.2-10.13-11.621-19.01-21.851-24.91-10.281-5.93-21.751-7.92-32.672-6.44-1.38.19-2.56-.98-2.37-2.37 1.43-10.86-.57-22.26-6.47-32.49-5.94-10.28-14.881-17.73-25.072-21.91-1.3-.53-1.73-2.13-.88-3.24 6.68-8.69 10.651-19.56 10.651-31.37 0-11.87-4.02-22.8-10.761-31.51-.85-1.11-.43-2.71.86-3.24 10.131-4.2 19.011-11.62 24.911-21.85 5.93-10.28 7.92-21.75 6.44-32.67-.19-1.38.98-2.56 2.37-2.37 10.861 1.43 22.261-.57 32.492-6.47 10.281-5.94 17.731-14.88 21.911-25.07.53-1.3 2.13-1.73 3.24-.88 8.691 6.68 19.561 10.65 31.372 10.65 11.871 0 22.801-4.02 31.512-10.76 1.11-.85 2.71-.43 3.24.86 4.2 10.13 11.621 19.01 21.851 24.91 10.281 5.93 21.751 7.92 32.672 6.44 1.38-.19 2.56.98 2.37 2.37-1.43 10.86.57 22.26 6.47 32.49 5.94 10.28 14.881 17.73 25.072 21.91 1.3.53 1.73 2.13.88 3.24-6.68 8.69-10.651 19.56-10.651 31.37 0 11.87 4.02 22.8 10.761 31.51.85 1.11.43 2.71-.86 3.24-10.131 4.2-19.011 11.62-24.912 21.85-5.929 10.28-7.919 21.751-6.439 32.67z" fill="#ae583e"/><path d="m413.965 246.165c-7.11-8.12-12.421-17.84-15.321-28.45-2.91-10.69-3.26-21.85-1.21-32.54 1.37-7.14-2.56-14.24-9.441-16.57-11.931-4.05-22.731-11.2-31.192-20.91-6.19-7.09-10.851-15.24-13.841-23.94-2.35-6.84-9.301-10.85-16.401-9.44-4.61.92-9.311 1.4-14.031 1.4-17.771 0-34.382-6.43-47.193-17.53-5.53-4.78-13.661-4.77-19.171.04-12.821 11.2-29.502 17.69-47.413 17.69-4.63 0-9.241-.45-13.761-1.34-7.02-1.38-14.081 2.71-16.391 9.49-2.95 8.71-7.58 16.86-13.741 23.98-8.461 9.77-19.271 16.97-31.222 21.06-6.83 2.33-10.701 9.41-9.311 16.49 2.09 10.62 1.81 21.7-1.01 32.35-2.84 10.73-8.14 20.56-15.291 28.79-4.79 5.51-4.76 13.59.04 19.09 7.11 8.12 12.421 17.84 15.321 28.45 2.91 10.69 3.26 21.85 1.21 32.54-1.37 7.14 2.56 14.24 9.441 16.57 11.931 4.05 22.731 11.2 31.192 20.91 6.19 7.09 10.851 15.24 13.841 23.94 2.35 6.84 9.301 10.85 16.401 9.44 4.61-.92 9.311-1.4 14.031-1.4 17.771 0 34.382 6.43 47.193 17.53 5.53 4.78 13.661 4.77 19.171-.04 12.821-11.2 29.502-17.69 47.413-17.69 4.63 0 9.241.45 13.761 1.34 7.02 1.38 14.081-2.71 16.391-9.49 2.95-8.71 7.58-16.86 13.741-23.98 8.46-9.77 19.271-16.98 31.222-21.06 6.83-2.33 10.701-9.41 9.311-16.49-2.09-10.62-1.81-21.7 1.01-32.35 2.84-10.73 8.141-20.56 15.291-28.79 4.79-5.51 4.76-13.59-.04-19.09zm-34.922 44.29c-10.131 4.2-19.011 11.62-24.912 21.85-5.93 10.28-7.92 21.75-6.44 32.67.19 1.38-.98 2.56-2.37 2.37-10.861-1.43-22.261.57-32.492 6.47-10.281 5.94-17.731 14.88-21.911 25.07-.53 1.3-2.13 1.73-3.24.88-8.691-6.68-19.561-10.65-31.372-10.65-11.871 0-22.801 4.02-31.512 10.76-1.11.85-2.71.43-3.24-.86-4.2-10.13-11.621-19.01-21.851-24.91-10.281-5.93-21.751-7.92-32.672-6.44-1.38.19-2.56-.98-2.37-2.37 1.43-10.86-.57-22.26-6.47-32.49-5.94-10.28-14.881-17.73-25.072-21.91-1.3-.53-1.73-2.13-.88-3.24 6.68-8.69 10.651-19.56 10.651-31.37 0-11.87-4.02-22.8-10.761-31.51-.85-1.11-.43-2.71.86-3.24 10.131-4.2 19.011-11.62 24.911-21.85 5.93-10.28 7.92-21.75 6.44-32.67-.19-1.38.98-2.56 2.37-2.37 10.861 1.43 22.261-.57 32.492-6.47 10.281-5.94 17.731-14.88 21.911-25.07.53-1.3 2.13-1.73 3.24-.88 8.691 6.68 19.561 10.65 31.372 10.65 11.871 0 22.801-4.02 31.512-10.76 1.11-.85 2.71-.43 3.24.86 4.2 10.13 11.621 19.01 21.851 24.91 10.281 5.93 21.751 7.92 32.672 6.44 1.38-.19 2.56.98 2.37 2.37-1.43 10.86.57 22.26 6.47 32.49 5.94 10.28 14.881 17.73 25.072 21.91 1.3.53 1.73 2.13.88 3.24-6.68 8.69-10.651 19.56-10.651 31.37 0 11.87 4.02 22.8 10.761 31.51.851 1.111.431 2.71-.859 3.24z" fill="#954c35"/><path d="m476.318 195.655c28.573-45.763-6.01-104.293-59.24-102.172 1.91-53.352-56.887-87.525-102.397-58.87-8.671-16.303-23.915-28.53-41.871-33.285-4.003-1.063-8.11 1.326-9.171 5.33s1.326 8.109 5.33 9.17c15.596 4.13 28.555 15.54 34.665 30.521 2.438 5.975 9.843 7.812 14.8 3.936 36.581-28.595 89.492 1.952 83.206 47.841-.872 6.35 4.617 11.714 10.849 10.81 46.084-6.492 76.509 46.468 48.131 83.037-3.861 4.987-1.975 12.372 3.994 14.778 43.064 17.386 43.188 78.431.173 95.973-5.969 2.431-7.825 9.832-3.941 14.801 28.573 36.55-1.944 89.492-47.833 83.202-6.275-.861-11.703 4.524-10.821 10.847 6.506 46.117-46.508 76.475-83.035 48.134-4.972-3.862-12.37-1.996-14.788 3.987-2.881 7.134-7.42 13.661-13.129 18.877-5.066 4.629-1.733 13.037 5.061 13.037 1.807 0 3.619-.648 5.057-1.963 5.7-5.208 10.497-11.435 14.096-18.256 45.559 28.453 104.294-5.785 102.19-59.229 53.431 1.849 87.517-56.883 58.879-102.381 47.372-25.022 47.3-93.255-.205-118.125z"/><path d="m268.35 494.709c-24.447 5.798-50.098-6.67-59.956-30.84-2.434-5.979-9.842-7.821-14.803-3.942-33.865 26.474-83.683 2.339-83.683-40.829 0-3.585.567-8.12.567-8.323 0-5.842-5.205-10.324-10.939-9.498-46.026 6.485-76.55-46.416-48.131-83.037 3.861-4.986 1.976-12.371-3.993-14.778-11.196-4.521-20.521-12.873-26.257-23.518-1.965-3.646-6.514-5.009-10.161-3.045-3.647 1.965-5.01 6.514-3.045 10.16 6.328 11.741 16.044 21.318 27.765 27.49-6.615 10.591-10.202 22.98-10.202 35.53 0 37.935 31.812 68.137 69.438 66.649-1.91 53.333 56.862 87.529 102.387 58.876 14.541 27.524 45.464 40.58 74.475 33.7 4.031-.956 6.523-4.998 5.568-9.028-.958-4.031-4.999-6.522-9.03-5.567z"/><path d="m15.001 254.771c.264-20.844 12.919-39.404 32.237-47.282 5.979-2.435 7.819-9.842 3.941-14.801-26.54-33.949-2.253-83.679 40.829-83.679 3.539 0 8.131.568 8.327.568 5.76 0 10.313-5.092 9.498-10.938-6.458-45.779 46.25-76.675 83.035-48.134 4.972 3.862 12.371 1.997 14.788-3.988 6.183-15.313 19.409-26.849 35.379-30.857 4.017-1.009 6.457-5.083 5.449-9.101-1.009-4.018-5.086-6.45-9.101-5.448-18.431 4.626-34.026 17.016-42.817 33.71-45.725-28.557-104.284 5.931-102.187 59.231-53.3-1.882-87.572 56.8-58.878 102.382-21.462 11.355-35.188 33.514-35.5 58.147-.052 4.142 3.263 7.542 7.405 7.594 3.909.119 7.54-3.106 7.595-7.404z"/><path d="m297.854 380.845c7.589-18.509 26.659-29.563 46.489-26.95 6.288.826 11.631-4.526 10.779-10.815-2.688-19.866 8.344-38.945 26.788-46.582 5.853-2.426 7.807-9.734 3.924-14.755-12.233-15.824-12.276-37.861-.097-53.732 3.862-5.029 1.897-12.332-3.976-14.742-18.514-7.592-29.563-26.656-26.952-46.486.829-6.288-4.525-11.626-10.816-10.778-19.755 2.672-38.9-8.232-46.585-26.783-2.425-5.856-9.734-7.808-14.755-3.926-15.827 12.232-37.868 12.274-53.738.095-5.028-3.86-12.333-1.895-14.742 3.979-7.607 18.551-26.697 29.55-46.489 26.949-6.302-.831-11.629 4.542-10.779 10.814 1.317 9.743-.586 19.396-5.506 27.916-4.892 8.472-12.25 14.927-21.283 18.667-5.853 2.426-7.807 9.734-3.924 14.755 12.233 15.824 12.276 37.861.097 53.732-3.862 5.029-1.897 12.332 3.976 14.742 18.514 7.592 29.563 26.656 26.952 46.486-.828 6.278 4.511 11.623 10.816 10.778 19.79-2.679 38.916 8.27 46.586 26.783 2.425 5.856 9.734 7.807 14.755 3.926 15.827-12.232 37.868-12.274 53.738-.095 5.028 3.858 12.333 1.894 14.742-3.978zm-41.549-20.117c-10.973 0-21.458 2.949-30.677 8.581-5.168-9.405-12.739-17.138-22.176-22.586-9.436-5.448-19.944-8.167-30.859-7.906.228-10.729-2.462-21.211-7.911-30.647-5.486-9.502-13.283-17.107-22.771-22.274 5.561-9.178 8.474-19.602 8.474-30.498 0-10.972-2.949-21.455-8.583-30.675 9.405-5.167 17.139-12.738 22.588-22.175 5.486-9.501 8.174-20.056 7.906-30.856 10.729.237 21.212-2.462 30.65-7.91 9.504-5.486 17.11-13.282 22.277-22.77 9.177 5.562 19.6 8.473 30.499 8.473 10.973 0 21.458-2.949 30.677-8.581 5.168 9.406 12.739 17.138 22.176 22.586 9.503 5.486 20.06 8.161 30.859 7.906-.228 10.729 2.462 21.211 7.911 30.647 5.486 9.502 13.283 17.107 22.771 22.274-11.208 18.496-11.449 42.258.109 61.173-9.407 5.167-17.14 12.737-22.588 22.175-5.487 9.502-8.175 20.056-7.906 30.856-10.73-.213-21.212 2.462-30.65 7.91-9.503 5.486-17.109 13.282-22.276 22.77-9.179-5.562-19.602-8.473-30.5-8.473z"/><path d="m231.174 57.156c-2.63 3.201-2.166 7.927 1.035 10.557 30.468 25.025 29.178 24.704 32.759 24.704 6.994 0 10.214-8.82 4.765-13.296l-28.002-23c-3.202-2.628-7.928-2.165-10.557 1.035z"/><path d="m322.514 107.931 24.119-27.043c2.758-3.092 2.486-7.833-.606-10.59-3.091-2.756-7.832-2.485-10.59.605l-24.119 27.043c-2.758 3.092-2.487 7.833.605 10.59 3.091 2.756 7.833 2.487 10.591-.605z"/><path d="m170.81 80.457-31.271 18.311c-3.574 2.093-4.775 6.688-2.682 10.262s6.688 4.775 10.263 2.682l31.271-18.311c3.574-2.093 4.775-6.688 2.682-10.262-2.095-3.576-6.69-4.775-10.263-2.682z"/><path d="m92.956 140.762c-2.212-3.501-6.844-4.546-10.347-2.335-3.502 2.213-4.547 6.846-2.334 10.347l19.357 30.633c2.213 3.503 6.846 4.546 10.347 2.335 3.502-2.213 4.547-6.846 2.334-10.347z"/><path d="m78.455 222.106c-3.554-2.127-8.161-.973-10.289 2.581l-18.618 31.087c-3.004 5.017.652 11.354 6.428 11.354 2.55 0 5.037-1.301 6.442-3.647l18.618-31.087c2.128-3.554.973-8.16-2.581-10.288z"/><path d="m247.717 455.127c6.994 0 10.214-8.82 4.765-13.296l-28.002-23c-3.202-2.628-7.928-2.165-10.557 1.035-2.63 3.201-2.166 7.927 1.035 10.557 30.468 25.025 29.179 24.704 32.759 24.704z"/><path d="m158.854 427.642 24.119-27.044c2.757-3.092 2.486-7.833-.606-10.59-3.091-2.756-7.832-2.485-10.59.605l-24.119 27.044c-2.757 3.092-2.486 7.833.606 10.59 3.089 2.755 7.831 2.487 10.59-.605z"/><path d="m336.238 399.834-31.271 18.311c-3.574 2.093-4.775 6.688-2.682 10.262s6.688 4.775 10.263 2.682l31.271-18.311c3.574-2.093 4.775-6.688 2.682-10.262-2.095-3.575-6.69-4.775-10.263-2.682z"/><path d="m88.31 373.371c38.294 6.058 36.002 5.755 36.974 5.755 3.626 0 6.814-2.635 7.399-6.329.648-4.091-2.145-7.933-6.236-8.58l-35.792-5.662c-4.09-.64-7.933 2.146-8.58 6.236-.649 4.091 2.143 7.933 6.235 8.58z"/><path d="m100.7 327.035c4.028-.968 6.507-5.018 5.539-9.045l-8.471-35.231c-.968-4.027-5.019-6.509-9.046-5.539-4.028.968-6.507 5.018-5.539 9.045l8.471 35.231c.966 4.019 5.007 6.51 9.046 5.539z"/><path d="m387.38 332.804c-3.502 2.213-4.547 6.846-2.334 10.347l19.357 30.633c1.427 2.259 3.86 3.495 6.348 3.495 5.862 0 9.497-6.502 6.333-11.507l-19.357-30.633c-2.212-3.502-6.845-4.545-10.347-2.335z"/><path d="m426.859 295.525 18.618-31.087c2.128-3.554.973-8.16-2.581-10.288s-8.161-.973-10.289 2.581l-18.618 31.087c-3.004 5.017.652 11.354 6.428 11.354 2.55 0 5.037-1.301 6.442-3.647z"/><path d="m439.895 202.014-34.782-10.169c-3.979-1.169-8.142 1.118-9.304 5.094s1.118 8.141 5.094 9.303c37.939 11.092 35.383 10.473 36.89 10.473 8.623-.001 10.381-12.281 2.102-14.701z"/><path d="m384.298 121.982c-2.917-2.941-7.666-2.96-10.607-.044s-2.961 7.665-.044 10.606l25.516 25.729c2.917 2.94 7.664 2.962 10.608.044 2.941-2.916 2.961-7.665.044-10.606z"/></svg>