<svg height="512" viewBox="0 0 64 64" width="512" xmlns="http://www.w3.org/2000/svg"><path d="m9.49408 46.98816h.01184a7.49409 7.49409 0 0 0 7.49408-7.49408 7.48873 7.48873 0 0 1 4.04272-6.64777c-.02142-.28021-.04272-.5606-.04272-.84631a11 11 0 0 1 11-11c.28571 0 .5661.0213.84631.04272a7.48873 7.48873 0 0 1 6.64777-4.04272 7.49409 7.49409 0 0 0 7.49408-7.49408v-.01184a7.48587 7.48587 0 0 1 .311-2.12787 28.99717 28.99717 0 0 0 -39.933 39.933 7.48587 7.48587 0 0 1 2.12792-.31105z" fill="#f5efca"/><path d="m30 19a10.97463 10.97463 0 0 0 -10.32025 14.777 7.51227 7.51227 0 0 1 1.363-.93073c-.02145-.28017-.04275-.56056-.04275-.84627a11 11 0 0 1 11-11c.28571 0 .5661.0213.84631.04272a7.51227 7.51227 0 0 1 .93073-1.363 10.95329 10.95329 0 0 0 -3.77704-.67972z" fill="#cbb292"/><path d="m47.29919 7.36621a7.48587 7.48587 0 0 0 -.311 2.12787v.01184a7.49409 7.49409 0 0 1 -7.49411 7.49408 7.48873 7.48873 0 0 0 -6.64777 4.04272 10.99475 10.99475 0 1 1 -11.80359 11.80359 7.48873 7.48873 0 0 0 -4.04272 6.64777 7.49409 7.49409 0 0 1 -7.49408 7.49408h-.01184a7.48587 7.48587 0 0 0 -2.12787.311 28.99855 28.99855 0 1 0 39.933-39.933z" fill="#e3637b"/><path d="m23.31848 38.732a10.95134 10.95134 0 0 1 -2.27576-5.88568 7.51008 7.51008 0 0 0 -1.36172.92968 11.02145 11.02145 0 0 0 3.63748 4.956z" fill="#d75e74"/><path d="m33.776 19.681a7.51008 7.51008 0 0 0 -.92969 1.36169 10.95134 10.95134 0 0 1 5.88569 2.27579 11.02145 11.02145 0 0 0 -4.956-3.63748z" fill="#d75e74"/><path d="m51.42566 10.48358a28.98061 28.98061 0 0 1 -40.9422 40.942 28.989 28.989 0 1 0 40.9422-40.942z" fill="#d75e74"/><g fill="#f5efca"><circle cx="22" cy="46" r="2"/><circle cx="32" cy="53" r="2"/><circle cx="43" cy="46" r="2"/><circle cx="55" cy="41" r="2"/><circle cx="49" cy="30" r="2"/><circle cx="50" cy="20" r="2"/></g><path d="m19.586 52h2.828v2h-2.828z" fill="#00bcd4" transform="matrix(.707 -.707 .707 .707 -31.326 30.373)"/><path d="m26.586 47h2.828v2h-2.828z" fill="#4e342e" transform="matrix(.707 -.707 .707 .707 -25.74 33.858)"/><path d="m34.586 46h2.828v2h-2.828z" fill="#9d331f" transform="matrix(.707 -.707 .707 .707 -22.69 39.222)"/><path d="m46.586 38h2.828v2h-2.828z" fill="#71c285" transform="matrix(.707 -.707 .707 .707 -13.518 45.364)"/><path d="m53.586 24h2.828v2h-2.828z" fill="#4e342e" transform="matrix(.707 -.707 .707 .707 -1.569 46.213)"/><path d="m43 20.586h2v2.828h-2z" fill="#71c285" transform="matrix(.707 -.707 .707 .707 -2.669 37.556)"/><path d="m55 31.586h2v2.828h-2z" fill="#00bcd4" transform="matrix(.707 -.707 .707 .707 -6.933 49.263)"/><path d="m49 45.586h2v2.828h-2z" fill="#9d331f" transform="matrix(.707 -.707 .707 .707 -18.589 49.121)"/><path d="m39 51.586h2v2.828h-2z" fill="#4e342e" transform="matrix(.707 -.707 .707 .707 -25.761 43.808)"/><path d="m25 54.586h2v2.828h-2z" fill="#71c285" transform="matrix(.707 -.707 .707 .707 -31.983 34.787)"/></svg>