<svg height="511pt" viewBox="0 0 511 511.9987" width="511pt" xmlns="http://www.w3.org/2000/svg"><path d="m256.492188.015625c-141.382813 0-255.992188 114.609375-255.992188 255.992187 0 141.378907 114.609375 255.992188 255.992188 255.992188 141.378906 0 255.992187-114.613281 255.992187-255.992188 0-141.382812-114.613281-255.992187-255.992187-255.992187zm0 346.917969c-50.21875 0-90.925782-40.710938-90.925782-90.925782 0-50.21875 40.707032-90.925781 90.925782-90.925781 50.214843 0 90.925781 40.707031 90.925781 90.925781 0 50.214844-40.710938 90.925782-90.925781 90.925782zm0 0" fill="#fdca74"/><path d="m256.492188.015625c-10.609376 0-21.0625.65625-31.335938 1.910156 126.597656 15.453125 224.660156 123.308594 224.660156 254.082031 0 130.769532-98.0625 238.628907-224.660156 254.078126 10.273438 1.253906 20.726562 1.914062 31.335938 1.914062 141.378906 0 255.992187-114.613281 255.992187-255.992188 0-141.382812-114.613281-255.992187-255.992187-255.992187zm0 0" fill="#e6af55"/><path d="m256.492188.015625c-127.0625 0-232.484376 92.578125-252.539063 213.957031 39.238281 4.4375 40.394531 84.269532 81.875 84.269532 43.976563 0 43.273437-91.289063 89.941406-84.113282 15.148438-29.140625 45.609375-49.046875 80.722657-49.046875 35.113281 0 65.574218 19.90625 80.722656 49.046875 46.730468-7.167968 45.863281 84.113282 89.9375 84.113282 41.480468 0 42.636718-79.832032 81.878906-84.269532-20.054688-121.378906-125.476562-213.957031-252.539062-213.957031zm0 0" fill="#a64f3b"/><path d="m225.15625 1.914062c126.59375 15.457032 224.660156 123.324219 224.660156 254.09375 0 11.574219-.785156 22.96875-2.273437 34.136719 23.011719-20.40625 29.964843-72.609375 61.488281-76.171875-22.195312-134.328125-146.515625-228.757812-283.875-212.058594zm0 0" fill="#914534"/><g fill="#f94b6c"><path d="m103.996094 191.753906h-37.085938c-4.265625 0-7.726562 3.460938-7.726562 7.726563s3.460937 7.726562 7.726562 7.726562h37.085938c4.265625 0 7.726562-3.460937 7.726562-7.726562s-3.460937-7.726563-7.726562-7.726563zm0 0"/><path d="m117.558594 140.59375v-37.085938c0-4.265624-3.457032-7.726562-7.726563-7.726562-4.265625 0-7.722656 3.460938-7.722656 7.726562v37.085938c0 4.265625 3.457031 7.726562 7.722656 7.726562 4.269531 0 7.726563-3.460937 7.726563-7.726562zm0 0"/><path d="m341.921875 68.375-26.226563 26.226562c-3.015624 3.015626-3.015624 7.90625 0 10.925782 3.019532 3.015625 7.910157 3.015625 10.929688 0l26.222656-26.222656c3.015625-3.019532 3.015625-7.910157 0-10.929688-3.019531-3.015625-7.910156-3.015625-10.925781 0zm0 0"/><path d="m168.042969 90.363281c-3.015625 3.019531-3.015625 7.910157 0 10.925781l26.226562 26.226563c3.015625 3.015625 7.90625 3.015625 10.925781 0 3.015626-3.019531 3.015626-7.910156 0-10.929687l-26.222656-26.222657c-3.019531-3.015625-7.910156-3.015625-10.929687 0zm0 0"/><path d="m228.988281 48.296875c-4.265625 0-7.726562 3.460937-7.726562 7.726563 0 4.265624 3.460937 7.726562 7.726562 7.726562h37.085938c4.265625 0 7.726562-3.460938 7.726562-7.726562 0-4.265626-3.460937-7.726563-7.726562-7.726563zm0 0"/><path d="m380.933594 130.566406v37.085938c0 4.269531 3.460937 7.726562 7.726562 7.726562s7.726563-3.457031 7.726563-7.726562v-37.085938c0-4.265625-3.460938-7.722656-7.726563-7.722656s-7.726562 3.457031-7.726562 7.722656zm0 0"/><path d="m468.359375 191.832031c3.015625-3.015625 3.015625-7.910156 0-10.925781-3.019531-3.015625-7.910156-3.015625-10.929687 0l-26.222657 26.222656c-3.015625 3.015625-3.015625 7.910156 0 10.925782 1.507813 1.511718 3.488281 2.265624 5.464844 2.265624 5.640625 0 5.4375-3.320312 31.6875-28.488281zm0 0"/></g></svg>