<svg height="512" viewBox="0 0 64 64" width="512" xmlns="http://www.w3.org/2000/svg"><g id="FILL_OUTLINE" data-name="FILL OUTLINE"><path d="m9.49408 46.98816h.01184a7.49409 7.49409 0 0 0 7.49408-7.49408 7.48873 7.48873 0 0 1 4.04272-6.64777c-.02142-.28021-.04272-.5606-.04272-.84631a11 11 0 0 1 11-11c.28571 0 .5661.0213.84631.04272a7.48873 7.48873 0 0 1 6.64777-4.04272 7.49409 7.49409 0 0 0 7.49408-7.49408v-.01184a7.48587 7.48587 0 0 1 .311-2.12787 28.99717 28.99717 0 0 0 -39.933 39.933 7.48587 7.48587 0 0 1 2.12792-.31105z" fill="#f5efca"/><path d="m30 19a10.97463 10.97463 0 0 0 -10.32025 14.777 7.51227 7.51227 0 0 1 1.363-.93073c-.02145-.28017-.04275-.56056-.04275-.84627a11 11 0 0 1 11-11c.28571 0 .5661.0213.84631.04272a7.51227 7.51227 0 0 1 .93073-1.363 10.95329 10.95329 0 0 0 -3.77704-.67972z" fill="#cbb292"/><path d="m47.29919 7.36621a7.48587 7.48587 0 0 0 -.311 2.12787v.01184a7.49409 7.49409 0 0 1 -7.49411 7.49408 7.48873 7.48873 0 0 0 -6.64777 4.04272 10.99475 10.99475 0 1 1 -11.80359 11.80359 7.48873 7.48873 0 0 0 -4.04272 6.64777 7.49409 7.49409 0 0 1 -7.49408 7.49408h-.01184a7.48587 7.48587 0 0 0 -2.12787.311 28.99855 28.99855 0 1 0 39.933-39.933z" fill="#e3637b"/><path d="m23.31848 38.732a10.95134 10.95134 0 0 1 -2.27576-5.88568 7.51008 7.51008 0 0 0 -1.36172.92968 11.02145 11.02145 0 0 0 3.63748 4.956z" fill="#d75e74"/><path d="m33.776 19.681a7.51008 7.51008 0 0 0 -.92969 1.36169 10.95134 10.95134 0 0 1 5.88569 2.27579 11.02145 11.02145 0 0 0 -4.956-3.63748z" fill="#d75e74"/><path d="m51.42566 10.48358a28.98061 28.98061 0 0 1 -40.9422 40.942 28.989 28.989 0 1 0 40.9422-40.942z" fill="#d75e74"/><circle cx="22" cy="46" fill="#f5efca" r="2"/><circle cx="32" cy="53" fill="#f5efca" r="2"/><circle cx="43" cy="46" fill="#f5efca" r="2"/><circle cx="55" cy="41" fill="#f5efca" r="2"/><circle cx="49" cy="30" fill="#f5efca" r="2"/><circle cx="50" cy="20" fill="#f5efca" r="2"/><g fill="#231f20"><path d="m22 43a3 3 0 1 0 3 3 3.00328 3.00328 0 0 0 -3-3zm0 4a1 1 0 1 1 1-1 1.001 1.001 0 0 1 -1 1z"/><path d="m32 50a3 3 0 1 0 3 3 3.00328 3.00328 0 0 0 -3-3zm0 4a1 1 0 1 1 1-1 1.001 1.001 0 0 1 -1 1z"/><path d="m43 43a3 3 0 1 0 3 3 3.00328 3.00328 0 0 0 -3-3zm0 4a1 1 0 1 1 1-1 1.001 1.001 0 0 1 -1 1z"/><path d="m55 38a3 3 0 1 0 3 3 3.00328 3.00328 0 0 0 -3-3zm0 4a1 1 0 1 1 1-1 1.001 1.001 0 0 1 -1 1z"/><path d="m49 33a3 3 0 1 0 -3-3 3.00328 3.00328 0 0 0 3 3zm0-4a1 1 0 1 1 -1 1 1.001 1.001 0 0 1 1-1z"/><path d="m50 23a3 3 0 1 0 -3-3 3.00328 3.00328 0 0 0 3 3zm0-4a1 1 0 1 1 -1 1 1.001 1.001 0 0 1 1-1z"/><path d="m19.586 52h2.828v2h-2.828z" transform="matrix(.707 -.707 .707 .707 -31.326 30.373)"/><path d="m26.586 47h2.828v2h-2.828z" transform="matrix(.707 -.707 .707 .707 -25.74 33.858)"/><path d="m34.586 46h2.828v2h-2.828z" transform="matrix(.707 -.707 .707 .707 -22.69 39.222)"/><path d="m46.586 38h2.828v2h-2.828z" transform="matrix(.707 -.707 .707 .707 -13.518 45.364)"/><path d="m53.586 24h2.828v2h-2.828z" transform="matrix(.707 -.707 .707 .707 -1.569 46.213)"/><path d="m43 20.586h2v2.828h-2z" transform="matrix(.707 -.707 .707 .707 -2.669 37.556)"/><path d="m55 31.586h2v2.828h-2z" transform="matrix(.707 -.707 .707 .707 -6.933 49.263)"/><path d="m49 45.586h2v2.828h-2z" transform="matrix(.707 -.707 .707 .707 -18.589 49.121)"/><path d="m39 51.586h2v2.828h-2z" transform="matrix(.707 -.707 .707 .707 -25.761 43.808)"/><path d="m25 54.586h2v2.828h-2z" transform="matrix(.707 -.707 .707 .707 -31.983 34.787)"/><path d="m32 2a30 30 0 1 0 30 30 30.03406 30.03406 0 0 0 -30-30zm0 2a27.82114 27.82114 0 0 1 14.16858 3.864 8.48665 8.48665 0 0 0 -.1803 1.64191 6.50127 6.50127 0 0 1 -6.49414 6.49409 8.45246 8.45246 0 0 0 -7.18964 4.01544c-.10217-.00256-.20172-.01544-.3045-.01544a12.01343 12.01343 0 0 0 -12 12c0 .10309.01288.20294.0155.30542a8.44822 8.44822 0 0 0 -4.0155 7.18872 6.50377 6.50377 0 0 1 -6.50586 6.49414 8.4409 8.4409 0 0 0 -1.63037.18 27.98053 27.98053 0 0 1 24.13623-42.16828zm0 18a10 10 0 1 1 -10 10 10.01146 10.01146 0 0 1 10-10zm0 38a27.98139 27.98139 0 0 1 -22.9436-11.97925c.1499-.01044.2984-.03247.44946-.03247a8.50388 8.50388 0 0 0 8.49414-8.49414 6.45574 6.45574 0 0 1 2.28436-4.92314 11.99684 11.99684 0 1 0 14.28664-14.2867 6.45525 6.45525 0 0 1 4.92314-2.2843 8.50638 8.50638 0 0 0 8.49414-8.50586c0-.14606.02191-.292.032-.43811a27.98678 27.98678 0 0 1 -16.02028 50.94397z"/></g></g></svg>