<svg height="512pt" viewBox="0 0 512.00038 512" width="512pt" xmlns="http://www.w3.org/2000/svg"><path d="m496.46875 193.089844c-1.140625-4.339844-6.417969-5.878906-9.800781-2.929688-15.4375 13.488282-37.277344 18.96875-58.339844 12.570313-19.988281-6.070313-34.597656-21.390625-40.597656-39.839844-.800781-2.460937-3.101563-4.109375-5.691407-4.101563-5.960937.019532-12.03125-.828124-18.03125-2.648437-32.46875-9.859375-50.796874-44.171875-40.9375-76.640625 1.179688-3.898438 2.71875-7.589844 4.570313-11.050781 1.378906-2.578125.71875-5.738281-1.5625-7.570313-12.707031-10.238281-19.917969-26.179687-18.929687-42.75.179687-3.039062-1.878907-5.757812-4.867188-6.320312-14.960938-2.820313-30.390625-4.296875-46.160156-4.308594-87.53125-.039062-164.792969 45.628906-209.121094 114.359375-4.332031 6.710937-8.339844 13.628906-12 20.761719-17.570312 34.027344-27.5 72.589844-27.5 113.378906 0 137.238281 111.261719 248.5 248.5 248.5 98.78125 0 183.859375-57.101562 223.9375-140.339844 1.742188-3.601562 3.390625-7.242187 4.953125-10.929687 12.378906-29.230469 19.328125-61.371094 19.597656-95.179688.179688-22.460937-2.621093-44.242187-8.019531-64.960937zm-332.789062 62.910156c0-30.371094 14.671874-57.320312 37.320312-74.140625 3.789062-2.808594 7.800781-5.339844 12-7.558594 12.839844-6.78125 27.46875-10.621093 43-10.621093 50.980469 0 92.320312 41.339843 92.320312 92.320312 0 46.53125-34.429687 85.019531-79.199218 91.390625-4.292969.609375-8.671875.929687-13.121094.929687-7.800781 0-15.371094-.972656-22.601562-2.789062-40.058594-10.082031-69.71875-46.351562-69.71875-89.53125zm0 0" fill="#ffc843"/><path d="m504.488281 258.050781c-.238281 30.078125-5.769531 58.839844-15.710937 85.410157-1.226563 3.289062-2.519532 6.546874-3.886719 9.769531-17-7.390625-28.890625-24.332031-28.890625-44.050781v-50.421876c0-8.417968-3.421875-16.039062-8.941406-21.558593-5.519532-5.519531-13.140625-8.941407-21.558594-8.941407-16.839844 0-30.5 13.660157-30.5 30.5v4.5625c0 25.128907-10.179688 47.878907-26.652344 64.347657-16.46875 16.472656-39.21875 26.652343-64.347656 26.652343-12.359375 0-24.140625-2.460937-34.878906-6.929687 44.769531-6.371094 79.199218-44.859375 79.199218-91.390625 0-50.980469-41.339843-92.320312-92.320312-92.320312-15.53125 0-30.160156 3.839843-43 10.621093v-19.699219c0-12.703124-5.152344-24.203124-13.46875-32.53125-8.332031-8.320312-19.832031-13.46875-32.53125-13.46875-25.410156 0-46 20.589844-46 46v17.910157c0 10.21875-4.140625 19.46875-10.839844 26.167969-6.699218 6.691406-15.941406 10.832031-26.160156 10.832031-20.429688 0-37-16.5625-37-37v-50.652344c3.769531-5.839844 7.769531-11.507813 12-17 45.53125-59.160156 117.03125-97.398437 197.121094-97.359375 15.769531.011719 31.199218 1.488281 46.160156 4.308594 2.988281.5625 5.046875 3.28125 4.867188 6.320312-.988282 16.570313 6.222656 32.511719 18.929687 42.75 2.28125 1.832032 2.941406 4.992188 1.5625 7.570313-1.851563 3.460937-3.390625 7.152343-4.570313 11.050781-9.859374 32.46875 8.46875 66.78125 40.9375 76.640625 6 1.820313 12.070313 2.667969 18.03125 2.648437 2.589844-.007812 4.890626 1.640626 5.691407 4.101563 6 18.449219 20.609375 33.769531 40.597656 39.839844 21.0625 6.398437 42.902344.917969 58.339844-12.570313 3.382812-2.949218 8.660156-1.410156 9.800781 2.929688 5.398438 20.71875 8.199219 42.5 8.019531 64.960937zm0 0" fill="#fff"/><path d="m504.488281 258.050781c-.238281 30.078125-5.769531 58.839844-15.710937 85.410157-3.296875-2.871094-6.558594-5.671876-9.738282-8.320313-6.929687-6.671875-11.039062-15.980469-11.039062-25.960937v-50.421876c0-11.339843-4.421875-22.007812-12.449219-30.046874-8.042969-8.03125-18.710937-12.449219-30.050781-12.449219-23.429688 0-42.5 19.066406-42.5 42.496093v4.5625c0 21.109376-8.222656 40.949219-23.140625 55.859376-12.078125 12.089843-27.398437 19.78125-44.011719 22.261718 6.832032-4.792968 13.113282-10.410156 18.691406-16.78125 16.628907-19.011718 25.78125-43.390625 25.78125-68.660156 0-57.519531-46.800781-104.320312-104.320312-104.320312-10.519531 0-21 1.609374-31 4.710937v-1.789063c0-15.480468-6.03125-30.050781-16.980469-41.011718-10.96875-10.960938-25.539062-16.988282-41.019531-16.988282-31.980469 0-58 26.019532-58 58v17.910157c0 6.679687-2.601562 12.957031-7.332031 17.6875-4.71875 4.710937-11 7.3125-17.667969 7.3125-13.789062 0-25-11.222657-25-25v-67.652344c45.53125-59.160156 117.03125-97.398437 197.121094-97.359375 15.769531.011719 31.199218 1.488281 46.160156 4.308594 2.988281.5625 5.046875 3.28125 4.867188 6.320312-.988282 16.570313 6.222656 32.511719 18.929687 42.75 2.28125 1.832032 2.941406 4.992188 1.5625 7.570313-1.851563 3.460937-3.390625 7.152343-4.570313 11.050781-9.859374 32.46875 8.46875 66.78125 40.9375 76.640625 6 1.820313 12.070313 2.667969 18.03125 2.648437 2.589844-.007812 4.890626 1.640626 5.691407 4.101563 6 18.449219 20.609375 33.769531 40.597656 39.839844 21.0625 6.398437 42.902344.917969 58.339844-12.570313 3.382812-2.949218 8.660156-1.410156 9.800781 2.929688 5.398438 20.71875 8.199219 42.5 8.019531 64.960937zm0 0" fill="#fff"/><path d="m335.828125 196.070312c-2.488281-3.308593-7.191406-3.976562-10.503906-1.488281-3.3125 2.492188-3.976563 7.191407-1.484375 10.503907 11.109375 14.773437 16.980468 32.378906 16.980468 50.914062 0 46.769531-38.050781 84.820312-84.820312 84.820312s-84.820312-38.050781-84.820312-84.820312 38.050781-84.820312 84.820312-84.820312c15.703125 0 31.039062 4.328124 44.351562 12.515624 3.527344 2.167969 8.148438 1.070313 10.320313-2.460937 2.167969-3.527344 1.066406-8.144531-2.460937-10.316406-15.679688-9.640625-33.734376-14.734375-52.210938-14.734375-12.5 0-24.464844 2.3125-35.5 6.527344l-14.96875 7.199218c-29.503906 17.363282-49.351562 49.449219-49.351562 86.089844 0 55.039062 44.777343 99.820312 99.820312 99.820312 4.796875 0 9.515625-.347656 14.136719-1.007812l27.753906-8.222656c34.171875-15.863282 57.929687-50.5 57.929687-90.589844 0-21.8125-6.914062-42.535156-19.992187-59.929688zm0 0" fill="#474d54"/><path d="m418.363281 190.171875c-11.117187-6.679687-19.464843-17.191406-23.5-29.601563-1.804687-5.558593-6.945312-9.285156-12.800781-9.285156-.070312.003906-.152344 0-.230469 0-5.300781 0-10.566406-.78125-15.644531-2.320312-28.460938-8.644532-44.585938-38.828125-35.941406-67.292969 1.011718-3.335937 2.359375-6.597656 4.011718-9.691406 3.054688-5.738281 1.597657-12.863281-3.472656-16.945313-10.953125-8.824218-16.988281-22.453125-16.148437-36.449218.410156-6.8125-4.304688-12.894532-10.96875-14.148438-15.566407-2.9375-31.558594-4.4296875-47.542969-4.4375h-.125c-68.144531 0-132.359375 26.671875-180.8125 75.097656-48.484375 48.464844-75.1875 112.707032-75.1875 180.902344 0 29.769531 5.070312 58.941406 15.070312 86.707031 9.660157 26.824219 23.683594 51.722657 41.679688 74.007813 1.480469 1.835937 3.652344 2.789062 5.839844 2.789062 1.652344 0 3.320312-.546875 4.707031-1.667968 3.222656-2.601563 3.726563-7.324219 1.121094-10.546876-34.445313-42.652343-53.417969-96.382812-53.417969-151.289062 0-37.242188 8.480469-73.222656 24.5-105.792969l14.960938-26.117187c9.011718-13.664063 19.472656-26.527344 31.332031-38.382813 45.621093-45.597656 106.0625-70.707031 170.207031-70.707031h.117188c14.613281.007812 29.238281 1.332031 43.484374 3.9375-.691406 18.007812 7.035157 35.425781 20.871094 47.035156-1.863281 3.644532-3.402344 7.457032-4.582031 11.347656-11.042969 36.371094 9.566406 74.949219 45.941406 85.996094 6.214844 1.886719 12.640625 2.882813 19.125 2.964844 5.28125 15.382812 15.789063 28.40625 29.6875 36.75 3.546875 2.128906 8.15625.980469 10.289063-2.570312 2.132812-3.550782.984375-8.15625-2.570313-10.289063zm0 0" fill="#474d54"/><path d="m503.722656 191.191406c-1.1875-4.539062-4.566406-8.074218-9.046875-9.453125-4.523437-1.390625-9.363281-.355469-12.941406 2.773438-9.449219 8.261719-21.535156 13.007812-34.027344 13.359375-4.140625.117187-7.402343 3.570312-7.285156 7.710937s3.535156 7.386719 7.710937 7.285157c15.183594-.429688 29.890626-5.929688 41.675782-15.542969 4.933594 19.722656 7.347656 40.117187 7.183594 60.664062-.238282 29.714844-5.933594 58.171875-16.101563 84.4375l-5.941406 14.046875c-38.273438 82.800782-122.226563 140.527344-218.949219 140.527344-61.4375 0-119.957031-23.140625-164.777344-65.15625-3.023437-2.832031-7.769531-2.679688-10.601562.34375-2.832032 3.019531-2.679688 7.765625.34375 10.601562 47.609375 44.632813 109.773437 69.210938 175.035156 69.210938 68.179688 0 132.261719-26.3125 180.433594-74.082031 48.175781-47.777344 75.007812-111.632813 75.558594-179.808594.183593-22.679687-2.601563-45.195313-8.269532-66.917969zm0 0" fill="#474d54"/><g fill="#f7a500"><path d="m159.191406 383.375h.035156c4.125 0 7.480469-3.332031 7.5-7.464844.019532-4.140625-3.324218-7.515625-7.464843-7.535156h-.105469c-.011719 0-.023438 0-.035156 0-4.125 0-7.480469 3.335938-7.5 7.464844-.019532 4.144531 3.324218 7.515625 7.464844 7.535156zm0 0"/><path d="m203.015625 381.511719h.035156c4.125 0 7.480469-3.335938 7.5-7.464844.019531-4.140625-3.320312-7.515625-7.464843-7.535156h-.101563c-.015625 0-.027344 0-.039063 0-4.125 0-7.476562 3.332031-7.496093 7.464843-.023438 4.140626 3.320312 7.515626 7.464843 7.535157zm0 0"/><path d="m385.070312 400.5h.035157c4.125 0 7.480469-3.335938 7.5-7.464844.019531-4.140625-3.324219-7.515625-7.464844-7.535156h-.105469c-.011718 0-.023437 0-.035156 0-4.125 0-7.480469 3.335938-7.5 7.464844-.019531 4.140625 3.324219 7.515625 7.464844 7.535156zm0 0"/><path d="m281.765625 467.59375h.035156c4.125 0 7.480469-3.332031 7.5-7.464844.019531-4.140625-3.324219-7.515625-7.464843-7.535156h-.105469c-.011719 0-.023438 0-.035157 0-4.125 0-7.480468 3.335938-7.5 7.464844-.019531 4.144531 3.324219 7.519531 7.464844 7.535156zm0 0"/><path d="m125 250.492188c4.140625 0 7.5-3.359376 7.5-7.5 0-4.140626-3.359375-7.5-7.5-7.5h-.105469c-4.140625 0-7.5 3.359374-7.5 7.5 0 4.140624 3.359375 7.5 7.5 7.5zm0 0"/></g></svg>