<svg id="Capa_1" enable-background="new 0 0 512 512" height="512" viewBox="0 0 512 512" width="512" xmlns="http://www.w3.org/2000/svg"><path d="m256 0-20.016 53 20.016 48.596c72.986 0 132.153 59.167 132.153 132.154 0 24.23-6.531 46.931-17.914 66.456l20.761 62.794 74.385-7.446c19.154-34.408 30.073-74.002 30.073-116.097-.001-132.037-107.421-239.457-239.458-239.457z" fill="#ffc477"/><path d="m256 0c-132.037 0-239.457 107.42-239.457 239.457 0 42.096 10.919 81.689 30.073 116.097l79.717 7.446 15.427-62.794c-11.383-19.525-17.914-42.226-17.914-66.456 0-72.986 59.167-132.154 132.153-132.154z" fill="#ffe89c"/><path d="m416.001 238.752c0-18.091 11.034-37.73 5.713-54.068-5.508-16.915-26.179-26.251-36.443-40.342-10.363-14.225-12.942-36.729-27.167-47.091-14.091-10.265-36.241-5.848-53.156-11.356-16.125-5.251-31.166-21.66-48.947-22.088l-20.016 37.79 20.015 40.158c53.165.381 96.301 43.743 96.301 96.997 0 16.099-3.942 31.294-10.911 44.671v47.577l59.331-13.063c8.773-7.419 17.66-14.881 20.993-25.117 5.32-16.339-5.713-35.977-5.713-54.068z" fill="#ff8596"/><path d="m255.295 63.785c-18.091 0-33.314 16.788-49.653 22.108-16.914 5.508-39.064 1.091-53.155 11.356-14.225 10.363-16.805 32.866-27.167 47.091-10.265 14.091-30.936 23.428-36.444 40.343-5.32 16.338 5.713 35.978 5.713 54.068 0 18.091-11.034 37.73-5.713 54.069 3.406 10.46 12.611 18.022 21.568 25.603l59.084 12.577v-46.952c-7.174-13.528-11.239-28.947-11.239-45.296 0-53.489 43.517-97.006 97.006-97.006.236 0 .47.007.705.009v-77.949c-.235-.006-.469-.021-.705-.021z" fill="#ffa7b3"/><path d="m494.047 372.228-238.047-138.478-20.016 147.921 20.016 130.329c102.314 0 191.443-56.387 238.047-139.772z" fill="#f7ecd9"/><path d="m256 233.75-238.047 138.478c46.604 83.385 135.733 139.772 238.047 139.772z" fill="#fff5f5"/></svg>