<svg id="Capa_1" enable-background="new 0 0 512 512" height="512" viewBox="0 0 512 512" width="512" xmlns="http://www.w3.org/2000/svg"><path d="m512 256c0-141.385-114.615-256-256-256l-20.016 62 20.016 62.913c72.282 0 131.087 58.805 131.087 131.087s-58.805 131.087-131.087 131.087l-20.016 61.913 20.016 63c141.385 0 256-114.615 256-256z" fill="#ffc477"/><ellipse cx="256" cy="256" fill="none" rx="131.087" ry="131.087" stroke="#000" stroke-miterlimit="10" stroke-width="30" transform="matrix(1 -.024 .024 1 -6.018 6.163)"/><path d="m256 387.087c-72.282 0-131.088-58.805-131.088-131.087s58.806-131.087 131.088-131.087v-124.913c-141.385 0-256 114.615-256 256s114.615 256 256 256z" fill="#ffe89c"/><path d="m423.495 201.576c-6.006-18.499-2.024-42.26-13.231-57.658-11.318-15.552-35.223-19.055-50.775-30.373-15.398-11.206-26.056-32.923-44.555-38.93-17.849-5.795-39.153 5.32-58.934 5.32l-20.016 44.979 20.016 34.688c53.155 0 96.398 43.244 96.398 96.398s-43.243 96.398-96.398 96.398l-20.016 34.689 20.016 44.979c19.781 0 41.085 11.115 58.935 5.32 18.499-6.007 29.157-27.723 44.555-38.929 15.552-11.318 39.457-14.821 50.775-30.373 11.206-15.398 7.224-39.16 13.231-57.659 5.795-17.849 23.175-34.643 23.175-54.424-.001-19.782-17.38-36.576-23.176-54.425z" fill="#ff8596"/><path d="m256 352.398c-53.155 0-96.398-43.244-96.398-96.398s43.244-96.398 96.398-96.398v-79.668c-19.781 0-41.085-11.115-58.935-5.32-18.499 6.007-29.157 27.723-44.555 38.929-15.552 11.318-39.457 14.821-50.775 30.373-11.206 15.398-7.224 39.16-13.231 57.659-5.795 17.85-23.174 34.644-23.174 54.425s17.38 36.575 23.175 54.424c6.006 18.499 2.025 42.26 13.231 57.658 11.318 15.552 35.223 19.055 50.775 30.373 15.398 11.206 26.056 32.923 44.555 38.93 17.849 5.795 39.153-5.32 58.934-5.32z" fill="#ffa7b3"/></svg>