<svg id="Capa_1" enable-background="new 0 0 512 512" height="512" viewBox="0 0 512 512" width="512" xmlns="http://www.w3.org/2000/svg"><path d="m256 7.5c-137.243 0-248.5 111.257-248.5 248.5s111.257 248.5 248.5 248.5 248.5-111.257 248.5-248.5-111.257-248.5-248.5-248.5zm0 334.01c-47.226 0-85.51-38.284-85.51-85.51s38.284-85.51 85.51-85.51 85.51 38.284 85.51 85.51-38.284 85.51-85.51 85.51z" fill="#d2896f"/><path d="m473.951 375.445c-86.323 12.547-158.576-2.413-212.978-34.09-1.647.095-3.303.155-4.973.155-47.226 0-85.51-38.284-85.51-85.51 0-2.814.145-5.595.411-8.339-35.912-70.254-31.877-157.312 22.257-232.137-106.814 27.835-185.658 124.945-185.658 240.476 0 137.243 111.257 248.5 248.5 248.5 93.947 0 175.708-52.139 217.951-129.055z" fill="#b36d3a"/><path d="m459.209 298.896-10.957-18.729c-8.733-14.927-8.733-33.405 0-48.332l10.957-18.729c16.005-27.358 1.475-62.436-29.187-70.463l-20.992-5.496c-16.73-4.38-29.796-17.446-34.176-34.176l-5.496-20.992c-8.027-30.662-43.105-45.192-70.463-29.187l-18.729 10.957c-14.927 8.733-33.405 8.733-48.332 0l-18.729-10.957c-27.358-16.005-62.436-1.475-70.463 29.187l-5.496 20.992c-4.38 16.73-17.446 29.796-34.176 34.176l-20.992 5.496c-30.662 8.027-45.192 43.105-29.187 70.463l10.957 18.729c8.733 14.927 8.733 33.405 0 48.332l-10.957 18.729c-16.005 27.358-1.475 62.436 29.187 70.463l20.992 5.496c16.73 4.38 29.796 17.446 34.176 34.176l5.496 20.992c8.027 30.662 43.105 45.192 70.463 29.187l18.729-10.957c14.927-8.733 33.405-8.733 48.332 0l18.729 10.957c27.358 16.005 62.436 1.475 70.463-29.187l5.496-20.992c4.38-16.73 17.446-29.796 34.176-34.176l20.992-5.496c30.663-8.028 45.192-43.106 29.187-70.463zm-203.209 42.614c-47.226 0-85.51-38.284-85.51-85.51s38.284-85.51 85.51-85.51 85.51 38.284 85.51 85.51-38.284 85.51-85.51 85.51z" fill="#fcf2d0"/><path d="m52.791 298.896c-16.005 27.358-1.475 62.436 29.187 70.463l20.992 5.496c16.73 4.38 29.796 17.446 34.176 34.176l5.496 20.992c8.027 30.662 43.105 45.192 70.463 29.187l18.729-10.957c14.927-8.733 33.405-8.733 48.332 0l18.729 10.957c27.358 16.005 62.436 1.475 70.463-29.187l5.496-20.992c3.321-12.684 11.64-23.251 22.757-29.535-53.196-2.426-99.154-16.315-136.638-38.141-1.647.095-3.303.155-4.973.155-47.226 0-85.51-38.284-85.51-85.51 0-2.814.145-5.595.411-8.339-30.643-59.948-32.198-132.129 1.636-198.508-14.055 5.137-25.69 16.761-29.895 32.825l-5.496 20.992c-4.38 16.73-17.446 29.796-34.176 34.176l-20.992 5.496c-30.662 8.027-45.192 43.105-29.187 70.463l10.957 18.729c8.733 14.927 8.733 33.405 0 48.332z" fill="#f6e3a3"/><path d="m355.369 168.103c-4.002 0-8.005-1.527-11.058-4.581-6.108-6.107-6.108-16.009 0-22.117l27.22-27.22c6.107-6.108 16.01-6.108 22.116 0 6.108 6.107 6.108 16.009 0 22.117l-27.22 27.22c-3.053 3.054-7.055 4.581-11.058 4.581z" fill="#a3defe"/><path d="m220.719 95.715c-4.002 0-8.005-1.527-11.058-4.581-6.108-6.107-6.108-16.009 0-22.117l27.22-27.219c6.107-6.108 16.01-6.108 22.116 0 6.108 6.107 6.108 16.009 0 22.116l-27.22 27.22c-3.053 3.054-7.056 4.581-11.058 4.581z" fill="#de5c6e"/><path d="m221.449 414.032h-38.494c-8.637 0-15.639-7.002-15.639-15.639s7.001-15.639 15.639-15.639h38.494c8.638 0 15.639 7.002 15.639 15.639-.001 8.637-7.002 15.639-15.639 15.639z" fill="#7acefa"/><path d="m352.647 399.224c-4.002 0-8.005-1.527-11.058-4.581l-27.22-27.22c-6.108-6.107-6.108-16.009 0-22.116 6.107-6.108 16.01-6.108 22.116 0l27.22 27.22c6.108 6.107 6.108 16.009 0 22.116-3.053 3.054-7.055 4.581-11.058 4.581z" fill="#e8899e"/><path d="m97.455 303.565c-4.002 0-8.005-1.527-11.058-4.581-6.108-6.107-6.108-16.009 0-22.116l27.22-27.22c6.107-6.108 16.01-6.108 22.116 0 6.108 6.107 6.108 16.009 0 22.116l-27.219 27.22c-3.054 3.054-7.056 4.581-11.059 4.581z" fill="#5ec783"/><path d="m442.445 276.345h-38.495c-8.638 0-15.639-7.002-15.639-15.639s7.001-15.639 15.639-15.639h38.495c8.638 0 15.639 7.002 15.639 15.639 0 8.638-7.001 15.639-15.639 15.639z" fill="#89d47f"/><path d="m127.936 156.396c-4.002 0-8.005-1.527-11.058-4.581l-27.22-27.22c-6.108-6.107-6.108-16.009 0-22.117 6.107-6.108 16.01-6.108 22.117 0l27.22 27.22c6.108 6.107 6.108 16.009 0 22.116-3.054 3.056-7.056 4.582-11.059 4.582z" fill="#a3defe"/><path d="m35.234 352.818c-13.426-30.57-20.234-63.144-20.234-96.818 0-64.374 25.068-124.894 70.587-170.413s106.039-70.587 170.413-70.587c41.31 0 82.064 10.626 117.853 30.731 3.607 2.027 8.183.746 10.212-2.866 2.028-3.611.745-8.184-2.866-10.212-38.028-21.362-81.321-32.653-125.199-32.653-68.38 0-132.668 26.629-181.02 74.98-48.351 48.352-74.98 112.64-74.98 181.02 0 35.763 7.234 70.367 21.501 102.85 13.779 31.375 33.429 59.287 58.401 82.961 1.451 1.375 3.307 2.057 5.159 2.057 1.986 0 3.969-.785 5.443-2.34 2.851-3.006 2.724-7.753-.282-10.603-23.515-22.292-42.015-48.572-54.988-78.107zm449.634-211.635c-17.165-34.151-42.279-64.578-72.628-87.991-3.276-2.529-7.988-1.923-10.52 1.356-2.53 3.28-1.923 7.99 1.357 10.52 28.579 22.049 52.227 50.698 68.388 82.852 16.944 33.708 25.535 70.072 25.535 108.08 0 64.374-25.068 124.894-70.587 170.413s-106.039 70.587-170.413 70.587c-50.181 0-98.275-15.27-139.084-44.159-3.38-2.395-8.063-1.591-10.454 1.788-2.394 3.381-1.593 8.061 1.788 10.455 43.356 30.693 94.447 46.916 147.75 46.916 68.38 0 132.668-26.629 181.02-74.98 48.351-48.352 74.98-112.64 74.98-181.02 0-40.369-9.128-78.999-27.132-114.817zm-337.054 119.524c0-6.181-2.407-11.991-6.777-16.361-4.37-4.371-10.181-6.778-16.361-6.778-6.181 0-11.991 2.407-16.362 6.778l-27.219 27.219c-4.371 4.37-6.777 10.181-6.777 16.362 0 6.18 2.406 11.991 6.776 16.361 4.371 4.371 10.182 6.777 16.362 6.777 6.181 0 11.991-2.407 16.362-6.777l27.218-27.219c4.37-4.371 6.778-10.181 6.778-16.362zm-17.385 5.754-27.219 27.22c-1.537 1.537-3.581 2.384-5.755 2.384s-4.218-.847-5.755-2.384c-1.538-1.537-2.384-3.581-2.384-5.755s.846-4.218 2.384-5.755l27.22-27.22c1.537-1.538 3.581-2.384 5.755-2.384s4.217.847 5.755 2.385c1.537 1.537 2.384 3.581 2.384 5.754 0 2.174-.847 4.218-2.385 5.755zm52.526 155.071h38.493c12.759 0 23.14-10.38 23.14-23.139s-10.381-23.139-23.14-23.139h-38.493c-12.759 0-23.139 10.38-23.139 23.139s10.38 23.139 23.139 23.139zm0-31.278h38.493c4.488 0 8.14 3.651 8.14 8.139s-3.651 8.139-8.14 8.139h-38.493c-4.487 0-8.139-3.651-8.139-8.139s3.652-8.139 8.139-8.139zm73.045-41.244c51.286 0 93.011-41.724 93.011-93.01s-41.725-93.01-93.011-93.01-93.011 41.724-93.011 93.01 41.725 93.01 93.011 93.01zm0-171.02c43.016 0 78.011 34.995 78.011 78.01s-34.995 78.01-78.011 78.01-78.011-34.995-78.011-78.01 34.995-78.01 78.011-78.01zm-126.11 232.94 5.495 20.992c4.427 16.905 16.225 30.436 32.37 37.123 6.881 2.85 14.08 4.263 21.246 4.262 9.648 0 19.236-2.562 27.891-7.625l18.729-10.956c12.57-7.354 28.188-7.354 40.758 0l18.729 10.956c15.082 8.823 32.99 10.05 49.137 3.363 16.146-6.687 27.943-20.218 32.37-37.124l5.494-20.991c3.689-14.089 14.733-25.132 28.821-28.821l20.991-5.496c16.905-4.426 30.436-16.224 37.124-32.368 6.686-16.145 5.461-34.055-3.363-49.138l-9.32-15.931c5.596-4.227 9.221-10.933 9.221-18.471 0-9.124-5.309-17.028-12.999-20.793.636-1.474 1.335-2.915 2.14-4.292l10.957-18.729c8.824-15.083 10.05-32.993 3.363-49.138-6.688-16.145-20.219-27.942-37.124-32.368l-20.991-5.496c-1.833-.48-3.633-1.096-5.39-1.837.112-.926.187-1.861.187-2.809 0-6.181-2.407-11.992-6.777-16.361-4.37-4.371-10.181-6.778-16.361-6.778-.061 0-.12.008-.18.009-.103-.349-.208-.698-.298-1.044l-5.495-20.992c-4.427-16.905-16.225-30.436-32.37-37.123-16.145-6.688-34.055-5.461-49.137 3.363l-18.729 10.956c-2.107 1.232-4.304 2.26-6.566 3.084.816-2.386 1.264-4.906 1.264-7.501 0-6.181-2.406-11.991-6.776-16.361-4.37-4.371-10.182-6.778-16.362-6.778-6.181 0-11.991 2.407-16.362 6.778l-11.617 11.617-3.068-1.795c-15.082-8.824-32.992-10.05-49.137-3.363s-27.943 20.218-32.37 37.124l-5.494 20.991c-.594 2.267-1.388 4.455-2.354 6.564l-10.457-10.457c-9.023-9.022-23.701-9.022-32.725 0-9.021 9.022-9.021 23.701 0 32.723l3.461 3.461-7.737 2.026c-16.905 4.426-30.437 16.224-37.124 32.368-6.687 16.145-5.461 34.055 3.363 49.138l10.957 18.729c7.354 12.57 7.354 28.188 0 40.758l-10.957 18.729c-8.824 15.083-10.05 32.993-3.363 49.138 6.688 16.145 20.219 27.942 37.124 32.368l20.991 5.496c14.087 3.688 25.131 14.732 28.82 28.82zm246.944-291.441c.84-.84 1.834-1.465 2.915-1.868.131-.041.261-.091.391-.14.782-.246 1.605-.376 2.448-.376 2.174 0 4.217.847 5.755 2.385 1.537 1.537 2.384 3.581 2.384 5.754 0 1.198-.266 2.352-.754 3.408-.047.095-.093.191-.136.287-.384.75-.882 1.447-1.495 2.06l-27.219 27.22c-1.537 1.537-3.581 2.384-5.755 2.384s-4.218-.847-5.755-2.384c-3.174-3.173-3.174-8.337 0-11.51zm-161.87-45.168 27.22-27.219c1.537-1.538 3.581-2.384 5.755-2.384s4.218.847 5.756 2.385c1.537 1.537 2.383 3.581 2.383 5.754 0 2.174-.846 4.218-2.384 5.755l-27.22 27.22c-1.537 1.537-3.581 2.384-5.755 2.384s-4.218-.847-5.755-2.384c-3.174-3.174-3.174-8.337 0-11.511zm-120.002 33.462c1.586-1.586 3.671-2.38 5.755-2.38s4.169.793 5.755 2.38l27.22 27.22c3.174 3.173 3.174 8.337 0 11.51-1.537 1.537-3.581 2.384-5.755 2.384s-4.218-.847-5.755-2.384l-27.22-27.22c-3.174-3.173-3.174-8.337 0-11.51zm-11.085 254.32c-12.324-3.226-22.188-11.828-27.064-23.598-4.875-11.77-3.981-24.827 2.452-35.823l10.957-18.729c10.087-17.243 10.087-38.665 0-55.907l-10.957-18.73c-6.433-10.996-7.327-24.053-2.452-35.823 4.876-11.77 14.74-20.371 27.064-23.598l16.226-4.248 11.471 11.471c4.371 4.371 10.182 6.777 16.362 6.777 6.181 0 11.991-2.407 16.362-6.777 9.021-9.022 9.021-23.701 0-32.723l-5.656-5.656c2.537-4.334 4.475-8.974 5.758-13.871l5.495-20.991c3.227-12.325 11.828-22.189 23.599-27.064 11.649-4.826 24.563-3.991 35.492 2.271l-4.631 4.631c-9.021 9.022-9.021 23.701 0 32.723 4.371 4.371 10.182 6.777 16.362 6.777 6.181 0 11.991-2.407 16.362-6.777l18.651-18.651c9.925.057 19.611-2.527 28.221-7.565l18.729-10.957c10.997-6.434 24.055-7.327 35.822-2.452 11.77 4.875 20.372 14.74 23.599 27.064l5.495 20.991c.195.743.41 1.489.643 2.238-.698.554-1.376 1.137-2.015 1.777l-27.22 27.219c-9.021 9.022-9.021 23.701 0 32.723 4.371 4.371 10.182 6.777 16.362 6.777 6.181 0 11.991-2.407 16.362-6.777l27.218-27.219c.015-.015.028-.033.044-.048 2.643 1.159 5.361 2.116 8.139 2.843l20.991 5.496c12.324 3.227 22.189 11.828 27.065 23.598 4.875 11.77 3.981 24.827-2.452 35.823l-10.957 18.73c-1.763 3.013-3.232 6.2-4.396 9.521h-33.43c-12.759 0-23.139 10.38-23.139 23.139s10.38 23.139 23.139 23.139h37.767c.02.035.041.073.061.108l10.957 18.729c6.434 10.996 7.327 24.053 2.452 35.823-4.876 11.77-14.74 20.371-27.065 23.598l-20.991 5.496c-13.789 3.61-25.449 12.36-32.838 24.096 3.069-8.231 1.322-17.865-5.284-24.472l-27.22-27.219c-4.371-4.371-10.182-6.778-16.362-6.778-6.181 0-11.992 2.407-16.361 6.777-4.371 4.371-6.777 10.181-6.777 16.362 0 6.18 2.406 11.991 6.776 16.361l27.22 27.22c4.371 4.371 10.182 6.777 16.362 6.777 6.181 0 11.991-2.407 16.362-6.777.782-.782 1.471-1.619 2.117-2.479-1.458 3.076-2.649 6.305-3.529 9.663l-5.495 20.991c-3.226 12.325-11.828 22.189-23.599 27.064-11.767 4.874-24.825 3.982-35.822-2.452l-18.729-10.957c-17.242-10.087-38.664-10.087-55.906 0l-18.73 10.957c-10.998 6.434-24.054 7.326-35.822 2.452-11.771-4.875-20.372-14.74-23.599-27.064l-5.495-20.992c-5.061-19.325-20.209-34.472-39.533-39.532zm366.707-101.396c0 3.792-2.611 6.978-6.127 7.877-.089.02-.178.046-.268.069-.563.123-1.145.193-1.744.193h-38.495c-4.487 0-8.139-3.651-8.139-8.139s3.651-8.139 8.139-8.139h38.495c.133 0 .263.014.395.02.051.001.103.009.154.009.003 0 .005-.001.007-.001 4.228.288 7.583 3.81 7.583 8.111zm-92.182 128.633c-1.537 1.537-3.581 2.384-5.755 2.384s-4.218-.847-5.755-2.384l-27.22-27.22c-1.538-1.537-2.384-3.581-2.384-5.755s.846-4.218 2.384-5.755c1.537-1.538 3.581-2.384 5.755-2.384s4.218.847 5.755 2.384l27.22 27.219c3.174 3.174 3.174 8.338 0 11.511z"/></svg>