<svg viewBox="0 0 511.99942 511" xmlns="http://www.w3.org/2000/svg"><path d="m409.664062 102.816406c-107.828124-107.832031-264.042968-126.445312-348.910156-41.578125-84.863281 84.863281-66.25 241.078125 41.582032 348.90625 107.832031 107.832031 264.042968 126.449219 348.910156 41.582031 84.867187-84.867187 66.25-241.078124-41.582032-348.910156zm-179.371093 179.371094c-39.246094-39.246094-50.371094-91.753906-24.84375-117.28125 25.523437-25.523438 78.035156-14.402344 117.28125 24.847656 39.246093 39.246094 50.367187 91.753906 24.84375 117.28125-25.527344 25.523438-78.035157 14.398438-117.28125-24.847656zm0 0" fill="#ffdaaa"/><path d="m60.753906 61.238281c-74.914062 74.914063-69.183594 205.4375 7.363282 309.1875 14.429687-13.5 37.171874-17.558593 56.140624-5.609375 23.226563 14.628906 43.976563 17.953125 43.976563 17.953125l83.039063-83.039062c-7.242188-5.003907-14.304688-10.867188-20.980469-17.542969-39.246094-39.246094-50.367188-91.753906-24.84375-117.277344 25.527343-25.527344 78.035156-14.402344 117.28125 24.84375 6.675781 6.675782 12.535156 13.734375 17.542969 20.980469l87.917968-87.917969c-5.847656-6.824218-12.023437-13.5-18.523437-20-107.835938-107.832031-264.046875-126.445312-348.914063-41.578125zm0 0" fill="#ffc477"/><path d="m409.664062 102.816406c-107.730468-107.726562-263.746093-126.414062-348.667968-41.820312.664062 7.007812.765625 15.085937-.109375 24.667968-2.652344 29.121094-30.746094 65.519532-21.566407 102.660157 7.273438 29.445312 46.699219 49.457031 66.304688 81.574219 15.851562 25.972656 13.292969 70.703124 39.773438 97.183593 26.484374 26.480469 71.210937 23.921875 97.183593 39.773438 32.113281 19.605469 52.125 59.03125 81.570313 66.304687 37.136718 9.175782 73.535156-18.914062 102.65625-21.566406 9.582031-.871094 17.667968-.773438 24.679687-.109375 84.589844-84.921875 65.90625-240.9375-41.824219-348.667969zm-179.371093 179.371094c-39.246094-39.246094-50.371094-91.753906-24.84375-117.28125 25.523437-25.523438 78.03125-14.402344 117.28125 24.84375 39.246093 39.25 50.367187 91.757812 24.84375 117.28125-25.527344 25.527344-78.035157 14.402344-117.28125-24.84375zm0 0" fill="#ff94de"/><path d="m128.890625 207.609375c-31.226563-74.550781 75.140625-157.582031 127.285156-192.597656-73.441406-17.261719-146.15625-2.847657-195.179687 45.984375.664062 7.007812.765625 15.085937-.109375 24.667968-2.652344 29.121094-30.746094 65.519532-21.570313 102.660157 7.277344 29.445312 46.703125 49.457031 66.308594 81.574219 15.851562 25.972656 13.292969 70.703124 39.773438 97.183593 20.5 20.5 77.132812 31.300781 77.132812 31.300781-69.066406-50.234374-49.136719-84.515624-93.640625-190.773437zm0 0" fill="#ff71da"/><path d="m408.871094 401.59375c0 14.367188-11.648438 26.011719-26.011719 26.011719s-26.011719-11.644531-26.011719-26.011719c0-14.363281 11.648438-26.007812 26.011719-26.007812s26.011719 11.644531 26.011719 26.007812zm0 0" fill="#ffeb99"/><path d="m460.496094 261.964844c0 14.367187-11.644532 26.011718-26.007813 26.011718-14.367187 0-26.011719-11.644531-26.011719-26.011718 0-14.363282 11.644532-26.007813 26.011719-26.007813 14.363281 0 26.007813 11.644531 26.007813 26.007813zm0 0" fill="#9ff6ff"/><path d="m168.503906 115.511719c0 14.367187-11.644531 26.011719-26.011718 26.011719-14.363282 0-26.007813-11.644532-26.007813-26.011719 0-14.363281 11.644531-26.007813 26.007813-26.007813 14.367187 0 26.011718 11.644532 26.011718 26.007813zm0 0" fill="#9ff6ff"/><path d="m216.351562 322.140625c0 14.363281-11.644531 26.007813-26.011718 26.007813-14.363282 0-26.007813-11.644532-26.007813-26.007813 0-14.367187 11.644531-26.011719 26.007813-26.011719 14.367187 0 26.011718 11.644532 26.011718 26.011719zm0 0" fill="#b1ef97"/><path d="m331.234375 108.019531c0 14.363281-11.644531 26.011719-26.007813 26.011719-14.367187 0-26.011718-11.648438-26.011718-26.011719s11.644531-26.011719 26.011718-26.011719c14.363282 0 26.007813 11.648438 26.007813 26.011719zm0 0" fill="#ffeb99"/><path d="m381.234375 220.8125c-38.34375-62.820312-97.316406-70.925781-132.507813-69.320312 23.882813 2.117187 51.171876 15.429687 74.003907 38.261718 39.246093 39.246094 50.371093 91.753906 24.84375 117.28125-21.183594 21.183594-60.949219 17.125-96.300781-7.304687 84.0625 74.789062 195.597656 28.617187 129.960937-78.917969zm0 0" fill="#ff71da"/><path d="m510.164062 284.996094c-8.054687-67.5625-41.859374-134.144532-95.195312-187.480469-31.980469-31.980469-69.898438-57.6875-109.652344-74.34375-3.820312-1.601563-8.214844.199219-9.8125 4.019531-1.601562 3.820313.199219 8.214844 4.019532 9.8125 37.972656 15.910156 74.226562 40.5 104.839843 71.113282 103.601563 103.601562 122.957031 253.210937 44.183594 335.617187-7.082031-.460937-14.453125-.332031-22.421875.394531-11.988281 1.089844-24.433594 5.867188-37.613281 10.921875-20.492188 7.859375-41.679688 15.992188-62.5625 10.832031-5.089844-1.257812-10.238281-3.792968-15.746094-7.75-3.363281-2.414062-8.136719-1.710937-10.464844 1.714844-3.886719 5.71875 1.375 10.222656 1.714844 10.464844 7.085937 5.09375 13.921875 8.40625 20.898437 10.128906 25.457032 6.289063 49.894532-3.214844 71.535157-11.386718 23.441406-8.851563 36.746093-10.246094 38.28125-10.335938-84.203125 67.242188-225.417969 45.238281-324.527344-53.875-99.113281-99.109375-121.121094-240.324219-53.875-324.53125-.089844 1.535156-1.285156 18.421875-10.335937 38.273438-9.597657 21.050781-17.679688 46.082031-11.390626 71.535156 4.628907 18.730468 19.75 33.09375 35.761719 48.304687 11.496094 10.917969 23.386719 22.214844 31.421875 35.378907 5.859375 9.597656 9.105469 22.65625 12.539063 36.476562 5.234375 21.066406 11.167969 44.9375 28.335937 62.105469 17.164063 17.164062 41.039063 23.097656 62.101563 28.332031 13.820312 3.433594 26.878906 6.679688 36.476562 12.539062 13.160157 8.035157 24.449219 19.921876 35.375 31.421876 0 0 7.191407 8.257812 12.742188 2.511718 5.550781-5.75-1.867188-12.84375-1.867188-12.84375-11.59375-12.203125-23.582031-24.824218-38.4375-33.890625-11.558593-7.058593-25.699219-10.570312-40.671875-14.292969-20.101562-4.996093-40.894531-10.164062-55.113281-24.382812-14.222656-14.222656-19.390625-35.011719-24.386719-55.117188-3.71875-14.96875-7.234375-29.109374-14.292968-40.671874-9.070313-14.859376-21.691407-26.847657-33.894532-38.441407-14.378906-13.660156-27.957031-26.554687-31.53125-41.027343-5.160156-20.882813 2.972656-42.070313 10.832032-62.566407 5.058593-13.175781 9.832031-25.621093 10.925781-37.613281.726562-7.960938.851562-15.335938.390625-22.425781 49.160156-46.964844 124.734375-60.792969 203.058594-36.929688 3.960937 1.207031 8.152343-1.027343 9.359374-4.984375 1.207032-3.964844-1.023437-8.152344-4.988281-9.363281-85.15625-25.945313-167.667969-9.761719-220.722656 43.292969-42.707031 42.703125-61.746094 103.800781-53.617187 172.03125 8.054687 67.566406 41.859374 134.148437 95.195312 187.484375 53.335938 53.335937 119.917969 87.144531 187.484375 95.195312 68.230469 8.128907 129.328125-10.910156 172.03125-53.617187 42.707031-42.703125 61.746094-103.800782 53.617187-172.03125zm0 0"/><path d="m328.03125 184.449219c-19.453125-20.523438-43.980469-33.753907-67.535156-38.742188-24.714844-5.238281-46.148438-.300781-60.351563 13.898438-14.199219 14.199219-19.136719 35.632812-13.898437 60.351562 4.988281 23.554688 18.675781 47.613281 38.742187 67.535157 17.589844 17.460937 85.449219 67.082031 127.886719 24.84375 42.441406-42.238282-1.636719-103.398438-24.84375-127.886719zm14.238281 117.28125c-10.488281 10.492187-27.050781 13.984375-46.636719 9.835937-20.75-4.398437-46.734374-18.859375-62.253906-36.96875-15.519531-18.109375-28.617187-39.59375-32.460937-57.75-4.148438-19.585937-.65625-36.148437 9.832031-46.636718 10.492188-10.488282 27.054688-13.984376 46.640625-9.835938 18.152344 3.847656 37.710937 12.605469 57.75 32.464844 20.039063 19.855468 32.570313 41.503906 36.964844 62.253906 4.148437 19.585938.65625 36.148438-9.835938 46.636719zm0 0"/><path d="m359.164062 377.902344c-13.0625 13.0625-13.0625 34.324218 0 47.386718 13.066407 13.066407 34.324219 13.066407 47.390626 0 13.0625-13.066406 13.0625-34.324218 0-47.386718-13.066407-13.066406-34.324219-13.066406-47.390626 0zm36.785157 36.78125c-7.21875 7.21875-18.960938 7.21875-26.179688 0-7.214843-7.214844-7.214843-18.960938 0-26.175782 7.21875-7.21875 18.960938-7.21875 26.179688 0 7.214843 7.214844 7.214843 18.957032 0 26.175782zm0 0"/><path d="m458.183594 285.660156c13.0625-13.0625 13.0625-34.324218 0-47.386718-13.066406-13.066407-34.324219-13.066407-47.390625 0-13.0625 13.0625-13.0625 34.324218 0 47.386718 13.066406 13.066406 34.324219 13.066406 47.390625 0zm-36.785156-36.785156c7.21875-7.214844 18.960937-7.214844 26.179687 0 7.214844 7.21875 7.214844 18.960938 0 26.179688-7.21875 7.21875-18.960937 7.21875-26.179687 0s-7.21875-18.960938 0-26.179688zm0 0"/><path d="m129.40625 128.601562c-.894531-.890624-6.882812-10.003906-12.769531-5.035156-7.429688 6.273438.558593 14.035156 2.160156 15.640625 13.066406 13.066407 34.324219 13.066407 47.390625 0 13.066406-13.066406 13.066406-34.324219 0-47.386719-13.066406-13.066406-34.324219-13.066406-47.390625 0-1.066406 1.066407-7.757813 8.671876-1.558594 13.917969 6.359375 5.375 11.570313-2.71875 12.167969-3.316406 7.214844-7.214844 18.957031-7.214844 26.175781.003906 7.21875 7.214844 7.21875 18.960938 0 26.175781-7.214843 7.21875-18.960937 7.21875-26.175781 0zm0 0"/><path d="m214.035156 345.835938c13.066406-13.066407 13.066406-34.324219 0-47.390626-13.066406-13.066406-34.324218-13.0625-47.390625 0-13.0625 13.066407-13.0625 34.324219 0 47.390626 13.066407 13.0625 34.324219 13.0625 47.390625 0zm-36.78125-36.785157c7.214844-7.214843 18.960938-7.214843 26.175782 0 7.21875 7.214844 7.21875 18.960938 0 26.175781-7.21875 7.21875-18.960938 7.21875-26.179688 0-7.214844-7.214843-7.214844-18.957031.003906-26.175781zm0 0"/><path d="m281.53125 84.324219c-13.066406 13.066406-13.066406 34.324219 0 47.390625 13.0625 13.0625 34.324219 13.0625 47.386719 0 13.066406-13.066406 13.066406-34.324219 0-47.390625-13.0625-13.0625-34.324219-13.0625-47.386719 0zm36.78125 36.785156c-7.214844 7.214844-18.960938 7.214844-26.175781 0-7.21875-7.21875-7.21875-18.960937 0-26.179687 7.214843-7.21875 18.960937-7.21875 26.175781 0 7.21875 7.21875 7.21875 18.960937 0 26.179687zm0 0"/></svg>