<svg id="Layer_1" enable-background="new 0 0 512 512" height="512" viewBox="0 0 512 512" width="512" xmlns="http://www.w3.org/2000/svg"><path d="m256 0c-141.159 0-256 114.841-256 256s114.841 256 256 256 256-114.841 256-256-114.841-256-256-256zm0 452c-108.075 0-196-87.925-196-196s87.925-196 196-196 196 87.925 196 196-87.925 196-196 196z" fill="#ffe898"/><path d="m512 256c0-141.122-114.782-255.939-255.891-255.999v60c108.025.06 195.891 87.961 195.891 195.999s-87.866 195.939-195.891 195.998v60c141.109-.059 255.891-114.876 255.891-255.998z" fill="#ffc878"/><path d="m256 114.523c-78.011 0-141.477 63.466-141.477 141.477s63.466 141.477 141.477 141.477 141.477-63.466 141.477-141.477-63.466-141.477-141.477-141.477zm.108 222.954c-44.926 0-81.476-36.55-81.476-81.477s36.55-81.477 81.476-81.477c44.927 0 81.478 36.55 81.478 81.477s-36.551 81.477-81.478 81.477z" fill="#ffc878"/><path d="m397.477 256c0-77.975-63.407-141.417-141.368-141.476v59.999c44.926 0 81.477 36.551 81.477 81.477s-36.55 81.477-81.477 81.477v59.999c77.961-.059 141.368-63.501 141.368-141.476z" fill="#ff965a"/><path d="m256 30c-124.617 0-226 101.383-226 226s101.383 226 226 226 226-101.383 226-226-101.383-226-226-226zm.108 337.477c-61.468 0-111.476-50.008-111.476-111.477s50.008-111.477 111.476-111.477c61.469 0 111.478 50.008 111.478 111.477s-50.009 111.477-111.478 111.477z" fill="#e682aa"/><path d="m482 256c0-124.58-101.324-225.939-225.891-225.998v114.521c61.468 0 111.477 50.009 111.477 111.477s-50.008 111.477-111.477 111.477v114.521c124.567-.059 225.891-101.418 225.891-225.998z" fill="#d94f88"/><g clip-rule="evenodd" fill-rule="evenodd"><ellipse cx="142.392" cy="142.392" fill="#d8f469" rx="15" ry="15" transform="matrix(.033 -.999 .999 .033 -4.66 279.966)"/><circle cx="369.608" cy="369.608" fill="#ff965a" r="15"/><circle cx="369.608" cy="142.392" fill="#ae0551" r="15"/><ellipse cx="142.392" cy="369.608" fill="#fff4f4" rx="15" ry="15" transform="matrix(.028 -1 1 .028 -231.025 501.69)"/></g><path d="m267.36 441.817h-22.721c-8.284 0-15-6.716-15-15s6.716-15 15-15h22.721c8.284 0 15 6.716 15 15s-6.715 15-15 15z" fill="#d20763"/><path d="m267.361 100.184h-22.722c-8.284 0-15-6.716-15-15s6.716-15 15-15h22.722c8.284 0 15 6.716 15 15s-6.716 15-15 15z" fill="#f6efea"/><path d="m70.184 267.361v-22.721c0-8.284 6.716-15 15-15s15 6.716 15 15v22.721c0 8.284-6.716 15-15 15s-15-6.716-15-15z" fill="#ffc878"/><path d="m411.816 267.361v-22.722c0-8.284 6.716-15 15-15s15 6.716 15 15v22.722c0 8.284-6.716 15-15 15s-15-6.716-15-15z" fill="#54e360"/><path d="m282.36 426.816c0-8.284-6.716-15-15-15h-11.251v30h11.251c8.285.001 15-6.715 15-15z" fill="#ae0551"/><path d="m282.361 85.184c0-8.284-6.716-15-15-15h-11.252v30h11.252c8.284 0 15-6.716 15-15z" fill="#eee1dc"/></svg>