<svg id="Layer_1" enable-background="new 0 0 58 58" height="512" viewBox="0 0 58 58" width="512" xmlns="http://www.w3.org/2000/svg"><path d="m51.419 45.722c-1.244-.908-2.519-1.722-4.419-1.722-1.716 0-2.683.614-3.536 1.156-.743.471-1.33.844-2.464.844-1.132 0-1.718-.373-2.458-.845-.181-.115-.36-.229-.549-.339-.836-.486-1.833-.487-2.669-.007-.829.477-1.324 1.333-1.324 2.291v2.9c0 .553-.219 1.067-.617 1.447-.401.383-.95.575-1.487.554-1.045-.058-1.896-1.027-1.896-2.161v-1.09c0-1.338-.865-2.53-2.104-2.898-.432-.128-.778-.331-1.209-.596-.954-.606-2.113-.642-3.101-.099-.979.537-1.586 1.565-1.586 2.683v.16c0 .593-.259 1.151-.71 1.533-.458.386-1.049.542-1.658.44-.438-.072-.852-.332-1.159-.722-.3-.392-.473-.906-.473-1.411 0-.947-.688-1.741-1.643-1.889-.748-.111-1.249-.429-1.829-.797-.851-.541-1.817-1.154-3.528-1.154-1.9 0-3.175.814-4.419 1.722-.221.161-.366.405-.402.676s.04.544.211.757c5.526 6.892 13.767 10.845 22.61 10.845s17.084-3.953 22.61-10.844c.171-.213.247-.487.211-.757-.036-.272-.181-.516-.402-.677z" fill="#ffb74f"/><path d="m54.116 14.5c-5.164-8.944-14.788-14.5-25.116-14.5s-19.952 5.556-25.116 14.5-5.164 20.056 0 28.999c.739 1.285 1.583 2.516 2.509 3.66.335.414.937.495 1.366.179 1.075-.783 1.936-1.338 3.241-1.338 1.13 0 1.716.372 2.457.842.663.421 1.414.898 2.544 1.078.017.923.33 1.825.893 2.559.624.793 1.481 1.315 2.41 1.468 1.178.198 2.376-.124 3.277-.886s1.419-1.878 1.419-3.061v-.16c0-.394.205-.742.549-.931.163-.089.594-.265 1.078.043.437.269.98.603 1.698.816.391.117.675.53.675.982v1.09c0 2.214 1.662 4.041 3.794 4.159.064.003.129.004.193.004 1.044 0 2.023-.39 2.777-1.11.798-.761 1.236-1.788 1.236-2.893v-2.9c0-.336.226-.502.322-.558.1-.057.363-.171.663.001.164.097.323.198.481.299.853.543 1.819 1.158 3.534 1.158 1.716 0 2.683-.614 3.536-1.156.743-.471 1.33-.844 2.464-.844 1.305 0 2.166.555 3.241 1.338.43.315 1.031.234 1.366-.179.926-1.144 1.77-2.375 2.509-3.659 5.164-8.944 5.164-20.056 0-29zm-12.99 21.5c-2.491 4.318-7.138 7-12.126 7s-9.635-2.682-12.126-7c-2.492-4.317-2.492-9.682 0-14 2.491-4.318 7.138-7 12.126-7s9.635 2.682 12.126 7c2.492 4.318 2.492 9.682 0 14z" fill="#ff3c62"/><g fill="#e0e0e0"><path d="m26.999 9c-.19 0-.383-.054-.554-.168l-3-2c-.46-.306-.584-.927-.277-1.387.305-.459.925-.585 1.387-.277l3 2c.46.306.584.927.277 1.387-.192.289-.51.445-.833.445z"/><path d="m31.001 9c-.323 0-.641-.156-.833-.445-.307-.459-.183-1.081.277-1.387l3-2c.46-.308 1.08-.182 1.387.277s.183 1.081-.277 1.387l-3 2c-.171.114-.364.168-.554.168z"/><path d="m20.001 14c-.323 0-.641-.156-.833-.445-.307-.459-.183-1.081.277-1.387l3-2c.46-.308 1.08-.183 1.387.277.307.459.183 1.081-.277 1.387l-3 2c-.171.114-.364.168-.554.168z"/><path d="m37.999 14c-.19 0-.383-.054-.554-.168l-3-2c-.46-.306-.584-.927-.277-1.387.306-.46.926-.585 1.387-.277l3 2c.46.306.584.927.277 1.387-.192.289-.51.445-.833.445z"/><path d="m46.999 16c-.19 0-.383-.054-.554-.168l-3-2c-.46-.306-.584-.927-.277-1.387.306-.46.926-.584 1.387-.277l3 2c.46.306.584.927.277 1.387-.192.289-.51.445-.833.445z"/><path d="m44.001 22c-.323 0-.641-.156-.833-.445-.307-.459-.183-1.081.277-1.387l3-2c.46-.308 1.08-.182 1.387.277s.183 1.081-.277 1.387l-3 2c-.171.114-.364.168-.554.168z"/><path d="m51.999 27c-.19 0-.383-.054-.554-.168l-3-2c-.46-.306-.584-.927-.277-1.387.306-.46.925-.585 1.387-.277l3 2c.46.306.584.927.277 1.387-.192.289-.51.445-.833.445z"/><path d="m11.001 16c-.323 0-.641-.156-.833-.445-.307-.459-.183-1.081.277-1.387l3-2c.46-.307 1.081-.183 1.387.277.307.459.183 1.081-.277 1.387l-3 2c-.171.114-.364.168-.554.168z"/><path d="m13.999 22c-.19 0-.383-.054-.554-.168l-3-2c-.46-.306-.584-.927-.277-1.387.305-.459.925-.585 1.387-.277l3 2c.46.306.584.927.277 1.387-.192.289-.51.445-.833.445z"/><path d="m6.001 27c-.323 0-.641-.156-.833-.445-.307-.459-.183-1.081.277-1.387l3-2c.46-.308 1.081-.183 1.387.277.307.459.183 1.081-.277 1.387l-3 2c-.171.114-.364.168-.554.168z"/></g><circle cx="47" cy="32" fill="#ffdba9" r="1"/><circle cx="45" cy="40" fill="#ffdba9" r="1"/><circle cx="11" cy="32" fill="#ffdba9" r="1"/><circle cx="50" cy="37" fill="#ffdba9" r="1"/><circle cx="13" cy="40" fill="#ffdba9" r="1"/><circle cx="8" cy="37" fill="#ffdba9" r="1"/></svg>