<svg id="Layer_1" enable-background="new 0 0 58 58" height="512" viewBox="0 0 58 58" width="512" xmlns="http://www.w3.org/2000/svg"><path d="m51.419 45.722c-1.244-.908-2.519-1.722-4.419-1.722-1.716 0-2.683.614-3.536 1.156-.743.471-1.33.844-2.464.844-1.132 0-1.718-.373-2.458-.845-.181-.115-.36-.229-.549-.339-.836-.486-1.833-.487-2.669-.007-.829.477-1.324 1.333-1.324 2.291v2.9c0 .553-.219 1.067-.617 1.447-.401.383-.95.575-1.487.554-1.045-.058-1.896-1.027-1.896-2.161v-1.09c0-1.338-.865-2.53-2.104-2.898-.432-.128-.778-.331-1.209-.596-.954-.606-2.113-.642-3.101-.099-.979.537-1.586 1.565-1.586 2.683v.16c0 .593-.259 1.151-.71 1.533-.458.386-1.049.542-1.658.44-.438-.072-.852-.332-1.159-.722-.3-.392-.473-.906-.473-1.411 0-.947-.688-1.741-1.643-1.889-.748-.111-1.249-.429-1.829-.797-.851-.541-1.817-1.154-3.528-1.154-1.9 0-3.175.814-4.419 1.722-.221.161-.366.405-.402.676s.04.544.211.757c5.526 6.892 13.767 10.845 22.61 10.845s17.084-3.953 22.61-10.844c.171-.213.247-.487.211-.757-.036-.272-.181-.516-.402-.677z" fill="#ffb74f"/><path d="m54.116 14.5c-5.164-8.944-14.788-14.5-25.116-14.5s-19.952 5.556-25.116 14.5-5.164 20.056 0 28.999c.739 1.285 1.583 2.516 2.509 3.66.335.414.937.495 1.366.179 1.075-.783 1.936-1.338 3.241-1.338 1.13 0 1.716.372 2.457.842.663.421 1.414.898 2.544 1.078.017.923.33 1.825.893 2.559.624.793 1.481 1.315 2.41 1.468 1.178.198 2.376-.124 3.277-.886s1.419-1.878 1.419-3.061v-.16c0-.394.205-.742.549-.931.163-.089.594-.265 1.078.043.437.269.98.603 1.698.816.391.117.675.53.675.982v1.09c0 2.214 1.662 4.041 3.794 4.159.064.003.129.004.193.004 1.044 0 2.023-.39 2.777-1.11.798-.761 1.236-1.788 1.236-2.893v-2.9c0-.336.226-.502.322-.558.1-.057.363-.171.663.001.164.097.323.198.481.299.853.543 1.819 1.158 3.534 1.158 1.716 0 2.683-.614 3.536-1.156.743-.471 1.33-.844 2.464-.844 1.305 0 2.166.555 3.241 1.338.43.315 1.031.234 1.366-.179.926-1.144 1.77-2.375 2.509-3.659 5.164-8.944 5.164-20.056 0-29zm-12.99 21.5c-2.491 4.318-7.138 7-12.126 7s-9.635-2.682-12.126-7c-2.492-4.317-2.492-9.682 0-14 2.491-4.318 7.138-7 12.126-7s9.635 2.682 12.126 7c2.492 4.318 2.492 9.682 0 14z" fill="#ff3c62"/><path d="m26.999 9c-.19 0-.383-.054-.554-.168l-3-2c-.46-.306-.584-.927-.277-1.387.305-.459.925-.585 1.387-.277l3 2c.46.306.584.927.277 1.387-.192.289-.51.445-.833.445z" fill="#e0e0e0"/><path d="m31.001 9c-.323 0-.641-.156-.833-.445-.307-.459-.183-1.081.277-1.387l3-2c.46-.308 1.08-.182 1.387.277s.183 1.081-.277 1.387l-3 2c-.171.114-.364.168-.554.168z" fill="#e0e0e0"/><path d="m20.001 14c-.323 0-.641-.156-.833-.445-.307-.459-.183-1.081.277-1.387l3-2c.46-.308 1.08-.183 1.387.277.307.459.183 1.081-.277 1.387l-3 2c-.171.114-.364.168-.554.168z" fill="#e0e0e0"/><path d="m37.999 14c-.19 0-.383-.054-.554-.168l-3-2c-.46-.306-.584-.927-.277-1.387.306-.46.926-.585 1.387-.277l3 2c.46.306.584.927.277 1.387-.192.289-.51.445-.833.445z" fill="#e0e0e0"/><path d="m46.999 16c-.19 0-.383-.054-.554-.168l-3-2c-.46-.306-.584-.927-.277-1.387.306-.46.926-.584 1.387-.277l3 2c.46.306.584.927.277 1.387-.192.289-.51.445-.833.445z" fill="#e0e0e0"/><path d="m44.001 22c-.323 0-.641-.156-.833-.445-.307-.459-.183-1.081.277-1.387l3-2c.46-.308 1.08-.182 1.387.277s.183 1.081-.277 1.387l-3 2c-.171.114-.364.168-.554.168z" fill="#e0e0e0"/><path d="m51.999 27c-.19 0-.383-.054-.554-.168l-3-2c-.46-.306-.584-.927-.277-1.387.306-.46.925-.585 1.387-.277l3 2c.46.306.584.927.277 1.387-.192.289-.51.445-.833.445z" fill="#e0e0e0"/><path d="m11.001 16c-.323 0-.641-.156-.833-.445-.307-.459-.183-1.081.277-1.387l3-2c.46-.307 1.081-.183 1.387.277.307.459.183 1.081-.277 1.387l-3 2c-.171.114-.364.168-.554.168z" fill="#e0e0e0"/><path d="m13.999 22c-.19 0-.383-.054-.554-.168l-3-2c-.46-.306-.584-.927-.277-1.387.305-.459.925-.585 1.387-.277l3 2c.46.306.584.927.277 1.387-.192.289-.51.445-.833.445z" fill="#e0e0e0"/><path d="m6.001 27c-.323 0-.641-.156-.833-.445-.307-.459-.183-1.081.277-1.387l3-2c.46-.308 1.081-.183 1.387.277.307.459.183 1.081-.277 1.387l-3 2c-.171.114-.364.168-.554.168z" fill="#e0e0e0"/><circle cx="47" cy="32" fill="#ffdba9" r="1"/><circle cx="45" cy="40" fill="#ffdba9" r="1"/><circle cx="11" cy="32" fill="#ffdba9" r="1"/><circle cx="50" cy="37" fill="#ffdba9" r="1"/><circle cx="13" cy="40" fill="#ffdba9" r="1"/><circle cx="8" cy="37" fill="#ffdba9" r="1"/><g fill="#703700"><path d="m54.115 14.5c-5.164-8.944-14.788-14.5-25.115-14.5s-19.951 5.556-25.115 14.5c-5.163 8.944-5.163 20.056 0 29 .731 1.266 1.56 2.456 2.459 3.58.008.013.009.028.018.04.017.023.042.034.06.055 5.454 6.759 13.754 10.825 22.578 10.825s17.124-4.066 22.578-10.826c.018-.021.043-.032.06-.055.009-.012.01-.027.018-.04.899-1.124 1.728-2.314 2.459-3.58 5.163-8.943 5.163-20.055 0-28.999zm-25.115 41.5c-7.858 0-15.275-3.458-20.349-9.266.716-.445 1.42-.734 2.349-.734 1.135 0 1.722.373 2.464.844.661.42 1.409.895 2.537 1.078.04 1.985 1.447 3.704 3.304 4.019 1.181.201 2.377-.122 3.277-.884.901-.761 1.418-1.875 1.418-3.057v-.165c0-.563.382-.834.546-.925.164-.09.597-.268 1.071.031.481.303 1.01.617 1.709.826.397.119.674.525.674.986v1.083c0 2.226 1.666 4.053 3.794 4.159.069.004.14.005.209.005 1.032 0 2.004-.386 2.755-1.101.801-.761 1.242-1.791 1.242-2.899v-2.901c0-.335.225-.501.321-.556.1-.057.362-.171.662.004.164.096.323.197.481.297.854.542 1.821 1.156 3.536 1.156 1.716 0 2.683-.614 3.536-1.156.743-.471 1.33-.844 2.464-.844.929 0 1.633.289 2.349.734-5.074 5.808-12.491 9.266-20.349 9.266zm21.613-10.836c-1.011-.657-2.117-1.164-3.613-1.164-1.716 0-2.683.614-3.536 1.156-.743.471-1.33.844-2.464.844s-1.721-.373-2.463-.844c-.18-.114-.359-.228-.545-.336-.835-.487-1.831-.493-2.666-.012-.83.477-1.326 1.333-1.326 2.291v2.901c0 .555-.221 1.07-.621 1.45-.399.38-.919.57-1.485.547-1.044-.052-1.894-1.022-1.894-2.162v-1.083c0-1.338-.863-2.531-2.101-2.901-.458-.137-.836-.363-1.216-.603-.955-.602-2.115-.635-3.104-.09-.988.547-1.579 1.548-1.579 2.677v.165c0 .591-.258 1.149-.709 1.529-.457.387-1.047.543-1.652.44-.935-.158-1.639-1.075-1.639-2.134 0-.946-.688-1.737-1.636-1.88-.747-.113-1.248-.431-1.828-.799-.853-.542-1.82-1.156-3.536-1.156-1.496 0-2.602.507-3.613 1.164-.636-.849-1.233-1.734-1.77-2.664-4.808-8.327-4.808-18.673 0-27s13.768-13.5 23.383-13.5 18.575 5.173 23.383 13.5 4.808 18.673 0 27c-.537.931-1.134 1.815-1.77 2.664z"/><path d="m29 15c-4.985 0-9.632 2.682-12.125 7-2.492 4.318-2.492 9.682 0 14 2.493 4.318 7.14 7 12.125 7s9.632-2.682 12.125-7c2.492-4.318 2.492-9.682 0-14-2.493-4.318-7.14-7-12.125-7zm10.393 20c-2.137 3.701-6.119 6-10.393 6s-8.256-2.299-10.393-6c-2.136-3.701-2.136-8.299 0-12 2.137-3.701 6.119-6 10.393-6s8.256 2.299 10.393 6c2.135 3.701 2.135 8.299 0 12z"/><path d="m26.445 8.832c.171.114.364.168.554.168.323 0 .641-.156.833-.445.307-.459.183-1.081-.277-1.387l-3-2c-.462-.308-1.082-.182-1.387.277-.307.459-.183 1.081.277 1.387z"/><path d="m31.001 9c.19 0 .383-.054.554-.168l3-2c.46-.306.584-.927.277-1.387s-.927-.585-1.387-.277l-3 2c-.46.306-.584.927-.277 1.387.192.289.51.445.833.445z"/><path d="m20.001 14c.19 0 .383-.054.554-.168l3-2c.46-.306.584-.927.277-1.387s-.927-.585-1.387-.277l-3 2c-.46.306-.584.927-.277 1.387.192.289.51.445.833.445z"/><path d="m34.445 11.832 3 2c.171.114.364.168.554.168.323 0 .641-.156.833-.445.307-.459.183-1.081-.277-1.387l-3-2c-.461-.308-1.081-.183-1.387.277-.307.46-.183 1.081.277 1.387z"/><path d="m46.445 15.832c.171.114.364.168.554.168.323 0 .641-.156.833-.445.307-.459.183-1.081-.277-1.387l-3-2c-.461-.307-1.081-.183-1.387.277-.307.459-.183 1.081.277 1.387z"/><path d="m44.555 21.832 3-2c.46-.306.584-.927.277-1.387s-.927-.585-1.387-.277l-3 2c-.46.306-.584.927-.277 1.387.192.289.51.445.833.445.19 0 .383-.054.554-.168z"/><path d="m52.555 25.168-3-2c-.462-.308-1.081-.183-1.387.277-.307.459-.183 1.081.277 1.387l3 2c.171.114.364.168.554.168.323 0 .641-.156.833-.445.307-.46.183-1.081-.277-1.387z"/><path d="m13.445 12.168-3 2c-.46.306-.584.927-.277 1.387.192.289.51.445.833.445.19 0 .383-.054.554-.168l3-2c.46-.306.584-.927.277-1.387-.306-.46-.927-.584-1.387-.277z"/><path d="m11.555 18.168c-.462-.308-1.082-.182-1.387.277-.307.459-.183 1.081.277 1.387l3 2c.171.114.364.168.554.168.323 0 .641-.156.833-.445.307-.459.183-1.081-.277-1.387z"/><path d="m8.445 23.168-3 2c-.46.306-.584.927-.277 1.387.192.289.51.445.833.445.19 0 .383-.054.554-.168l3-2c.46-.306.584-.927.277-1.387-.306-.46-.927-.585-1.387-.277z"/><circle cx="47" cy="32" r="1"/><circle cx="45" cy="40" r="1"/><circle cx="11" cy="32" r="1"/><circle cx="50" cy="37" r="1"/><circle cx="13" cy="40" r="1"/><circle cx="8" cy="37" r="1"/></g></svg>