<svg height="512pt" viewBox="-1 0 512 512" width="512pt" xmlns="http://www.w3.org/2000/svg"><path d="m435.371094 75.746094c-48.289063-48.84375-112.347656-75.746094-180.371094-75.746094s-132.082031 26.902344-180.371094 75.746094c-48.125 48.679687-74.628906 113.050781-74.628906 181.253906 0 68.113281 26.523438 132.148438 74.6875 180.3125s112.199219 74.6875 180.3125 74.6875 132.148438-26.523438 180.3125-74.6875 74.6875-112.199219 74.6875-180.3125c0-68.203125-26.503906-132.574219-74.628906-181.253906zm-180.371094 260.253906c-44.183594 0-80-35.816406-80-80s35.816406-80 80-80 80 35.816406 80 80-35.816406 80-80 80zm0 0" fill="#fbd898"/><path d="m510 257c0-68.203125-26.503906-132.574219-74.628906-181.253906-48.289063-48.84375-112.347656-75.746094-180.371094-75.746094v176c44.183594 0 80 35.816406 80 80s-35.816406 80-80 80v176c68.113281 0 132.148438-26.523438 180.3125-74.6875s74.6875-112.199219 74.6875-180.3125zm0 0" fill="#fac86f"/><path d="m255 0c-140.605469 0-255 114.839844-255 256 0 8.285156 6.714844 15 15 15h85v65c0 24.8125 20.1875 45 45 45s45-20.1875 45-45v-33.390625c-9.429688-13.128906-15-29.214844-15-46.609375 0-44.183594 35.816406-80 80-80s80 35.816406 80 80c0 5.105469-.496094 10.089844-1.410156 14.929688.464844.042968.933594.070312 1.410156.070312 13.785156 0 25 11.214844 25 25v48.304688c0 24.898437 18.714844 45.382812 42.601562 46.632812 6.027344.316406 11.910157-.539062 17.398438-2.476562v57.539062c0 24.8125 20.1875 45 45 45s45-20.1875 45-45v-190c0-141.160156-114.394531-256-255-256zm0 0" fill="#ff82be"/><path d="m335 256c0 5.105469-.496094 10.089844-1.410156 14.929688.464844.042968.933594.070312 1.410156.070312 13.785156 0 25 11.214844 25 25v48.304688c0 24.898437 18.714844 45.382812 42.601562 46.632812 6.027344.316406 11.910157-.539062 17.398438-2.476562v57.539062c0 24.8125 20.1875 45 45 45s45-20.1875 45-45v-190c0-141.160156-114.394531-256-255-256v176c44.183594 0 80 35.816406 80 80zm0 0" fill="#f064b4"/><path d="m242 81c0 8.285156-6.714844 15-15 15s-15-6.714844-15-15 6.714844-15 15-15 15 6.714844 15 15zm0 0" fill="#8ee4ed"/><path d="m312 116c0 8.285156-6.714844 15-15 15s-15-6.714844-15-15 6.714844-15 15-15 15 6.714844 15 15zm0 0" fill="#fac814"/><path d="m457 276c0 8.285156-6.714844 15-15 15s-15-6.714844-15-15 6.714844-15 15-15 15 6.714844 15 15zm0 0" fill="#fac814"/><path d="m407 206c0 8.285156-6.714844 15-15 15s-15-6.714844-15-15 6.714844-15 15-15 15 6.714844 15 15zm0 0" fill="#825014"/><path d="m412 131c0 8.285156-6.714844 15-15 15s-15-6.714844-15-15 6.714844-15 15-15 15 6.714844 15 15zm0 0" fill="#32d2e6"/><path d="m162 131c0 8.285156-6.714844 15-15 15s-15-6.714844-15-15 6.714844-15 15-15 15 6.714844 15 15zm0 0" fill="#a06414"/><path d="m122 196c0 8.285156-6.714844 15-15 15s-15-6.714844-15-15 6.714844-15 15-15 15 6.714844 15 15zm0 0" fill="#ffdc32"/></svg>