<svg height="512pt" viewBox="0 0 512 512" width="512pt" xmlns="http://www.w3.org/2000/svg"><path d="m256 7.5c-137.242188 0-248.5 111.257812-248.5 248.5s111.257812 248.5 248.5 248.5 248.5-111.257812 248.5-248.5-111.257812-248.5-248.5-248.5zm0 323.691406c-41.527344 0-75.191406-33.664062-75.191406-75.191406s33.664062-75.191406 75.191406-75.191406 75.191406 33.664062 75.191406 75.191406-33.664062 75.191406-75.191406 75.191406zm0 0" fill="#fef1da"/><path d="m256 7.5c-5.125 0-10.214844.15625-15.261719.460938 130.136719 7.882812 233.242188 115.921874 233.242188 248.039062s-103.105469 240.15625-233.242188 248.039062c5.046875.304688 10.136719.460938 15.261719.460938 137.242188 0 248.5-111.257812 248.5-248.5s-111.257812-248.5-248.5-248.5zm0 0" fill="#fde6bf"/><path d="m256.480469 7.5c-135.304688-.257812-246.617188 108.839844-248.941407 244.128906-.769531 44.660156 10.257813 86.683594 30.160157 123.171875 2.582031 4.734375 9.785156 2.890625 9.785156-2.503906 0-16.453125 13.335937-29.789063 29.789063-29.789063 16.453124 0 29.789062 13.335938 29.789062 29.789063v22.71875c0 16.453125 13.335938 29.789063 29.789062 29.789063 16.449219 0 29.785157-13.335938 29.785157-29.789063v-4.707031c0-16.453125 13.335937-29.789063 29.789062-29.789063s29.789063 13.335938 29.789063 29.789063v44.277344c0 16.449218 13.335937 29.785156 29.789062 29.785156 16.449219 0 29.785156-13.335938 29.785156-29.785156v-44.277344c0-16.453125 13.335938-29.789063 29.789063-29.789063 16.449219 0 29.789063 13.335938 29.789063 29.789063v4.707031c0 16.453125 13.335937 29.789063 29.785156 29.789063 16.453125 0 29.789062-13.335938 29.789062-29.789063v-22.71875c0-16.453125 13.335938-29.789063 29.789063-29.789063 16.449219 0 29.789062 13.335938 29.789062 29.789063 0 5.378906 7.195313 7.25 9.769531 2.527344 19.261719-35.300781 30.214844-75.78125 30.214844-118.824219-.003906-137.082031-111-248.238281-248.023437-248.5zm-.480469 323.691406c-41.527344 0-75.191406-33.664062-75.191406-75.191406s33.664062-75.191406 75.191406-75.191406 75.191406 33.664062 75.191406 75.191406-33.664062 75.191406-75.191406 75.191406zm0 0" fill="#ff646f"/><path d="m256.480469 7.5c-5.269531-.011719-10.503907.144531-15.699219.464844 130.117188 7.902344 233.199219 115.929687 233.199219 248.035156 0 33.546875-6.648438 65.539062-18.699219 94.738281 5.6875 5.425781 9.234375 13.078125 9.234375 21.558594 0 5.382813 7.195313 7.25 9.769531 2.527344 19.261719-35.296875 30.214844-75.777344 30.214844-118.824219 0-137.082031-110.996094-248.238281-248.019531-248.5zm0 0" fill="#ff4755"/><g fill="#fdd79b"><path d="m279.015625 54.863281c0 12.710938-10.304687 23.015625-23.015625 23.015625s-23.015625-10.304687-23.015625-23.015625c0-12.710937 10.304687-23.011719 23.015625-23.011719s23.015625 10.300782 23.015625 23.011719zm0 0"/><path d="m386.046875 169.976562c0 10.691407-8.671875 19.363282-19.363281 19.363282-10.695313 0-19.363282-8.671875-19.363282-19.363282 0-10.695312 8.667969-19.363281 19.363282-19.363281 10.691406 0 19.363281 8.667969 19.363281 19.363281zm0 0"/><path d="m138.863281 293.929688c0 11.253906-9.125 20.378906-20.378906 20.378906s-20.378906-9.125-20.378906-20.378906c0-11.253907 9.125-20.378907 20.378906-20.378907s20.378906 9.125 20.378906 20.378907zm0 0"/><path d="m172.746094 158.945312c0 24.625-19.960938 44.582032-44.582032 44.582032-24.621093 0-44.582031-19.957032-44.582031-44.582032 0-24.621093 19.960938-44.582031 44.582031-44.582031 24.621094 0 44.582032 19.960938 44.582032 44.582031zm0 0"/><path d="m459.21875 244.707031c3.535156 22.066407 22.257812 37.90625 43.792969 38.59375.980469-8.964843 1.488281-18.074219 1.488281-27.300781 0-22.007812-2.875-43.34375-8.246094-63.664062-24.464844 4.472656-40.988281 27.691406-37.035156 52.371093zm0 0"/></g><path d="m496.253906 192.335938c-10.925781 1.996093-20.265625 7.730468-26.90625 15.667968 3.039063 15.527344 4.632813 31.578125 4.632813 47.996094 0 5.125-.15625 10.214844-.460938 15.265625 7.925781 7.253906 18.332031 11.679687 29.492188 12.035156.003906 0 .003906 0 .003906-.003906.980469-8.964844 1.484375-18.070313 1.484375-27.296875 0-21.789062-2.804688-42.925781-8.074219-63.066406-.0625-.199219-.117187-.398438-.171875-.597656zm0 0" fill="#ffba7e"/><path d="m173.308594 256c0 45.597656 37.09375 82.691406 82.691406 82.691406s82.691406-37.09375 82.691406-82.691406-37.09375-82.691406-82.691406-82.691406-82.691406 37.09375-82.691406 82.691406zm82.691406-67.691406c37.324219 0 67.691406 30.367187 67.691406 67.691406s-30.367187 67.691406-67.691406 67.691406-67.691406-30.367187-67.691406-67.691406 30.367187-67.691406 67.691406-67.691406zm0 0"/><path d="m437.019531 74.980469c-48.351562-48.351563-112.640625-74.980469-181.019531-74.980469-61.285156 0-120.578125 21.992188-166.957031 61.929688-7.511719 6.46875 2.261719 17.847656 9.785156 11.367187 43.660156-37.59375 99.480469-58.296875 157.171875-58.296875 64.375 0 124.894531 25.066406 170.414062 70.589844 28.757813 28.757812 49.355469 63.503906 60.621094 101.429687-10.476562 3.609375-19.550781 10.382813-26.074218 19.589844-8.121094 11.460937-11.371094 25.410156-9.148438 39.285156 3.601562 22.460938 21.007812 39.902344 42.792969 44.007813-3.699219 26.035156-11.625 51.238281-23.40625 74.613281-3.589844-16.835937-18.578125-29.503906-36.472657-29.503906-20.558593 0-37.285156 16.726562-37.285156 37.285156v22.722656c0 12.289063-10 22.289063-22.289062 22.289063-12.289063 0-22.289063-10-22.289063-22.289063v-4.710937c0-20.558594-16.726562-37.285156-37.289062-37.285156-20.558594 0-37.285157 16.726562-37.285157 37.285156v44.277344c0 12.289062-10 22.289062-22.289062 22.289062s-22.289062-10-22.289062-22.289062v-44.277344c0-20.558594-16.726563-37.285156-37.285157-37.285156-20.5625 0-37.289062 16.726562-37.289062 37.285156v4.710937c0 12.289063-10 22.289063-22.289063 22.289063-12.289062 0-22.289062-10-22.289062-22.289063v-22.722656c0-20.5625-16.726563-37.285156-37.285156-37.285156-17.957032 0-32.988282 12.753906-36.507813 29.679687-16.851563-33.285156-25.765625-70.304687-25.765625-108.691406 0-60.195312 22.3125-117.832031 62.832031-162.289062 6.675781-7.324219-4.398437-17.445313-11.085937-10.105469-43.042969 47.226562-66.746094 108.453125-66.746094 172.394531 0 68.378906 26.628906 132.667969 74.980469 181.019531 48.351562 48.351563 112.640625 74.980469 181.019531 74.980469 63.902344 0 125.097656-23.675781 172.308594-66.671875 7.332031-6.671875-2.757813-17.777344-10.097656-11.089844-44.445313 40.472657-102.050782 62.761719-162.210938 62.761719-64.375 0-124.894531-25.066406-170.414062-70.589844-13.554688-13.554687-25.296876-28.441406-35.105469-44.363281 2.8125-2.335937 4.503906-5.832031 4.503906-9.75 0-12.289063 10-22.289063 22.289063-22.289063 12.289062 0 22.289062 10 22.289062 22.289063v22.722656c0 20.558594 16.726562 37.285157 37.285156 37.285157 20.5625 0 37.289063-16.726563 37.289063-37.285157v-4.710937c0-12.289063 10-22.289063 22.289062-22.289063 12.289063 0 22.289063 10 22.289063 22.289063v44.277344c0 20.5625 16.726562 37.285156 37.285156 37.285156 20.5625 0 37.289062-16.726563 37.289062-37.285156v-44.277344c0-12.289063 10-22.289063 22.289063-22.289063s22.285156 10 22.285156 22.289063v4.710937c0 20.558594 16.730469 37.285157 37.289063 37.285157 20.5625 0 37.289062-16.726563 37.289062-37.285157v-22.722656c0-12.289063 10-22.289063 22.289063-22.289063 12.289062 0 22.285156 10 22.285156 22.289063 0 3.886719 1.667969 7.359375 4.441406 9.699219-6.707031 10.9375-14.3125 21.378906-22.777343 31.203125-6.546876 7.601562 4.960937 17.226562 11.367187 9.789062 85.226563-98.953125 84.019531-250.957031-13.027344-348.007812zm29.605469 168.539062c-2.898438-18.089843 7.660156-35.566406 24.246094-41.917969 5.613281 24.453126 7.269531 49.386719 5.382812 73.332032-15.125-3.332032-27.105468-15.652344-29.628906-31.414063zm0 0"/><path d="m286.515625 54.863281c0-16.824219-13.6875-30.515625-30.515625-30.515625s-30.515625 13.691406-30.515625 30.515625c0 16.828125 13.6875 30.519531 30.515625 30.519531s30.515625-13.691406 30.515625-30.519531zm-46.03125 0c0-8.554687 6.960937-15.515625 15.515625-15.515625s15.515625 6.960938 15.515625 15.515625c0 8.558594-6.960937 15.519531-15.515625 15.519531s-15.515625-6.960937-15.515625-15.519531zm0 0"/><path d="m366.683594 196.839844c14.8125 0 26.863281-12.054688 26.863281-26.863282 0-14.8125-12.050781-26.863281-26.863281-26.863281s-26.863282 12.050781-26.863282 26.863281c0 14.808594 12.050782 26.863282 26.863282 26.863282zm0-38.726563c6.539062 0 11.863281 5.320313 11.863281 11.863281 0 6.539063-5.324219 11.859376-11.863281 11.859376-6.542969 0-11.863282-5.320313-11.863282-11.859376 0-6.542968 5.320313-11.863281 11.863282-11.863281zm0 0"/><path d="m90.605469 293.929688c0 15.371093 12.507812 27.878906 27.878906 27.878906s27.878906-12.507813 27.878906-27.878906c0-15.375-12.507812-27.878907-27.878906-27.878907s-27.878906 12.503907-27.878906 27.878907zm40.757812 0c0 7.101562-5.777343 12.878906-12.878906 12.878906s-12.878906-5.777344-12.878906-12.878906c0-7.101563 5.777343-12.878907 12.878906-12.878907s12.878906 5.777344 12.878906 12.878907zm0 0"/><path d="m128.164062 106.863281c-28.71875 0-52.082031 23.363281-52.082031 52.082031s23.363281 52.082032 52.082031 52.082032 52.082032-23.363282 52.082032-52.082032-23.363282-52.082031-52.082032-52.082031zm0 89.164063c-20.449218 0-37.082031-16.632813-37.082031-37.082032 0-20.445312 16.632813-37.082031 37.082031-37.082031 20.445313 0 37.082032 16.636719 37.082032 37.082031 0 20.449219-16.636719 37.082032-37.082032 37.082032zm0 0"/></svg>