<svg id="Capa_1" enable-background="new 0 0 512 512" height="512" viewBox="0 0 512 512" width="512" xmlns="http://www.w3.org/2000/svg"><path d="m256 0-20.016 82.438 20.016 77.164c53.155 0 96.398 43.244 96.398 96.398s-43.243 96.398-96.398 96.398l-20.016 77.164 20.016 82.438c141.385 0 256-114.615 256-256s-114.615-256-256-256z" fill="#e68a44"/><path d="m159.602 256c0-53.154 43.244-96.398 96.398-96.398v-159.602c-141.385 0-256 114.615-256 256s114.615 256 256 256v-159.602c-53.155 0-96.398-43.244-96.398-96.398z" fill="#ffc477"/><g fill="#fff5f5"><path d="m240.054 64.801h31.893v30h-31.893z"/><path d="m151.954 88.408h31.892v30h-31.892z" transform="matrix(.866 -.5 .5 .866 -29.21 97.805)"/><path d="m87.461 152.901h31.893v30h-31.893z" transform="matrix(.5 -.866 .866 .5 -93.703 173.503)"/><path d="m64.801 240.054h30v31.893h-30z"/><path d="m88.407 328.153h30v31.893h-30z" transform="matrix(.866 -.5 .5 .866 -158.194 97.803)"/><path d="m152.901 392.646h30v31.892h-30z" transform="matrix(.5 -.866 .866 .5 -269.901 349.701)"/><path d="m240.054 417.199h31.893v30h-31.893z"/></g><path d="m328.153 393.592h31.893v30h-31.893z" fill="#f7ecd9" transform="matrix(.866 -.5 .5 .866 -158.197 226.793)"/><path d="m392.646 329.099h31.893v30h-31.893z" fill="#f7ecd9" transform="matrix(.5 -.866 .866 .5 -93.703 525.898)"/><path d="m417.199 240.054h30v31.893h-30z" fill="#f7ecd9"/><path d="m393.592 151.954h30v31.893h-30z" fill="#f7ecd9" transform="matrix(.866 -.5 .5 .866 -29.21 226.788)"/><path d="m329.099 87.461h30v31.893h-30z" fill="#f7ecd9" transform="matrix(.5 -.866 .866 .5 82.497 349.704)"/></svg>