<svg height="451pt" viewBox="0 0 451 451.762" width="451pt" xmlns="http://www.w3.org/2000/svg"><path d="m226.261719 3c-123.09375 0-222.878907 99.785156-222.878907 222.878906 0 70.824219 33.035157 133.921875 84.535157 174.746094l23.582031 16.34375c33.519531 20.179688 72.78125 31.792969 114.761719 31.792969 123.09375 0 222.878906-99.789063 222.878906-222.882813s-99.785156-222.878906-222.878906-222.878906zm0 308.214844c-47.128907 0-85.335938-38.207032-85.335938-85.335938 0-47.125 38.207031-85.332031 85.335938-85.332031 47.128906 0 85.332031 38.207031 85.332031 85.332031 0 47.128906-38.203125 85.335938-85.332031 85.335938zm0 0" fill="#87796f"/><path d="m226.261719 0c-124.550781 0-225.878907 101.328125-225.878907 225.878906 0 69.386719 31.222657 133.933594 85.671876 177.097656 1.296874 1.03125 3.183593.808594 4.214843-.488281s.808594-3.183593-.488281-4.214843c-53.003906-42.015626-83.398438-104.851563-83.398438-172.394532 0-121.242187 98.636719-219.878906 219.878907-219.878906 121.242187 0 219.878906 98.636719 219.878906 219.878906 0 121.246094-98.636719 219.882813-219.878906 219.882813-39.980469 0-79.128907-10.847657-113.214844-31.363281-1.421875-.851563-3.269531-.394532-4.121094 1.027343-.851562 1.417969-.394531 3.261719 1.023438 4.117188 35.023437 21.078125 75.242187 32.21875 116.3125 32.21875 124.550781 0 225.878906-101.328125 225.878906-225.878907 0-124.550781-101.328125-225.882812-225.878906-225.882812zm88.332031 225.878906c0-48.707031-39.625-88.332031-88.332031-88.332031s-88.335938 39.625-88.335938 88.332031c0 48.710938 39.628907 88.335938 88.335938 88.335938s88.332031-39.625 88.332031-88.335938zm-170.667969 0c0-45.398437 36.9375-82.332031 82.335938-82.332031 45.398437 0 82.332031 36.933594 82.332031 82.332031 0 45.398438-36.933594 82.335938-82.332031 82.335938-45.398438 0-82.335938-36.9375-82.335938-82.335938zm0 0" fill="#3a312a"/><path d="m226.261719 3c-119.722657 0-217.378907 94.378906-222.640625 212.78125l3.261718 4.699219c7.078126 10.199219 22.136719 10.199219 29.238282.019531 3.539062-5.101562 9.078125-7.640625 14.621094-7.640625 5.539062 0 11.078124 2.539063 14.617187 7.640625 3.542969 5.101562 9.101563 7.640625 14.621094 7.640625 5.539062 0 11.082031-2.539063 14.621093-7.640625 3.539063-5.101562 9.097657-7.640625 14.621094-7.640625 5.558594 0 11.078125 2.539063 14.636719 7.640625 3.542969 5.101562 9.082031 7.640625 14.621094 7.640625.820312 0 1.640625-.0625 2.460937-.179687-.019531-.679688-.019531-1.382813-.019531-2.082032 0-47.117187 38.21875-85.339844 85.339844-85.339844 47.121093 0 85.339843 38.222657 85.339843 85.339844 0 .699219 0 1.402344-.019531 2.101563.800781.097656 1.578125.160156 2.378907.160156 5.539062 0 11.078124-2.539063 14.621093-7.640625l.019531-.019531c7.078126-10.179688 22.140626-10.179688 29.238282 0v.019531c7.101562 10.179688 22.160156 10.179688 29.242187 0l.019531-.019531c7.097657-10.179688 22.160157-10.179688 29.238282 0l.042968.039062c7.078126 10.179688 22.136719 10.179688 29.21875 0l3.300782-4.738281c-5.261719-118.402344-102.921875-212.78125-222.640625-212.78125zm0 0" fill="#f16c7a"/><g fill="#3a312a"><path d="m226.261719 0c-121.152344 0-220.265625 94.722656-225.636719 215.648438-.03125.65625.15625 1.304687.53125 1.84375l3.261719 4.699218c3.941406 5.675782 10.160156 8.933594 17.0625 8.941406h.023437c6.800782 0 13.183594-3.332031 17.082032-8.921874 2.800781-4.035157 7.234374-6.347657 12.15625-6.347657 4.925781 0 9.355468 2.3125 12.15625 6.347657 3.878906 5.589843 10.269531 8.929687 17.085937 8.929687s13.199219-3.339844 17.082031-8.929687c2.800782-4.035157 7.234375-6.347657 12.15625-6.347657s9.359375 2.316407 12.175782 6.347657c3.941406 5.675781 10.167968 8.929687 17.085937 8.929687.960937 0 1.933594-.074219 2.894531-.210937 1.503906-.21875 2.605469-1.535157 2.558594-3.054688-.015625-.652344-.015625-1.324219-.015625-1.992188 0-45.402343 36.9375-82.339843 82.339844-82.339843 45.402343 0 82.339843 36.9375 82.339843 82.339843 0 .671876 0 1.34375-.019531 2.015626-.042969 1.542968 1.09375 2.867187 2.625 3.058593.980469.125 1.882813.183594 2.753907.183594 6.871093 0 13.058593-3.207031 17.003906-8.8125.035156-.042969.066406-.085937.097656-.132813 2.800781-4.03125 7.226562-6.34375 12.140625-6.347656h.011719c4.839844 0 9.210937 2.246094 12.03125 6.164063.042968.070312.085937.140625.132812.207031 3.894532 5.585938 10.285156 8.917969 17.089844 8.917969h.011719c6.753906-.003907 13.09375-3.292969 16.984375-8.804688.03125-.042969.0625-.085937.097656-.132812 2.8125-4.035157 7.246094-6.347657 12.164062-6.347657h.011719c4.910157.003907 9.335938 2.3125 12.140625 6.347657.039063.058593.089844.117187.136719.183593 3.894531 5.5 10.226563 8.777344 16.972656 8.777344 6.804688 0 13.1875-3.335937 17.070313-8.921875l3.300781-4.738281c.378906-.539062.5625-1.191406.535156-1.847656-5.367187-120.929688-104.480469-215.652344-225.632812-215.652344zm216.878906 218.808594c-2.804687 4.035156-7.234375 6.34375-12.148437 6.34375-4.914063 0-9.339844-2.3125-12.144532-6.34375-.042968-.058594-.089844-.121094-.140625-.183594-3.890625-5.496094-10.21875-8.777344-16.960937-8.78125h-.015625c-6.757813 0-13.101563 3.289062-17.003907 8.800781-.039062.046875-.070312.09375-.105468.140625-2.800782 4.03125-7.226563 6.34375-12.140625 6.347656h-.007813c-4.839844 0-9.214844-2.242187-12.035156-6.164062-.042969-.070312-.085938-.140625-.132812-.207031-3.894532-5.585938-10.285157-8.917969-17.085938-8.917969h-.015625c-6.753906.003906-13.09375 3.292969-16.980469 8.804688-.039062.042968-.070312.089843-.105468.136718-2.679688 3.863282-6.851563 6.148438-11.519532 6.339844-.410156-48.359375-39.875-87.585938-88.335937-87.585938-48.460938 0-87.933594 39.222657-88.335938 87.589844-4.699219-.167968-8.90625-2.457031-11.605469-6.34375-3.957031-5.671875-10.1875-8.925781-17.097656-8.925781-6.816406 0-13.207031 3.339844-17.085937 8.929687-2.800781 4.035157-7.230469 6.347657-12.15625 6.347657-4.921875 0-9.351563-2.3125-12.15625-6.347657-3.878907-5.59375-10.265625-8.929687-17.082031-8.929687-6.917969 0-13.148438 3.253906-17.082032 8.921875-2.816406 4.035156-7.246094 6.347656-12.15625 6.347656h-.019531c-4.910156-.003906-9.335937-2.324218-12.136719-6.363281l-2.683594-3.863281c5.738282-117.222656 102-208.902344 219.597657-208.902344 117.597656 0 213.859375 91.679688 219.59375 208.902344zm0 0"/><path d="m333.957031 141.644531-14.1875-14.1875c-1.171875-1.171875-3.070312-1.171875-4.242187 0-1.171875 1.167969-1.171875 3.070313 0 4.242188l14.1875 14.1875c.585937.585937 1.355468.878906 2.121094.878906.769531 0 1.535156-.292969 2.125-.878906 1.167968-1.171875 1.167968-3.070313-.003907-4.242188zm0 0"/><path d="m366.5 176.328125c-.335938-1.621094-1.917969-2.648437-3.546875-2.324219l-19.644531 4.089844c-1.625.339844-2.664063 1.925781-2.324219 3.546875.292969 1.417969 1.539063 2.390625 2.933594 2.390625.203125 0 .40625-.019531.613281-.0625l19.644531-4.089844c1.625-.339844 2.664063-1.925781 2.324219-3.550781zm0 0"/><path d="m376.003906 110.21875c-1.652344-.175781-3.132812 1.003906-3.316406 2.652344l-2.214844 19.941406c-.183594 1.648438 1.003906 3.132812 2.648438 3.3125.113281.011719.222656.019531.335937.019531 1.507813 0 2.804688-1.132812 2.976563-2.667969l2.21875-19.941406c.183594-1.648437-1.003906-3.132812-2.648438-3.316406zm0 0"/><path d="m317.328125 68-13.460937-14.882812c-1.109376-1.230469-3.003907-1.324219-4.234376-.214844-1.226562 1.113281-1.324218 3.007812-.210937 4.238281l13.457031 14.882813c.59375.65625 1.40625.988281 2.222656.988281.71875 0 1.4375-.253907 2.011719-.773438 1.230469-1.113281 1.324219-3.011719.214844-4.238281zm0 0"/><path d="m193.191406 96.570312-14.1875-14.1875c-1.171875-1.171874-3.070312-1.171874-4.242187 0-1.171875 1.167969-1.171875 3.070313 0 4.242188l14.1875 14.1875c.585937.585938 1.355469.878906 2.121093.878906.765626 0 1.535157-.292968 2.121094-.878906 1.171875-1.171875 1.171875-3.070312 0-4.242188zm0 0"/><path d="m212.25 56.214844c-.339844-1.621094-1.917969-2.652344-3.550781-2.328125l-19.640625 4.089843c-1.625.335938-2.664063 1.925782-2.328125 3.546876.292969 1.417968 1.542969 2.390624 2.933593 2.390624.203126 0 .410157-.023437.617188-.0625l19.644531-4.089843c1.621094-.335938 2.660157-1.925781 2.324219-3.546875zm0 0"/><path d="m65.289062 147.945312c-.96875-1.339843-2.851562-1.640624-4.1875-.667968l-16.242187 11.785156c-1.339844.972656-1.636719 2.847656-.664063 4.191406.585938.804688 1.5 1.234375 2.429688 1.234375.613281 0 1.226562-.183593 1.761719-.570312l16.238281-11.785157c1.34375-.972656 1.636719-2.847656.664062-4.1875zm0 0"/><path d="m98.363281 98.222656c-1.433593-.824218-3.269531-.335937-4.097656 1.097656l-10.03125 17.378907c-.828125 1.433593-.339844 3.269531 1.097656 4.097656.472657.269531.988281.402344 1.496094.402344 1.035156 0 2.042969-.542969 2.601563-1.503907l10.03125-17.375c.828124-1.433593.339843-3.269531-1.097657-4.097656zm0 0"/><path d="m153.101562 49.722656c-1.621093-.269531-3.183593.816406-3.460937 2.449219l-3.402344 19.773437c-.285156 1.632813.816407 3.183594 2.449219 3.464844.171875.03125.339844.046875.511719.046875 1.433593 0 2.703125-1.03125 2.953125-2.492187l3.402344-19.773438c.277343-1.632812-.820313-3.183594-2.453126-3.46875zm0 0"/><path d="m408.734375 164.628906c-1.429687-.828125-3.269531-.335937-4.097656 1.097656l-10.035157 17.378907c-.828124 1.433593-.335937 3.269531 1.097657 4.097656.472656.273437.988281.402344 1.5.402344 1.035156 0 2.046875-.539063 2.601562-1.5l10.03125-17.375c.828125-1.4375.339844-3.273438-1.097656-4.101563zm0 0"/><path d="m296.535156 93.054688c-1.433594-.828126-3.269531-.339844-4.097656 1.097656l-10.035156 17.378906c-.828125 1.433594-.335938 3.269531 1.097656 4.097656.472656.273438.988281.402344 1.5.402344 1.035156 0 2.046875-.539062 2.597656-1.5l10.035156-17.375c.828126-1.4375.339844-3.273438-1.097656-4.101562zm0 0"/><path d="m250.921875 87.371094c-.207031-1.644532-1.722656-2.800782-3.351563-2.601563l-19.90625 2.511719c-1.644531.207031-2.808593 1.707031-2.601562 3.351562.191406 1.515626 1.480469 2.625 2.96875 2.625.125 0 .253906-.007812.378906-.023437l19.90625-2.511719c1.648438-.207031 2.8125-1.707031 2.605469-3.351562zm0 0"/><path d="m258.84375 35.117188c-1.433594-.828126-3.273438-.339844-4.097656 1.097656l-10.03125 17.375c-.828125 1.433594-.339844 3.269531 1.097656 4.097656.46875.273438.988281.40625 1.496094.40625 1.035156 0 2.046875-.542969 2.601562-1.5l10.03125-17.378906c.828125-1.4375.335938-3.269532-1.097656-4.097656zm0 0"/><path d="m354.117188 85.628906c-.429688-1.601562-2.066407-2.554687-3.675782-2.121094l-19.382812 5.191407c-1.597656.429687-2.546875 2.074219-2.121094 3.675781.359375 1.339844 1.570312 2.222656 2.894531 2.222656.257813 0 .519531-.035156.78125-.105468l19.382813-5.191407c1.597656-.425781 2.550781-2.074219 2.121094-3.671875zm0 0"/><path d="m128.59375 165.621094-10.75-16.941406c-.890625-1.398438-2.746094-1.8125-4.140625-.925782-1.398437.886719-1.8125 2.742188-.925781 4.140625l10.75 16.941407c.574218.898437 1.542968 1.390624 2.539062 1.390624.546875 0 1.105469-.152343 1.605469-.464843 1.394531-.886719 1.808594-2.742188.921875-4.140625zm0 0"/><path d="m138.488281 93.988281c-1.640625-.179687-3.128906 1.003907-3.3125 2.652344l-2.21875 19.941406c-.183593 1.648438 1.003907 3.128907 2.648438 3.3125.117187.011719.226562.019531.335937.019531 1.507813 0 2.808594-1.132812 2.980469-2.667968l2.21875-19.941406c.179687-1.648438-1.003906-3.132813-2.652344-3.316407zm0 0"/><path d="m96.671875 194.371094-15.972656-12.140625c-1.316407-1.003907-3.203125-.75-4.203125.574219-1.003906 1.320312-.746094 3.203124.570312 4.203124l15.972656 12.140626c.542969.414062 1.183594.613281 1.8125.613281.90625 0 1.800782-.40625 2.390626-1.183594 1.003906-1.320313.75-3.203125-.570313-4.207031zm0 0"/></g><path d="m44.585938 245.554688c-7.175782 0-12.992188 5.816406-12.992188 12.992187s5.816406 12.992187 12.992188 12.992187c7.175781 0 12.996093-5.816406 12.996093-12.992187s-5.820312-12.992187-12.996093-12.992187zm0 0" fill="#d7e057"/><path d="m44.585938 242.554688c-8.816407 0-15.992188 7.171874-15.992188 15.992187s7.175781 15.996094 15.992188 15.996094c8.820312 0 15.996093-7.175781 15.996093-15.996094s-7.175781-15.992187-15.996093-15.992187zm0 25.984374c-5.507813 0-9.992188-4.484374-9.992188-9.992187 0-5.511719 4.484375-9.996094 9.992188-9.996094 5.511718 0 9.996093 4.484375 9.996093 9.996094 0 5.507813-4.484375 9.992187-9.996093 9.992187zm0 0" fill="#3a312a"/><path d="m114.929688 258.546875c-7.175782 0-12.992188 5.816406-12.992188 12.992187 0 7.175782 5.816406 12.996094 12.992188 12.996094 7.175781 0 12.992187-5.820312 12.992187-12.996094 0-7.175781-5.816406-12.992187-12.992187-12.992187zm0 0" fill="#d7e057"/><path d="m114.929688 255.546875c-8.820313 0-15.992188 7.171875-15.992188 15.992187 0 8.820313 7.171875 15.992188 15.992188 15.992188 8.816406 0 15.992187-7.171875 15.992187-15.992188 0-8.816406-7.175781-15.992187-15.992187-15.992187zm0 25.984375c-5.511719 0-9.992188-4.480469-9.992188-9.992188 0-5.507812 4.480469-9.992187 9.992188-9.992187 5.511718 0 9.992187 4.484375 9.992187 9.992187 0 5.511719-4.480469 9.992188-9.992187 9.992188zm0 0" fill="#3a312a"/><path d="m99.863281 335.214844c0 7.175781-5.816406 12.992187-12.992187 12.992187-7.175782 0-12.992188-5.816406-12.992188-12.992187 0-7.175782 5.816406-12.996094 12.992188-12.996094 7.175781 0 12.992187 5.820312 12.992187 12.996094zm0 0" fill="#d7e057"/><path d="m86.871094 319.21875c-8.816406 0-15.992188 7.175781-15.992188 15.996094 0 8.816406 7.175782 15.992187 15.992188 15.992187s15.992187-7.171875 15.992187-15.992187c0-8.820313-7.175781-15.996094-15.992187-15.996094zm0 25.988281c-5.511719 0-9.992188-4.484375-9.992188-9.996093 0-5.507813 4.480469-9.992188 9.992188-9.992188 5.511718 0 9.992187 4.484375 9.992187 9.992188 0 5.511718-4.480469 9.996093-9.992187 9.996093zm0 0" fill="#3a312a"/><path d="m161.648438 318.460938c-7.175782 0-12.992188 5.820312-12.992188 12.996093s5.820312 12.992188 12.992188 12.992188c7.175781 0 12.992187-5.820313 12.992187-12.992188 0-7.175781-5.816406-12.996093-12.992187-12.996093zm0 0" fill="#d7e057"/><path d="m161.648438 315.460938c-8.816407 0-15.992188 7.175781-15.992188 15.996093 0 8.820313 7.175781 15.992188 15.992188 15.992188 8.820312 0 15.992187-7.171875 15.992187-15.992188 0-8.820312-7.171875-15.996093-15.992187-15.996093zm0 25.988281c-5.511719 0-9.992188-4.484375-9.992188-9.996094 0-5.507813 4.480469-9.992187 9.992188-9.992187 5.511718 0 9.992187 4.484374 9.992187 9.992187 0 5.511719-4.480469 9.996094-9.992187 9.996094zm0 0" fill="#3a312a"/><path d="m170.984375 392.886719c-7.175781 0-12.996094 5.816406-12.996094 12.992187 0 7.175782 5.820313 12.996094 12.996094 12.996094s12.992187-5.820312 12.992187-12.996094c0-7.175781-5.816406-12.992187-12.992187-12.992187zm0 0" fill="#d7e057"/><path d="m170.980469 389.886719c-8.816407 0-15.992188 7.171875-15.992188 15.992187 0 8.820313 7.175781 15.996094 15.992188 15.996094 8.820312 0 15.996093-7.175781 15.996093-15.996094 0-8.820312-7.175781-15.992187-15.996093-15.992187zm0 25.988281c-5.507813 0-9.992188-4.484375-9.992188-9.996094 0-5.507812 4.484375-9.992187 9.992188-9.992187 5.511719 0 9.996093 4.484375 9.996093 9.992187 0 5.511719-4.484374 9.996094-9.996093 9.996094zm0 0" fill="#3a312a"/><path d="m241.609375 335.355469c-7.175781 0-12.996094 5.816406-12.996094 12.996093 0 7.175782 5.820313 12.992188 12.996094 12.992188s12.992187-5.816406 12.992187-12.992188c0-7.179687-5.816406-12.996093-12.992187-12.996093zm0 0" fill="#d7e057"/><path d="m241.609375 332.355469c-8.820313 0-15.996094 7.171875-15.996094 15.992187 0 8.820313 7.175781 15.996094 15.996094 15.996094 8.816406 0 15.992187-7.175781 15.992187-15.996094 0-8.820312-7.175781-15.992187-15.992187-15.992187zm0 25.984375c-5.511719 0-9.996094-4.484375-9.996094-9.992188 0-5.511718 4.484375-9.996094 9.996094-9.996094 5.507813 0 9.992187 4.484376 9.992187 9.996094 0 5.507813-4.484374 9.992188-9.992187 9.992188zm0 0" fill="#3a312a"/><path d="m274.445312 414.832031c0 7.175781-5.816406 12.992188-12.992187 12.992188s-12.992187-5.816407-12.992187-12.992188 5.816406-12.992187 12.992187-12.992187 12.992187 5.816406 12.992187 12.992187zm0 0" fill="#d7e057"/><path d="m261.453125 398.839844c-8.816406 0-15.992187 7.171875-15.992187 15.992187 0 8.820313 7.175781 15.992188 15.992187 15.992188s15.992187-7.171875 15.992187-15.992188c0-8.820312-7.175781-15.992187-15.992187-15.992187zm0 25.984375c-5.511719 0-9.992187-4.484375-9.992187-9.996094 0-5.507813 4.480468-9.992187 9.992187-9.992187s9.992187 4.484374 9.992187 9.992187c0 5.511719-4.480468 9.996094-9.992187 9.996094zm0 0" fill="#3a312a"/><path d="m331.835938 365.382812c-7.175782 0-12.992188 5.816407-12.992188 12.992188s5.816406 12.996094 12.992188 12.996094c7.175781 0 12.996093-5.820313 12.996093-12.996094-.003906-7.171875-5.820312-12.992188-12.996093-12.992188zm0 0" fill="#d7e057"/><path d="m331.835938 362.382812c-8.816407 0-15.992188 7.175782-15.992188 15.996094 0 8.816406 7.175781 15.992188 15.992188 15.992188 8.820312 0 15.992187-7.171875 15.992187-15.992188 0-8.820312-7.171875-15.996094-15.992187-15.996094zm0 25.988282c-5.511719 0-9.992188-4.484375-9.992188-9.996094 0-5.507812 4.480469-9.992188 9.992188-9.992188 5.511718 0 9.992187 4.484376 9.992187 9.992188 0 5.511719-4.480469 9.996094-9.992187 9.996094zm0 0" fill="#3a312a"/><path d="m324.742188 284.53125c-7.175782 0-12.992188 5.820312-12.992188 12.996094 0 7.175781 5.816406 12.992187 12.992188 12.992187 7.175781 0 12.992187-5.816406 12.992187-12.992187 0-7.175782-5.816406-12.996094-12.992187-12.996094zm0 0" fill="#d7e057"/><path d="m324.742188 281.53125c-8.820313 0-15.992188 7.175781-15.992188 15.996094 0 8.816406 7.171875 15.992187 15.992188 15.992187 8.816406 0 15.992187-7.171875 15.992187-15.992187 0-8.820313-7.175781-15.996094-15.992187-15.996094zm0 25.988281c-5.511719 0-9.992188-4.484375-9.992188-9.996093 0-5.507813 4.480469-9.992188 9.992188-9.992188 5.511718 0 9.992187 4.484375 9.992187 9.992188 0 5.511718-4.480469 9.996093-9.992187 9.996093zm0 0" fill="#3a312a"/><path d="m391.75 241.144531c-7.175781 0-12.992188 5.816407-12.992188 12.992188s5.816407 12.992187 12.992188 12.992187 12.996094-5.816406 12.996094-12.992187-5.820313-12.992188-12.996094-12.992188zm0 0" fill="#d7e057"/><path d="m391.75 238.144531c-8.816406 0-15.992188 7.171875-15.992188 15.992188 0 8.820312 7.175782 15.996093 15.992188 15.996093 8.820312 0 15.996094-7.175781 15.996094-15.996093 0-8.820313-7.175782-15.992188-15.996094-15.992188zm0 25.984375c-5.507812 0-9.992188-4.484375-9.992188-9.992187 0-5.511719 4.484376-9.996094 9.992188-9.996094 5.511719 0 9.996094 4.484375 9.996094 9.996094 0 5.507812-4.484375 9.992187-9.996094 9.992187zm0 0" fill="#3a312a"/><path d="m378.757812 318.460938c-7.175781 0-12.992187 5.820312-12.992187 12.996093s5.816406 12.992188 12.992187 12.992188c7.175782 0 12.992188-5.820313 12.992188-12.992188 0-7.175781-5.816406-12.996093-12.992188-12.996093zm0 0" fill="#d7e057"/><path d="m378.757812 315.460938c-8.816406 0-15.992187 7.175781-15.992187 15.996093 0 8.820313 7.175781 15.992188 15.992187 15.992188 8.820313 0 15.992188-7.171875 15.992188-15.992188 0-8.820312-7.171875-15.996093-15.992188-15.996093zm0 25.988281c-5.511718 0-9.992187-4.484375-9.992187-9.996094 0-5.507813 4.480469-9.992187 9.992187-9.992187 5.511719 0 9.992188 4.484374 9.992188 9.992187 0 5.511719-4.480469 9.996094-9.992188 9.996094zm0 0" fill="#3a312a"/><path d="m446.121094 224.578125c-3.898438 4.160156-9.359375 6.582031-15.121094 6.582031-.019531 0-.019531 0-.019531 0-6.738281 0-13.058594-3.28125-16.960938-8.78125-.058593-.058594-.097656-.117187-.136719-.179687-.261718-.359375-.523437-.71875-.800781-1.058594.039063 1.578125.058594 3.160156.058594 4.738281 0 34.339844-7.757813 66.882813-21.640625 95.921875 2.039062 2.660157 3.261719 6.019531 3.261719 9.660157 0 8.820312-7.179688 15.980468-16 15.980468-.539063 0-1.082031-.019531-1.601563-.082031-8.859375 13.601563-19.179687 26.179687-30.71875 37.519531-1.761718 3.980469-5.101562 7.101563-9.21875 8.5625-30.523437 26.820313-68.460937 45.398438-110.320312 52.320313 120.9375-.339844 219.238281-98.863281 219.238281-219.882813 0-.4375-.019531-.859375-.019531-1.300781zm0 0" fill="#695b51"/><path d="m226.882812 6c85.65625 14.140625 154.839844 77.140625 177.957032 159.421875.882812-1.183594 2.5625-1.5625 3.902344-.78125 1.4375.820313 1.917968 2.660156 1.097656 4.078125l-2.859375 4.960938c3.058593 12.71875 5.039062 25.878906 5.800781 39.339843 2.300781 1.441407 4.320312 3.339844 5.917969 5.601563.0625.058594.101562.140625.140625.179687 2.800781 4.039063 7.242187 6.359375 12.140625 6.359375h.019531c4.902344 0 9.339844-2.320312 12.140625-6.359375l2.71875-3.902343c-5.71875-117.019532-101.660156-208.578126-218.976563-208.898438zm0 0" fill="#d34e5c"/></svg>