<svg id="Layer_1" enable-background="new 0 0 512 512" height="512" viewBox="0 0 512 512" width="512" xmlns="http://www.w3.org/2000/svg"><path d="m512 256-46 15c-16.57 0-30 13.43-30 30s-13.43 30-30 30-30-13.43-30-30-13.43-30-30-30l-15-15c0-41.36-33.65-75-75-75-20.68 0-39.42 8.41-53.01 21.99-13.58 13.58-21.99 32.33-21.99 53.01l-15 8c-16.57 0-30 13.43-30 30s-13.43 30-30 30-30-13.43-30-30-13.43-30-30-30l-46-8c0-141.57 114.39-256 256-256 70.78 0 134.78 28.6 181.09 74.9 46.3 46.3 74.91 110.3 74.91 181.1z" fill="#845634"/><path d="m512 256-46 15c-16.57 0-30 13.43-30 30s-13.43 30-30 30-30-13.43-30-30-13.43-30-30-30l-15-15c0-41.36-33.65-75-75-75v-181c70.78 0 134.78 28.6 181.09 74.9 46.3 46.3 74.91 110.3 74.91 181.1z" fill="#663914"/><path d="m512 256c0 141.57-114.39 256-256 256-141.57 0-256-114.39-256-256h46c16.57 0 30 13.43 30 30s13.43 30 30 30 30-13.43 30-30 13.43-30 30-30h15c0 41.36 33.65 75 75 75s75-33.64 75-75h15c16.57 0 30 13.43 30 30s13.43 30 30 30 30-13.43 30-30 13.43-30 30-30z" fill="#ffde46"/><path d="m512 256c0 141.57-114.39 256-256 256v-181c41.35 0 75-33.64 75-75h15c16.57 0 30 13.43 30 30s13.43 30 30 30 30-13.43 30-30 13.43-30 30-30z" fill="#ff9f01"/><path d="m391 151h30v30h-30z" fill="#59c36a"/><path d="m331 91h30v30h-30z" fill="#6aa8ff"/><path d="m241 61h30v30h-30z" fill="#ffde46"/><path d="m256 61h15v30h-15z" fill="#ff9f01"/><path d="m151 91h30v30h-30z" fill="#76e2f8"/><path d="m181 151h30v30h-30z" fill="#ff5b5b"/><path d="m301 151h30v30h-30z" fill="#e63950"/><path d="m91 151h30v30h-30z" fill="#97de3d"/></svg>