<?xml version="1.0" encoding="iso-8859-1"?>
<!-- Generator: Adobe Illustrator 19.0.0, SVG Export Plug-In . SVG Version: 6.00 Build 0)  -->
<svg xmlns="http://www.w3.org/2000/svg" xmlns:xlink="http://www.w3.org/1999/xlink" version="1.1" id="Layer_1" x="0px" y="0px" viewBox="0 0 512.001 512.001" style="enable-background:new 0 0 512.001 512.001;" xml:space="preserve" width="512" height="512">
<g id="XMLID_710_">
	<path id="XMLID_711_" style="fill:#BE7560;" d="M496.47,193.09c-1.14-4.34-6.42-5.88-9.8-2.93   c-15.44,13.49-37.28,18.97-58.34,12.57c-19.99-6.07-34.6-21.39-40.6-39.84c-0.8-2.46-3.1-4.11-5.69-4.1   c-5.96,0.02-12.03-0.83-18.03-2.65c-32.47-9.86-50.8-44.17-40.94-76.64c1.18-3.9,2.72-7.59,4.57-11.05   c1.38-2.58,0.72-5.74-1.56-7.57c-12.71-10.24-19.92-26.18-18.93-42.75c0.18-3.04-1.88-5.76-4.87-6.32   c-14.96-2.82-30.39-4.3-46.16-4.31C168.59,7.46,91.33,53.13,47,121.86c-4.33,6.71-8.34,13.63-12,20.76   C17.43,176.65,7.5,215.21,7.5,256c0,137.24,111.26,248.5,248.5,248.5c98.78,0,183.86-57.1,223.94-140.34   c1.74-3.6,3.39-7.24,4.95-10.93c12.38-29.23,19.33-61.37,19.6-95.18C504.67,235.59,501.87,213.81,496.47,193.09z M163.68,256   c0-30.37,14.67-57.32,37.32-74.14c3.79-2.81,7.8-5.34,12-7.56c12.84-6.78,27.47-10.62,43-10.62c50.98,0,92.32,41.34,92.32,92.32   c0,46.53-34.43,85.02-79.2,91.39c-4.29,0.61-8.67,0.93-13.12,0.93c-7.8,0-15.37-0.97-22.6-2.79   C193.34,335.45,163.68,299.18,163.68,256z"/>
	<path id="XMLID_715_" style="fill:#A86552;" d="M504.49,258.05c-0.27,33.81-7.22,65.95-19.6,95.18c-1.56,3.69-3.21,7.33-4.95,10.93   C458.1,354.59,444,333.03,444,309.18v-50.42c0-4.93-1.93-9.58-5.42-13.07c-3.5-3.5-8.15-5.43-13.08-5.43   c-10.2,0-18.5,8.3-18.5,18.5v4.56c0,27.52-10.71,53.38-30.17,72.84c-19.45,19.45-45.31,30.16-72.83,30.16   c-13.69,0-26.97-2.64-39.49-7.85l-31.11-12.94c7.23,1.82,14.8,2.79,22.6,2.79c4.45,0,8.83-0.32,13.12-0.93   c44.77-6.37,79.2-44.86,79.2-91.39c0-50.98-41.34-92.32-92.32-92.32c-15.53,0-30.16,3.84-43,10.62c-4.2,2.22-8.21,4.75-12,7.56   V154.6c0-9.08-3.54-17.62-9.96-24.05c-6.42-6.41-14.96-9.95-24.04-9.95c-18.75,0-34,15.25-34,34v17.91   c0,13.09-5.1,25.4-14.35,34.66c-9.27,9.25-21.57,14.34-34.65,14.34c-27.02,0-49-21.98-49-49v-29.89c3.66-7.13,7.67-14.05,12-20.76   C91.33,53.13,168.59,7.46,256.12,7.5c15.77,0.01,31.2,1.49,46.16,4.31c2.99,0.56,5.05,3.28,4.87,6.32   c-0.99,16.57,6.22,32.51,18.93,42.75c2.28,1.83,2.94,4.99,1.56,7.57c-1.85,3.46-3.39,7.15-4.57,11.05   c-9.86,32.47,8.47,66.78,40.94,76.64c6,1.82,12.07,2.67,18.03,2.65c2.59-0.01,4.89,1.64,5.69,4.1c6,18.45,20.61,33.77,40.6,39.84   c21.06,6.4,42.9,0.92,58.34-12.57c3.38-2.95,8.66-1.41,9.8,2.93C501.87,213.81,504.67,235.59,504.49,258.05z"/>
	<path id="XMLID_716_" style="fill:#F4BC8E;" d="M504.49,258.05c-0.24,30.08-5.77,58.84-15.71,85.41c-1.23,3.29-2.52,6.55-3.89,9.77   c-17-7.39-28.89-24.33-28.89-44.05v-50.42c0-8.42-3.42-16.04-8.94-21.56c-5.52-5.52-13.14-8.94-21.56-8.94   c-16.84,0-30.5,13.66-30.5,30.5v4.56c0,25.13-10.18,47.88-26.65,64.35c-16.47,16.47-39.22,26.65-64.35,26.65   c-12.36,0-24.14-2.46-34.88-6.93c44.77-6.37,79.2-44.86,79.2-91.39c0-50.98-41.34-92.32-92.32-92.32c-15.53,0-30.16,3.84-43,10.62   v-19.7c0-12.7-5.15-24.2-13.47-32.53c-8.33-8.32-19.83-13.47-32.53-13.47c-25.41,0-46,20.59-46,46v17.91   c0,10.22-4.14,19.47-10.84,26.17c-6.7,6.69-15.94,10.83-26.16,10.83c-20.43,0-37-16.56-37-37v-50.65c3.77-5.84,7.77-11.51,12-17   C104.53,45.7,176.03,7.46,256.12,7.5c15.77,0.01,31.2,1.49,46.16,4.31c2.99,0.56,5.05,3.28,4.87,6.32   c-0.99,16.57,6.22,32.51,18.93,42.75c2.28,1.83,2.94,4.99,1.56,7.57c-1.85,3.46-3.39,7.15-4.57,11.05   c-9.86,32.47,8.47,66.78,40.94,76.64c6,1.82,12.07,2.67,18.03,2.65c2.59-0.01,4.89,1.64,5.69,4.1c6,18.45,20.61,33.77,40.6,39.84   c21.06,6.4,42.9,0.92,58.34-12.57c3.38-2.95,8.66-1.41,9.8,2.93C501.87,213.81,504.67,235.59,504.49,258.05z"/>
	<path id="XMLID_717_" style="fill:#FBDBB7;" d="M504.49,258.05c-0.24,30.08-5.77,58.84-15.71,85.41c-3.3-2.87-6.56-5.67-9.74-8.32   c-6.93-6.67-11.04-15.98-11.04-25.96v-50.42c0-11.34-4.42-22.01-12.45-30.05c-8.04-8.03-18.71-12.45-30.05-12.45   c-23.43,0-42.5,19.07-42.5,42.5v4.56c0,21.11-8.22,40.95-23.14,55.86c-12.08,12.09-27.4,19.78-44.01,22.26   c6.83-4.79,13.11-10.41,18.69-16.78c16.63-19.01,25.78-43.39,25.78-68.66c0-57.52-46.8-104.32-104.32-104.32   c-10.52,0-21,1.61-31,4.71v-1.79c0-15.48-6.03-30.05-16.98-41.01C197.05,102.63,182.48,96.6,167,96.6c-31.98,0-58,26.02-58,58   v17.91c0,6.68-2.6,12.96-7.33,17.69c-4.72,4.71-11,7.31-17.67,7.31c-13.79,0-25-11.22-25-25v-67.65   C104.53,45.7,176.03,7.46,256.12,7.5c15.77,0.01,31.2,1.49,46.16,4.31c2.99,0.56,5.05,3.28,4.87,6.32   c-0.99,16.57,6.22,32.51,18.93,42.75c2.28,1.83,2.94,4.99,1.56,7.57c-1.85,3.46-3.39,7.15-4.57,11.05   c-9.86,32.47,8.47,66.78,40.94,76.64c6,1.82,12.07,2.67,18.03,2.65c2.59-0.01,4.89,1.64,5.69,4.1c6,18.45,20.61,33.77,40.6,39.84   c21.06,6.4,42.9,0.92,58.34-12.57c3.38-2.95,8.66-1.41,9.8,2.93C501.87,213.81,504.67,235.59,504.49,258.05z"/>
	<g id="XMLID_718_">
		<path id="XMLID_719_" d="M503.724,191.192c-1.186-4.541-4.567-8.075-9.046-9.453c-4.524-1.392-9.363-0.356-12.943,2.774    c-9.45,8.262-21.535,13.007-34.027,13.36c-4.141,0.117-7.402,3.568-7.285,7.709c0.117,4.14,3.533,7.388,7.709,7.285    c15.185-0.429,29.893-5.93,41.678-15.542c4.934,19.722,7.349,40.117,7.184,60.663c-0.239,29.714-5.936,58.171-16.103,84.439    C470.067,334.9,463.5,322.556,463.5,309.18v-50.42c0-10.141-3.955-19.682-11.137-26.864c-7.182-7.181-16.722-11.136-26.863-11.136    c-20.953,0-38,17.047-38,38v4.56c0,22.309-8.685,43.278-24.454,59.047C347.278,338.136,326.309,346.82,304,346.82    c-2.046,0-4.083-0.082-6.11-0.228c34.172-15.865,57.93-50.503,57.93-90.592c0-21.811-6.913-42.534-19.993-59.929    c-2.488-3.311-7.191-3.976-10.501-1.487c-3.312,2.489-3.977,7.191-1.487,10.502c11.109,14.775,16.981,32.381,16.981,50.915    c0,46.77-38.05,84.82-84.82,84.82c-46.77,0-84.82-38.05-84.82-84.82s38.05-84.82,84.82-84.82c15.704,0,31.041,4.328,44.354,12.515    c3.527,2.169,8.148,1.068,10.317-2.46c2.17-3.528,1.068-8.147-2.46-10.317c-15.678-9.641-33.732-14.737-52.212-14.737    c-12.498,0-24.464,2.316-35.5,6.529V154.6c0-14.282-5.563-27.717-15.67-37.837C194.717,106.663,181.282,101.1,167,101.1    c-29.5,0-53.5,24-53.5,53.5v17.91c0,7.882-3.07,15.292-8.639,20.863c-5.579,5.57-12.987,8.637-20.861,8.637    c-16.266,0-29.5-13.234-29.5-29.5v-47.65c0-0.261-0.013-0.518-0.039-0.772c9.01-13.663,19.471-26.526,31.331-38.38    C131.415,40.109,191.857,15,256,15c0.039,0,0.079,0,0.118,0c14.614,0.007,29.237,1.332,43.485,3.938    c-0.691,18.006,7.036,35.425,20.87,47.035c-1.863,3.644-3.402,7.458-4.58,11.348c-11.045,36.372,9.563,74.95,45.938,85.996    c6.215,1.886,12.644,2.883,19.127,2.965c5.28,15.384,15.788,28.404,29.688,36.749c3.548,2.13,8.157,0.982,10.29-2.57    c2.133-3.551,0.982-8.158-2.569-10.291c-11.121-6.677-19.468-17.19-23.502-29.601c-1.805-5.558-6.945-9.283-12.802-9.283    c-0.069,0.002-0.151,0-0.228,0c-5.303,0-10.566-0.782-15.646-2.324c-28.461-8.643-44.585-38.827-35.94-67.291    c1.01-3.336,2.358-6.597,4.009-9.693c3.058-5.735,1.599-12.86-3.47-16.944c-10.954-8.825-16.991-22.453-16.15-36.451    c0.411-6.809-4.305-12.892-10.969-14.148C288.104,1.501,272.108,0.008,256.125,0c-0.045,0-0.08,0-0.125,0    c-68.144,0-132.359,26.67-180.813,75.099C26.702,123.561,0,187.806,0,256c0,29.771,5.07,58.943,15.069,86.708    c9.66,26.823,23.684,51.723,41.681,74.008c1.482,1.835,3.651,2.788,5.839,2.788c1.655,0,3.32-0.545,4.708-1.666    c3.222-2.603,3.725-7.325,1.123-10.547C33.971,364.638,15,310.908,15,256c0-37.24,8.479-73.224,24.5-105.791v22.301    c0,24.538,19.962,44.5,44.5,44.5c11.876,0,23.049-4.625,31.464-13.027c8.406-8.407,13.036-19.584,13.036-31.473V154.6    c0-21.229,17.271-38.5,38.5-38.5c10.279,0,19.95,4.005,27.224,11.27c7.271,7.281,11.276,16.951,11.276,27.23v14.7    c0,0.206,0.014,0.409,0.031,0.611C176.027,187.274,156.18,219.361,156.18,256c0,55.041,44.779,99.82,99.82,99.82    c4.799,0,9.518-0.348,14.138-1.006c0.855,0.968,1.966,1.733,3.282,2.163c9.836,3.213,20.124,4.842,30.58,4.842    c26.314,0,51.052-10.245,69.652-28.847c18.603-18.601,28.848-43.338,28.848-69.653v-4.56c0-12.682,10.317-23,23-23    c6.135,0,11.908,2.395,16.257,6.743c4.349,4.349,6.743,10.122,6.743,16.257v50.42c0,19.392,10.055,37.217,26.447,47.294    C436.677,439.275,352.723,497,256,497c-61.438,0-119.957-23.139-164.776-65.155c-3.023-2.833-7.769-2.68-10.601,0.342    c-2.833,3.022-2.68,7.768,0.342,10.601C128.575,487.421,190.737,512,256,512c68.182,0,132.261-26.31,180.434-74.083    c48.175-47.776,75.009-111.633,75.559-179.808C512.175,235.429,509.393,212.915,503.724,191.192z"/>
		<path id="XMLID_720_" d="M159.191,383.376c0.012,0,0.024,0,0.036,0c4.125,0,7.479-3.334,7.499-7.465    c0.02-4.142-3.323-7.516-7.465-7.535l-0.104,0c-0.012,0-0.024,0-0.036,0c-4.125,0-7.479,3.334-7.499,7.465    c-0.02,4.142,3.323,7.516,7.465,7.535L159.191,383.376z"/>
		<path id="XMLID_721_" d="M203.017,381.512c0.012,0,0.024,0,0.036,0c4.125,0,7.479-3.334,7.499-7.465    c0.02-4.142-3.323-7.516-7.465-7.535l-0.104,0c-0.012,0-0.024,0-0.036,0c-4.125,0-7.479,3.334-7.499,7.465    c-0.02,4.142,3.323,7.516,7.465,7.535L203.017,381.512z"/>
		<path id="XMLID_722_" d="M385.071,400.501c0.013,0,0.023,0,0.036,0c4.125,0,7.479-3.335,7.499-7.465    c0.02-4.142-3.323-7.516-7.465-7.535l-0.104,0c-0.013,0-0.023,0-0.036,0c-4.125,0-7.479,3.335-7.499,7.465    c-0.02,4.142,3.323,7.516,7.465,7.535L385.071,400.501z"/>
		<path id="XMLID_723_" d="M281.766,467.596c0.012,0,0.023,0,0.036,0c4.125,0,7.479-3.334,7.499-7.465    c0.02-4.142-3.322-7.516-7.465-7.535l-0.104,0c-0.012,0-0.023,0-0.036,0c-4.125,0-7.479,3.334-7.499,7.465    c-0.02,4.142,3.322,7.516,7.465,7.535L281.766,467.596z"/>
		<path id="XMLID_724_" d="M125,250.492c4.142,0,7.5-3.358,7.5-7.5s-3.358-7.5-7.5-7.5h-0.104c-4.142,0-7.5,3.358-7.5,7.5    s3.358,7.5,7.5,7.5H125z"/>
	</g>
</g>















</svg>
