<?xml version="1.0" encoding="iso-8859-1"?>
<!-- Generator: Adobe Illustrator 19.0.0, SVG Export Plug-In . SVG Version: 6.00 Build 0)  -->
<svg version="1.1" id="Capa_1" xmlns="http://www.w3.org/2000/svg" xmlns:xlink="http://www.w3.org/1999/xlink" x="0px" y="0px"
	 viewBox="0 0 468.264 468.264" style="enable-background:new 0 0 468.264 468.264;" xml:space="preserve">
<path style="fill:#44C4A1;" d="M416.37,125.34c0-1.563,0.098-3.101,0.234-4.628c-8.265,5.554-18.211,8.8-28.917,8.8
	c-28.674,0-51.919-23.245-51.919-51.919c0-9.599,2.651-18.559,7.193-26.273c-2.357,0.328-4.746,0.555-7.193,0.555
	c-26.837,0-48.912-20.363-51.631-46.48c-75.27-16.377-157.04,4.626-215.556,63.141c-91.44,91.44-91.44,239.693,0,331.133
	c91.44,91.441,239.693,91.441,331.133,0.001c60.439-60.438,80.895-145.69,61.438-222.959
	C435.864,173.224,416.37,151.585,416.37,125.34z M287.128,287.083c-29.261,29.261-76.702,29.261-105.963,0
	c-29.261-29.261-29.261-76.701,0-105.962s76.702-29.261,105.963,0S316.389,257.823,287.128,287.083z"/>
<path style="fill:#E56353;" d="M416.37,125.34c0-1.563,0.098-3.101,0.234-4.628c-8.265,5.554-18.211,8.8-28.917,8.8
	c-11.91,0-22.848-4.053-31.608-10.797c-8.907,5.587-18.902,9.085-29.267,11.083c-27.783,5.353-41.118,27.938-47.305,44.76
	c2.638,2.014,5.211,4.152,7.622,6.564c29.261,29.261,29.261,76.701,0,105.962c-29.255,29.255-76.681,29.261-105.944,0.018
	c-5.262,18.345-21.106,33.815-35.265,44.52c-11.783,8.908-25.629,14.296-40.034,17.566c-25.567,5.806-38.441,26.463-44.733,42.668
	c2.413,2.642,4.872,5.256,7.427,7.813c91.44,91.441,239.693,91.441,331.133,0.001c60.441-60.44,80.889-145.691,61.426-222.961
	C435.858,173.218,416.37,151.581,416.37,125.34z"/>
<g>
	<path style="fill:#FCD462;" d="M202.496,404.408c-1.906-1.91-1.903-4.998,0.007-6.904l21.495-21.453
		c1.91-1.906,4.998-1.903,6.904,0.007c1.906,1.91,1.903,4.998-0.007,6.904l-21.495,21.453
		C207.49,406.321,204.402,406.318,202.496,404.408z"/>
	<path style="fill:#FCD462;" d="M89.509,141.886c-1.906-1.91-1.903-4.998,0.007-6.904l21.495-21.453
		c1.91-1.906,4.998-1.903,6.904,0.007c1.906,1.91,1.903,4.998-0.007,6.904l-21.495,21.453
		C94.503,143.799,91.415,143.796,89.509,141.886z"/>
</g>
<path style="fill:#2D93BA;" d="M164.417,167.809c-2.693,0.178-5.015-1.857-5.193-4.549l-2-30.301
	c-0.178-2.692,1.857-5.015,4.55-5.193c2.693-0.178,5.015,1.857,5.193,4.549l2,30.301
	C169.145,165.308,167.11,167.631,164.417,167.809z"/>
<path style="fill:#44C4A1;" d="M382.428,265.475c1.438,2.283,0.755,5.296-1.528,6.736l-25.689,16.202
	c-2.283,1.44-5.293,0.757-6.731-1.526c-1.438-2.283-0.755-5.296,1.528-6.736l25.689-16.202
	C377.98,262.509,380.99,263.192,382.428,265.475z"/>
<path style="fill:#2D93BA;" d="M288.039,414.676c-2.693,0.178-5.015-1.857-5.193-4.549l-2-30.301
	c-0.178-2.692,1.857-5.015,4.55-5.193c2.693-0.178,5.015,1.857,5.193,4.549l2,30.301
	C292.767,412.176,290.732,414.498,288.039,414.676z"/>
<g>
	<path style="fill:#E56353;" d="M241.788,91.503c-1.91,1.906-4.998,1.903-6.905-0.007L213.43,69.998
		c-1.906-1.91-1.903-4.998,0.007-6.904c1.91-1.906,4.998-1.903,6.905,0.007l21.454,21.497
		C243.701,86.509,243.698,89.597,241.788,91.503z"/>
	<path style="fill:#E56353;" d="M75.328,210.275c-1.91,1.906-4.998,1.903-6.905-0.007L46.97,188.77
		c-1.906-1.91-1.903-4.998,0.007-6.904c1.91-1.906,4.998-1.903,6.905,0.008l21.454,21.497
		C77.242,205.281,77.239,208.369,75.328,210.275z"/>
</g>
<path style="fill:#D15241;" d="M358.16,362.299c-1.91,1.906-4.998,1.903-6.905-0.007l-21.454-21.497
	c-1.906-1.91-1.903-4.998,0.007-6.904c1.91-1.906,4.998-1.903,6.905,0.008l21.454,21.497
	C360.073,357.305,360.07,360.393,358.16,362.299z"/>
<g>
	<path style="fill:#FCD462;" d="M91.634,292.219c-2.155-1.624-2.585-4.683-0.962-6.838l18.273-24.26
		c1.624-2.156,4.681-2.586,6.837-0.962c2.155,1.624,2.585,4.683,0.962,6.838l-18.273,24.26
		C96.847,293.413,93.789,293.843,91.634,292.219z"/>
	<path style="fill:#FCD462;" d="M404.135,236.761c-1.91,1.906-4.998,1.903-6.904-0.007l-21.453-21.495
		c-1.906-1.91-1.903-4.998,0.007-6.904c1.91-1.906,4.998-1.903,6.904,0.007l21.453,21.495
		C406.048,231.767,406.045,234.855,404.135,236.761z"/>
</g>
<g>
</g>
<g>
</g>
<g>
</g>
<g>
</g>
<g>
</g>
<g>
</g>
<g>
</g>
<g>
</g>
<g>
</g>
<g>
</g>
<g>
</g>
<g>
</g>
<g>
</g>
<g>
</g>
<g>
</g>
</svg>
