<svg height="464pt" viewBox="0 0 464 464" width="464pt" xmlns="http://www.w3.org/2000/svg"><path d="m232 0c-128.128906 0-232 103.871094-232 232s103.871094 232 232 232 232-103.871094 232-232-103.871094-232-232-232zm0 304c-39.765625 0-72-32.234375-72-72s32.234375-72 72-72 72 32.234375 72 72-32.234375 72-72 72zm0 0" fill="#f09e3e"/><path d="m428.128906 271.832031c-15.632812-24.253906-15.632812-55.410156 0-79.664062 14.9375-22.808594 15.847656-52.066407 2.355469-75.761719-13.492187-23.691406-39.117187-37.839844-66.355469-36.628906-28.640625 1.570312-55.453125-14.105469-68.128906-39.832032-11.984375-24.410156-36.808594-39.8789058-64-39.8789058s-52.015625 15.4687498-64 39.8789058c-12.667969 25.707032-39.453125 41.378907-68.070312 39.832032-27.242188-1.210938-52.867188 12.9375-66.359376 36.628906-13.492187 23.695312-12.582031 52.953125 2.359376 75.761719 15.628906 24.253906 15.628906 55.410156 0 79.664062-14.941407 22.808594-15.851563 52.066407-2.359376 75.761719 13.492188 23.691406 39.117188 37.839844 66.359376 36.628906 28.617187-1.546875 55.402343 14.125 68.070312 39.832032 11.96875 24.445312 36.8125 39.945312 64.03125 39.945312s52.0625-15.5 64.03125-39.945312c12.671875-25.707032 39.453125-41.378907 68.074219-39.832032 27.238281 1.210938 52.863281-12.9375 66.355469-36.628906 13.492187-23.695312 12.582031-52.953125-2.355469-75.761719zm-196.128906 32.167969c-39.765625 0-72-32.234375-72-72s32.234375-72 72-72 72 32.234375 72 72-32.234375 72-72 72zm0 0" fill="#bf7341"/><path d="m428.128906 271.832031c-15.632812-24.253906-15.632812-55.410156 0-79.664062 21.1875-32.691407 13.0625-76.25-18.488281-99.105469 12.40625 216.183594-138.984375 283.496094-266.28125 303.203125 10.5 6.949219 18.996094 16.53125 24.640625 27.789063 11.96875 24.445312 36.8125 39.945312 64.03125 39.945312s52.0625-15.5 64.03125-39.945312c12.671875-25.707032 39.453125-41.378907 68.074219-39.832032 27.238281 1.210938 52.863281-12.9375 66.355469-36.628906 13.492187-23.695312 12.582031-52.953125-2.355469-75.761719zm0 0" fill="#b06635"/><g fill="#734730"><path d="m200 64h16v32h-16zm0 0"/><path d="m250.347656 69.664062 11.3125-11.316406 24.003906 24.003906-11.316406 11.3125zm0 0"/><path d="m370.34375 309.660156 11.316406-11.316406 24 24.003906-11.3125 11.3125zm0 0"/><path d="m304 128h16v32h-16zm0 0"/><path d="m370.34375 133.65625 11.3125-11.3125 24.003906 24-11.316406 11.316406zm0 0"/><path d="m146.339844 125.65625 11.316406-11.316406 24 24.003906-11.3125 11.3125zm0 0"/><path d="m288 320h16v32h-16zm0 0"/><path d="m114.34375 325.65625 11.3125-11.3125 24.003906 24-11.316406 11.3125zm0 0"/><path d="m104 200h16v32h-16zm0 0"/><path d="m66.339844 290.339844 24.003906-24.003906 11.3125 11.3125-24 24.003906zm0 0"/><path d="m322.34375 290.34375 24.003906-24.003906 11.3125 11.316406-24 24zm0 0"/><path d="m186.34375 402.335938 24-24 11.3125 11.3125-24 24.003906zm0 0"/><path d="m66.34375 146.339844 24-24.003906 11.3125 11.316406-24 24zm0 0"/><path d="m338.347656 218.34375 24-24.003906 11.316406 11.3125-24.003906 24.003906zm0 0"/><path d="m250.347656 373.664062 11.3125-11.316406 24.003906 24.003906-11.316406 11.3125zm0 0"/><path d="m176 320h16v32h-16zm0 0"/></g></svg>