<svg id="icons" enable-background="new 0 0 64 64" height="512" viewBox="0 0 64 64" width="512" xmlns="http://www.w3.org/2000/svg"><path d="m32 57c15.46 0 28-12.54 28-28v6c0 15.46-12.54 28-28 28-15.47 0-28-12.54-28-28v-6c0 15.46 12.53 28 28 28z" fill="#f7c292"/><path d="m60 29c0 15.46-12.54 28-28 28-15.47 0-28-12.54-28-28s12.53-28 28-28c15.46 0 28 12.54 28 28zm-4.86 2.09c1.141-1.15 1.141-3.03-.01-4.19-1.149-1.14-1.58-3.319-.96-4.819.63-1.51-.09-3.25-1.6-3.87-1.5-.62-2.73-2.47-2.73-4.09 0-1.63-1.34-2.96-2.96-2.96-1.63 0-3.47-1.23-4.1-2.74-.62-1.5-2.351-2.22-3.86-1.6-1.5.619-3.68.189-4.83-.96-1.149-1.15-3.03-1.15-4.189 0-1.15 1.149-3.32 1.579-4.83.96-1.5-.62-3.24.1-3.86 1.6-.62 1.51-2.47 2.74-4.09 2.74-1.63-.011-2.96 1.33-2.96 2.95 0 1.63-1.23 3.47-2.74 4.1-1.5.62-2.22 2.36-1.6 3.86.62 1.51.189 3.68-.96 4.829-1.15 1.16-1.15 3.04 0 4.19 1.149 1.15 1.58 3.33.96 4.83s.1 3.24 1.6 3.86c1.51.619 2.74 2.47 2.73 4.1 0 1.62 1.34 2.96 2.96 2.96 1.63 0 3.47 1.23 4.1 2.73.62 1.51 2.36 2.229 3.86 1.6 1.51-.62 3.68-.19 4.83.97 1.159 1.15 3.04 1.15 4.189 0 1.15-1.16 3.33-1.59 4.83-.97 1.5.63 3.24-.09 3.86-1.6.63-1.5 2.47-2.73 4.1-2.73 1.62 0 2.96-1.33 2.96-2.96s1.23-3.47 2.73-4.1c1.51-.62 2.229-2.351 1.6-3.86-.62-1.5-.19-3.68.97-4.83z" fill="#ffd2a6"/><path d="m32 18c6.06 0 11 4.93 11 11 0 1.04-.14 2.04-.42 3-1.311-4.62-5.55-8-10.58-8s-9.27 3.38-10.59 7.99c-.27-.95-.41-1.96-.41-2.99 0-6.07 4.93-11 11-11z" fill="#f7c292"/><path d="m21.41 31.99c1.31 4.62 5.56 8.01 10.59 8.01 5.02 0 9.27-3.39 10.58-8 .28-.96.42-1.96.42-3 0-6.07-4.94-11-11-11-6.07 0-11 4.93-11 11 0 1.03.14 2.04.41 2.99zm33.72-5.091c1.15 1.16 1.15 3.04.01 4.19-1.159 1.15-1.59 3.33-.97 4.83.63 1.51-.09 3.24-1.6 3.86-1.5.63-2.73 2.47-2.73 4.1s-1.34 2.96-2.96 2.96c-1.63 0-3.47 1.23-4.1 2.73-.62 1.51-2.36 2.229-3.86 1.6-1.5-.62-3.68-.19-4.83.97-1.149 1.15-3.03 1.15-4.189 0-1.15-1.16-3.32-1.59-4.83-.97-1.5.63-3.24-.09-3.86-1.6-.63-1.5-2.47-2.73-4.1-2.73-1.62 0-2.96-1.34-2.96-2.96.01-1.63-1.221-3.48-2.73-4.1-1.5-.62-2.22-2.36-1.6-3.86s.189-3.68-.96-4.83c-1.15-1.15-1.15-3.03 0-4.19 1.149-1.149 1.58-3.319.96-4.829-.62-1.5.1-3.24 1.6-3.86 1.51-.63 2.74-2.47 2.74-4.1 0-1.62 1.33-2.961 2.96-2.95 1.62 0 3.47-1.23 4.09-2.74.62-1.5 2.36-2.22 3.86-1.6 1.51.619 3.68.189 4.83-.96 1.159-1.15 3.04-1.15 4.189 0 1.15 1.149 3.33 1.579 4.83.96 1.51-.62 3.24.1 3.86 1.6.63 1.51 2.47 2.74 4.1 2.74 1.62 0 2.96 1.33 2.96 2.96 0 1.62 1.23 3.47 2.73 4.09 1.51.62 2.229 2.36 1.6 3.87-.62 1.5-.19 3.68.96 4.819z" fill="#ec87c0"/></svg>