<svg height="511pt" viewBox="0 1 511 511.99994" width="511pt" xmlns="http://www.w3.org/2000/svg"><path d="m256.472656 7.523438c-137.238281 0-248.492187 111.25-248.492187 248.488281 0 137.640625 110.847656 248.488281 248.488281 248.488281 137.238281 0 248.488281-111.25 248.492188-248.488281 0-137.640625-110.847657-248.488281-248.488282-248.488281zm0 347.203124c-54.519531 0-98.71875-44.195312-98.71875-98.714843s44.199219-98.71875 98.71875-98.71875c54.519532 0 98.714844 44.199219 98.714844 98.71875s-44.195312 98.714843-98.714844 98.714843zm0 0" fill="#feef81"/><path d="m101.316406 246.007812c30.222656 0 36.898438 12.140626 56.71875 17.503907-.183594-2.476563-.28125-4.976563-.28125-7.5 0-54.519531 44.199219-98.71875 98.714844-98.71875 54.519531 0 98.714844 44.199219 98.714844 98.71875 0 2.523437-.09375 5.023437-.277344 7.496093 19.808594-5.363281 26.488281-17.5 56.703125-17.5 38.789063 0 38.789063 20 77.578125 20 6.046875 0 11.148438-.484374 15.605469-1.304687.097656-2.886719.167969-5.78125.167969-8.691406 0-137.640625-110.847657-248.488281-248.488282-248.488281-137.238281 0-248.492187 111.253906-248.492187 248.488281 0 2.910156.070312 5.804687.167969 8.691406 4.453124.820313 9.554687 1.304687 15.59375 1.304687 38.789062 0 38.789062-20 77.574218-20zm0 0" fill="#f18ba1"/><path d="m37.980469 256.011719c0-132.210938 103.257812-240.285157 233.523437-248.027344-4.972656-.292969-9.980468-.460937-15.03125-.460937-137.238281 0-248.492187 111.253906-248.492187 248.488281 0 137.640625 110.847656 248.488281 248.492187 248.488281 5.023438 0 10.011719-.164062 14.964844-.460938-130.589844-7.726562-233.457031-115.4375-233.457031-248.027343zm0 0" fill="#fee94f"/><path d="m38.148438 264.703125c-.101563-2.886719-.167969-5.78125-.167969-8.691406 0-132.210938 103.257812-240.285157 233.523437-248.027344-4.972656-.292969-9.980468-.460937-15.03125-.460937-137.238281 0-248.492187 111.253906-248.492187 248.488281 0 2.910156.070312 5.804687.167969 8.691406 4.453124.820313 9.554687 1.304687 15.59375 1.304687 5.78125 0 10.691406-.445312 15.007812-1.199218-.203125-.039063-.40625-.070313-.601562-.105469zm0 0" fill="#ea5172"/><path d="m276.46875 98.34375h-15v-15h15zm-24.996094 0h-15v-15h15zm0 0" fill="#fff"/><path d="m437.632812 74.847656c-98.140624-98.136718-260.527343-101.492187-362.171874.152344-49.609376 49.609375-77.277344 117-74.808594 189.957031l.203125 6.03125c8.152343 1.5 12.832031 2.519531 22.890625 2.519531 21.210937 0 32.371094-5.757812 42.222656-10.832031 9.539062-4.917969 17.773438-9.167969 35.351562-9.167969 17.570313 0 25.808594 4.25 35.351563 9.167969 13.171875 6.789063 15.238281 6.945313 29.640625 10.84375-.679688-9.023437-1.054688-12.765625-1.054688-17.507812 0-50.296875 40.917969-91.214844 91.214844-91.214844s91.21875 40.917969 91.21875 91.214844c0 4.523437-.257812 6.886719-1.054687 17.507812 14.394531-3.898437 16.460937-4.058593 29.625-10.84375 9.539062-4.917969 17.777343-9.167969 35.351562-9.167969s25.8125 4.25 35.351563 9.167969c9.847656 5.074219 21.011718 10.832031 42.226562 10.832031 10.4375 0 15.765625-1.210937 22.890625-2.519531l.207031-6.027343c2.484376-71.722657-24.253906-139.710938-74.65625-190.113282zm59.816407 183.296875c-2.597657.246094-5.335938.363281-8.261719.363281-17.574219 0-25.8125-4.246093-35.351562-9.164062-9.847657-5.078125-21.011719-10.835938-42.226563-10.835938-25.941406 0-36.777344 8.574219-48.972656 14.1875-1.757813-57.039062-48.707031-102.898437-106.167969-102.898437-57.457031 0-104.410156 45.863281-106.164062 102.90625-12.003907-5.523437-22.980469-14.195313-48.988282-14.195313-21.210937 0-32.375 5.757813-42.226562 10.835938-9.535156 4.917969-17.773438 9.164062-35.347656 9.164062-2.921876 0-5.65625-.117187-8.25-.359374-1.417969-132.773438 106.589843-243.125 240.980468-243.125 134.363282 0 242.398438 110.339843 240.976563 243.121093zm0 0"/><path d="m73.601562 177.445312h15v14.996094h-15zm0 0"/><path d="m124.421875 154.574219h15v15h-15zm0 0"/><path d="m121.457031 96.554688h15v15h-15zm0 0"/><path d="m369.636719 167.28125h15v15h-15zm0 0"/><path d="m420.28125 136.363281h15v15h-15zm0 0"/><path d="m357.128906 78.34375h15v15h-15zm0 0"/><path d="m438.863281 193.113281h15v15h-15zm0 0"/><path d="m314.878906 123.234375h15v15h-15zm0 0"/><path d="m173.214844 60.601562h15v15h-15zm0 0"/><path d="m256.472656 482c60.363282 0 117.113282-23.503906 159.796875-66.1875l-10.605469-10.605469c-39.851562 39.847657-92.835937 61.796875-149.191406 61.796875zm0 0"/><path d="m256.472656 347.226562c-38.660156 0-73.25-24.492187-86.070312-60.945312l-14.148438 4.976562c14.929688 42.449219 55.203125 70.96875 100.21875 70.96875s85.289063-28.519531 100.21875-70.972656l-14.148437-4.976562c-12.824219 36.457031-47.414063 60.949218-86.070313 60.949218zm0 0"/><path d="m256.472656 497c-120.894531 0-223.640625-90.164062-238.996094-209.726562l-14.875 1.910156c16.269532 126.691406 124.050782 222.816406 253.871094 222.816406 128.644532 0 237.386719-95.664062 253.847656-222.808594l-14.875-1.925781c-15.480468 119.570313-118.21875 209.734375-238.972656 209.734375zm0 0"/></svg>