<svg height="512" viewBox="0 0 64 64" width="512" xmlns="http://www.w3.org/2000/svg"><path d="m32 3a29 29 0 1 0 29 29 29 29 0 0 0 -29-29zm0 39a10 10 0 1 1 10-10 10 10 0 0 1 -10 10z" fill="#ffb655"/><path d="m48.63 25.11c.97 2.32 3.37 4.42 3.37 6.89s-2.4 4.57-3.37 6.89c-.92 2.24-.67 5.43-2.49 7.25s-5.01 1.57-7.25 2.49c-2.32.97-4.42 3.37-6.89 3.37s-4.57-2.4-6.89-3.37c-2.24-.92-5.43-.67-7.25-2.49s-1.57-5.01-2.49-7.25c-.97-2.32-3.37-4.42-3.37-6.89s2.4-4.57 3.37-6.89c.92-2.24.67-5.43 2.49-7.25s5.01-1.57 7.25-2.49c2.32-.97 4.42-3.37 6.89-3.37s4.57 2.4 6.89 3.37c2.24.92 5.43.67 7.25 2.49s1.57 5.01 2.49 7.25zm-6.63 6.89a10 10 0 1 0 -10 10 10 10 0 0 0 10-10z" fill="#f072ae"/><g fill="#b39a7c"><path d="m55 28h2v2h-2z"/><path d="m37 7h2v2h-2z"/><path d="m44 11h2v2h-2z"/><path d="m52 19h2v2h-2z"/><path d="m39 53h2v2h-2z"/><path d="m50 45h2v2h-2z"/><path d="m9 17h2v2h-2z"/><path d="m5 27h2v2h-2z"/><path d="m9 40h2v2h-2z"/><path d="m18 53h2v2h-2z"/><path d="m22 9h2v2h-2z"/></g></svg>