<?xml version="1.0" encoding="iso-8859-1"?>
<!-- Generator: Adobe Illustrator 19.0.0, SVG Export Plug-In . SVG Version: 6.00 Build 0)  -->
<svg version="1.1" id="Capa_1" xmlns="http://www.w3.org/2000/svg" xmlns:xlink="http://www.w3.org/1999/xlink" x="0px" y="0px"
	 viewBox="0 0 512 512" style="enable-background:new 0 0 512 512;" xml:space="preserve">
<path style="fill:#F7CD95;" d="M411.272,227.46c-27.989,0-40.843,16.69-54.931,32.021c-1.834,53.839-46.056,96.921-100.342,96.921
	c-55.45,0-100.401-44.951-100.401-100.401c0-1.169,0.02-2.333,0.06-3.492c-14.091,15.334-26.943,32.032-54.937,32.032
	c-46.512,0-51.226-46.098-89.267-55.441C10.493,237.935,10,246.91,10,256c0,135.862,110.138,246,246,246
	c126.771,0,231.146-95.892,244.546-219.099C462.501,273.559,457.788,227.46,411.272,227.46z"/>
<path style="fill:#8E4238;" d="M481.126,156.683c-8.54,8.909-20.561,14.456-33.877,14.456c-25.915,0-46.923-21.008-46.923-46.923
	c0-0.849,0.023-1.693,0.068-2.53c-19.627-5.614-33.993-23.688-33.993-45.118c0-12.896,5.203-24.577,13.624-33.058
	C343.611,22.209,301.231,10.001,256,10.001c-126.772,0-231.146,95.892-244.546,219.099c38.041,9.343,42.755,55.441,89.267,55.441
	c27.994,0,40.847-16.699,54.937-32.032c1.84-53.833,46.06-96.909,100.341-96.909C311.449,155.6,356.4,200.551,356.4,256
	c0,1.165-0.02,2.325-0.06,3.48c14.087-15.33,26.942-32.021,54.931-32.021c46.516,0,51.229,46.099,89.273,55.441
	c0.961-8.835,1.454-17.81,1.454-26.901C501.999,220.659,494.546,187.058,481.126,156.683z"/>
<path d="M256,407.265c-56.611,0-108.061-31.286-134.273-81.647c-2.55-4.899-0.645-10.938,4.254-13.487
	c4.896-2.55,10.937-0.646,13.487,4.254c22.755,43.721,67.408,70.881,116.532,70.881c52.409,0,99.663-30.827,120.386-78.536
	c2.201-5.065,8.093-7.388,13.156-5.189c5.065,2.201,7.388,8.091,5.188,13.156C370.833,371.714,316.377,407.265,256,407.265z"/>
<path d="M302.998,102.079c-0.87,0-1.754-0.114-2.634-0.354L242.624,86c-5.329-1.451-8.472-6.947-7.021-12.276
	c1.451-5.328,6.945-8.473,12.276-7.021l57.74,15.725c5.328,1.451,8.472,6.947,7.02,12.276
	C311.428,99.154,307.397,102.079,302.998,102.079z"/>
<path d="M406.961,208.413c-2.673,0-5.34-1.065-7.309-3.173l-22.48-24.058c-3.77-4.035-3.556-10.363,0.48-14.134
	c4.034-3.77,10.363-3.556,14.134,0.479l22.479,24.058c3.771,4.035,3.556,10.363-0.479,14.134
	C411.859,207.521,409.408,208.413,406.961,208.413z"/>
<path d="M122.398,181.684c-1.788,0-3.598-0.48-5.231-1.485c-4.704-2.895-6.17-9.054-3.276-13.757l21.683-35.235
	c2.895-4.704,9.055-6.17,13.757-3.276c4.704,2.895,6.171,9.054,3.276,13.757l-21.683,35.235
	C129.035,179.993,125.755,181.684,122.398,181.684z"/>
<path d="M188.566,110.392c-1.878,0-3.778-0.528-5.467-1.634l-25.406-16.629c-4.621-3.025-5.915-9.223-2.891-13.844
	c3.024-4.621,9.223-5.915,13.844-2.891l25.406,16.629c4.621,3.025,5.915,9.223,2.891,13.844
	C195.024,108.8,191.827,110.392,188.566,110.392z"/>
<path d="M490.274,152.642c-1.349-3.052-4.129-5.23-7.415-5.808s-6.643,0.52-8.951,2.928c-7.033,7.336-16.5,11.376-26.658,11.376
	c-20.359,0-36.923-16.563-36.923-36.923c0-0.656,0.019-1.327,0.054-1.995c0.25-4.656-2.752-8.868-7.235-10.15
	c-15.746-4.504-26.743-19.104-26.743-35.504c0-9.812,3.808-19.05,10.721-26.012c2.179-2.195,3.22-5.274,2.819-8.341
	c-0.4-3.066-2.197-5.775-4.867-7.337C346.07,12.061,301.436,0.001,256,0.001c-63.496,0-124.397,23.412-171.489,65.925
	c-46.742,42.197-76.218,99.76-82.998,162.088c0,0.002,0,0.003,0,0.005C0.509,237.247,0,246.661,0,256
	c0,68.38,26.628,132.667,74.981,181.019C123.333,485.372,187.62,512,256,512c63.495,0,124.397-23.412,171.488-65.924
	c46.742-42.197,76.218-99.761,82.999-162.089c0-0.001,0-0.003,0-0.005C511.491,274.753,512,265.339,512,256
	C512,220.047,504.69,185.271,490.274,152.642z M256,492c-130.13,0-236-105.869-236-236c0-4.192,0.112-8.401,0.332-12.598
	c7.931,4.656,14.244,11.618,21.223,19.315c13.525,14.917,28.855,31.823,59.165,31.823c21.533,0,35.505-8.533,46.641-18.823
	c9.323,51.501,54.49,90.684,108.638,90.684c28.823,0,56.097-11.041,76.797-31.087c19.749-19.125,31.504-44.479,33.348-71.743
	c0.258-0.284,0.516-0.569,0.774-0.853c12.29-13.553,22.903-25.258,44.354-25.258c21.449,0,32.063,11.705,44.353,25.257
	c9.013,9.938,19.044,21,33.971,27.11C473.042,405.645,374.009,492,256,492z M165.598,256c0-1.054,0.018-2.104,0.054-3.15v-0.001
	c1.672-48.925,41.357-87.251,90.347-87.251c49.848,0,90.401,40.554,90.401,90.401c0,1.05-0.018,2.095-0.053,3.135
	c0,0.001,0,0.003,0,0.004c-1.667,48.932-41.353,87.262-90.348,87.262C206.152,346.401,165.598,305.847,165.598,256z
	 M491.668,268.599c-7.932-4.656-14.246-11.619-21.227-19.317c-13.526-14.916-28.857-31.822-59.169-31.822
	c-21.528,0-35.501,8.529-46.636,18.815c-9.328-51.495-54.494-90.676-108.637-90.676c-28.821,0-56.093,11.039-76.793,31.083
	c-19.748,19.123-31.505,44.473-33.352,71.734c-0.262,0.289-0.523,0.578-0.786,0.866c-12.288,13.553-22.902,25.258-44.349,25.258
	s-32.06-11.705-44.349-25.257c-9.012-9.939-19.041-21.001-33.969-27.111C38.956,106.354,137.989,20.001,256,20.001
	c38.032,0,75.447,9.161,108.916,26.583c-5.546,8.918-8.514,19.227-8.514,29.983c0,5.889,0.921,11.628,2.64,17.054l-22.426,24
	c-3.771,4.035-3.556,10.363,0.479,14.134c1.928,1.802,4.379,2.693,6.825,2.693c2.673,0,5.34-1.065,7.309-3.173l17.796-19.045
	c5.664,7.046,12.991,12.767,21.478,16.493c2.306,29.288,26.876,52.415,56.746,52.415c10.673,0,20.851-2.893,29.683-8.314
	C486.936,199.339,492,227.257,492,256C492,260.193,491.888,264.403,491.668,268.599z"/>
<path d="M85.002,230.103c-3.358,0-6.637-1.691-8.526-4.761L63.13,203.654c-2.895-4.704-1.428-10.863,3.276-13.757
	c4.703-2.895,10.862-1.428,13.757,3.276l13.346,21.688c2.895,4.704,1.428,10.863-3.276,13.757
	C88.6,229.622,86.79,230.103,85.002,230.103z"/>
<circle cx="395.56" cy="277.06" r="9.994"/>
<g>
</g>
<g>
</g>
<g>
</g>
<g>
</g>
<g>
</g>
<g>
</g>
<g>
</g>
<g>
</g>
<g>
</g>
<g>
</g>
<g>
</g>
<g>
</g>
<g>
</g>
<g>
</g>
<g>
</g>
</svg>
