<svg height="464pt" viewBox="0 -22 464 464" width="464pt" xmlns="http://www.w3.org/2000/svg"><path d="m232 10.167969c-106.039062 0-192 89.542969-192 200s85.960938 200 192 200 192-89.542969 192-200-85.960938-200-192-200zm0 280c-44.183594 0-80-35.816407-80-80 0-44.183594 35.816406-80 80-80s80 35.816406 80 80c0 44.183593-35.816406 80-80 80zm0 0" fill="#ecaf4a"/><path d="m371.128906 247.457031c3.351563-12.554687 20.871094-23.6875 20.871094-37.289062 0-13.601563-17.519531-24.734375-20.871094-37.289063-3.472656-12.984375 6.03125-31.359375-.542968-42.726562-6.675782-11.535156-27.402344-12.449219-36.761719-21.808594s-10.273438-30.085938-21.824219-36.757812c-11.375-6.578126-29.753906 2.925781-42.734375-.546876-12.53125-3.351562-23.664063-20.871093-37.265625-20.871093s-24.734375 17.519531-37.289062 20.871093c-12.984376 3.472657-31.359376-6.03125-42.726563.546876-11.535156 6.671874-12.449219 27.398437-21.808594 36.757812s-30.085937 10.273438-36.761719 21.824219c-6.574218 11.375 2.929688 29.753906-.542968 42.734375-3.351563 12.53125-20.871094 23.664062-20.871094 37.265625 0 13.601562 17.519531 24.734375 20.871094 37.289062 3.472656 12.984375-6.03125 31.359375.542968 42.726563 6.675782 11.535156 27.402344 12.449218 36.761719 21.808594 9.359375 9.359374 10.273438 30.085937 21.824219 36.761718 11.375 6.574219 29.753906-2.929687 42.734375.542969 12.53125 3.351563 23.664063 20.871094 37.265625 20.871094s24.734375-17.519531 37.289062-20.871094c12.984376-3.472656 31.359376 6.03125 42.726563-.542969 11.535156-6.675781 12.449219-27.402344 21.808594-36.761718 9.359375-9.359376 30.085937-10.273438 36.761719-21.824219 6.574218-11.351563-2.929688-29.726563.542968-42.710938zm-139.128906 42.710938c-44.183594 0-80-35.816407-80-80 0-44.183594 35.816406-80 80-80s80 35.816406 80 80c0 44.183593-35.816406 80-80 80zm0 0" fill="#e9589d"/><path d="m320 210.167969c0-48.601563-39.398438-88-88-88s-88 39.398437-88 88c0 48.601562 39.398438 88 88 88 48.578125-.058594 87.941406-39.421875 88-88zm-160 0c0-39.765625 32.234375-72 72-72s72 32.234375 72 72-32.234375 72-72 72c-39.746094-.046875-71.953125-32.253907-72-72zm0 0"/><path d="m344.113281 0-7.945312 13.886719c62.675781 36.441406 103.898437 100.902343 110.6875 173.082031l15.921875-1.601562c-7.3125-77.320313-51.507813-146.355469-118.664063-185.367188zm0 0"/><path d="m448 210.167969c0 2.59375-.039062 5.167969-.128906 7.742187l16 .515625c.128906-2.746093.128906-5.496093.128906-8.257812s-.039062-5.511719-.136719-8.257813l-16 .515625c.136719 2.574219.136719 5.148438.136719 7.742188zm0 0"/><path d="m17.144531 233.367188-15.921875 1.601562c7.3125 77.320312 51.507813 146.355469 118.664063 185.367188l7.945312-13.886719c-62.675781-36.441407-103.898437-100.902344-110.6875-173.082031zm0 0"/><path d="m16.128906 217.910156c-.089844-2.574218-.128906-5.148437-.128906-7.742187s0-5.167969.128906-7.742188l-16-.515625c-.0898435 2.746094-.128906 5.496094-.128906 8.257813s0 5.511719.136719 8.257812zm0 0"/><path d="m432 210.167969c0-114.6875-89.71875-208-200-208s-200 93.3125-200 208 89.71875 208 200 208 200-93.3125 200-208zm-384 0c0-105.863281 82.542969-192 184-192s184 86.136719 184 192-82.542969 192-184 192-184-86.136719-184-192zm0 0"/><path d="m258.238281 365.480469c3.835938-3.578125 8.273438-6.441407 13.113281-8.457031 5.429688-.746094 10.945313-.503907 16.289063.710937 9.417969 2.558594 19.425781 1.832031 28.375-2.0625 7.925781-5.867187 13.609375-14.261719 16.113281-23.800781 1.574219-5.144532 4.066406-9.960938 7.351563-14.222656 4.261719-3.28125 9.082031-5.769532 14.222656-7.34375 9.539063-2.511719 17.9375-8.203126 23.800781-16.136719 3.890625-8.949219 4.617188-18.957031 2.0625-28.375-1.214844-5.347657-1.453125-10.867188-.710937-16.296875 2.019531-4.839844 4.882812-9.277344 8.457031-13.113282 7.101562-7.03125 11.582031-16.28125 12.6875-26.214843-1.101562-9.941407-5.582031-19.203125-12.6875-26.238281-3.578125-3.835938-6.441406-8.273438-8.457031-13.113282-.742188-5.429687-.5-10.945312.710937-16.289062 2.558594-9.417969 1.832032-19.425782-2.0625-28.375-5.867187-7.925782-14.261718-13.609375-23.800781-16.113282-5.144531-1.574218-9.960937-4.066406-14.222656-7.351562-3.28125-4.261719-5.769531-9.082031-7.34375-14.222656-2.511719-9.539063-8.203125-17.9375-16.136719-23.800782-8.953125-3.882812-18.957031-4.609374-28.375-2.0625-5.34375 1.222657-10.867188 1.460938-16.296875.710938-4.839844-2.019531-9.277344-4.882812-13.113281-8.457031-7.03125-7.101563-16.28125-11.582031-26.214844-12.6875-9.941406 1.101562-19.203125 5.582031-26.238281 12.6875-3.835938 3.578125-8.273438 6.441406-13.113281 8.457031-5.429688.746094-10.945313.503906-16.289063-.710938-9.417969-2.558593-19.425781-1.832031-28.375 2.0625-7.925781 5.867188-13.609375 14.261719-16.113281 23.800782-1.574219 5.144531-4.066406 9.960937-7.351563 14.222656-4.261719 3.28125-9.082031 5.769531-14.222656 7.34375-9.539063 2.511719-17.9375 8.203125-23.800781 16.136719-3.890625 8.949219-4.617188 18.957031-2.0625 28.375 1.214844 5.347656 1.453125 10.867187.710937 16.296875-2.019531 4.839844-4.882812 9.277344-8.457031 13.113281-7.101562 7.03125-11.582031 16.28125-12.6875 26.214844 1.101562 9.941406 5.582031 19.203125 12.6875 26.238281 3.578125 3.835938 6.441406 8.273438 8.457031 13.113281.742188 5.429688.5 10.945313-.710937 16.289063-2.558594 9.417968-1.832032 19.425781 2.0625 28.375 5.867187 7.925781 14.261718 13.609375 23.800781 16.113281 5.144531 1.574219 9.960937 4.066406 14.222656 7.351563 3.28125 4.261718 5.769531 9.082031 7.34375 14.222656 2.511719 9.539062 8.203125 17.9375 16.136719 23.800781 8.949219 3.890625 18.957031 4.617187 28.375 2.0625 5.347656-1.214844 10.867188-1.453125 16.296875-.710937 4.839844 2.019531 9.277344 4.882812 13.113281 8.457031 7.03125 7.101562 16.28125 11.582031 26.214844 12.6875 9.941406-1.101563 19.203125-5.582031 26.238281-12.6875zm-61.4375-23.914063c-2.875-.738281-5.832031-1.09375-8.800781-1.0625-4.691406.121094-9.363281.59375-13.984375 1.417969-5.882813 1.644531-12.109375 1.613281-17.976563-.097656-4.492187-4.277344-7.6875-9.738281-9.207031-15.753907-2.25-7.261718-5.976562-13.980468-10.945312-19.734374-5.753907-4.972657-12.472657-8.699219-19.734375-10.953126-6.015625-1.519531-11.480469-4.710937-15.761719-9.207031-1.699219-5.863281-1.726563-12.085937-.085937-17.96875 1.683593-7.503906 1.800781-15.273437.351562-22.824219-2.464844-7.050781-6.355469-13.519531-11.433594-19-4.570312-4.402343-7.773437-10.035156-9.222656-16.214843 1.433594-6.171875 4.617188-11.804688 9.167969-16.214844 5.074219-5.476563 8.964843-11.941406 11.433593-18.984375 1.449219-7.550781 1.328126-15.316406-.355468-22.816406-1.640625-5.882813-1.609375-12.109375.097656-17.976563 4.277344-4.492187 9.738281-7.6875 15.753906-9.207031 7.261719-2.253906 13.980469-5.976562 19.734375-10.945312 4.972657-5.753907 8.699219-12.472657 10.953125-19.734376 1.519532-6.019531 4.710938-11.480468 9.207032-15.761718 5.863281-1.699219 12.085937-1.730469 17.96875-.085938 7.503906 1.671875 15.269531 1.792969 22.824218.351563 7.050782-2.464844 13.519532-6.355469 19-11.433594 4.410156-4.558594 10.039063-7.75 16.214844-9.191406 6.171875 1.433593 11.804688 4.617187 16.214844 9.167969 5.476562 5.074218 11.941406 8.964843 18.984375 11.433593 7.550781 1.453125 15.316406 1.332031 22.816406-.355469 5.886719-1.632812 12.109375-1.601562 17.976563.097657 4.492187 4.277343 7.6875 9.738281 9.207031 15.753906 2.253906 7.261719 5.976562 13.980469 10.945312 19.734375 5.753907 4.972656 12.472657 8.699219 19.734375 10.953125 6.019532 1.519531 11.480469 4.710937 15.761719 9.207031 1.699219 5.863282 1.730469 12.085938.085937 17.96875-1.683593 7.503906-1.800781 15.273438-.351562 22.824219 2.464844 7.050781 6.355469 13.519531 11.433594 19 4.558594 4.410156 7.75 10.039063 9.191406 16.214844-1.433594 6.171875-4.617188 11.804687-9.167969 16.214843-5.074219 5.476563-8.964843 11.941407-11.433593 18.984376-1.449219 7.550781-1.328126 15.316406.355468 22.816406 1.640625 5.882812 1.609375 12.109375-.097656 17.976562-4.277344 4.492188-9.738281 7.6875-15.753906 9.207032-7.261719 2.253906-13.980469 5.976562-19.734375 10.945312-4.972657 5.753906-8.699219 12.472656-10.953125 19.734375-1.519532 6.019531-4.710938 11.480469-9.207032 15.761719-5.863281 1.707031-12.089843 1.738281-17.96875.085937-7.5-1.683593-15.273437-1.804687-22.824218-.351562-7.050782 2.464843-13.519532 6.355469-19 11.433593-4.410156 4.558594-10.039063 7.75-16.214844 9.191407-6.171875-1.433594-11.804688-4.617188-16.214844-9.167969-5.476562-5.074219-11.941406-8.964844-18.984375-11.433594zm0 0"/><path d="m224 82.167969h16v16h-16zm0 0"/><path d="m161.074219 103.316406 13.855469-7.996094 8 13.855469-13.855469 8zm0 0"/><path d="m117.152344 153.097656 8-13.855468 13.859375 8-8 13.855468zm0 0"/><path d="m104 202.167969h16v16h-16zm0 0"/><path d="m117.152344 267.238281 13.855468-7.996093 8 13.855468-13.855468 8zm0 0"/><path d="m161.070312 317.015625 7.996094-13.855469 13.859375 7.996094-8 13.859375zm0 0"/><path d="m224 322.167969h16v16h-16zm0 0"/><path d="m281.074219 311.152344 13.859375-7.996094 7.996094 13.855469-13.855469 8zm0 0"/><path d="m324.996094 273.101562 7.996094-13.855468 13.859374 7.996094-8 13.859374zm0 0"/><path d="m344 202.167969h16v16h-16zm0 0"/><path d="m324.988281 147.238281 13.859375-7.996093 7.996094 13.855468-13.855469 8zm0 0"/><path d="m281.070312 109.175781 8-13.855469 13.859376 7.996094-8 13.859375zm0 0"/></svg>