<svg height="511pt" viewBox="-10 1 511 511.99899" width="511pt" xmlns="http://www.w3.org/2000/svg"><path d="m420.308594 75.222656c-46.445313-48.507812-108.25-75.222656-174.019532-75.222656-65.773437 0-127.578124 26.714844-174.027343 75.21875-46.277344 48.328125-71.761719 112.53125-71.761719 180.785156s25.484375 132.460938 71.761719 180.78125c46.449219 48.503906 108.25 75.214844 174.027343 75.214844 65.773438 0 127.574219-26.710938 174.019532-75.214844 46.273437-48.324218 71.757812-112.527344 71.757812-180.78125s-25.484375-132.457031-71.757812-180.78125zm-174.019532 253.945313c-40.566406 0-73.570312-34.3125-73.570312-76.488281 0-42.183594 33.003906-76.5 73.570312-76.5 40.566407 0 73.570313 34.316406 73.570313 76.5 0 42.175781-33.003906 76.488281-73.570313 76.488281zm0 0" fill="#f7b545"/><path d="m172.71875 252.679688c0-42.179688 33-76.496094 73.5625-76.5v-176.179688c-65.769531 0-127.570312 26.714844-174.019531 75.21875-46.277344 48.328125-71.761719 112.53125-71.761719 180.785156s25.484375 132.460938 71.761719 180.78125c46.449219 48.5 108.25 75.210938 174.019531 75.214844v-182.832031c-40.5625-.003907-73.5625-34.316407-73.5625-76.488281zm0 0" fill="#fecb5b"/><path d="m420.308594 75.222656c-46.445313-48.507812-108.25-75.222656-174.019532-75.222656-65.773437 0-127.578124 26.714844-174.027343 75.21875-46.277344 48.328125-71.761719 112.53125-71.761719 180.785156 0 66.714844 24.515625 129.882813 69.03125 177.863282l4.875 5.253906 7.15625-.441406c26.386719-1.625 39.875-20.210938 50.710938-35.148438 10.554687-14.542969 17.144531-22.773438 29.863281-22.773438 10.972656 0 18.125 12.515626 28.605469 33.128907 11.253906 22.136719 25.261718 49.691406 55.601562 49.691406 30.335938 0 44.339844-27.550781 55.589844-49.6875 10.480468-20.613281 17.632812-33.132813 28.601562-33.132813 12.703125 0 19.289063 8.226563 29.832032 22.765626 10.824218 14.917968 24.289062 33.484374 50.621093 35.152343l7.171875.453125 4.882813-5.265625c44.507812-47.980469 69.023437-111.144531 69.023437-177.859375-.003906-68.253906-25.484375-132.457031-71.757812-180.78125zm-174.019532 253.945313c-40.566406 0-73.570312-34.3125-73.570312-76.488281 0-42.183594 33.003906-76.5 73.570312-76.5 40.566407 0 73.570313 34.316406 73.570313 76.5 0 42.175781-33.003906 76.488281-73.570313 76.488281zm0 0" fill="#ff819a"/><path d="m172.71875 252.679688c0-42.179688 33-76.496094 73.5625-76.5v-176.179688c-65.769531 0-127.570312 26.714844-174.019531 75.21875-46.277344 48.328125-71.761719 112.53125-71.761719 180.785156 0 66.714844 24.515625 129.882813 69.03125 177.863282l4.875 5.253906 7.15625-.441406c26.386719-1.625 39.875-20.210938 50.710938-35.148438 10.554687-14.542969 17.144531-22.773438 29.863281-22.773438 10.972656 0 18.125 12.515626 28.605469 33.128907 11.246093 22.125 25.242187 49.652343 55.539062 49.6875v-134.40625c-40.5625-.003907-73.5625-34.316407-73.5625-76.488281zm0 0" fill="#ffa9a5"/><path d="m96.976562 292.511719c-4.109374 0-8.207031-1.664063-11.191406-4.945313l-19.480468-21.378906c-5.628907-6.183594-5.183594-15.753906.996093-21.382812 6.179688-5.628907 15.753907-5.183594 21.382813.996093l19.480468 21.378907c5.628907 6.183593 5.183594 15.753906-.996093 21.382812-2.902344 2.644531-6.550781 3.949219-10.191407 3.949219zm0 0" fill="#f4f4f6"/><path d="m423.113281 257.164062c-2.203125 0-4.441406-.480468-6.5625-1.503906l-26.046875-12.558594c-7.53125-3.632812-10.691406-12.675781-7.0625-20.207031s12.679688-10.695312 20.207032-7.0625l26.050781 12.558594c7.527343 3.628906 10.691406 12.675781 7.058593 20.207031-2.605468 5.410156-8.015624 8.566406-13.644531 8.566406zm0 0" fill="#e3e4e8"/><path d="m378.726562 197.429688c-1.214843 0-2.445312-.144532-3.675781-.453126l-28.070312-7.003906c-8.109375-2.023437-13.042969-10.242187-11.019531-18.351562 2.023437-8.113282 10.246093-13.050782 18.351562-11.023438l28.066406 7.007813c8.113282 2.023437 13.046875 10.238281 11.023438 18.351562-1.71875 6.878907-7.890625 11.472657-14.675782 11.472657zm0 0" fill="#e3e4e8"/><g fill="#f4f4f6"><path d="m99.9375 363.960938c-4.140625 0-8.269531-1.691407-11.257812-5.011719-5.589844-6.210938-5.085938-15.785157 1.125-21.375l21.5-19.351563c6.214843-5.589844 15.785156-5.085937 21.378906 1.125 5.589844 6.214844 5.085937 15.785156-1.125 21.378906l-21.5 19.347657c-2.894532 2.605469-6.515625 3.886719-10.121094 3.886719zm0 0"/><path d="m144.488281 122.460938c-6.488281 0-12.484375-4.203126-14.476562-10.726563-2.433594-8 2.070312-16.457031 10.066406-18.894531l27.671875-8.433594c8-2.433594 16.453125 2.070312 18.890625 10.066406s-2.070313 16.453125-10.066406 18.890625l-27.667969 8.433594c-1.472656.449219-2.957031.664063-4.417969.664063zm0 0"/><path d="m96.21875 208.886719c-8.214844 0-14.957031-6.574219-15.128906-14.824219-.167969-8.359375 6.464844-15.273438 14.824218-15.445312l28.910157-.59375c.105469-.003907.214843-.003907.316406-.003907 8.21875 0 14.957031 6.574219 15.128906 14.824219.171875 8.359375-6.464843 15.273438-14.824219 15.445312l-28.910156.59375c-.105468.003907-.210937.003907-.316406.003907zm0 0"/></g><path d="m328.328125 140.054688c-2.675781 0-5.386719-.710938-7.84375-2.203126-7.144531-4.339843-9.417969-13.652343-5.074219-20.792968l15.015625-24.71875c4.339844-7.140625 13.652344-9.414063 20.796875-5.074219 7.144532 4.339844 9.414063 13.652344 5.074219 20.796875l-15.015625 24.714844c-2.851562 4.6875-7.839844 7.277344-12.953125 7.277344zm0 0" fill="#e3e4e8"/><path d="m280.25 102.792969c-2.585938 0-5.203125-.660157-7.597656-2.054688l-24.992188-14.542969c-7.226562-4.207031-9.671875-13.472656-5.46875-20.695312 4.207032-7.226562 13.472656-9.671875 20.695313-5.472656l24.992187 14.542968c7.222656 4.207032 9.671875 13.472657 5.46875 20.699219-2.8125 4.828125-7.886718 7.523438-13.097656 7.523438zm0 0" fill="#e3e4e8"/><path d="m242.191406 65.5c-3.933594 6.757812-2.042968 15.296875 4.128906 19.816406v-24.40625c-1.628906 1.195313-3.046874 2.730469-4.128906 4.589844zm0 0" fill="#f4f4f6"/><path d="m395.066406 350.992188c-7.25 0-13.65625-5.226563-14.90625-12.617188l-4.816406-28.507812c-1.390625-8.246094 4.160156-16.054688 12.402344-17.449219 8.25-1.398438 16.054687 4.164062 17.449218 12.40625l4.816407 28.507812c1.390625 8.242188-4.160157 16.054688-12.40625 17.445313-.851563.144531-1.703125.214844-2.539063.214844zm0 0" fill="#e3e4e8"/><path d="m229.09375 150.199219c-5.925781 0-11.546875-3.5-13.972656-9.308594l-11.144532-26.691406c-3.21875-7.710938.425782-16.578125 8.136719-19.796875 7.714844-3.21875 16.582031.421875 19.800781 8.136718l11.140626 26.6875c3.21875 7.714844-.421876 16.582032-8.136719 19.800782-1.90625.796875-3.882813 1.171875-5.824219 1.171875zm0 0" fill="#f4f4f6"/><path d="m257.96875 395.527344c-3.105469 0-6.242188-.953125-8.9375-2.929688l-23.320312-17.101562c-6.742188-4.945313-8.199219-14.417969-3.253907-21.15625 4.941407-6.742188 14.414063-8.203125 21.15625-3.257813l23.320313 17.101563c6.738281 4.941406 8.199218 14.417968 3.253906 21.15625-2.964844 4.046875-7.5625 6.1875-12.21875 6.1875zm0 0" fill="#f4f4f6"/><path d="m222.457031 354.339844c-4.945312 6.738281-3.488281 16.210937 3.253907 21.15625l20.613281 15.113281v-37.539063l-2.710938-1.984374c-6.742187-4.949219-16.214843-3.488282-21.15625 3.253906zm0 0" fill="#f4f4f6"/></svg>