<?xml version="1.0" encoding="iso-8859-1"?>
<!-- Generator: Adobe Illustrator 19.0.0, SVG Export Plug-In . SVG Version: 6.00 Build 0)  -->
<svg version="1.1" id="Capa_1" xmlns="http://www.w3.org/2000/svg" xmlns:xlink="http://www.w3.org/1999/xlink" x="0px" y="0px"
	 viewBox="0 0 512 512" style="enable-background:new 0 0 512 512;" xml:space="preserve">
<path style="fill:#F9CE65;" d="M256,0C114.615,0,0,114.615,0,256s114.615,256,256,256s256-114.615,256-256S397.385,0,256,0z
	 M255.816,355.159c-54.764,0-99.159-44.395-99.159-99.159s44.395-99.159,99.159-99.159s99.159,44.395,99.159,99.159
	S310.58,355.159,255.816,355.159z"/>
<path style="fill:#F5B458;" d="M326.373,9.798c37.463,44.521,60.045,101.977,60.045,164.717c0,141.385-114.615,256-256,256
	c-24.406,0-48.014-3.419-70.373-9.798C107.005,476.525,177.355,512,256,512c141.385,0,256-114.615,256-256
	C512,139.022,433.539,40.372,326.373,9.798z"/>
<g>
	<circle style="fill:#FCE000;" cx="131.51" cy="285.14" r="8"/>
	<circle style="fill:#FCE000;" cx="249.07" cy="405.78" r="8"/>
	<circle style="fill:#FCE000;" cx="41.892" cy="339.17" r="8"/>
</g>
<circle style="fill:#8B66BC;" cx="73.28" cy="382.19" r="8"/>
<circle style="fill:#E63535;" cx="109.26" cy="418.24" r="8"/>
<circle style="fill:#FCE000;" cx="139.52" cy="386.24" r="8"/>
<circle style="fill:#EA5CCF;" cx="144.44" cy="331.17" r="8"/>
<circle style="fill:#E63535;" cx="194.18" cy="386.24" r="8"/>
<circle style="fill:#FCE000;" cx="394.35" cy="386.24" r="8"/>
<circle style="fill:#8B66BC;" cx="413.9" cy="315.17" r="8"/>
<circle style="fill:#E63535;" cx="455.04" cy="357.7" r="8"/>
<circle style="fill:#EA5CCF;" cx="370.98" cy="433.77" r="8"/>
<circle style="fill:#8B66BC;" cx="316.99" cy="398.19" r="8"/>
<circle style="fill:#231F20;" cx="81.28" cy="248" r="8"/>
<circle style="fill:#8B66BC;" cx="301.81" cy="469.07" r="8"/>
<g>
	<path style="fill:#EA5CCF;" d="M256.09,0.001c-1.224,0.001-2.441,0.027-3.661,0.044c-0.864,0.012-1.731,0.013-2.594,0.033
		c-1.994,0.049-3.983,0.122-5.965,0.216c-0.077,0.004-0.154,0.005-0.23,0.009C114.986,6.51,11.257,107.691,1.024,235.25
		c-0.101,0.311-0.185,0.631-0.268,0.949c-0.268,3.498-0.446,7.02-0.572,10.556v18.489c0.455,12.806,1.845,25.373,4.114,37.633
		c2.965,3.601,7.297,6.011,12.256,6.244c5.968,0.281,11.298-2.484,14.582-6.872c2.559-3.419,3.364-7.783,2.867-12.024
		c-0.073-0.627-0.112-1.264-0.112-1.911v-27.428c0-9.392,7.614-17.006,17.006-17.006l0,0c9.392,0,17.006,7.614,17.006,17.006v5.088
		v22.341v43.93c0,7.81,6.002,14.531,13.803,14.898c8.329,0.392,15.205-6.245,15.205-14.488v-37.29
		c0-21.74,17.624-39.364,39.364-39.364h20.014c0-54.764,44.395-99.159,99.159-99.159c54.762,0,99.156,44.392,99.159,99.154
		l0.367,70.952c0,10.708,5.3,19.479,16.002,19.859c11.235,0.399,16.435-8.24,16.435-19.386c0,0,0.076-43.654,0.865-46.033v-20.232
		c0-13.738,11.137-24.875,24.875-24.875l0,0c13.738,0,24.875,11.137,24.875,24.875v37.136v0.028
		c-0.002,2.808,0.836,5.583,2.533,7.82c3.294,4.343,8.503,7.151,14.376,7.151l0,0c9.976,0,18.063-8.087,18.063-18.063v-7.04
		c0-17.777,14.411-32.188,32.188-32.188H512C512,114.645,397.433,0.05,256.09,0.001z"/>
	<circle style="fill:#EA5CCF;" cx="239.81" cy="461.06" r="8"/>
</g>
<path style="fill:#DB49AE;" d="M326.373,9.798c37.462,44.521,60.045,101.977,60.045,164.716c0,44.691-11.463,86.701-31.593,123.269
	l0.151,29.164c0,10.708,5.3,19.479,16.002,19.859c11.235,0.399,16.435-8.24,16.435-19.386c0,0,0.076-43.654,0.865-46.033v-20.232
	c0-13.738,11.137-24.875,24.875-24.875l0,0c13.738,0,24.875,11.137,24.875,24.875v37.137v0.028c-0.002,2.808,0.836,5.582,2.533,7.82
	c3.294,4.343,8.503,7.151,14.376,7.151l0,0c9.976,0,18.063-8.087,18.063-18.063v-7.04C473,270.411,487.411,256,505.188,256H512
	C512,139.021,433.539,40.372,326.373,9.798z"/>
<circle style="fill:#8B66BC;" cx="164.66" cy="456.1" r="8"/>
<g>
	<path style="fill:#FCE000;" d="M411.59,119.127c-2.99,0-5.859-1.685-7.23-4.564l-11.361-23.865
		c-1.899-3.99-0.205-8.763,3.785-10.663c3.991-1.903,8.763-0.204,10.663,3.785l11.361,23.865c1.899,3.99,0.205,8.763-3.785,10.663
		C413.913,118.877,412.742,119.127,411.59,119.127z"/>
	<path style="fill:#FCE000;" d="M68.089,165.81c-4.153,0-7.662-3.207-7.971-7.414c-0.323-4.407,2.986-8.243,7.394-8.566l26.36-1.937
		c4.403-0.314,8.242,2.986,8.566,7.392c0.323,4.407-2.986,8.243-7.394,8.566l-26.36,1.937
		C68.484,165.803,68.285,165.81,68.089,165.81z"/>
</g>
<path style="fill:#9A2223;" d="M196.759,92.611c-3.922,0-7.347-2.887-7.912-6.882l-2.815-19.911
	c-0.618-4.375,2.427-8.424,6.802-9.042c4.379-0.623,8.423,2.427,9.042,6.802l2.815,19.911c0.618,4.375-2.427,8.424-6.802,9.042
	C197.509,92.585,197.132,92.611,196.759,92.611z"/>
<g>
	<path style="fill:#E63535;" d="M101.268,103.803c-2.765,0-5.454-1.435-6.936-4.001c-2.21-3.826-0.899-8.72,2.928-10.929
		l23.713-13.691c3.825-2.209,8.72-0.898,10.929,2.928c2.21,3.826,0.899,8.72-2.928,10.929l-23.713,13.691
		C104.002,103.457,102.626,103.803,101.268,103.803z"/>
	<path style="fill:#E63535;" d="M259.795,53.74c-0.98,0-1.975-0.181-2.941-0.564l-18.834-7.452
		c-4.109-1.625-6.122-6.275-4.496-10.383c1.626-4.109,6.275-6.122,10.383-4.495l18.834,7.452c4.109,1.625,6.122,6.275,4.496,10.383
		C265.993,51.824,262.981,53.74,259.795,53.74z"/>
</g>
<path style="fill:#8B66BC;" d="M62.196,227.891c-2.185,0-4.361-0.89-5.941-2.639l-17.713-19.618c-2.961-3.28-2.703-8.339,0.577-11.3
	s8.339-2.703,11.301,0.576l17.713,19.618c2.961,3.28,2.703,8.339-0.577,11.3C66.025,227.209,64.107,227.891,62.196,227.891z"/>
<path style="fill:#9A2223;" d="M112.106,223.647c-1.04,0-2.097-0.204-3.115-0.635c-4.069-1.722-5.971-6.417-4.249-10.487
	l10.305-24.34c1.723-4.07,6.418-5.971,10.487-4.248c4.069,1.722,5.971,6.417,4.249,10.487l-10.305,24.34
	C118.186,221.814,115.223,223.647,112.106,223.647z"/>
<path style="fill:#E63535;" d="M340.15,145.353c-0.408,0-0.82-0.031-1.236-0.096l-21.718-3.368c-4.367-0.677-7.358-4.766-6.68-9.132
	c0.678-4.367,4.766-7.359,9.133-6.68l21.718,3.368c4.367,0.677,7.358,4.766,6.68,9.132
	C347.434,142.528,344.028,145.353,340.15,145.353z"/>
<path style="fill:#8B66BC;" d="M400.671,190.448c-3.922,0-7.347-2.887-7.912-6.882l-3.7-26.171
	c-0.618-4.375,2.427-8.424,6.802-9.042c4.377-0.623,8.423,2.427,9.042,6.802l3.7,26.171c0.618,4.375-2.427,8.424-6.802,9.042
	C401.421,190.422,401.044,190.448,400.671,190.448z"/>
<path style="fill:#9A2223;" d="M447.281,228.786c-1.627,0-3.269-0.495-4.687-1.523c-3.578-2.592-4.378-7.595-1.786-11.173
	l15.506-21.404c2.592-3.577,7.594-4.38,11.173-1.785c3.579,2.592,4.378,7.595,1.786,11.173l-15.506,21.404
	C452.202,227.638,449.758,228.786,447.281,228.786z"/>
<path style="fill:#FCE000;" d="M267.856,117.764c-2.99,0-5.859-1.685-7.23-4.564l-8.065-16.944
	c-1.899-3.99-0.204-8.763,3.785-10.663c3.99-1.902,8.764-0.204,10.663,3.785l8.065,16.944c1.899,3.99,0.204,8.763-3.785,10.663
	C270.179,117.514,269.008,117.764,267.856,117.764z"/>
<g>
	<path style="fill:#8B66BC;" d="M155.468,158.811c-2.374,0-4.724-1.052-6.302-3.065c-2.726-3.479-2.116-8.507,1.362-11.234
		l20.803-16.305c3.477-2.724,8.507-2.115,11.232,1.362c2.726,3.479,2.116,8.507-1.362,11.234l-20.803,16.305
		C158.934,158.255,157.195,158.811,155.468,158.811z"/>
	<path style="fill:#8B66BC;" d="M320.85,66.929c-2.585,0-5.122-1.251-6.664-3.563c-2.451-3.676-1.458-8.645,2.218-11.096
		l15.147-10.1c3.676-2.45,8.644-1.457,11.095,2.218c2.451,3.676,1.458,8.645-2.218,11.096l-15.147,10.1
		C323.917,66.494,322.375,66.929,320.85,66.929z"/>
</g>
<g>
</g>
<g>
</g>
<g>
</g>
<g>
</g>
<g>
</g>
<g>
</g>
<g>
</g>
<g>
</g>
<g>
</g>
<g>
</g>
<g>
</g>
<g>
</g>
<g>
</g>
<g>
</g>
<g>
</g>
</svg>
