<?xml version="1.0" encoding="iso-8859-1"?>
<!-- Generator: Adobe Illustrator 19.0.0, SVG Export Plug-In . SVG Version: 6.00 Build 0)  -->
<svg version="1.1" id="Layer_1" xmlns="http://www.w3.org/2000/svg" xmlns:xlink="http://www.w3.org/1999/xlink" x="0px" y="0px"
	 viewBox="0 0 512.001 512.001" style="enable-background:new 0 0 512.001 512.001;" xml:space="preserve">
<path style="fill:#FFC373;" d="M400.301,456.859c62.736-44.886,103.624-118.36,103.624-201.383
	c0-136.662-110.787-247.45-247.45-247.45S9.025,118.813,9.025,255.476c0,189.282,204.135,307.762,368.028,216.136 M256.475,346.372
	c-50.2,0-90.896-40.696-90.896-90.897s40.695-90.895,90.896-90.895s90.896,40.694,90.896,90.895
	C347.371,305.677,306.675,346.372,256.475,346.372z"/>
<path style="fill:#EF9A4D;" d="M39.289,255.476c0-131.579,102.705-239.153,232.319-246.976
	C128.486-0.135,9.025,113.496,9.025,255.476c0,141.888,119.377,255.655,262.683,246.982
	C142.047,494.687,39.289,387.091,39.289,255.476z"/>
<path style="fill:#FC3842;" d="M304.063,423.221c6.728,4.37,15.984,10.615,27.167,8.983c10.211-0.963,11.736-3.119,52.064-29.323
	c4.746-2.801,18.786-9.222,34.694,1.111l0.002,0.003l23.789,15.454c38.661-43.659,62.146-101.068,62.146-163.973
	c0-136.662-110.787-247.45-247.45-247.45S9.025,118.813,9.025,255.476c0,62.904,23.484,120.315,62.147,163.973l23.788-15.454
	l0.002-0.003c15.907-10.334,29.949-3.913,34.696-1.111c25.874,16.813,17.172,11.159,38.279,24.872
	c5.605,3.285,11.947,4.454,13.823,4.454c14.545,1.442,21.2-5.135,56.72-28.211c1.213-1.213,17.548-11.981,35.987-0.003l0.002,0.003
	l5.669,4.059 M256.475,346.372c-50.2,0-90.896-40.696-90.896-90.897s40.695-90.895,90.896-90.895s90.896,40.694,90.896,90.895
	C347.371,305.677,306.675,346.372,256.475,346.372z"/>
<path style="fill:#FC5162;" d="M315.608,324.476c39.666,37.179,92.537,60.438,150.83,61.953
	c93.491-149.539,3.861-347.732-171.068-375.352c-35.124,42.589-54.311,96.88-52.186,154.482
	c55.206-8.094,104.187,34.69,104.187,89.916C347.371,283.089,335.042,307.807,315.608,324.476z"/>
<path style="fill:#EF2235;" d="M23.735,339.691c14.383,39.878,33.679,63.03,47.437,79.758l19.682-12.788
	c-32.321-41.809-51.566-94.246-51.566-151.185c0-131.579,102.705-239.153,232.318-246.976c-0.95-0.108-9.15-0.474-15.131-0.474
	C84.323,8.026-34.459,179.402,23.735,339.691z"/>
<g>
	<circle style="fill:#2EBB4E;" cx="198.474" cy="100.748" r="14.802"/>
	<circle style="fill:#2EBB4E;" cx="140.528" cy="339.362" r="14.803"/>
</g>
<g>
	<circle style="fill:#FFCC00;" cx="416.093" cy="160.314" r="14.802"/>
	<circle style="fill:#FFCC00;" cx="336.022" cy="364.506" r="14.803"/>
</g>
<g>
	<circle style="fill:#57BAE5;" cx="430.88" cy="285.734" r="14.802"/>
	<circle style="fill:#57BAE5;" cx="298.061" cy="115.544" r="14.801"/>
	<circle style="fill:#57BAE5;" cx="104.367" cy="267.059" r="14.802"/>
</g>
<g>
	<circle style="fill:#231F20;" cx="366.415" cy="154.565" r="10.495"/>
	<circle style="fill:#231F20;" cx="103.647" cy="145.707" r="10.494"/>
	<circle style="fill:#231F20;" cx="58.327" cy="292.923" r="10.495"/>
	<circle style="fill:#231F20;" cx="245.503" cy="78.733" r="10.495"/>
	<circle style="fill:#231F20;" cx="387.41" cy="340.012" r="10.496"/>
	<circle style="fill:#231F20;" cx="172.581" cy="375.703" r="10.497"/>
	<circle style="fill:#231F20;" cx="437.518" cy="220.65" r="10.495"/>
	<path style="fill:#231F20;" d="M387.639,216.756l-14.583-6.848c-4.036-1.895-8.854-0.159-10.751,3.882
		c-1.898,4.041-0.16,8.854,3.882,10.751c16.057,7.539,15.693,7.615,18.011,7.615C392.759,232.157,395.458,220.427,387.639,216.756z"
		/>
	<path style="fill:#231F20;" d="M73.367,210.624c16.045,7.533,15.691,7.615,18.012,7.615c8.555,0,11.261-11.728,3.44-15.4
		l-14.583-6.848c-4.036-1.894-8.853-0.159-10.751,3.882C67.587,203.912,69.325,208.725,73.367,210.624z"/>
	<path style="fill:#231F20;" d="M317.667,79.199l14.583,6.846c4.035,1.899,8.853,0.162,10.751-3.88
		c1.897-4.041,0.16-8.854-3.882-10.751l-14.583-6.847c-4.035-1.895-8.852-0.159-10.751,3.881
		C311.888,72.488,313.625,77.302,317.667,79.199z"/>
	<path style="fill:#231F20;" d="M172.813,141.965l-14.582-6.847c-4.036-1.893-8.853-0.158-10.75,3.882
		c-1.897,4.042-0.159,8.854,3.881,10.751c16.043,7.531,15.683,7.614,18.012,7.614c3.036,0,5.946-1.721,7.321-4.649
		C178.592,148.674,176.854,143.862,172.813,141.965z"/>
	<path style="fill:#231F20;" d="M362.757,321.257c1.437,0,2.891-0.383,4.205-1.187l13.746-8.394
		c3.81-2.327,5.013-7.302,2.684-11.111c-2.325-3.81-7.304-5.009-11.108-2.684l-13.746,8.396
		C351.579,310.526,354.64,321.257,362.757,321.257z"/>
	<path style="fill:#231F20;" d="M81.849,336.361l13.747-8.394c3.811-2.327,5.012-7.302,2.685-11.111
		c-2.325-3.81-7.3-5.01-11.109-2.684l-13.748,8.396c-3.81,2.325-5.011,7.3-2.685,11.109
		C73.063,337.483,78.034,338.691,81.849,336.361z"/>
	<path style="fill:#231F20;" d="M469.838,396.619C580.436,229.035,461.042,0.057,256.002,0.057
		c-68.364,0-132.636,26.622-180.978,74.962c-99.992,99.99-100.074,261.883,0,361.954c83.868,83.868,209.514,96.344,305.699,42.57
		c3.895-2.18,5.288-7.102,3.11-10.999c-2.179-3.895-7.102-5.288-10.999-3.11c-35.501,19.849-75.9,30.339-116.833,30.339
		c-67.97,0-129.421-28.432-173.095-74.024c0.017-0.011,15.777-10.25,15.793-10.262c11.782-7.607,22.026-3.287,26.03-0.964
		c40.108,26.059,45.804,32.217,63.156,30.538c13.735-1.297,19.668-6.896,54.498-29.527c15.533-10.092,26.98-0.171,32.613,3.862
		c3.631,2.6,8.678,1.764,11.277-1.865c2.599-3.628,1.764-8.678-1.865-11.276c-4.968-3.559-13.848-11.071-28.147-11.251
		c-6.633-0.214-15.009,1.989-22.688,6.978c-56.207,36.517-42.756,36.206-100.196-1.116c-11.525-7.491-28.382-8.44-43.637,1.165
		l-17.74,11.524c-34.839-41.675-54.41-93.451-55.703-147.828C13.123,126.949,121.852,16.222,256.002,16.222
		c137.736,0,247.845,116.524,239.316,254.503c-3.174,51.243-22.831,99.888-55.28,138.855c-0.05-0.032-17.855-11.599-17.855-11.599
		c-15.835-10.289-33.154-7.81-43.558-1.114c-41.036,26.663-41.324,28.162-50.745,28.205c-8.008-0.05-13.185-3.53-19.808-7.83
		c-3.744-2.436-8.749-1.369-11.181,2.372c-2.432,3.744-1.369,8.75,2.374,11.181c0.303,0.197,5.233,3.405,5.534,3.585
		c16.264,9.532,32.794,8.437,44.29,0.954l38.188-24.811c7.617-4.422,16.617-4.823,26.101,1.014l15.778,10.251
		c-10.246,10.727-21.53,20.577-33.794,29.351c-3.631,2.597-4.469,7.645-1.871,11.275c2.595,3.633,7.646,4.469,11.276,1.87
		C430.202,446.088,452.544,422.88,469.838,396.619z"/>
	<path style="fill:#231F20;" d="M256.002,355.127c54.659,0,99.127-44.469,99.127-99.129c0-54.659-44.469-99.125-99.127-99.125
		s-99.126,44.467-99.126,99.125C156.876,310.658,201.344,355.127,256.002,355.127z M256.002,173.037
		c45.746,0,82.962,37.216,82.962,82.961c0,45.746-37.216,82.963-82.962,82.963s-82.962-37.217-82.962-82.963
		C173.04,210.252,210.257,173.037,256.002,173.037z"/>
	<path style="fill:#231F20;" d="M414.499,302.501c8.955,8.953,23.445,8.953,32.397,0c14.389-14.392,4.134-39.107-16.199-39.107
		C410.365,263.395,400.105,288.108,414.499,302.501z M430.697,293.047c-1.802,0-3.494-0.702-4.768-1.977
		c-4.234-4.232-1.222-11.512,4.768-11.512c1.802,0,3.493,0.702,4.769,1.976C439.7,285.767,436.685,293.047,430.697,293.047z"/>
	<path style="fill:#231F20;" d="M274.749,115.835c0,20.481,24.796,30.511,39.105,16.198c14.456-14.459,4.069-39.106-16.196-39.106
		C284.995,92.928,274.749,103.169,274.749,115.835z M302.422,120.604c-2.634,2.636-6.9,2.635-9.534-0.001
		c-2.63-2.628-2.641-6.891-0.001-9.536c2.636-2.634,6.902-2.636,9.537,0C305.065,113.712,305.056,117.973,302.422,120.604z"/>
	<path style="fill:#231F20;" d="M399.682,144.483c-14.385,14.389-4.145,39.108,16.199,39.108c20.348,0,30.581-24.723,16.197-39.108
		C423.13,135.533,408.637,135.532,399.682,144.483z M420.648,165.453c-2.636,2.636-6.9,2.635-9.535-0.001
		c-4.236-4.233-1.223-11.512,4.769-11.512C421.862,153.939,424.889,161.215,420.648,165.453z"/>
	<path style="fill:#231F20;" d="M214.103,117.209c14.473-14.479,4.021-39.108-16.199-39.108c-12.66,0-22.909,10.244-22.909,22.908
		C174.995,121.444,199.777,131.529,214.103,117.209z M197.904,94.266c6.011,0,8.99,7.292,4.769,11.511
		c-4.221,4.224-11.513,1.249-11.513-4.769C191.159,97.283,194.174,94.266,197.904,94.266z"/>
	<path style="fill:#231F20;" d="M335.684,342.296c-6.12,0-11.872,2.382-16.199,6.708c-14.381,14.384-4.145,39.107,16.199,39.107
		c6.118,0,11.871-2.382,16.199-6.708C366.289,366.995,356.002,342.296,335.684,342.296z M340.452,369.972
		c-1.274,1.273-2.966,1.976-4.769,1.976c-5.985,0-9.007-7.276-4.769-11.512c1.273-1.274,2.966-1.976,4.769-1.976
		C341.669,358.46,344.691,365.737,340.452,369.972z"/>
	<path style="fill:#231F20;" d="M119.843,283.803c8.933-8.933,8.933-23.466,0-32.397c-8.953-8.953-23.443-8.953-32.396-0.001
		c-14.387,14.389-4.145,39.108,16.2,39.108C109.765,290.512,115.518,288.129,119.843,283.803z M103.647,260.86
		c5.981,0,9.003,7.276,4.765,11.513c-2.634,2.636-6.9,2.635-9.534-0.001C94.642,268.137,97.656,260.86,103.647,260.86z"/>
	<path style="fill:#231F20;" d="M139.868,362.933c20.331,0,30.592-24.714,16.199-39.109c-4.327-4.326-10.082-6.708-16.199-6.708
		c-20.332,0-30.592,24.715-16.198,39.107C127.997,360.55,133.751,362.933,139.868,362.933z M135.1,335.256
		c1.274-1.274,2.966-1.976,4.769-1.976c5.985,0,9.007,7.276,4.769,11.512c-1.273,1.273-2.966,1.976-4.769,1.976
		C133.878,346.767,130.865,339.489,135.1,335.256z"/>
</g>
<g>
</g>
<g>
</g>
<g>
</g>
<g>
</g>
<g>
</g>
<g>
</g>
<g>
</g>
<g>
</g>
<g>
</g>
<g>
</g>
<g>
</g>
<g>
</g>
<g>
</g>
<g>
</g>
<g>
</g>
</svg>
