<svg height="512pt" viewBox="0 -6 512.00034 512" width="512pt" xmlns="http://www.w3.org/2000/svg"><path d="m411.933594 179.019531c-.042969-3.683593-.089844-7.851562-1.542969-11.664062-1.695313-4.472657-5.210937-7.617188-9.210937-8.214844-.464844-.066406-.917969-.101563-1.34375-.101563-5.40625 0-9.605469 4.457032-11.222657 8.605469-.960937 2.480469-1.429687 5.390625-1.429687 8.894531 0 2.039063.140625 3.996094.296875 5.980469.351562 4.65625.714843 9.308594 1.078125 13.964844l.542968 6.992187c1.003907 12.664063 2.15625 27.394532 3.167969 42 .0625.75.082031 1.601563.105469 2.507813l.011719.417969c.117187 5.140625.257812 11.542968 4.835937 14.683594 2.015625 1.402343 3.917969 2.082031 5.808594 2.082031 1.78125 0 2.988281-.632813 3.394531-.847657 4.230469-2.242187 6.390625-8.542968 6.339844-13.617187zm0 0" fill="#b2eaf9"/><path d="m208.222656 99.867188c-.496094-.039063-.996094-.0625-1.5-.0625-4.679687 0-9.140625 1.707031-13.09375 3.214843-6.554687 2.511719-13.105468 5.03125-19.660156 7.554688l-.996094.382812c-12.53125 4.832031-25.492187 9.824219-38.234375 14.601563-.890625.328125-1.839843.636718-2.847656.960937-4.890625 1.578125-10.972656 3.542969-12.707031 8.835938-1.527344 4.675781-.105469 7.511719 1.359375 9.078125l.105469.109375c2.625 2.644531 6.75 3.035156 8.980468 3.035156 1.996094 0 4.027344-.300781 5.867188-.871094l68.445312-21.230469c3.523438-1.085937 7.515625-2.320312 10.773438-4.820312 3.796875-2.921875 5.800781-7.191406 5.230468-11.128906-.816406-5.761719-6.511718-9.21875-11.722656-9.660156zm0 0" fill="#b2eaf9"/><path d="m256.65625 96.152344 59.75 39.726562c3.054688 2.027344 6.511719 4.324219 10.464844 5.265625 1.15625.273438 2.328125.414063 3.480468.414063 3.4375 0 6.4375-1.191406 8.476563-3.382813 3.933594-4.273437 3.011719-10.875.066406-15.1875-2.941406-4.300781-7.734375-7.0625-11.652343-9.320312-5.066407-2.917969-10.136719-5.820313-15.210938-8.730469l-3.050781-1.746094c-11.90625-6.8125-24.214844-13.855468-36.414063-20.992187-.699218-.410157-1.414062-.871094-2.164062-1.355469l-.351563-.226562c-3.335937-2.167969-7.484375-4.867188-11.675781-4.867188-1.125 0-2.207031.199219-3.207031.585938-4.652344 1.789062-5.933594 4.726562-6.191407 6.925781-.519531 4.765625 3.472657 10.09375 7.679688 12.890625zm0 0" fill="#cbe580"/><path d="m243.929688 379.554688c-6.042969-3.570313-12.082032-7.132813-18.121094-10.691407l-1.292969-.761719c-11.449219-6.753906-23.285156-13.738281-34.863281-20.710937-.800782-.480469-1.652344-1.046875-2.503906-1.625-3.34375-2.226563-7.503907-4.996094-11.710938-4.996094-1.089844 0-2.136719.183594-3.09375.539063-4.730469 1.75-6.027344 4.695312-6.28125 6.84375-.582031 4.769531 3.34375 10.148437 7.519531 12.996094l59.242188 40.503906c3.019531 2.058594 6.445312 4.394531 10.394531 5.386718 1.207031.304688 2.433594.457032 3.644531.457032 3.359375 0 6.316407-1.15625 8.335938-3.269532 4.003906-4.234374 3.164062-10.847656.269531-15.1875-2.886719-4.335937-7.648438-7.167968-11.539062-9.484374zm0 0" fill="#cbe580"/><path d="m444.691406 217.480469c5.890625-14.046875 11.980469-28.578125 13.335938-43.992188 1.367187-15.527343-3.195313-37.230469-20.5625-47.292969-8.980469-5.210937-18.808594-5.875-28.386719-6.519531-7.164063-.484375-14.570313-.984375-21.457031-3.46875-16.414063-5.921875-28.609375-20.839843-36.351563-31.542969-1.996093-2.769531-4.039062-5.6875-5.953125-8.433593-10.3125-14.789063-20.976562-30.078125-37.046875-38.605469-9.15625-4.855469-20.28125-7.425781-32.175781-7.425781-2.832031 0-5.78125.148437-8.78125.433593-15.011719 1.492188-29.332031 6.511719-40.136719 10.71875-6.421875 2.507813-12.929687 5.4375-19.890625 8.953126-11.539062 5.816406-22.71875 12.433593-33.527344 18.832031-14.523437 8.601562-29.542968 17.492187-45.316406 24.378906-4.601562 2.003906-9.265625 3.734375-13.773437 5.40625-11.144531 4.136719-21.664063 8.039063-31.472657 15.710937-24.984374 19.539063-35.648437 55.507813-25.359374 85.519532 2.324218 6.777344 5.632812 13.28125 8.832031 19.566406l.125.246094c4.75 9.328125 9.664062 18.96875 11.238281 29.308594 2.421875 15.886718-3.113281 31.832031-8.488281 47.304687l-.257813.746094c-.984375 2.828125-2 5.75-2.933594 8.609375-8.253906 25.222656-7.363281 44.785156 2.652344 58.144531 11.878906 15.859375 34.050782 19.207031 49.6875 20.347656 1.652344.125 3.316406.230469 4.988282.335938l1.609374.101562c15.761719 1.007813 32.0625 2.050781 45.082032 10.414063 9.632812 6.191406 16.519531 15.867187 23.183594 25.230468 4.402343 6.175782 8.953124 12.5625 14.3125 18.050782 13.542968 13.855468 33.230468 22.125 52.664062 22.125.472656 0 .941406-.003906 1.414062-.015625 19.941407-.40625 39.804688-9.5 53.125-24.324219 4.25-4.726562 7.886719-10.003906 11.402344-15.109375 4.449219-6.464844 9.050782-13.152344 14.839844-18.558594 12.070312-11.261719 28.511719-16.367187 44.421875-21.3125l.539063-.167969c4.210937-1.316406 8.5625-2.675781 12.757812-4.128906 15.417969-5.351562 41.921875-17.976562 46.234375-42.445312 2.246094-12.726563-2.050781-24.503906-6.621094-37.046875-2.75-7.558594-5.597656-15.375-6.699219-23.214844-2.375-17.042969 3.414063-34.273437 10.023438-50.363281.886719-2.152344 1.792969-4.296875 2.722656-6.515625zm-192.734375-133.890625c.21875-1.941406 1.660157-3.441406 4.289063-4.453125.679687-.265625 1.378906-.390625 2.132812-.390625 3.277344 0 7.023438 2.433594 10.050782 4.398437l.292968.1875c.824219.53125 1.609375 1.035157 2.320313 1.453125 11.410156 6.675782 23.085937 13.359375 34.375 19.824219l2.078125 1.191406c6.085937 3.476563 12.171875 6.964844 18.269531 10.476563 3.792969 2.183594 8.09375 4.65625 10.65625 8.40625 2.222656 3.25 3.046875 8.367187.191406 11.457031-1.421875 1.535156-3.703125 2.417969-6.257812 2.417969-.898438 0-1.847657-.113282-2.792969-.332032-3.472656-.828124-6.566406-2.890624-9.566406-4.890624l-59.675782-39.683594c-3.421874-2.269532-6.738281-6.660156-6.363281-10.0625zm-129.929687 52.707031c1.261718-3.847656 6.542968-5.554687 10.785156-6.929687l.210938-.066407c.96875-.3125 1.886718-.609375 2.738281-.925781 12.75-4.78125 25.683593-9.757812 38.195312-14.574219l1.125-.433593c6.535157-2.515626 13.070313-5.03125 19.636719-7.542969 3.691406-1.410157 7.878906-3.011719 12.015625-3.011719.417969 0 .835937.019531 1.238281.050781 3.921875.328125 8.410156 2.921875 9.003906 7.085938.414063 2.886719-1.15625 6.082031-4.101562 8.335937-2.824219 2.164063-6.378906 3.265625-9.820312 4.332032l-68.4375 21.222656c-1.550782.480468-3.335938.742187-5.019532.742187-2.984375 0-5.46875-.789062-6.824218-2.164062-1.363282-1.382813-1.613282-3.449219-.746094-6.121094zm12.804687 157.484375c-.464843 3.90625-3.214843 8.300781-7.480469 8.757812-.171874.023438-.367187.03125-.59375.03125-2.6875 0-5.5625-1.699218-7.503906-4.425781-2.078125-2.921875-3.050781-6.507812-3.992187-9.976562l-18.800781-69.160157c-1.078126-3.964843-.683594-9.449218 1.832031-11.761718.828125-.757813 1.878906-1.140625 3.125-1.140625.910156 0 1.933593.207031 3.042969.609375 3.785156 1.386718 5.304687 6.722656 6.515624 10.976562.28125 1.019532.585938 2.089844.898438 3.015625 4.210938 12.566407 8.605469 25.316407 12.855469 37.640625l2.148437 6.222656c1.820313 5.28125 3.644532 10.558594 5.46875 15.878907 1.414063 4.140625 3.015625 8.832031 2.484375 13.332031zm118.1875 108.378906c-1.414062 1.488282-3.65625 2.339844-6.152343 2.339844-.96875 0-1.945313-.125-2.9375-.378906-3.425782-.859375-6.492188-2.953125-9.492188-5l-59.160156-40.449219c-3.394532-2.316406-6.652344-6.75-6.238282-10.136719.242188-1.949218 1.707032-3.429687 4.34375-4.40625.664063-.246094 1.332032-.363281 2.054688-.363281 3.292969 0 7.042969 2.5 10.066406 4.515625 1 .664062 1.824219 1.207031 2.613282 1.683594 12.292968 7.402344 24.976562 14.882812 36.171874 21.484375 6.035157 3.554687 12.082032 7.125 18.109376 10.691406l.734374.433594c3.582032 2.136719 7.476563 4.589843 9.839844 8.125 2.179688 3.277343 2.9375 8.410156.046875 11.460937zm7.417969-57.347656c-17.398438 0-34.234375-4.316406-48.679688-12.484375-36.21875-20.484375-57.167968-65.230469-49.8125-106.394531 3.171876-17.707032 11.46875-34.640625 24.003907-48.96875 11.003906-12.570313 24.765625-22.484375 39.808593-28.667969 6.472657-2.664063 13.605469-3.957031 21.800782-3.957031 8.292968 0 16.519531 1.324218 24.167968 2.753906 34.871094 6.523438 65.148438 28.5625 79.019532 57.519531 8.714844 18.1875 11.226562 39.824219 7.074218 60.917969-4.15625 21.0625-14.660156 40.171875-29.578124 53.820312-17.707032 16.179688-42.421876 25.460938-67.804688 25.460938zm139.28125-12.839844c-.894531 3.945313-5.996094 6.132813-10.085938 7.890625-.949218.40625-1.945312.835938-2.851562 1.269531-12.941406 6.28125-26.136719 12.835938-37.777344 18.617188l-4.648437 2.308594c-4.714844 2.339844-9.433594 4.683594-14.160157 7.011718-3.929687 1.941407-8.382812 4.144532-12.878906 4.191407h-.160156c-3.894531 0-8.554688-2.179688-9.519531-6.214844-.667969-2.792969.628906-6.199219 3.308593-8.679687 2.613282-2.421876 6.050782-3.847657 9.371094-5.230469l66.179688-27.511719c1.945312-.808594 4.273437-1.269531 6.390625-1.269531 2.34375 0 4.308593.5625 5.519531 1.582031 1.492188 1.253906 1.933594 3.289062 1.3125 6.035156zm5.316406-70.308594c-.429687.226563-1.125.496094-2.007812.496094-1.246094 0-2.617188-.515625-4.085938-1.53125-3.328125-2.304687-3.457031-7.847656-3.558594-12.332031l-.011718-.507813c-.027344-.933593-.054688-1.808593-.105469-2.574218-.945313-13.609375-1.992187-27.0625-3.164063-41.976563l-.066406-.820312c-.527344-6.710938-1.054687-13.414063-1.5625-20.132813-.339844-4.359375-.71875-9.304687.941406-13.554687 1.296876-3.324219 4.589844-6.6875 8.371094-6.6875.324219 0 .65625.023437.988282.074219 2.882812.425781 5.492187 2.839843 6.8125 6.3125 1.273437 3.324218 1.3125 7.039062 1.347656 10.640624l.832031 71.664063c.046875 4.109375-1.714844 9.320313-4.730469 10.929687zm0 0" fill="#935252"/><path d="m400.335938 323.644531c-2.253907-1.898437-5.308594-2.292969-7.46875-2.292969-2.519532 0-5.1875.53125-7.519532 1.503907l-66.191406 27.515625c-3.398438 1.414062-7.253906 3.019531-10.265625 5.796875-3.5 3.257812-5.101563 7.691406-4.175781 11.585937 1.351562 5.585938 7.28125 8.507813 12.441406 8.507813h.140625c5.246094-.054688 10.230469-2.519531 14.234375-4.5 6.273438-3.101563 12.546875-6.210938 18.808594-9.324219l.414062-.203125c12.226563-6.070313 24.867188-12.34375 37.339844-18.402344.777344-.375 1.609375-.734375 2.714844-1.207031 4.722656-2.027344 10.597656-4.550781 11.835937-9.984375 1.121094-4.957031-.664062-7.652344-2.308593-8.996094zm0 0" fill="#ed6d66"/><path d="m135.175781 279.4375c-1.289062-3.753906-7.167969-20.816406-7.167969-20.816406-4.394531-12.726563-8.941406-25.890625-13.292968-38.894532-.261719-.761718-.511719-1.636718-.777344-2.5625l-.070312-.242187c-1.320313-4.683594-3.132813-11.097656-8.363282-13.019531-1.4375-.53125-2.816406-.800782-4.097656-.800782-1.984375 0-3.699219.632813-5.132812 1.925782-3.523438 3.238281-4.035157 9.878906-2.710938 14.773437l18.8125 69.15625c.964844 3.554688 2.0625 7.582031 4.425781 10.917969 2.535157 3.5625 6.25 5.691406 9.9375 5.691406.347657 0 .695313-.019531 1.003907-.054687 5.792968-.613281 9.453124-6.1875 10.070312-11.386719.613281-5.183594-1.1875-10.449219-2.636719-14.6875zm0 0" fill="#ed6d66"/><path d="m494.339844 157.191406c-13.101563-37.730468-38.710938-70.882812-72.113282-93.351562-33.507812-22.523438-73.054687-47.210938-118.40625-55.054688-14.496093-2.511718-29.398437-3.785156-44.292968-3.785156-28.742188 0-57.21875 4.640625-84.644532 13.789062-48.539062 16.214844-91.195312 45.898438-120.105468 83.578126-46.535156 60.628906-61.851563 143.785156-39.972656 217.015624 13.769531 46.097657 43.453124 88.941407 83.582031 120.640626 39.976562 31.570312 88.558593 50.71875 136.800781 53.917968 5.152344.339844 10.390625.511719 15.566406.511719 42.582032 0 85.554688-11.632813 124.273438-33.636719 43.191406-24.539062 78.121094-59.96875 101.007812-102.445312.996094-1.84375 2.019532-3.800782 3.136719-5.996094.320313-.636719.636719-1.277344.949219-1.917969l.378906-.757812c29.5625-60.394531 34.734375-132.363281 13.839844-192.507813zm-39.304688 16.042969c-1.3125 14.960937-7.324218 29.285156-13.140625 43.144531-.90625 2.160156-1.808593 4.324219-2.691406 6.480469-6.777344 16.464844-12.703125 34.152344-10.21875 51.917969 1.121094 8.109375 4.007813 16.039062 6.792969 23.703125l.074218.195312c4.210938 11.550781 8.566407 23.488281 6.460938 35.429688-4.039062 22.957031-29.460938 34.988281-44.253906 40.121093-4.34375 1.503907-8.855469 2.910157-13.21875 4.269532-16.222656 5.042968-32.996094 10.257812-45.558594 21.984375-6.027344 5.609375-10.519531 12.140625-15.269531 19.050781l-.128907.183594c-3.429687 4.972656-6.980468 10.117187-11.035156 14.621094-12.789062 14.222656-31.839844 22.945312-50.957031 23.335937-.453125.011719-.910156.019531-1.355469.019531-18.636718 0-37.519531-7.9375-50.511718-21.226562-5.25-5.371094-9.710938-11.640625-14.023438-17.703125-7.128906-10.023438-13.863281-19.488281-24.003906-26.007813-13.71875-8.808594-30.40625-9.863281-46.542969-10.882812-2.195313-.136719-4.367187-.277344-6.53125-.4375-15.058594-1.097656-36.363281-4.277344-47.515625-19.152344-9.394531-12.527344-10.132812-31.171875-2.195312-55.421875 2.351562-7.183594 4.558593-14.625 7.4375-21.609375 1.894531-4.585938 5.503906-8.648438 6.503906-13.5625 2.871094-14.082031-7.773438-31.398438-14.019532-43.28125-2.914062-5.546875-5.871093-11.226562-7.390624-17.347656-1.277344-5.160156-.675782-10.175782-2.125-15.246094-2.714844-9.507812-3.320313-19.566406-2.046876-29.355469 2.488282-19.136719 12.183594-37.515625 27.472657-49.464843 9.425781-7.367188 20.222656-11.375 30.660156-15.253907l.242187-.089843c4.488282-1.664063 9.125-3.382813 13.6875-5.382813 15.980469-6.96875 31.0625-15.902344 45.648438-24.542969 10.738281-6.355468 21.839844-12.929687 33.34375-18.738281 6.902344-3.480469 13.328125-6.371094 19.628906-8.832031 10.648438-4.140625 24.746094-9.078125 39.351563-10.523438 2.859375-.285156 5.714843-.429687 8.492187-.429687 11.394532 0 22.03125 2.445312 30.761719 7.070312 15.390625 8.164063 25.84375 23.136719 36 37.691407l.972656 1.390624c1.632813 2.335938 3.320313 4.75 5 7.070313 7.980469 11.027344 20.574219 26.402344 37.765625 32.601563 7.296875 2.636718 14.59375 3.128906 22.355469 3.65625 9.15625.613281 18.625 1.242187 27.003906 6.105468 16.148438 9.371094 20.371094 29.800782 19.078125 44.449219zm0 0" fill="#f7b36f"/><path d="m499.0625 155.546875c-13.460938-38.75-39.757812-72.789063-74.050781-95.847656-33.925781-22.816407-74-47.828125-120.34375-55.84375-43.457031-7.519531-88.886719-3.992188-131.367188 10.195312-49.460937 16.515625-92.960937 46.800781-122.488281 85.273438-47.5 61.875-63.132812 146.746093-40.800781 221.488281 14.070312 47.082031 44.355469 90.8125 85.277343 123.132812 40.765626 32.195313 90.332032 51.71875 139.570313 54.976563 5.273437.351563 10.542969.523437 15.804687.523437 93.414063 0 184.289063-54.273437 229.777344-138.714843 1.085938-2.019531 2.160156-4.074219 3.1875-6.109375.457032-.90625.90625-1.8125 1.355469-2.726563 30.136719-61.5625 35.398437-134.964843 14.078125-196.347656zm-23.058594 191.953125c-.429687.875-.863281 1.746094-1.300781 2.617188-.988281 1.957031-2.019531 3.929687-3.0625 5.871093-22.441406 41.65625-56.703125 76.402344-99.078125 100.484375-42.839844 24.34375-90.226562 35.574219-137.042969 32.472656-47.238281-3.125-94.839843-21.894531-134.035156-52.847656-39.320313-31.054687-68.402344-73.015625-81.890625-118.148437-21.429688-71.722657-6.429688-153.160157 39.148438-212.539063 28.328124-36.90625 70.136718-65.984375 117.722656-81.875 26.917968-8.988281 55.050781-13.535156 83.0625-13.535156 14.574218 0 29.117187 1.230469 43.433594 3.707031 44.398437 7.679688 83.398437 32.050781 116.46875 54.289063 32.503906 21.859375 57.429687 54.117187 70.183593 90.832031 20.46875 58.917969 15.378907 129.449219-13.609375 188.671875zm0 0"/><path d="m362.722656 266.503906c4.363282-22.148437 1.710938-44.898437-7.464844-64.054687-14.546874-30.371094-46.203124-53.464844-82.609374-60.269531-15.023438-2.808594-32.421876-5.238282-48.796876 1.492187-15.75 6.476563-30.160156 16.847656-41.664062 30-13.132812 15.007813-21.832031 32.773437-25.15625 51.375-7.71875 43.195313 14.261719 90.144531 52.265625 111.636719 15.617187 8.828125 33.378906 13.125 51.144531 13.125 25.957032 0 51.914063-9.171875 71.171875-26.769532 15.707031-14.355468 26.757813-34.433593 31.109375-56.535156zm-37.855468 49.152344c-14.113282 12.898438-33.058594 21.238281-53.347657 23.484375-20.257812 2.242187-40.609375-1.722656-57.304687-11.164063-34.425782-19.46875-54.339844-62.015624-47.339844-101.167968 3.003906-16.816406 10.898438-32.910156 22.835938-46.554688 10.496093-11.992187 23.613281-21.445312 37.941406-27.332031 6.441406-2.648437 13.140625-3.605469 19.898437-3.605469 7.78125 0 15.640625 1.269532 23.257813 2.691406 33.332031 6.230469 62.234375 27.214844 75.429687 54.761719 16.972657 35.429688 7.785157 82.242188-21.371093 108.886719zm0 0"/><path d="m446.054688 125.746094c-11.1875-9.605469-25.582032-10.722656-39.507813-11.804688-8.554687-.664062-17.402344-1.347656-25.019531-4.082031-16.601563-5.960937-27.304688-20.917969-38.640625-36.753906-10.679688-14.925781-21.726563-30.359375-38.484375-38.664063-23.964844-11.875-50.878906-4.949218-69.042969 1.292969-13.5625 4.660156-25.039063 12.3125-36.140625 19.710937-6.664062 4.441407-13.554688 9.035157-20.78125 12.890626-10.855469 5.789062-22.226562 10.761718-33.789062 14.777343-5.257813 1.824219-10.753907 3.527344-16.070313 5.175781-18.644531 5.78125-37.925781 11.757813-53.382813 24.625-19.609374 16.324219-30.117187 42.226563-27.421874 67.597657 1.605468 15.128906 7.601562 29.234375 13.402343 42.875 6.800781 16 13.226563 31.113281 12.808594 47.265625-.277344 10.753906-3.597656 21.089844-7.109375 32.035156-1.566406 4.882812-3.191406 9.929688-4.515625 15.015625-3.261719 12.523437-6.683594 35.925781 7.066406 51.941406 8.039063 9.363281 20.535157 14.820313 38.207031 16.6875 4.132813.4375 8.308594.6875 12.347657.933594 8.925781.539063 17.351562 1.050781 25.410156 3.375 18.492187 5.335937 32.609375 19.320313 47.558594 34.125 15.695312 15.546875 31.925781 31.625 53.882812 37.046875 4.945313 1.21875 10.027344 1.8125 15.148438 1.8125 20.292969 0 41.148437-9.316406 56.121093-25.777344 4.507813-4.957031 8.425782-10.414062 12.214844-15.6875 5.957032-8.300781 11.585938-16.144531 19.164063-21.886718 8.496093-6.445313 18.839843-9.816407 29.792969-13.382813 2.296874-.746094 4.589843-1.492187 6.863281-2.269531 12.523437-4.273438 30.746093-11.542969 44.363281-25.296875 13.726562-13.859375 20.191406-32.695313 16.878906-49.152344-1.402344-6.976563-4.394531-13.300781-7.289062-19.417969-3.257813-6.890625-6.335938-13.402344-6.945313-20.277344-.59375-6.675781 1.113281-13.464843 3.851563-21.613281 2.378906-7.0625 5.140625-14.230469 7.808594-21.15625 6.925781-17.972656 14.085937-36.554687 15.824218-56.3125 2.355469-26.804687-8.121094-40.105469-14.574218-45.648437zm4.613281 44.777344c-1.613281 18.351562-8.210938 35.464843-15.195313 53.589843-2.707031 7.027344-5.507812 14.292969-7.953125 21.5625-2.71875 8.078125-5.125 16.78125-4.335937 25.683594.765625 8.65625 4.378906 16.289063 7.871094 23.671875 2.757812 5.832031 5.359374 11.335938 6.523437 17.113281 2.664063 13.238281-2.769531 28.621094-14.183594 40.144531-9.238281 9.328126-22.101562 16.59375-40.488281 22.867188-2.226562.761719-4.476562 1.492188-6.726562 2.226562-11.261719 3.667969-22.902344 7.457032-32.742188 14.921876-8.777344 6.65625-15.117188 15.484374-21.246094 24.023437-3.789062 5.277344-7.367187 10.261719-11.488281 14.792969-16.0625 17.660156-40.765625 26.09375-61.476563 20.980468-19.273437-4.757812-33.832031-19.175781-49.242187-34.441406-15.179687-15.035156-30.878906-30.582031-51.820313-36.628906-9.121093-2.628906-18.503906-3.199219-27.578124-3.746094-3.929688-.238281-7.992188-.484375-11.902344-.898437-15.011719-1.585938-25.371094-5.921875-31.667969-13.253907-10.785156-12.5625-7.746094-32.273437-4.976563-42.910156 1.253907-4.8125 2.832032-9.726562 4.355469-14.476562 3.574219-11.136719 7.273438-22.648438 7.585938-34.835938.476562-18.324218-6.683594-35.160156-13.601563-51.4375-5.769531-13.5625-11.214844-26.371094-12.664062-40.015625-2.308594-21.757812 7.0625-44.859375 23.878906-58.855469 13.925781-11.589843 31.421875-17.015624 49.949219-22.761718 5.390625-1.671875 10.96875-3.398438 16.382812-5.28125 12.058594-4.183594 23.90625-9.363282 35.21875-15.398438 7.65625-4.085937 14.757813-8.816406 21.621094-13.394531 11.058594-7.371094 21.503906-14.335937 33.84375-18.574219 26.171875-8.996094 45.667969-9.566406 61.355469-1.792968 14.519531 7.195312 24.367187 20.957031 34.792968 35.523437 11.726563 16.386719 23.855469 33.332031 43.390626 40.347656 8.886718 3.1875 18.414062 3.929688 27.628906 4.644531 12.886718.996094 25.058594 1.941407 33.765625 9.417969 12.078125 10.375 11.800781 29.464844 11.125 37.191407zm0 0"/><path d="m212.453125 123.839844c6.328125-3.910156 9.5625-9.03125 9.109375-14.414063-.355469-4.199219-3.011719-8.050781-7.109375-10.296875-9.554687-5.242187-20.042969-.894531-28.472656 2.601563-1.953125.808593-3.800781 1.574219-5.484375 2.160156l-34.964844 12.183594c-8.074219 2.8125-16.429688 5.722656-24.101562 10.40625-2.183594 1.332031-4.65625 3.042969-6.445313 5.621093-2.371094 3.417969-2.890625 7.667969-1.351563 11.089844 1.503907 3.34375 4.828126 5.722656 8.890626 6.367188.855468.136718 1.699218.191406 2.519531.191406 2.101562 0 4.042969-.359375 5.574219-.644531 22.429687-4.167969 44.65625-10.257813 66.074218-18.097657 5.171875-1.890624 10.648438-4.003906 15.761719-7.167968zm-83.664063 15.429687c-1.898437.355469-3.453124.609375-4.699218.410157-.746094-.117188-1.25-.457032-1.328125-.570313-.042969-.164063.039062-.734375.4375-1.308594.726562-1.046875 2.082031-1.957031 3.4375-2.785156 6.761719-4.125 14.601562-6.859375 22.1875-9.5l34.960937-12.183594c1.957032-.679687 3.933594-1.5 6.023438-2.367187 5.078125-2.105469 10.28125-4.261719 14.789062-4.261719 1.8125 0 3.511719.351563 5.042969 1.191406 1.085937.59375 1.886719 1.566407 1.953125 2.371094.117188 1.355469-1.613281 3.34375-4.398438 5.070313-4.316406 2.664062-9.253906 4.566406-13.941406 6.28125-20.894531 7.648437-42.582031 13.585937-64.464844 17.652343zm0 0"/><path d="m130.078125 246.175781c-1.34375-3.722656-2.582031-7.628906-3.777344-11.40625-2.953125-9.316406-6.003906-18.949219-11.183593-27.78125-2.425782-4.136719-8.867188-15.125-19.117188-10.363281-8.796875 4.089844-8.371094 15.640625-8.1875 20.574219.273438 7.4375 2.070312 14.625 3.882812 21.351562 4.78125 17.71875 10.773438 36.363281 18.320313 57.011719 1.019531 2.789062 2.289063 6.261719 4.609375 9.273438 2.972656 3.855468 7.109375 6.105468 11.347656 6.167968h.183594c4.425781 0 8.730469-2.378906 11.550781-6.386718 1.960938-2.796876 3.191407-6.296876 3.757813-10.703126 1.789062-13.914062-3.28125-26.851562-8.183594-39.363281-1.085938-2.757812-2.203125-5.609375-3.203125-8.375zm1.464844 46.464844c-.351563 2.753906-1.015625 4.792969-2.023438 6.226563-.910156 1.296874-2.3125 2.160156-3.394531 2.136718-1.121094-.015625-2.527344-.910156-3.578125-2.273437-1.378906-1.789063-2.273437-4.238281-3.140625-6.605469-7.445312-20.371094-13.351562-38.746094-18.054688-56.179688-1.664062-6.167968-3.3125-12.730468-3.546874-19.117187-.089844-2.433594-.363282-9.84375 2.410156-11.132813 1.398437-.65625 3.277344 1.246094 6.273437 6.351563 4.613281 7.863281 7.367188 16.546875 10.277344 25.738281 1.226563 3.875 2.496094 7.878906 3.910156 11.789063 1.042969 2.890625 2.1875 5.804687 3.292969 8.625 4.644531 11.863281 9.035156 23.066406 7.574219 34.441406zm0 0"/><path d="m257.171875 388.355469c-6.695313-7.90625-15.34375-13.871094-22.921875-18.664063-15.363281-9.71875-31.738281-18.046875-47.574219-26.101562-.484375-.246094-1.054687-.566406-1.683593-.921875-4.0625-2.28125-9.617188-5.410157-14.632813-3.578125-2.464844.902344-4.371094 2.738281-5.519531 5.3125-1.738282 3.90625-1.308594 8.660156-.109375 11.636718 1.882812 4.691407 5.597656 7.984376 8.925781 10.699219 18.382812 14.984375 39.273438 26.488281 59.476562 37.609375 2.949219 1.625 6.292969 3.464844 10.183594 4.273438 1.296875.273437 2.578125.40625 3.832032.40625 3.597656 0 6.925781-1.101563 9.476562-3.191406 3.09375-2.539063 4.726562-6.410157 4.261719-10.097657-.390625-3.097656-2.097657-5.46875-3.714844-7.382812zm-6.894531 9.75c-1.050782.863281-2.9375 1.144531-4.921875.730469-2.421875-.507813-4.953125-1.898438-7.402344-3.246094-19.8125-10.910156-40.300781-22.1875-57.976563-36.601563-2.472656-2.019531-4.96875-4.191406-5.96875-6.675781-.464843-1.15625-.382812-2.972656-.078124-3.75 1.546874.230469 4.851562 2.085938 6.160156 2.824219.765625.429687 1.460937.820312 2.050781 1.117187 15.628906 7.949219 31.792969 16.171875 46.761719 25.640625 7.289062 4.605469 14.832031 9.816407 20.636718 16.671875 1.117188 1.324219 1.394532 1.914063 1.425782 2.171875.019531.175781-.195313.714844-.6875 1.117188zm0 0"/><path d="m403.804688 319.96875c-3.03125-2.023438-6.871094-2.964844-11.410157-2.8125-9.808593.347656-19.199219 3.6875-28.28125 6.917969-1.582031.566406-3.152343 1.125-4.699219 1.65625-14.09375 4.847656-25.421874 9.269531-35.648437 13.917969-.003906 0-.003906 0-.003906 0-6.785157 3.082031-14.546875 6.890624-20.765625 13.089843-5.367188 5.347657-7.390625 11.492188-5.550782 16.847657 1.816407 5.289062 6.945313 8.820312 14.441407 9.945312 2.195312.328125 4.402343.492188 6.609375.492188 2.726562 0 5.449218-.25 8.144531-.75 5.980469-1.113282 11.582031-3.4375 16.808594-5.722657 18.316406-8.007812 36.296875-17.285156 53.4375-27.574219 2.703125-1.625 6.402343-3.847656 9.253906-7.097656 1.761719-2.015625 2.839844-4.039062 3.289063-6.179687.996093-4.703125-1.265626-9.820313-5.625-12.730469zm-4.160157 10.671875c-.046875.230469-.246093.757813-1.027343 1.652344-1.683594 1.917969-4.007813 3.386719-6.875 5.109375-16.777344 10.066406-34.371094 19.148437-52.296876 26.988281-4.890624 2.136719-9.6875 4.128906-14.628906 5.050781-3.789062.703125-7.640625.769532-11.445312.199219-3.417969-.511719-5.953125-1.808594-6.46875-3.300781-.523438-1.527344.710937-4.089844 3.152344-6.519532 5.039062-5.019531 11.851562-8.34375 17.84375-11.066406 9.933593-4.511718 20.980468-8.824218 34.769531-13.566406 1.578125-.542969 3.179687-1.113281 4.796875-1.691406 8.367187-2.976563 17.015625-6.054688 25.28125-6.34375 2.363281-.085938 4.269531.308594 5.507812 1.132812.976563.652344 1.515625 1.761719 1.390625 2.355469zm0 0"/><path d="m413.207031 165.917969c-2.148437-4.089844-6.476562-6.953125-11.574219-7.652344-5.304687-.730469-10.457031.921875-13.765624 4.425781-4.667969 4.9375-4.5625 12.183594-4.488282 17.472656.007813.476563.011719.941407.015625 1.386719.035157 6.300781.261719 13.203125.710938 21.71875.894531 16.816407 2.484375 33.292969 3.921875 47.191407.320312 3.082031.71875 6.921874 2.5625 10.464843 2.367187 4.554688 6.777344 7.449219 11.308594 7.449219.105468 0 .214843 0 .320312-.003906 4.832031-.148438 9.273438-3.523438 11.3125-8.597656 1.53125-3.808594 1.519531-7.800782 1.511719-11.007813l-.210938-63.644531c-.003906-1.128906.078125-2.484375.167969-3.917969.304688-4.984375.65625-10.628906-1.792969-15.285156zm-8.164062 82.878906c.007812 2.578125.015625 5.246094-.789063 7.242187-.550781 1.371094-1.65625 2.316407-2.339844 2.335938-.007812 0-.015624 0-.023437 0-.660156 0-1.761719-.78125-2.429687-2.0625-.96875-1.855469-1.230469-4.410156-1.488282-6.878906-1.425781-13.777344-3-30.097656-3.878906-46.691406-.441406-8.355469-.664062-15.105469-.699219-21.246094-.003906-.476563-.011719-.96875-.015625-1.472656-.050781-3.578126-.121094-8.476563 1.757813-10.464844 1.0625-1.125 3.078125-1.667969 5.132812-1.386719 1.90625.261719 3.4375 1.160156 4.085938 2.398437 1.148437 2.179688.878906 6.523438.664062 10.015626-.097656 1.601562-.191406 3.113281-.1875 4.570312zm0 0"/><path d="m252.660156 97.5625c17.722656 16.515625 38.84375 28.496094 59.265625 40.078125 4.265625 2.417969 9.570313 5.425781 15.71875 5.675781.265625.011719.527344.019532.789063.019532 8.589844 0 14.316406-5.820313 15.386718-11.480469.488282-2.582031.175782-5.34375-.910156-7.996094-2.449218-5.992187-7.875-9.460937-11.835937-11.992187-14.425781-9.230469-29.15625-18.449219-43.78125-27.410157-1.207031-.738281-2.476563-1.546875-3.792969-2.390625-7.140625-4.558594-16.023438-10.230468-24.804688-10.964844-5.882812-.492187-11.078124 3.183594-12.925781 9.152344-2.613281 8.449219 4.292969 14.886719 6.890625 17.308594zm2.660156-14.351562c.117188-.371094.75-2.152344 2.351563-2.152344.0625 0 .125.003906.1875.007812 6.316406.53125 14.046875 5.464844 20.257813 9.429688 1.375.878906 2.695312 1.71875 3.949218 2.488281 14.574219 8.925781 29.25 18.113281 43.621094 27.304687 3.671875 2.351563 6.8125 4.527344 7.964844 7.355469.347656.847657.46875 1.683594.34375 2.351563-.351563 1.855468-3.183594 3.425781-5.941406 3.332031-3.730469-.152344-7.695313-2.402344-11.195313-4.386719-19.917969-11.296875-40.515625-22.976562-57.378906-38.695312-3.402344-3.167969-4.683594-5.335938-4.160157-7.035156zm0 0"/></svg>