<svg viewBox="0 0 512 512" xmlns="http://www.w3.org/2000/svg"><path d="m256 0c-141.386719 0-256 114.613281-256 256s114.613281 256 256 256 256-114.613281 256-256-114.613281-256-256-256zm0 346.839844c-50.167969 0-90.839844-40.671875-90.839844-90.839844s40.671875-90.839844 90.839844-90.839844 90.839844 40.671875 90.839844 90.839844-40.671875 90.839844-90.839844 90.839844zm0 0" fill="#f0c382"/><path d="m289.03125 478.96875c-141.382812 0-256-114.617188-256-256 0-62.28125 22.261719-119.351562 59.234375-163.734375-56.371094 46.957031-92.265625 117.664063-92.265625 196.765625 0 141.386719 114.613281 256 256 256 79.105469 0 149.839844-35.894531 196.800781-92.265625-44.382812 36.972656-101.484375 59.234375-163.769531 59.234375zm0 0" fill="#e3aa75"/><path d="m256 0c-85.949219 0-162.875 43-208.375 107.375 14.023438.148438 47.578125 3.652344 59.011719 33.097656 13.113281 33.78125-27.421875 74.625 0 90.582032 23.40625 13.617187 46.535156-25.332032 71.304687-21.539063 15.859375-26.542969 44.894532-44.355469 78.058594-44.355469 50.167969 0 90.839844 40.671875 90.839844 90.839844 0 31.457031-15.996094 59.167969-40.289063 75.472656 20.03125 9.882813 39.289063 13.695313 55.609375 6.421875 30.113282-13.421875 20.199219-53.335937 38.378906-68.992187 12.140626-10.457032 32.03125-5.277344 42.414063 11.871094 24.394531 40.289062 47.738281 44.113281 60.042969 42.523437 5.835937-21.453125 9.003906-44 9.003906-67.296875 0-141.386719-114.613281-256-256-256zm0 0" fill="#ff9ba0"/><path d="m501.304688 306.867188-.210938.019531-.210938.027343c-.773437.101563-1.578124.152344-2.390624.152344-7.585938 0-23.050782-4.527344-41.40625-34.84375-9.421876-15.5625-25.417969-25.226562-41.753907-25.226562-9.59375 0-18.4375 3.246094-25.570312 9.390625-10.421875 8.976562-14.390625 21.574219-17.355469 33.34375-.65625 2.617187-2.804688 4.59375-5.457031 5.085937-5.035157.933594-9.429688-3.746094-7.96875-8.65625 4.273437-14.363281 5.585937-30.003906 3.175781-46.28125-7.03125-47.558594-46.019531-85.191406-93.796875-90.539062-29.679687-3.324219-57.230469 5.492187-78.40625 22.085937-15.238281 11.945313-31.472656 22.570313-47.90625 32.796875-2.015625 1.253906-3.976563 2.523438-5.894531 3.765625-6.84375 4.429688-14.597656 9.453125-18.992188 9.453125-.648437 0-1.273437-.113281-2.21875-.664062-2.65625-1.542969-1.945312-6.546875 3.300782-23.277344 5.3125-16.945312 11.929687-38.035156 3.789062-59.003906-12.222656-31.476563-42.175781-40.542969-62.246094-42.917969-4.277344 5.097656-8.363281 10.359375-12.238281 15.78125 14.019531.148437 47.65625 3.667969 59.085937 33.113281 13.113282 33.78125-27.421874 74.625 0 90.582032 23.410157 13.617187 46.539063-25.332032 71.304688-21.539063 1.175781-1.964844 2.613281-3.796875 3.949219-5.636719h.042969c1.972656-2.800781 4.117187-5.472656 6.382812-8.035156.0625-.070312.117188-.148438.179688-.222656h-.003907c19.742188-22.175782 50-34.714844 83.15625-29.140625 38.355469 6.449219 68.007813 36.523437 74.042969 74.949219 5.347656 34.039062-8.242188 64.980468-31.785156 84.453124.070312.023438-.070313-.023437 0 0-2.34375 1.992188-4.789063 3.867188-7.355469 5.585938 20.03125 9.882812 39.289063 13.695312 55.609375 6.421875 30.117188-13.417969 20.199219-53.332031 38.378906-68.988281 12.140625-10.457032 32.035156-5.28125 42.417969 11.871094 24.390625 40.285156 47.800781 44.101562 60.105469 42.511718 1.554687-5.730468 2.910156-11.558594 4.078125-17.433594-1.867188.445313-3.863281.8125-5.832031 1.015626zm0 0" fill="#ff8087"/><g fill="#ffe17d"><path d="m198.183594 107.355469c-1.242188 0-2.5-.277344-3.683594-.871094l-16.515625-8.257813c-4.082031-2.039062-5.734375-7-3.695313-11.082031 2.050782-4.082031 7-5.734375 11.082032-3.695312l16.515625 8.261719c4.082031 2.039062 5.734375 7 3.695312 11.078124-1.453125 2.894532-4.363281 4.566407-7.398437 4.566407zm0 0"/><path d="m289.039062 107.355469c-3.03125 0-5.941406-1.667969-7.394531-4.566407-2.039062-4.078124-.386719-9.039062 3.695313-11.078124l16.515625-8.261719c4.082031-2.039063 9.03125-.386719 11.082031 3.695312 2.039062 4.082031.386719 9.039063-3.695312 11.082031l-16.515626 8.257813c-1.1875.59375-2.445312.871094-3.6875.871094zm0 0"/><path d="m421.160156 181.675781c-4.5625 0-8.257812-3.691406-8.257812-8.257812v-8.257813c0-4.558594 3.695312-8.257812 8.257812-8.257812 4.566406 0 8.257813 3.699218 8.257813 8.257812v8.257813c0 4.566406-3.691407 8.257812-8.257813 8.257812zm0 0"/></g><path d="m90.839844 322.066406c-2.113282 0-4.226563-.808594-5.839844-2.421875l-8.257812-8.257812c-3.226563-3.226563-3.226563-8.449219 0-11.675781 3.226562-3.226563 8.453124-3.226563 11.675781 0l8.257812 8.257812c3.226563 3.226562 3.226563 8.453125 0 11.675781-1.609375 1.613281-3.722656 2.421875-5.835937 2.421875zm0 0" fill="#cdf5a0"/><path d="m206.453125 445.933594c-4.566406 0-8.257813-3.691406-8.257813-8.257813v-16.515625c0-4.5625 3.691407-8.257812 8.257813-8.257812 4.5625 0 8.257813 3.695312 8.257813 8.257812v16.515625c0 4.566407-3.695313 8.257813-8.257813 8.257813zm0 0" fill="#ff8087"/><path d="m363.355469 404.644531c-4.566407 0-8.257813-3.695312-8.257813-8.257812v-8.257813c0-4.566406 3.691406-8.257812 8.257813-8.257812 4.5625 0 8.257812 3.695312 8.257812 8.257812v8.257813c0 4.566406-3.695312 8.257812-8.257812 8.257812zm0 0" fill="#ff8087"/><path d="m305.546875 454.195312c-2.113281 0-4.226563-.808593-5.835937-2.421874-3.226563-3.222657-3.226563-8.449219 0-11.675782l8.257812-8.257812c3.222656-3.226563 8.449219-3.226563 11.675781 0 3.226563 3.226562 3.226563 8.453125 0 11.675781l-8.257812 8.257813c-1.613281 1.613281-3.726563 2.421874-5.839844 2.421874zm0 0" fill="#cdf5a0"/><path d="m239.484375 57.804688c-4.566406 0-8.257813-3.695313-8.257813-8.257813v-8.257813c0-4.558593 3.695313-8.257812 8.257813-8.257812s8.257813 3.699219 8.257813 8.257812v8.257813c0 4.5625-3.695313 8.257813-8.257813 8.257813zm0 0" fill="#c4deff"/><path d="m346.839844 156.902344c-2.113282 0-4.226563-.804688-5.839844-2.417969-3.226562-3.226563-3.226562-8.453125 0-11.675781l8.257812-8.257813c3.226563-3.226562 8.453126-3.226562 11.675782 0 3.226562 3.222657 3.226562 8.449219 0 11.675781l-8.257813 8.257813c-1.609375 1.613281-3.722656 2.417969-5.835937 2.417969zm0 0" fill="#cdf5a0"/><path d="m123.871094 388.128906h-8.257813c-4.566406 0-8.257812-3.695312-8.257812-8.257812s3.695312-8.257813 8.257812-8.257813h8.257813c4.566406 0 8.257812 3.695313 8.257812 8.257813s-3.695312 8.257812-8.257812 8.257812zm0 0" fill="#ff8087"/><path d="m371.613281 99.097656c-4.566406 0-8.296875-3.699218-8.296875-8.257812 0-4.5625 3.652344-8.257813 8.214844-8.257813h.082031c4.566407 0 8.257813 3.695313 8.257813 8.257813 0 4.558594-3.695313 8.257812-8.257813 8.257812zm0 0" fill="#a5cdff"/><path d="m156.902344 156.902344c-4.5625 0-8.296875-3.699219-8.296875-8.257813 0-4.558593 3.652343-8.257812 8.21875-8.257812h.078125c4.566406 0 8.257812 3.699219 8.257812 8.257812 0 4.558594-3.691406 8.257813-8.257812 8.257813zm0 0" fill="#cdf5a0"/><path d="m247.742188 421.160156c-4.566407 0-8.296876-3.691406-8.296876-8.257812 0-4.5625 3.652344-8.257813 8.214844-8.257813h.082032c4.566406 0 8.257812 3.695313 8.257812 8.257813 0 4.566406-3.695312 8.257812-8.257812 8.257812zm0 0" fill="#c4deff"/><path d="m132.210938 338.582031c-4.566407 0-8.300782-3.695312-8.300782-8.257812 0-4.566407 3.65625-8.257813 8.21875-8.257813h.082032c4.5625 0 8.257812 3.691406 8.257812 8.257813 0 4.5625-3.695312 8.257812-8.257812 8.257812zm0 0" fill="#a5cdff"/></svg>