<svg id="Capa_1" enable-background="new 0 0 512.031 512.031" height="512" viewBox="0 0 512.031 512.031" width="512" xmlns="http://www.w3.org/2000/svg"><path d="m350.4 28.217 1.536 43.745c.363 10.324-7.788 19.068-18.112 19.43-10.324.363-19.068-7.788-19.43-18.112l-1.536-43.745c-.363-10.324 7.788-19.068 18.112-19.43 10.324-.363 19.067 7.788 19.43 18.112z" fill="#50e3cf"/><path d="m30.697 168.801c-41.902 86.422-26.984 193.465 44.755 265.204 90.574 90.574 237.424 90.574 327.998 0 6.582-6.582 24.63-28.012 36.617-39.384-23.315-15.808-111.85-86.454-123.676-95.147-.776-.57-2.78 4.54-2.841 4.487-3.928 8.575-9.414 16.611-16.474 23.672-31.826 31.826-83.427 31.826-115.253 0s-31.826-83.426 0-115.253c7.06-7.06 15.096-12.546 23.671-16.474-.058-.066 8.362-3.217 7.764-4.089-8.399-12.238-75.481-96.301-91.204-119.491-14.575 0-40.022 27.099-46.604 33.681-18.179 18.181-33.16 39.846-44.753 62.794z" fill="#ffd3a3"/><path d="m331.027 331.111c3.219-17.782-11.492-29.327-14.634-31.637-.776-.57-2.78 4.54-2.841 4.487-3.928 8.575-9.414 16.611-16.474 23.672-9.14 9.14-19.914 15.641-31.379 19.531 5.521 1.605 14.008 3.266 19.791 3.27 10.111.006 32.6-2.708 45.537-19.323z" fill="#ffbe74"/><ellipse cx="67.677" cy="316.653" fill="#ffa0ab" rx="17.222" ry="22.459" transform="matrix(.707 -.707 .707 .707 -204.085 140.6)"/><ellipse cx="200.313" cy="449.289" fill="#ffa0ab" rx="17.222" ry="22.459" transform="matrix(.707 -.707 .707 .707 -259.025 273.236)"/><path d="m202.693 192.922.037.037c1.708 1.711 4.249 2.247 6.494 1.351 29.34-11.7 64.102-5.682 87.853 18.07s29.77 58.514 18.07 87.853c-.895 2.245-.359 4.786 1.351 6.494l.03.03c28.461 28.461 4.236 52.685 32.697 81.146 18.83 18.83 38.508 17.303 57.503 21.948 14.05 3.435 28.789-2.624 36.198-15.046 54.036-90.593 42.542-216.721-34.505-293.768-77.048-77.048-203.177-88.542-293.77-34.505-12.422 7.409-18.481 22.148-15.047 36.197 4.644 18.994 3.116 38.671 21.945 57.5 28.46 28.458 52.685 4.234 81.144 32.693z" fill="#ff7591"/><path d="m196.593 84.637 43.107 7.601c10.174 1.794 17.03 11.586 15.236 21.759-1.794 10.174-11.586 17.03-21.759 15.236l-43.107-7.601c-10.174-1.794-17.03-11.586-15.236-21.759 1.794-10.174 11.586-17.03 21.759-15.236z" fill="#ffccd3"/><path d="m357.475 121.101 19.922 38.976c4.702 9.199 1.022 20.572-8.176 25.273-9.199 4.702-20.572 1.022-25.273-8.176l-19.922-38.976c-4.702-9.199-1.022-20.572 8.176-25.273 9.199-4.702 20.572-1.023 25.273 8.176z" fill="#fff"/><path d="m420.337 277.1-5.799 43.387c-1.369 10.24-10.866 17.498-21.106 16.129-10.24-1.369-17.498-10.866-16.129-21.106l5.799-43.387c1.369-10.24 10.866-17.498 21.106-16.129 10.24 1.369 17.498 10.866 16.129 21.106z" fill="#50e3cf"/><path d="m457.237 186.211 37.908 21.886c8.947 5.165 12.04 16.711 6.875 25.658-5.165 8.947-16.711 12.04-25.658 6.875l-37.908-21.886c-8.947-5.165-12.04-16.711-6.875-25.658 5.165-8.946 16.711-12.04 25.658-6.875z" fill="#ffccd3"/><path d="m271.169 194.927c9.414 3.972 18.238 9.782 25.909 17.453 23.751 23.751 29.77 58.514 18.07 87.853-.896 2.245-.359 4.786 1.351 6.494l.03.03c8.522 8.522 12.315 16.665 14.218 24.655 45.344-48.48 15.72-150.507-59.578-136.485z" fill="#fd5c70"/><path d="m86.171 326.814c1.919 0 3.839-.732 5.304-2.197l8.521-8.521c2.929-2.929 2.929-7.678 0-10.606-2.93-2.929-7.678-2.929-10.607 0l-8.521 8.521c-2.929 2.929-2.929 7.678 0 10.606 1.464 1.464 3.384 2.197 5.303 2.197z"/><path d="m188.718 421.384c3.048-2.525 6.095-2.525 9.143 0 2.526 3.048 2.526 6.096.001 9.144-2.93 2.929-2.93 7.678-.001 10.607 3.535 2.929 7.071 2.929 10.606 0 4.722-4.721 6.745-11.261 6.071-17.541-1.051-9.792-8.917-17.549-18.669-18.922-5.919-.833-11.839 1.202-17.758 6.105-2.929 2.929-2.929 7.678.001 10.607 2.927 2.929 7.676 2.929 10.606 0z"/><path d="m106.291 381.767c3.823 3.824 8.81 6.043 14.16 6.38.33 5.156 2.439 10.219 6.371 14.151 4.292 4.292 9.93 6.438 15.568 6.438s11.276-2.146 15.568-6.438c2.93-2.929 2.93-7.678.001-10.607-2.93-2.928-7.679-2.929-10.606 0-2.738 2.737-7.19 2.736-9.925 0-2.736-2.736-2.736-7.188 0-9.924 2.929-2.929 2.929-7.678-.001-10.607-2.928-2.929-7.677-2.928-10.606 0-1.325 1.325-3.087 2.055-4.961 2.055-1.875 0-3.637-.73-4.963-2.056-1.325-1.325-2.056-3.087-2.056-4.962 0-1.874.73-3.636 2.056-4.961 2.93-2.929 2.93-7.678.001-10.607-2.929-2.928-7.678-2.929-10.606 0-4.159 4.159-6.45 9.688-6.45 15.569 0 5.882 2.291 11.411 6.449 15.569z"/><path d="m241.003 84.852-43.107-7.601c-14.082-2.483-27.973 7.256-30.447 21.32-2.48 14.094 7.257 27.967 21.319 30.448l43.106 7.601c13.199 2.326 26.399-6.054 29.914-18.983 3.996-14.697-5.804-30.144-20.785-32.785zm-6.523 36.994-43.106-7.601c-14.209-2.504-10.499-24.766 3.917-22.223l43.108 7.601c14.203 2.505 10.505 24.768-3.919 22.223z"/><path d="m360.716 194.905c19.304 0 32.11-21.122 23.359-38.242l-19.922-38.976c-6.509-12.735-22.63-17.949-35.364-11.441-12.736 6.51-17.951 22.628-11.441 35.365l19.922 38.976c4.643 9.086 13.882 14.318 23.446 14.318zm-25.101-75.302c5.463-2.792 12.392-.546 15.183 4.912l19.921 38.976c6.611 12.932-13.468 23.228-20.094 10.271l-19.921-38.976c-2.832-5.541-.628-12.352 4.911-15.183z"/><path d="m375.669 271.129-5.799 43.387c-1.741 13.023 6.82 25.711 19.559 28.952 14.997 3.815 30.492-6.642 32.543-21.989l5.799-43.386c2.057-15.35-10.164-29.509-25.625-29.763-13.142-.214-24.736 9.775-26.477 22.799zm9.068 45.374 5.799-43.386c1.921-14.352 24.303-11.506 22.367 2.989l-5.799 43.387c-1.918 14.354-24.293 11.444-22.367-2.99z"/><path d="m498.895 201.602-29.763-17.183c-19.562-55.16-58.558-101.544-110.279-129.179l-.958-27.285c-.501-14.295-12.899-25.828-27.188-25.345-14.284.484-25.846 12.912-25.344 27.189l.157 4.485c-64.881-17.256-136.832-8.715-194.709 25.806-7.185 4.286-12.635 10.488-15.957 17.664-8.844 6.986-16.746 14.999-24.705 22.95-11.669 11.67-22.134 24.523-31.103 38.204-2.189 3.34-1.315 8.014 2.001 10.274 3.435 2.341 8.252 1.443 10.543-2.05 8.407-12.824 18.22-24.876 29.164-35.821 3.585-3.585 7.135-7.2 10.815-10.689 3.375 23.13 7.44 47.673 24.676 64.91 16.182 16.181 31.638 17.423 45.274 18.519 11.089.891 20.854 1.677 31.359 10.113-5.913 3.633-11.393 7.948-16.358 12.913-34.699 34.699-34.699 91.16 0 125.859 34.304 34.303 91.555 34.304 125.86 0 4.965-4.965 9.278-10.444 12.911-16.357 8.431 10.503 9.217 20.266 10.109 31.354 1.096 13.637 2.339 29.093 18.521 45.275 16.11 16.11 33.108 18.946 48.105 21.449 5.409.903 10.737 2.242 16.144 3.12-4.245 4.743-7.871 8.773-10.024 10.926-42.389 42.389-98.748 65.734-158.695 65.734s-116.307-23.345-158.695-65.734c-67.568-67.568-84.974-170.699-43.31-256.629 1.822-3.758.119-8.355-3.652-10.1-3.643-1.686-8.103-.037-9.846 3.556-44.448 91.674-25.882 201.697 46.2 273.779 45.223 45.222 105.349 70.127 169.303 70.127 37.095 0 74.031-8.57 107.202-25.21 33.886-16.999 59.013-41.678 84.262-69.29 7.507-3.283 14.013-8.846 18.453-16.289 25.887-43.401 37.725-95.704 33.695-148.152 10.199 1.036 20.32-4.101 25.451-12.989 7.247-12.551 2.931-28.657-9.619-35.904zm-3.37 28.403c-3.111 5.389-10.024 7.24-15.413 4.13l-37.907-21.886c-5.165-2.981-7.094-9.743-4.338-15.017 2.909-5.565 10.168-7.672 15.62-4.525l37.908 21.886c5.387 3.11 7.24 10.025 4.13 15.412zm-140.997 152.595c-12.279-12.279-13.158-23.211-14.176-35.871-1.082-13.455-2.307-28.682-17.882-44.629 12.558-32.562 4.801-70.134-20.089-95.024-24.893-24.891-62.467-32.646-95.024-20.09-15.948-15.581-31.179-16.806-44.636-17.888-12.658-1.017-23.591-1.896-35.868-14.174-15.095-15.095-15.223-34.595-19.963-53.978-2.645-10.819 2.127-22.323 11.604-27.975 88.633-52.868 211.209-40.049 284.624 33.367 19.78 19.78 35.603 43.607 46.767 69.938-12.205-.921-23.707 6.944-27.221 18.666-3.452 11.515 1.645 24.295 12.04 30.296l32.718 18.891c5.583 51.883-5.394 104.01-30.937 146.833-5.652 9.477-17.157 14.247-27.976 11.603-19.436-4.753-38.882-4.866-53.981-19.965zm-167.399-60.271c-28.852-28.851-28.852-75.795-.001-104.646 28.459-28.454 76.165-28.484 104.646 0 28.461 28.46 28.475 76.169 0 104.646-28.848 28.85-75.794 28.852-104.645 0zm133.224-293.057c-.219-6.204 4.889-11.549 11.079-11.675 6.037-.123 11.26 4.857 11.473 10.884l.677 19.266c-7.444-3.334-15.087-6.308-22.893-8.917z"/></svg>