<svg id="Capa_1" enable-background="new 0 0 512 512" height="512" viewBox="0 0 512 512" width="512" xmlns="http://www.w3.org/2000/svg"><path d="m256 0c-141.385 0-256 114.615-256 256s114.615 256 256 256 256-114.615 256-256-114.615-256-256-256zm0 344.091c-48.651 0-88.091-39.44-88.091-88.091s39.44-88.091 88.091-88.091 88.091 39.44 88.091 88.091-39.44 88.091-88.091 88.091z" fill="#d2896f"/><path d="m480.529 379.05c-88.928 12.925-163.362-2.486-219.405-35.119-1.697.098-3.402.159-5.123.159-48.651 0-88.091-39.44-88.091-88.091 0-2.899.149-5.763.423-8.591-36.997-72.374-32.84-162.058 22.928-239.142-110.038 28.676-191.261 128.716-191.261 247.734 0 141.385 114.615 256 256 256 96.783 0 181.012-53.713 224.529-132.95z" fill="#b36d3a"/><path d="m465.342 300.19-11.288-19.294c-8.997-15.378-8.997-34.413 0-49.791l11.288-19.294c16.488-28.184 1.52-64.32-30.068-72.59l-21.625-5.662c-17.235-4.512-30.695-17.972-35.208-35.208l-5.662-21.625c-8.27-31.588-44.406-46.556-72.59-30.068l-19.294 11.288c-15.378 8.997-34.413 8.997-49.791 0l-19.294-11.288c-28.184-16.488-64.32-1.52-72.59 30.068l-5.662 21.625c-4.512 17.235-17.972 30.695-35.208 35.208l-21.625 5.662c-31.588 8.27-46.556 44.406-30.068 72.59l11.288 19.294c8.997 15.378 8.997 34.413 0 49.791l-11.287 19.294c-16.488 28.184-1.52 64.32 30.068 72.59l21.625 5.662c17.235 4.512 30.695 17.972 35.208 35.208l5.662 21.625c8.27 31.588 44.406 46.556 72.59 30.068l19.294-11.288c15.378-8.997 34.413-8.997 49.791 0l19.294 11.288c28.184 16.488 64.32 1.52 72.59-30.068l5.662-21.625c4.512-17.235 17.972-30.695 35.208-35.208l21.625-5.662c31.587-8.27 46.555-44.406 30.067-72.59zm-209.342 43.901c-48.651 0-88.091-39.44-88.091-88.091s39.44-88.091 88.091-88.091 88.091 39.44 88.091 88.091-39.44 88.091-88.091 88.091z" fill="#fcf2d0"/><path d="m46.658 300.19c-16.488 28.184-1.52 64.32 30.068 72.59l21.625 5.662c17.235 4.512 30.695 17.972 35.208 35.208l5.662 21.625c8.27 31.588 44.406 46.556 72.59 30.068l19.294-11.288c15.378-8.997 34.413-8.997 49.791 0l19.294 11.288c28.184 16.488 64.32 1.52 72.59-30.068l5.662-21.625c3.421-13.067 11.991-23.953 23.444-30.426-54.802-2.499-102.147-16.807-140.762-39.292-1.697.098-3.402.159-5.123.159-48.651 0-88.091-39.44-88.091-88.091 0-2.899.149-5.763.423-8.591-31.568-61.757-33.17-136.117 1.686-204.499-14.479 5.292-26.465 17.267-30.798 33.815l-5.662 21.625c-4.512 17.235-17.972 30.695-35.208 35.208l-21.625 5.662c-31.588 8.27-46.556 44.406-30.068 72.59l11.288 19.294c8.997 15.378 8.997 34.413 0 49.791z" fill="#f6e3a3"/><path d="m358.368 165.45c-4.123 0-8.246-1.573-11.392-4.719-6.292-6.292-6.292-16.492 0-22.784l28.041-28.041c6.291-6.292 16.493-6.292 22.784 0 6.292 6.292 6.292 16.492 0 22.784l-28.041 28.041c-3.145 3.146-7.269 4.719-11.392 4.719z" fill="#a3defe"/><path d="m219.654 90.878c-4.123 0-8.246-1.573-11.392-4.719-6.292-6.292-6.292-16.492 0-22.784l28.041-28.041c6.291-6.292 16.493-6.292 22.784 0 6.292 6.292 6.292 16.492 0 22.784l-28.041 28.041c-3.146 3.146-7.269 4.719-11.392 4.719z" fill="#de5c6e"/><path d="m220.406 418.802h-39.656c-8.898 0-16.111-7.213-16.111-16.111s7.213-16.111 16.111-16.111h39.656c8.898 0 16.111 7.213 16.111 16.111s-7.213 16.111-16.111 16.111z" fill="#7acefa"/><path d="m355.564 403.547c-4.123 0-8.246-1.573-11.392-4.719l-28.041-28.041c-6.292-6.292-6.292-16.492 0-22.784 6.291-6.292 16.493-6.292 22.784 0l28.041 28.041c6.292 6.292 6.292 16.492 0 22.784-3.145 3.146-7.268 4.719-11.392 4.719z" fill="#e8899e"/><path d="m92.67 305.001c-4.123 0-8.246-1.573-11.392-4.719-6.292-6.292-6.292-16.492 0-22.784l28.041-28.041c6.291-6.292 16.493-6.292 22.784 0 6.292 6.292 6.292 16.492 0 22.784l-28.041 28.041c-3.146 3.146-7.269 4.719-11.392 4.719z" fill="#5ec783"/><path d="m448.072 276.96h-39.657c-8.898 0-16.111-7.213-16.111-16.111s7.212-16.111 16.111-16.111h39.657c8.898 0 16.111 7.213 16.111 16.111s-7.213 16.111-16.111 16.111z" fill="#89d47f"/><path d="m124.071 153.39c-4.123 0-8.246-1.573-11.392-4.719l-28.041-28.041c-6.292-6.292-6.292-16.492 0-22.784 6.291-6.292 16.493-6.292 22.784 0l28.041 28.041c6.292 6.292 6.292 16.492 0 22.784-3.145 3.146-7.268 4.719-11.392 4.719z" fill="#a3defe"/></svg>