<svg id="Capa_1" enable-background="new 0 0 497 497" height="512" viewBox="0 0 497 497" width="512" xmlns="http://www.w3.org/2000/svg"><path d="m342.878 20.702 1.536 43.745c.363 10.324-7.788 19.068-18.112 19.43-10.324.363-19.068-7.788-19.43-18.112l-1.536-43.745c-.363-10.324 7.788-19.068 18.112-19.43 10.324-.362 19.068 7.788 19.43 18.112z" fill="#50e3cf"/><path d="m23.176 161.287c-41.902 86.422-26.984 193.465 44.755 265.204 90.574 90.574 237.424 90.574 327.998 0 6.582-6.582 24.63-28.012 36.617-39.384-23.315-15.808-111.85-86.454-123.676-95.147-.776-.57-2.78 4.54-2.841 4.487-3.928 8.575-9.414 16.611-16.474 23.672-31.826 31.826-83.427 31.826-115.253 0s-31.826-83.426 0-115.253c7.06-7.06 15.096-12.546 23.671-16.474-.058-.066 8.362-3.217 7.764-4.089-8.399-12.238-75.481-96.301-91.204-119.491-14.575 0-40.022 27.099-46.604 33.681-18.179 18.18-33.161 39.846-44.753 62.794z" fill="#ffd3a3"/><path d="m323.505 323.596c3.219-17.782-11.492-29.327-14.634-31.637-.776-.57-2.78 4.54-2.841 4.487-3.928 8.575-9.414 16.611-16.474 23.672-9.14 9.14-19.914 15.641-31.379 19.531 5.521 1.605 14.008 3.266 19.791 3.27 10.111.006 32.6-2.707 45.537-19.323z" fill="#ffbe74"/><ellipse cx="60.155" cy="309.138" fill="#ffa0ab" rx="17.222" ry="22.459" transform="matrix(.707 -.707 .707 .707 -200.975 133.081)"/><ellipse cx="192.791" cy="441.774" fill="#ffa0ab" rx="17.222" ry="22.459" transform="matrix(.707 -.707 .707 .707 -255.914 265.717)"/><path d="m195.171 185.407.037.037c1.708 1.711 4.249 2.246 6.494 1.351 29.34-11.7 64.102-5.682 87.853 18.07s29.77 58.514 18.07 87.853c-.895 2.245-.359 4.786 1.351 6.494l.03.03c28.461 28.461 4.236 52.685 32.697 81.146 18.83 18.83 38.508 17.303 57.503 21.948 14.05 3.435 28.789-2.624 36.198-15.046 54.036-90.593 42.542-216.721-34.505-293.768-77.047-77.048-203.175-88.542-293.769-34.505-12.422 7.409-18.481 22.148-15.047 36.197 4.644 18.994 3.116 38.671 21.945 57.5 28.46 28.459 52.684 4.234 81.143 32.693z" fill="#ff7591"/><g fill="#333843"><path d="m92.475 297.974c-2.93-2.929-7.678-2.929-10.607 0l-8.521 8.521c-2.929 2.929-2.929 7.678 0 10.606 1.465 1.464 3.385 2.197 5.304 2.197s3.839-.732 5.304-2.197l8.521-8.521c2.927-2.928 2.927-7.677-.001-10.606z"/><path d="m200.945 403.262c-4.054-4.054-9.444-6.287-15.178-6.287s-11.125 2.233-15.179 6.287c-2.929 2.929-2.929 7.678.001 10.607 2.928 2.929 7.677 2.928 10.606 0 1.221-1.221 2.844-1.894 4.571-1.894s3.351.673 4.571 1.894c1.222 1.221 1.895 2.845 1.895 4.572s-.673 3.351-1.894 4.571c-2.93 2.929-2.93 7.678-.001 10.607 1.465 1.464 3.384 2.197 5.304 2.197 1.919 0 3.839-.732 5.303-2.196 4.055-4.054 6.288-9.445 6.288-15.179s-2.232-11.124-6.287-15.179z"/><path d="m139.832 384.176c-2.738 2.737-7.19 2.736-9.925 0-2.736-2.736-2.736-7.188 0-9.924 2.929-2.929 2.929-7.678-.001-10.607-2.928-2.929-7.677-2.928-10.606 0-1.325 1.325-3.087 2.055-4.961 2.055-1.875 0-3.637-.73-4.963-2.056-1.325-1.325-2.056-3.087-2.056-4.962 0-1.874.73-3.636 2.056-4.961 2.93-2.929 2.93-7.678.001-10.607-2.929-2.928-7.678-2.929-10.606 0-4.159 4.159-6.45 9.688-6.45 15.569s2.291 11.411 6.449 15.569c3.823 3.824 8.81 6.043 14.16 6.38.33 5.156 2.439 10.219 6.371 14.151 4.292 4.292 9.93 6.438 15.568 6.438s11.276-2.146 15.568-6.438c2.93-2.929 2.93-7.678.001-10.607-2.929-2.927-7.678-2.928-10.606 0z"/></g><path d="m189.072 77.122 43.107 7.601c10.174 1.794 17.03 11.586 15.236 21.759-1.794 10.174-11.586 17.03-21.759 15.236l-43.107-7.601c-10.174-1.794-17.03-11.586-15.236-21.759 1.793-10.174 11.585-17.03 21.759-15.236z" fill="#ffccd3"/><path d="m349.954 113.586 19.922 38.976c4.702 9.199 1.022 20.572-8.176 25.273-9.199 4.702-20.572 1.022-25.273-8.176l-19.922-38.976c-4.702-9.199-1.022-20.572 8.176-25.273 9.198-4.702 20.571-1.023 25.273 8.176z" fill="#fff"/><path d="m412.816 269.585-5.799 43.387c-1.369 10.24-10.866 17.498-21.106 16.129-10.24-1.369-17.498-10.866-16.129-21.106l5.799-43.387c1.369-10.24 10.866-17.498 21.106-16.129 10.239 1.369 17.497 10.867 16.129 21.106z" fill="#50e3cf"/><path d="m449.715 178.697 37.908 21.886c8.947 5.165 12.04 16.711 6.875 25.658-5.165 8.947-16.711 12.04-25.658 6.875l-37.908-21.886c-8.947-5.165-12.04-16.711-6.875-25.658 5.165-8.947 16.711-12.041 25.658-6.875z" fill="#ffccd3"/><path d="m263.647 187.412c9.414 3.972 18.238 9.782 25.909 17.453 23.751 23.751 29.77 58.514 18.07 87.853-.896 2.245-.359 4.786 1.351 6.494l.03.03c8.522 8.522 12.315 16.665 14.218 24.655 45.345-48.48 15.72-150.507-59.578-136.485z" fill="#fd5c70"/></svg>