<?xml version="1.0" encoding="iso-8859-1"?>
<!-- Generator: Adobe Illustrator 21.0.0, SVG Export Plug-In . SVG Version: 6.00 Build 0)  -->
<svg xmlns="http://www.w3.org/2000/svg" xmlns:xlink="http://www.w3.org/1999/xlink" version="1.1" id="Capa_1" x="0px" y="0px" viewBox="0 0 512 512" style="enable-background:new 0 0 512 512;" xml:space="preserve" width="512" height="512">
<g>
	<path style="fill:#FFEB95;" d="M256,0C114.841,0,0,114.841,0,256s114.841,256,256,256s256-114.841,256-256S397.159,0,256,0z    M256,368c-61.757,0-112-50.243-112-112s50.243-112,112-112s112,50.243,112,112S317.757,368,256,368z"/>
	<path style="fill:#FFDE46;" d="M256,0v144c61.757,0,112,50.243,112,112s-50.243,112-112,112v144c141.159,0,256-114.841,256-256   S397.159,0,256,0z"/>
	<path style="fill:#F5A1CA;" d="M256,0C114.841,0,0,114.841,0,256c0,10.836,0.683,21.516,1.997,32.002   C2.56,287.579,42,239,60.463,245.7C87.243,255.417,98,333,133.415,337.023c14.876,1.69,25.628-5.877,33.25-13.552   C152.447,304.693,144,281.316,144,256c0-61.757,50.243-112,112-112s112,50.243,112,112c0,16.552-3.613,32.275-10.086,46.427   c2.885,2.189,12.241,3.986,21.428,0.294C411,290,418,236,437.97,232.025c19.577-3.897,70.211,64.247,70.75,64.862   C510.868,283.568,512,269.915,512,256C512,114.841,397.159,0,256,0z"/>
	<path style="fill:#F17BB4;" d="M256,0v144c61.757,0,112,50.243,112,112c0,16.552-3.613,32.275-10.086,46.427   c2.885,2.189,12.241,3.986,21.428,0.294C411,290,418,236,437.97,232.025c19.577-3.897,70.211,64.247,70.75,64.862   C510.868,283.568,512,269.915,512,256C512,114.841,397.159,0,256,0z"/>
	<g>
		<path style="fill:#D11372;" d="M251.063,67c-5.185,0-10.226-2.69-13.004-7.502l-7.047-12.206    c-4.142-7.174-1.684-16.348,5.49-20.49c7.174-4.143,16.348-1.684,20.49,5.49l7.047,12.206c4.142,7.174,1.684,16.348-5.49,20.49    C256.187,66.352,253.608,67,251.063,67z"/>
	</g>
	<g>
		<path style="fill:#BCE9F8;" d="M90.999,187.335c-1.526,0-3.078-0.235-4.609-0.729l-13.413-4.327    c-7.884-2.543-12.213-10.997-9.67-18.881c2.543-7.885,10.998-12.213,18.881-9.67l13.413,4.327    c7.884,2.543,12.213,10.997,9.67,18.881C103.222,183.29,97.334,187.335,90.999,187.335z"/>
	</g>
	<g>
		<path style="fill:#663325;" d="M419,177.795c-7.435,0-13.89-5.525-14.859-13.095c-1.053-8.217,4.755-15.732,12.972-16.785    l13.979-1.791c8.21-1.055,15.732,4.755,16.785,12.972s-4.755,15.732-12.972,16.785l-13.979,1.791    C420.278,177.755,419.636,177.795,419,177.795z"/>
	</g>
	<g>
		<path style="fill:#BCE9F8;" d="M146.933,123.162c-1.791,0-3.611-0.323-5.382-1.004c-7.732-2.974-11.589-11.653-8.615-19.385    l5.06-13.154c2.974-7.731,11.652-11.589,19.385-8.615c7.732,2.974,11.589,11.653,8.615,19.385l-5.06,13.154    C158.643,119.503,152.959,123.162,146.933,123.162z"/>
	</g>
	<g>
		<path style="fill:#663325;" d="M340.99,134c-2.341,0-4.715-0.549-6.934-1.708c-7.342-3.836-10.184-12.898-6.348-20.241    l6.527-12.491c3.837-7.342,12.899-10.184,20.241-6.348c7.342,3.836,10.184,12.898,6.348,20.241l-6.527,12.491    C351.62,131.068,346.397,134,340.99,134z"/>
	</g>
	<g>
		<path style="fill:#B21061;" d="M419,177.795c-7.435,0-13.89-5.525-14.859-13.095c-1.053-8.217,4.755-15.732,12.972-16.785    l13.979-1.791c8.21-1.055,15.732,4.755,16.785,12.972s-4.755,15.732-12.972,16.785l-13.979,1.791    C420.278,177.755,419.636,177.795,419,177.795z"/>
	</g>
	<g>
		<path style="fill:#9CE0F6;" d="M340.99,134c-2.341,0-4.715-0.549-6.934-1.708c-7.342-3.836-10.184-12.898-6.348-20.241    l6.527-12.491c3.837-7.342,12.899-10.184,20.241-6.348c7.342,3.836,10.184,12.898,6.348,20.241l-6.527,12.491    C351.62,131.068,346.397,134,340.99,134z"/>
	</g>
	<path style="fill:#B21061;" d="M264.039,44.498l-7.047-12.206c-0.303-0.524-0.639-1.015-0.993-1.488v35.35   c0.869-0.305,1.723-0.689,2.549-1.166C265.724,60.846,268.182,51.672,264.039,44.498z"/>
</g>















</svg>
