<?xml version="1.0" encoding="iso-8859-1"?>
<!-- Generator: Adobe Illustrator 19.0.0, SVG Export Plug-In . SVG Version: 6.00 Build 0)  -->
<svg xmlns="http://www.w3.org/2000/svg" xmlns:xlink="http://www.w3.org/1999/xlink" version="1.1" id="Capa_1" x="0px" y="0px" viewBox="0 0 512 512" style="enable-background:new 0 0 512 512;" xml:space="preserve" width="512" height="512">
<g>
	<g>
		<path style="fill:#FFC266;" d="M335.196,275.118c-8.628,35.733-40.851,62.365-79.196,62.365l-10.001,89.4L256,512    c68.38,0,132.667-26.629,181.02-74.98c40.577-40.577,65.855-92.377,72.935-148.401L335.196,275.118z"/>
		<path style="fill:#FFD699;" d="M176.666,274.521L1.809,286.69c6.739,56.763,32.13,109.287,73.172,150.33    C123.332,485.371,187.62,512,256,512V337.483C217.442,337.483,185.077,310.554,176.666,274.521z"/>
	</g>
	<g>
		<path style="fill:#803602;" d="M497.389,170.598l-4.048-11.436l-12.03,1.567c-1.398,0.183-2.699,0.271-3.977,0.271    c-10.705,0-20.414-5.477-25.971-14.651l-5.955-9.83l-11.041,3.192c-4.759,1.376-9.685,2.074-14.641,2.074    c-29.073,0-52.726-23.653-52.726-52.726c0-4.547,0.595-9.098,1.767-13.526l2.181-8.237l-5.959-6.091    c-5.582-5.705-8.655-13.236-8.655-21.204c0-2.054,0.206-4.106,0.611-6.101l2.533-12.447l-11.86-4.549    C318.374,5.687,287.549,0,256,0l-32,95.14l32,79.377c44.93,0,81.483,36.553,81.483,81.483c0,4.744-0.431,9.386-1.212,13.91    c2.424,41.535,31.099,76.996,71.339,84.727c5.328,1.023,10.648,1.518,15.902,1.518c38.444,0.002,73.581-26.443,86.147-65.422    C511.199,279.314,512,267.719,512,256C512,226.718,507.084,197.984,497.389,170.598z"/>
		<path style="fill:#B14F03;" d="M74.98,74.98C26.629,123.332,0,187.62,0,256c0,11.719,0.801,23.314,2.341,34.732    c12.567,38.976,47.707,65.421,86.148,65.423c5.257,0,10.572-0.494,15.902-1.518c40.24-7.731,68.914-43.192,71.338-84.727    c-0.782-4.524-1.212-9.166-1.212-13.91c0-44.93,36.553-81.483,81.483-81.483V0C187.62,0,123.332,26.629,74.98,74.98z"/>
	</g>
	<rect x="112.778" y="127.778" style="fill:#FFEBCE;" width="30" height="39.087"/>
	
		<rect x="68.942" y="254.819" transform="matrix(0.7071 0.7071 -0.7071 0.7071 216.706 16.4583)" style="fill:#FFEBCE;" width="39.087" height="30"/>
	
		<rect x="408.514" y="250.276" transform="matrix(0.7071 0.7071 -0.7071 0.7071 314.8411 -220.4429)" style="fill:#FFD699;" width="30" height="39.087"/>
	<g>
		<polygon style="fill:#FFD699;" points="280.426,85.273 259.212,64.06 256,67.272 249,89.68 256,109.699   "/>
		<polygon style="fill:#FFEBCE;" points="252.787,112.912 256,109.699 256,67.272 231.574,91.699   "/>
	</g>
</g>















</svg>
