<svg height="512pt" viewBox="-6 0 512 512" width="512pt" xmlns="http://www.w3.org/2000/svg"><path d="m500.757812 261.621094c0 138.28125-112.097656 250.378906-250.378906 250.378906s-250.378906-112.097656-250.378906-250.378906 112.097656-250.378906 250.378906-250.378906 250.378906 112.097656 250.378906 250.378906zm0 0" fill="#ade8f0"/><path d="m333.839844 60.78125c0 8.464844-6.863282 15.328125-15.328125 15.328125-8.46875 0-15.332031-6.863281-15.332031-15.328125 0-8.46875 6.863281-15.332031 15.332031-15.332031 8.464843 0 15.328125 6.863281 15.328125 15.332031zm63.191406 32.25c-8.46875 0-15.332031 6.863281-15.332031 15.328125 0 8.46875 6.863281 15.332031 15.332031 15.332031 8.464844 0 15.328125-6.863281 15.328125-15.332031 0-8.464844-6.863281-15.328125-15.328125-15.328125zm-172.96875-80.421875c-.15625.878906-.976562 18.050781 15.074219 18.050781 15.542969 0 15.125-18.105468 14.773437-19.394531-1.175781-.015625-16.476562-.5-29.847656 1.34375zm0 0" fill="#84deea"/><path d="m173.734375 62.339844c-33.238281 0-65.097656 5.878906-94.609375 16.648437-48.691406 45.679688-79.125 110.597657-79.125 182.632813 0 138.28125 112.097656 250.378906 250.378906 250.378906 72.035156 0 136.953125-30.433594 182.632813-79.125 10.769531-29.511719 16.648437-61.371094 16.648437-94.609375 0-152.390625-123.535156-275.925781-275.925781-275.925781zm0 343.375c-37.253906 0-67.449219-30.195313-67.449219-67.449219 0-37.25 30.195313-67.445313 67.449219-67.445313 37.25 0 67.445313 30.195313 67.445313 67.445313 0 37.253906-30.195313 67.449219-67.445313 67.449219zm0 0" fill="#f5b65d"/><path d="m173.734375 62.339844c-28.914063 1.125-60.222656 12.949218-85.160156 32.777344-2.765625 2.199218-3.28125 6.09375-1.378907 9.078124 1.894532 2.964844 2.792969 6.621094 2.230469 10.507813-.945312 6.519531-6.136719 11.800781-12.640625 12.839844-3.582031.570312-6.972656-.101563-9.824218-1.648438-2.957032-1.609375-6.683594-.597656-8.601563 2.171875-6.863281 9.90625-15.191406 24.3125-18.382813 49.003906-.414062 3.199219 2.105469 5.964844 5.332032 6.023438.058594 0 15.035156 1.625 15.035156 14.738281 0 8.742188-6.65625 15.917969-15.316406 15.917969-.984375 0-1.949219-.097656-2.878906-.273438-3.226563-.617187-6.179688 1.945313-6.277344 5.226563-.066406 2.375-.101563 4.757813-.101563 7.148437 0 11.597657.796875 23.015626 2.34375 34.203126 2.324219 16.84375 23.136719 23.519531 34.933594 11.277343 21.5625-22.367187 51.832031-36.28125 85.355469-36.28125 65.1875 0 118.546875 53.359375 118.546875 118.546875 0 30.558594-11.5625 58.417969-30.554688 79.4375-11.789062 13.046875-2.492187 33.949219 15.097657 34.058594 145.476562.882812 188.167968-89.261719 188.167968-128.824219 0-152.5-123.542968-281.867187-275.925781-275.929687zm-67.449219 114.078125c-8.46875 0-15.332031-6.863281-15.332031-15.332031 0-8.464844 6.863281-15.328126 15.332031-15.328126 8.464844 0 15.328125 6.863282 15.328125 15.328126 0 8.46875-6.863281 15.332031-15.328125 15.332031zm232.769532 121.597656c-8.46875 0-15.332032-6.863281-15.332032-15.328125s6.863282-15.328125 15.332032-15.328125c8.464843 0 15.328124 6.863281 15.328124 15.328125s-6.863281 15.328125-15.328124 15.328125zm0 0" fill="#f7c37d"/><path d="m423.949219 220.789062-20.15625 18.191407c-10.910157 9.933593-28.105469 7.835937-36.304688-4.433594l-15.441406-23.101563c-6.496094-9.722656-20.371094-10.820312-28.320313-2.246093l-26.039062 28.09375c-12.683594 13.6875-35.4375 8.414062-40.808594-9.457031l-21.109375-70.25c-4.449219-14.808594-22.835937-19.902344-34.273437-9.492188-10.910156 9.933594-28.105469 7.835938-36.304688-4.433594l-50.164062-75.0625c18.917968-4.097656 38.558594-6.320312 58.707031-6.257812 124.378906.382812 208.605469 62.722656 250.214844 158.449218zm0 0" fill="#ea5569"/><path d="m208.171875 143.976562c-2.367187.902344-4.632813 2.257813-6.671875 4.117188-10.914062 9.933594-28.109375 7.835938-36.308594-4.433594l-50.164062-75.0625c18.898437-4.183594 38.546875-6.261718 58.691406-6.261718 42.273438 0 73.390625 1.527343 120.203125 23.867187-20.042969-4.632813-77.511719-4.214844-83.960937-3.765625-18.265626 1.285156-28.339844 21.808594-18.167969 37.03125zm0 0" fill="#e43950"/><path d="m274.90625 117.523438c0 8.46875-6.863281 15.332031-15.328125 15.332031-8.46875 0-15.332031-6.863281-15.332031-15.332031 0-8.464844 6.863281-15.328126 15.332031-15.328126 8.464844 0 15.328125 6.863282 15.328125 15.328126zm117.523438 35.769531c-8.464844 0-15.328126 6.863281-15.328126 15.328125 0 8.46875 6.863282 15.332031 15.328126 15.332031 8.46875 0 15.332031-6.863281 15.332031-15.332031 0-8.464844-6.863281-15.328125-15.332031-15.328125zm-98.8125-153.292969c-8.464844 0-15.328126 6.863281-15.328126 15.328125 0 8.46875 6.863282 15.332031 15.328126 15.332031 8.464843 0 15.328124-6.863281 15.328124-15.332031 0-8.464844-6.859374-15.328125-15.328124-15.328125zm0 0" fill="#ab2538"/><path d="m208.308594 184.121094c0 8.46875-6.863282 15.332031-15.328125 15.332031-8.46875 0-15.332031-6.863281-15.332031-15.332031 0-8.464844 6.863281-15.328125 15.332031-15.328125 8.464843 0 15.328125 6.863281 15.328125 15.328125zm168.792968-148.351563c-8.464843 0-15.328124 6.863281-15.328124 15.328125s6.863281 15.328125 15.328124 15.328125c8.464844 0 15.328126-6.863281 15.328126-15.328125s-6.863282-15.328125-15.328126-15.328125zm0 0" fill="#f58057"/><path d="m203.371094 66.425781c0 8.46875-6.867188 15.332031-15.332032 15.332031-8.464843 0-15.328124-6.863281-15.328124-15.332031 0-8.464843 6.863281-15.328125 15.328124-15.328125 8.464844 0 15.332032 6.863282 15.332032 15.328125zm91.972656 91.976563c-8.464844 0-15.328125 6.863281-15.328125 15.332031 0 8.464844 6.863281 15.328125 15.328125 15.328125 8.46875 0 15.332031-6.863281 15.332031-15.328125 0-8.46875-6.863281-15.332031-15.332031-15.332031zm0 0" fill="#fff5f5"/></svg>