<svg height="512pt" viewBox="0 0 512 512" width="512pt" xmlns="http://www.w3.org/2000/svg"><path d="m256 7.5c-137.242188 0-248.5 111.257812-248.5 248.5s111.257812 248.5 248.5 248.5 248.5-111.257812 248.5-248.5-111.257812-248.5-248.5-248.5zm0 344.695312c-53.125 0-96.195312-43.070312-96.195312-96.195312s43.066406-96.195312 96.195312-96.195312 96.195312 43.066406 96.195312 96.195312c0 53.125-43.070312 96.195312-96.195312 96.195312zm0 0" fill="#f6d190"/><path d="m504.5 256c0-137.242188-111.257812-248.5-248.5-248.5-65.976562 0-125.898438 25.757812-170.390625 67.707031 11.429687 15.683594 4.792969 26.53125 22.035156 43.773438 19.632813 19.632812 30.96875 8.296875 50.605469 27.933593 18.351562 18.351563 9.683594 29.457032 24.472656 46.851563 17.644532-20.753906 43.902344-33.960937 73.277344-33.960937 53.125 0 96.195312 43.066406 96.195312 96.195312 0 29.375-13.207031 55.632812-33.960937 73.277344 17.355469 14.742187 28.457031 6.078125 46.761719 24.382812 19.613281 19.613282 8.277344 30.949219 27.890625 50.5625 17.292969 17.292969 28.15625 10.554688 43.925781 22.148438 41.9375-44.488282 67.6875-104.40625 67.6875-170.371094zm0 0" fill="#ff8086"/><path d="m284.910156 479.273438c-139.273437 0-252.183594-112.910157-252.183594-252.183594 0-54.167969 17.132813-104.296875 46.207032-145.386719-44.160156 44.851563-71.433594 106.378906-71.433594 174.296875 0 137.242188 111.257812 248.5 248.5 248.5 67.917969 0 129.445312-27.273438 174.300781-71.433594-41.089843 29.074219-91.222656 46.207032-145.390625 46.207032zm0 0" fill="#ecbd83"/><path d="m268.023438 147.78125c-29.625 0-56.097657 13.414062-73.742188 34.476562 16.707031-14 38.21875-22.449218 61.71875-22.449218 53.125 0 96.195312 43.066406 96.195312 96.191406 0 23.503906-8.453124 45.015625-22.449218 61.722656 21.058594-17.648437 34.472656-44.121094 34.472656-73.746094 0-53.128906-43.066406-96.195312-96.195312-96.195312zm0 0" fill="#e5646e"/><path d="m437.019531 74.980469c-48.351562-48.351563-112.640625-74.980469-181.019531-74.980469s-132.667969 26.628906-181.019531 74.980469c-48.351563 48.351562-74.980469 112.640625-74.980469 181.019531s26.628906 132.667969 74.980469 181.019531c48.351562 48.351563 112.640625 74.980469 181.019531 74.980469s132.667969-26.628906 181.019531-74.980469c48.351563-48.351562 74.980469-112.640625 74.980469-181.019531s-26.628906-132.667969-74.980469-181.019531zm-351.433593 351.433593c-45.519532-45.519531-70.585938-106.039062-70.585938-170.414062 0-64.316406 25.027344-124.785156 70.46875-170.289062 3.066406 4.617187 3.976562 8.792968 5.035156 13.703124 1.675782 7.785157 3.574219 16.605469 13.914063 26.945313 10.34375 10.34375 19.167969 12.246094 26.953125 13.921875 6.863281 1.476562 12.285156 2.644531 19.503906 9.863281 7.222656 7.222657 8.390625 12.644531 9.871094 19.511719 1.558594 7.234375 3.324218 15.363281 11.851562 24.773438-11.4375 15.503906-18.414062 33.980468-19.917968 53.359374-1.886719 24.253907 4.816406 48.480469 18.875 68.222657 1.460937 2.054687 3.769531 3.152343 6.117187 3.152343 1.503906 0 3.023437-.453124 4.34375-1.390624 3.371094-2.40625 4.160156-7.085938 1.757813-10.460938-25.1875-35.375-21.1875-83.328125 9.511718-114.027344 30.699219-30.699218 78.65625-34.699218 114.027344-9.511718 3.375 2.402343 8.054688 1.617187 10.460938-1.757813 2.402343-3.375 1.613281-8.058594-1.761719-10.460937-11.582031-8.25-24.714844-13.941407-38.484375-16.878907v-13.574219c0-4.140624-3.355469-7.5-7.5-7.5-4.140625 0-7.5 3.359376-7.5 7.5v11.5c-4.886719-.316406-9.8125-.308593-14.738282.074219-24.550781 1.910157-47.675781 12.5625-65.113281 30-.074219.078125-.144531.15625-.21875.230469-4.738281-5.757812-5.785156-10.5625-7.046875-16.410156-1.679687-7.785156-3.582031-16.613282-13.929687-26.960938-10.34375-10.339844-19.167969-12.242187-26.953125-13.917968-6.863282-1.480469-12.289063-2.648438-19.503906-9.863282-.789063-.792968-1.496094-1.554687-2.148438-2.308594l11.039062-9.382812c3.15625-2.683594 3.539063-7.414062.859376-10.570312-2.683594-3.15625-7.417969-3.542969-10.574219-.859376l-8.269531 7.03125c-.265626-1.105468-.507813-2.234374-.761719-3.40625-1.339844-6.226562-2.835938-13.117187-8.664063-20.917968 13.914063-12.320313 29.027344-22.882813 45.066406-31.558594l3.804688 10.9375c1.074219 3.097656 3.976562 5.039062 7.082031 5.039062.816407 0 1.648438-.136718 2.464844-.417968 3.910156-1.363282 5.980469-5.636719 4.617187-9.546875l-4.441406-12.777344c31.230469-14.410156 65.480469-22.015625 100.902344-22.015625 7.175781 0 14.304688.328125 21.367188.945312l-5.667969 14.945313c-1.46875 3.875.480469 8.207031 4.355469 9.675781.875.332032 1.773437.488282 2.65625.488282 3.027343 0 5.878906-1.84375 7.015624-4.84375l6.996094-18.4375c50.425782 7.664062 96.949219 31.070312 133.691406 67.8125 11.582032 11.585937 21.832032 24.140624 30.691407 37.484374l-7.929688 6.0625c-3.289062 2.515626-3.917969 7.222657-1.402343 10.511719 1.476562 1.929688 3.707031 2.945313 5.964843 2.945313 1.585938 0 3.191407-.503906 4.546875-1.542969l6.75-5.160156c8.039063 13.933593 14.636719 28.605469 19.699219 43.835937l-14.933594 2.796875c-4.070312.765625-6.753906 4.683594-5.988281 8.753907.675781 3.605468 3.824219 6.121093 7.363281 6.121093.457031 0 .921875-.042969 1.390625-.128906l16.457032-3.085937c5.25 19.925781 7.976562 40.664062 7.976562 61.820312 0 14.15625-1.214844 28.125-3.589844 41.789062l-9.203125-.511718c-4.128906-.230469-7.675781 2.9375-7.902343 7.070312-.230469 4.136719 2.933593 7.675782 7.070312 7.90625l6.953125.386719c-9.101563 37.964844-27.359375 73.136719-53.667969 102.855469-7.8125-5.851563-14.714844-7.355469-20.949218-8.703125-6.875-1.484375-12.308594-2.660157-19.542969-9.894531-7.234375-7.234376-8.410157-12.664063-9.894531-19.542969-1.089844-5.039063-2.289063-10.519531-5.796876-16.5625l6.257813-2.191407c3.910156-1.367187 5.96875-5.644531 4.601563-9.554687-1.367188-3.910156-5.648438-5.96875-9.554688-4.601563l-11.46875 4.011719c-9.492188-8.675781-17.679688-10.445312-24.957031-12.015625-5.792969-1.25-10.5625-2.296875-16.246094-6.917968.070313-.070313.144531-.132813.210937-.203126 6.402344-6.402343 11.882813-13.578124 16.359376-21.300781l21.113281 4.105469c.484375.09375.964843.136719 1.441406.136719 3.519531 0 6.65625-2.484375 7.355469-6.070313.789062-4.0625-1.867188-8-5.933594-8.792968l-17.234375-3.351563c3.738281-9.488281 6.097656-19.535156 6.898437-29.839844 1.15625-14.882812-.933593-29.746093-5.957031-43.578125l10.648438-6.265625c3.570312-2.097656 4.761719-6.695312 2.664062-10.265625-2.101562-3.570312-6.699219-4.761718-10.269531-2.664062l-9.214844 5.421875c-2.015625-3.746094-4.261718-7.382813-6.746094-10.875-2.402343-3.371094-7.085937-4.160157-10.460937-1.757813-3.371094 2.402344-4.160156 7.085938-1.757813 10.460938 25.1875 35.371094 21.1875 83.328125-9.511718 114.027344-30.699219 30.699218-78.652344 34.699218-114.027344 9.511718-3.375-2.402344-8.054688-1.617187-10.460938 1.757813-2.402343 3.375-1.613281 8.058593 1.761719 10.460937 17.558594 12.503906 38.664063 19.1875 60.179688 19.1875 2.675781 0 5.359375-.105468 8.042969-.3125 19.382812-1.507812 37.863281-8.484375 53.371093-19.925781 9.34375 8.398437 17.417969 10.15625 24.609375 11.710937 6.871094 1.480469 12.296875 2.652344 19.527344 9.878907 7.234375 7.238281 8.40625 12.667969 9.894531 19.542969 1.683594 7.792968 3.59375 16.621093 13.949219 26.976562s19.1875 12.265625 26.976562 13.949219c4.929688 1.066406 9.117188 1.984375 13.757813 5.074219-45.507813 45.449218-105.980469 70.476562-170.296875 70.476562-64.375 0-124.894531-25.066406-170.414062-70.585938zm0 0"/><path d="m191.210938 94.464844c3.867187 0 7.148437-2.96875 7.46875-6.890625.335937-4.128907-2.738282-7.75-6.867188-8.085938l-16.03125-1.304687c-4.136719-.347656-7.75 2.738281-8.085938 6.867187-.335937 4.125 2.738282 7.746094 6.867188 8.082031l16.03125 1.308594c.207031.015625.414062.023438.617188.023438zm0 0"/><path d="m281.648438 79.054688-30.035157 10.183593c-3.921875 1.332031-6.023437 5.589844-4.695312 9.511719 1.058593 3.125 3.976562 5.09375 7.101562 5.09375.800781 0 1.613281-.128906 2.410157-.398438l30.035156-10.183593c3.921875-1.332031 6.023437-5.589844 4.695312-9.511719-1.332031-3.921875-5.589844-6.023438-9.511718-4.695312zm0 0"/><path d="m365.40625 152.890625c1.253906 2.765625 3.980469 4.398437 6.832031 4.398437 1.039063 0 2.09375-.21875 3.097657-.675781 3.773437-1.714843 5.4375-6.160156 3.726562-9.929687l-6.679688-14.695313c-1.714843-3.773437-6.164062-5.4375-9.933593-3.726562-3.769531 1.714843-5.4375 6.160156-3.722657 9.933593zm0 0"/><path d="m402.308594 175.824219c-.003906 4.144531 3.347656 7.507812 7.488281 7.515625l14.585937.023437h.011719c4.136719 0 7.492188-3.347656 7.5-7.484375.007813-4.144531-3.34375-7.507812-7.488281-7.515625l-14.582031-.023437c-.003907 0-.007813 0-.015625 0-4.136719 0-7.492188 3.347656-7.5 7.484375zm0 0"/><path d="m395.089844 130.484375c.433594.074219.859375.109375 1.285156.109375 3.582031 0 6.75-2.578125 7.382812-6.226562l3.339844-19.375c.703125-4.082032-2.035156-7.960938-6.117187-8.664063-4.078125-.699219-7.960938 2.035156-8.667969 6.117187l-3.339844 19.371094c-.703125 4.082032 2.035156 7.960938 6.117188 8.667969zm0 0"/><path d="m329.792969 115.003906c-1.503907-3.859375-5.851563-5.773437-9.707031-4.273437l-12.027344 4.675781c-3.859375 1.5-5.773438 5.847656-4.269532 9.707031 1.152344 2.96875 3.988282 4.785157 6.992188 4.785157.902344 0 1.820312-.164063 2.714844-.511719l12.023437-4.675781c3.859375-1.5 5.773438-5.847657 4.273438-9.707032zm0 0"/><path d="m442.953125 307.859375c-2.765625-3.082031-7.503906-3.347656-10.589844-.582031l-16.785156 15.03125c-3.085937 2.761718-3.347656 7.503906-.582031 10.589844 1.480468 1.652343 3.53125 2.496093 5.589844 2.496093 1.777343 0 3.566406-.628906 5-1.914062l16.78125-15.027344c3.085937-2.765625 3.347656-7.507813.585937-10.59375zm0 0"/><path d="m419.492188 273.65625-8.015626-14.027344c-2.054687-3.597656-6.636718-4.847656-10.230468-2.792968-3.597656 2.054687-4.847656 6.636718-2.792969 10.234374l8.015625 14.027344c1.386719 2.421875 3.917969 3.78125 6.519531 3.78125 1.261719 0 2.542969-.320312 3.714844-.992187 3.597656-2.054688 4.847656-6.632813 2.789063-10.230469zm0 0"/><path d="m442.242188 352.09375c-3.933594-1.3125-8.179688.8125-9.488282 4.742188l-2.503906 7.515624c-1.3125 3.929688.8125 8.175782 4.742188 9.488282.789062.261718 1.585937.386718 2.375.386718 3.140624 0 6.066406-1.988281 7.113281-5.132812l2.503906-7.515625c1.308594-3.929687-.8125-8.175781-4.742187-9.484375zm0 0"/><path d="m432.835938 254.957031c1.390624 2.40625 3.910156 3.753907 6.503906 3.753907 1.269531 0 2.5625-.324219 3.742187-1.007813l18.109375-10.457031c3.585938-2.070313 4.816406-6.65625 2.746094-10.242188-2.070312-3.589844-6.660156-4.816406-10.246094-2.746094l-18.109375 10.457032c-3.585937 2.070312-4.816406 6.65625-2.746093 10.242187zm0 0"/><path d="m387.257812 217.484375 6.679688 6.011719c1.433594 1.292968 3.226562 1.925781 5.015625 1.925781 2.050781 0 4.09375-.835937 5.574219-2.480469 2.773437-3.078125 2.523437-7.820312-.554688-10.59375l-6.679687-6.011718c-3.082031-2.769532-7.824219-2.519532-10.59375.558593s-2.519531 7.820313.558593 10.589844zm0 0"/><path d="m318.867188 58.179688 24.101562 18.730468c1.371094 1.0625 2.992188 1.578125 4.597656 1.578125 2.238282 0 4.449219-.996093 5.925782-2.898437 2.542968-3.269532 1.953124-7.980469-1.316407-10.523438l-24.105469-18.730468c-3.269531-2.542969-7.980468-1.949219-10.523437 1.320312s-1.949219 7.980469 1.320313 10.523438zm0 0"/><path d="m238.714844 43.296875c-3.472656-2.257813-8.121094-1.273437-10.378906 2.199219l-9.992188 15.359375c-2.257812 3.472656-1.277344 8.121093 2.195312 10.378906 1.265626.820313 2.683594 1.210937 4.082032 1.210937 2.453125 0 4.859375-1.199218 6.292968-3.410156l9.996094-15.359375c2.257813-3.472656 1.277344-8.117187-2.195312-10.378906zm0 0"/><path d="m197.6875 118.28125c-3.011719-2.84375-7.757812-2.707031-10.601562.304688-2.84375 3.011718-2.707032 7.757812.304687 10.601562l12.023437 11.351562c1.449219 1.371094 3.300782 2.050782 5.148438 2.050782 1.992188 0 3.976562-.789063 5.453125-2.351563 2.84375-3.011719 2.707031-7.757812-.304687-10.601562zm0 0"/></svg>