<svg id="Capa_1" enable-background="new 0 0 512 512" height="512" viewBox="0 0 512 512" width="512" xmlns="http://www.w3.org/2000/svg"><path d="m481 241h-120l-31.518 30c-6.969 34.191-37.266 60-73.482 60s-66.513-25.809-73.482-60l-31.518-30h-120l-30.24 30c7.831 133.616 119.693 241 255.24 241s247.409-107.384 255.24-241z" fill="#914d24"/><path d="m511.24 271-30.24-30h-120l-31.518 30c-6.969 34.191-37.266 60-73.482 60v181c135.547 0 247.409-107.384 255.24-241z" fill="#673416"/><path d="m256 0c-140.61 0-256 115.39-256 256 0 5.063.467 10.009.76 15h30.24c8.276 0 15 6.724 15 15 0 24.814 20.186 45 45 45s45-20.186 45-45c0-8.276 6.724-15 15-15h31.518c-.989-4.849-1.518-9.864-1.518-15 0-41.353 33.647-75 75-75s75 33.647 75 75c0 5.136-.529 10.151-1.518 15h31.518c8.276 0 15 6.724 15 15 0 24.814 20.186 45 45 45s45-20.186 45-45c0-8.276 6.724-15 15-15h30.24c.293-4.991.76-9.937.76-15 0-140.61-115.39-256-256-256z" fill="#ff8859"/><path d="m331 256c0 5.136-.529 10.151-1.518 15h31.518c8.276 0 15 6.724 15 15 0 24.814 20.186 45 45 45s45-20.186 45-45c0-8.276 6.724-15 15-15h30.24c.293-4.991.76-9.937.76-15 0-140.61-115.39-256-256-256v181c41.353 0 75 33.647 75 75z" fill="#ff415b"/><circle cx="376" cy="196" fill="#fdbf00" r="15"/><circle cx="226" cy="136" fill="#ffda2d" r="15"/><path d="m125.395 206.605-30-30c-5.859-5.859-5.859-15.352 0-21.211s15.352-5.859 21.211 0l30 30c5.859 5.859 5.859 15.352 0 21.211-5.86 5.86-15.352 5.86-21.211 0z" fill="#b9dd39"/><path d="m275.395 116.605-30-30c-5.859-5.859-5.859-15.352 0-21.211s15.352-5.859 21.211 0l30 30c5.859 5.859 5.859 15.352 0 21.211-5.86 5.86-15.352 5.86-21.211 0z" fill="#90cc1c"/><path d="m425.395 206.605-30-30c-5.859-5.859-5.859-15.352 0-21.211s15.352-5.859 21.211 0l30 30c5.859 5.859 5.859 15.352 0 21.211-5.86 5.86-15.352 5.86-21.211 0z" fill="#90cc1c"/><path d="m140.395 131.605c-5.859-5.859-5.859-15.352 0-21.211l30-30c5.859-5.859 15.352-5.859 21.211 0s5.859 15.352 0 21.211l-30 30c-5.86 5.86-15.352 5.86-21.211 0z" fill="#b9dd39"/><path d="m320.395 161.605c-5.859-5.859-5.859-15.352 0-21.211l30-30c5.859-5.859 15.352-5.859 21.211 0s5.859 15.352 0 21.211l-30 30c-5.86 5.86-15.352 5.86-21.211 0z" fill="#fdbf00"/></svg>