<svg height="463.488pt" viewBox="0 0 463.488 463.488" width="463.488pt" xmlns="http://www.w3.org/2000/svg"><path d="m449.257812 151.785156c-20.683593 3.757813-42-1.214844-58.886718-13.730468-16.890625-12.519532-27.84375-31.46875-30.265625-52.347657-22.410157 6.0625-46.347657-.503906-62.53125-17.152343-16.183594-16.648438-22.0625-40.761719-15.363281-62.992188-103.386719-23.066406-209.253907 26.902344-257.160157 121.378906-47.902343 94.476563-25.648437 209.410156 54.054688 279.179688 79.707031 69.769531 196.574219 76.613281 283.878906 16.625 87.304687-59.988282 122.820313-171.539063 86.273437-270.960938zm-217.761718 152.175782c-39.761719 0-72-32.234376-72-72 0-39.765626 32.238281-72 72-72 39.765625 0 72 32.234374 72 72 0 39.765624-32.234375 72-72 72zm0 0" fill="#b5554e"/><path d="m335 189.097656c-6.480469-15.648437 10.113281-47.199218-1.679688-58.960937-11.792968-11.757813-43.3125 4.800781-58.953124-1.6875-15.09375-6.253907-25.519532-40.488281-42.871094-40.488281-17.351563 0-27.773438 34.234374-42.863282 40.488281-15.648437 6.488281-47.199218-10.105469-58.960937 1.6875-11.757813 11.792969 4.800781 43.3125-1.6875 58.953125-6.253906 15.09375-40.488281 25.519531-40.488281 42.871094 0 17.351562 34.234375 27.777343 40.488281 42.863281 6.488281 15.648437-10.101563 47.203125 1.6875 58.960937 11.792969 11.761719 43.3125-4.800781 58.953125 1.679688 15.097656 6.265625 25.519531 40.496094 42.871094 40.496094 17.351562 0 27.777344-34.230469 42.863281-40.496094 15.648437-6.480469 47.203125 10.113281 58.960937-1.679688 11.761719-11.792968-4.800781-43.3125 1.679688-58.960937 6.265625-15.085938 40.496094-25.511719 40.496094-42.863281 0-17.351563-34.230469-27.777344-40.496094-42.863282zm-103.503906 114.863282c-39.761719 0-72-32.234376-72-72 0-39.765626 32.238281-72 72-72 39.765625 0 72 32.234374 72 72 0 39.765624-32.234375 72-72 72zm0 0" fill="#eb8cb3"/><g fill="#efa66a"><path d="m127.496094 95.960938c-2.121094 0-4.15625-.84375-5.65625-2.34375l-16-16c-3.03125-3.140626-2.988282-8.128907.097656-11.214844 3.085938-3.085938 8.078125-3.128906 11.214844-.097656l16 16c2.289062 2.289062 2.972656 5.730468 1.734375 8.71875-1.238281 2.988281-4.15625 4.9375-7.390625 4.9375zm0 0"/><path d="m31.496094 239.960938c-3.234375 0-6.152344-1.949219-7.386719-4.9375-1.238281-2.988282-.554687-6.429688 1.730469-8.71875l16-16c3.140625-3.03125 8.128906-2.988282 11.214844.097656 3.085937 3.085937 3.128906 8.074218.097656 11.214844l-16 16c-1.5 1.5-3.535156 2.34375-5.65625 2.34375zm0 0"/><path d="m87.496094 367.960938c-2.121094 0-4.15625-.84375-5.65625-2.34375l-16-16c-3.03125-3.140626-2.988282-8.128907.097656-11.214844 3.085938-3.085938 8.078125-3.128906 11.214844-.097656l16 16c2.289062 2.289062 2.972656 5.730468 1.734375 8.71875-1.238281 2.988281-4.15625 4.9375-7.390625 4.9375zm0 0"/><path d="m271.496094 407.960938c-3.234375 0-6.152344-1.949219-7.386719-4.9375-1.238281-2.988282-.554687-6.429688 1.730469-8.71875l16-16c3.140625-3.03125 8.128906-2.988282 11.214844.097656 3.085937 3.085937 3.128906 8.074218.097656 11.214844l-16 16c-1.5 1.5-3.535156 2.34375-5.65625 2.34375zm0 0"/><path d="m383.496094 335.960938c-2.121094 0-4.15625-.84375-5.65625-2.34375l-16-16c-3.03125-3.140626-2.988282-8.128907.097656-11.214844 3.085938-3.085938 8.078125-3.128906 11.214844-.097656l16 16c2.289062 2.289062 2.972656 5.730468 1.734375 8.71875-1.238281 2.988281-4.15625 4.9375-7.390625 4.9375zm0 0"/><path d="m415.496094 215.960938c-3.234375 0-6.152344-1.949219-7.386719-4.9375-1.238281-2.988282-.554687-6.429688 1.730469-8.71875l16-16c3.140625-3.03125 8.128906-2.988282 11.214844.097656 3.085937 3.085937 3.128906 8.074218.097656 11.214844l-16 16c-1.5 1.5-3.535156 2.34375-5.65625 2.34375zm0 0"/></g></svg>