<svg viewBox="0 1 511 511.999" xmlns="http://www.w3.org/2000/svg"><path d="m502.449219 256c0 135.835938-110.117188 245.949219-245.953125 245.949219-135.832032 0-245.949219-110.113281-245.949219-245.949219s110.117187-245.953125 245.949219-245.953125c135.835937 0 245.953125 110.117187 245.953125 245.953125zm0 0" fill="#ffde55"/><path d="m326.226562 257.003906c0 39.066406-31.667968 70.734375-70.734374 70.734375-39.066407 0-70.734376-31.667969-70.734376-70.734375s31.667969-70.734375 70.734376-70.734375c39.066406 0 70.734374 31.667969 70.734374 70.734375zm0 0" fill="#fff"/><path d="m256.527344 10.046875c-135.835938 0-245.949219 110.117187-245.949219 245.953125 0 11.539062.8125 22.886719 2.347656 34 2.066407-.285156 4.199219-.441406 6.410157-.441406 34.832031 0 65.644531 28.804687 82.394531 34.160156 16.746093 5.359375 48.898437 11.386719 86.410156-38.851562.511719-.683594 1.027344-1.351563 1.542969-2.011719-3.148438-8.011719-4.894532-16.726563-4.894532-25.851563 0-39.066406 31.667969-70.734375 70.734376-70.734375 39.066406 0 70.734374 31.667969 70.734374 70.734375 0 6.042969-.761718 11.910156-2.1875 17.507813 24.070313 11.527343 50.515626 23.832031 61.675782 27.773437 22.777344 8.039063 53.589844 3.347656 73.015625-19.425781 12.476562-14.628906 24.140625-27.859375 43.65625-31.558594-2.503907-133.664062-111.625-241.253906-245.890625-241.253906zm0 0" fill="#ff5b5b"/><path d="m512.445312 251.847656c.015626-.242187.027344-.488281.019532-.734375-.007813-.503906-.03125-1.003906-.042969-1.507812 0-.003907 0-.011719 0-.015625-.054687-2.09375-.128906-4.183594-.230469-6.269532-.007812-.125-.015625-.246093-.019531-.371093-.097656-1.960938-.21875-3.917969-.359375-5.871094-.019531-.25-.039062-.496094-.058594-.746094-.136718-1.824219-.292968-3.644531-.46875-5.460937-.035156-.371094-.078125-.742188-.113281-1.113282-.171875-1.6875-.355469-3.371093-.558594-5.050781-.058593-.492187-.128906-.984375-.191406-1.476562-.195313-1.550781-.402344-3.105469-.628906-4.652344-.085938-.605469-.183594-1.207031-.277344-1.8125-.21875-1.429687-.441406-2.859375-.683594-4.28125-.121093-.707031-.25-1.410156-.375-2.113281-.238281-1.316406-.476562-2.632813-.734375-3.945313-.15625-.796875-.320312-1.585937-.480468-2.378906-.25-1.21875-.503907-2.429687-.769532-3.640625-.191406-.871094-.394531-1.742188-.597656-2.609375-.261719-1.128906-.523438-2.253906-.800781-3.378906-.226563-.933594-.46875-1.863281-.707031-2.796875-.273438-1.050782-.546876-2.101563-.832032-3.152344-.265625-.980469-.542968-1.960938-.820312-2.9375-.285156-.996094-.570313-1.988281-.863282-2.980469-.304687-1.011719-.617187-2.023437-.929687-3.03125-.296875-.949219-.59375-1.898437-.898437-2.84375-.335938-1.035156-.683594-2.0625-1.03125-3.09375-.3125-.917969-.625-1.835937-.945313-2.75-.363281-1.035156-.738281-2.066406-1.117187-3.097656-.332032-.90625-.664063-1.808594-1.007813-2.707031-.386719-1.023438-.785156-2.042969-1.1875-3.0625-.355469-.902344-.714844-1.808594-1.082031-2.707032-.40625-.996093-.824219-1.992187-1.242188-2.984374-.386718-.914063-.777344-1.828126-1.175781-2.738282-.417969-.960937-.847656-1.917968-1.277344-2.875-.425781-.941406-.855469-1.878906-1.289062-2.8125-.425781-.914062-.859375-1.820312-1.292969-2.726562-.46875-.972656-.941406-1.945313-1.425781-2.914063-.421875-.851562-.851563-1.703125-1.285157-2.550781-.519531-1.015625-1.046874-2.03125-1.582031-3.039062-.414062-.785157-.832031-1.570313-1.257812-2.347657-.578125-1.070312-1.164063-2.132812-1.757813-3.195312-.398437-.710938-.800781-1.417969-1.207031-2.125-.644531-1.125-1.296875-2.242188-1.957031-3.359375-.378906-.632813-.753906-1.261719-1.136719-1.890625-.714844-1.183594-1.441406-2.363281-2.179687-3.535157-.34375-.550781-.691407-1.097656-1.042969-1.644531-.792969-1.246093-1.601563-2.484375-2.417969-3.714843-.308594-.46875-.621094-.933594-.933594-1.398438-.878906-1.304688-1.769531-2.597656-2.671875-3.890625-.269531-.382813-.542969-.769531-.8125-1.15625-.964843-1.359375-1.941406-2.707031-2.929687-4.046875-.230469-.3125-.460938-.625-.691406-.933594-1.046876-1.40625-2.109376-2.796875-3.1875-4.183594-.191407-.246093-.382813-.492187-.574219-.738281-1.125-1.4375-2.269531-2.863281-3.429688-4.28125-.15625-.191406-.3125-.382812-.46875-.570312-1.199219-1.460938-2.421875-2.90625-3.65625-4.34375-.128906-.148438-.257812-.300781-.386719-.449219-1.265624-1.460938-2.546874-2.914062-3.847656-4.347656-.113281-.128906-.226562-.253906-.339844-.378906-1.3125-1.441407-2.644531-2.875-3.992187-4.292969-.117187-.125-.234375-.246094-.351563-.371094-1.332031-1.398437-2.6875-2.785156-4.058593-4.15625-.089844-.09375-.179688-.191406-.273438-.285156-.054687-.054688-.109375-.105469-.164062-.160157-.480469-.476562-.945313-.960937-1.429688-1.4375-.859375-.84375-1.734375-1.667968-2.605469-2.496093-.199218-.191407-.398437-.386719-.597656-.574219-1.300781-1.238281-2.617187-2.457031-3.941406-3.664062-.265625-.238282-.527344-.484376-.792969-.722657-1.257812-1.136719-2.527343-2.257812-3.800781-3.367187-.34375-.296875-.6875-.597656-1.03125-.894532-1.199219-1.035156-2.410156-2.050781-3.628906-3.058593-.429688-.355469-.859375-.714844-1.292969-1.070313-1.132813-.925781-2.273437-1.835937-3.421875-2.742187-.527344-.417969-1.058594-.84375-1.59375-1.257813-1.050781-.816406-2.113281-1.617187-3.175781-2.417968-.636719-.480469-1.277344-.964844-1.917969-1.4375-.964844-.714844-1.941406-1.414063-2.917969-2.113282-.75-.535156-1.496093-1.078125-2.253906-1.605468-.875-.613282-1.757813-1.214844-2.640625-1.816407-.867188-.589843-1.730469-1.183593-2.605469-1.761719-.777343-.515624-1.566406-1.023437-2.347656-1.53125-.988281-.640624-1.972656-1.277343-2.96875-1.90625-.679687-.425781-1.363281-.839843-2.046875-1.261718-1.109375-.679688-2.21875-1.363282-3.335938-2.027344-.578124-.34375-1.164062-.679688-1.746093-1.019531-1.226563-.714844-2.457031-1.429688-3.695313-2.125-.484375-.273438-.972656-.535157-1.457031-.800781-1.34375-.746094-2.6875-1.484376-4.046875-2.199219-.386719-.207031-.78125-.40625-1.167969-.609375-1.457031-.761719-2.914062-1.511719-4.386719-2.246094-.300781-.148438-.605468-.292969-.910156-.445312-1.558594-.769532-3.125-1.527344-4.699218-2.265626-.21875-.101562-.4375-.199218-.65625-.300781-1.660157-.769531-3.328126-1.527343-5.003907-2.261719-.144531-.0625-.292969-.125-.4375-.1875-1.746093-.761718-3.5-1.507812-5.265625-2.230468-.089844-.035156-.179687-.070313-.269531-.105469-1.820313-.742187-3.644531-1.464844-5.484375-2.167969-.039062-.015625-.082031-.03125-.125-.046875-1.882812-.714843-3.769531-1.410156-5.667969-2.082031-.011719-.003906-.023437-.007812-.035156-.011719-3.863281-1.363281-7.757813-2.632812-11.6875-3.808593-.003906-.003907-.007813-.003907-.015625-.007813-1.960938-.585937-3.925781-1.148437-5.902344-1.6875-.039062-.011719-.078125-.019531-.117187-.03125-1.941407-.53125-3.890625-1.039063-5.84375-1.519531-.09375-.023438-.1875-.042969-.277344-.066406-1.902344-.46875-3.8125-.917969-5.726563-1.339844-.171874-.039063-.34375-.074219-.515624-.113282-1.839844-.402343-3.679688-.789062-5.527344-1.152343-.285156-.054688-.570313-.105469-.859375-.160157-1.738281-.332031-3.476563-.660156-5.222657-.957031-.429687-.074219-.859374-.136719-1.289062-.207031-1.609375-.269531-3.21875-.53125-4.835938-.769531-.609374-.085938-1.21875-.160157-1.828124-.246094-1.441407-.199219-2.886719-.402344-4.335938-.582031-.835938-.101563-1.679688-.183594-2.515625-.277344-1.230469-.136719-2.457031-.28125-3.691406-.402344-1.125-.109375-2.253907-.195312-3.382813-.289062-.953125-.078125-1.90625-.171875-2.863281-.242188-1.488281-.109375-2.980469-.191406-4.472656-.273437-.609375-.035157-1.210938-.082031-1.820313-.109375-1.980468-.097656-3.96875-.167969-5.957031-.2187502-.125-.0039063-.25-.0078126-.375-.0117188-2.117187-.0507812-4.238281-.078125-6.363281-.078125-.003906 0-.007813 0-.015625 0-.003907 0-.007813 0-.015625 0-68.378906 0-132.664063 26.628906-181.015625 74.980469-48.351563 48.351562-74.980469 112.640625-74.980469 181.019531s26.628906 132.667969 74.980469 181.019531c48.351562 48.351563 112.636719 74.980469 181.015625 74.980469 68.382812 0 132.667968-26.628906 181.019531-74.980469 48.351563-48.351562 74.980469-112.640625 74.980469-181.019531 0-1.386719-.027344-2.769531-.050782-4.152344zm-491.820312 4.152344c0-130.074219 105.816406-235.894531 235.886719-235.902344 1.988281 0 3.964843.023438 5.941406.074219 1.289063.03125 2.570313.089844 3.855469.144531.644531.023438 1.296875.039063 1.941406.074219 113.921875 5.699219 208.003906 93.941406 222.289062 205.910156.722657 5.722657 1.238282 11.511719 1.542969 17.355469-18.453125 6.289062-30.328125 20.210938-40.964843 32.683594-17.28125 20.257812-44.265626 22.738281-62.023438 16.472656-8.144531-2.875-26.621094-11.144531-53.648438-24.003906.574219-3.898438.859376-7.847656.859376-11.804688 0-44.542968-36.238282-80.78125-80.78125-80.78125-.003907 0-.011719 0-.015626 0-.003906 0-.007812 0-.015624 0-44.542969 0-80.78125 36.238282-80.78125 80.78125 0 8.390625 1.289062 16.484375 3.671874 24.101563-34.996093 45.398437-62.957031 36.449219-73.589843 33.046875-4.273438-1.367188-11.007813-5.457032-18.132813-9.785156-16.734375-10.164063-39.457031-23.964844-64.859375-24.816407-.78125-7.851562-1.175781-15.742187-1.175781-23.550781zm295.554688 1.003906c0 33.464844-27.222657 60.6875-60.6875 60.6875-25.5625 0-47.46875-15.894531-56.394532-38.316406-.023437-.0625-.039062-.128906-.0625-.195312-2.785156-7.089844-4.199218-14.550782-4.199218-22.175782 0-33.457031 27.214843-60.679687 60.671874-60.6875 33.457032.007813 60.671876 27.230469 60.671876 60.6875zm-59.683594 234.898438c-115.085938 0-211.171875-82.84375-231.792969-192.027344 18.835937 1.820312 36.820313 12.738281 51.523437 21.667969 8.53125 5.179687 15.894532 9.652343 22.441407 11.746093 8.054687 2.578126 15.914062 3.875 23.601562 3.875 23.304688-.003906 45-11.90625 65.660157-35.953124 14.445312 22.003906 39.328124 36.578124 67.5625 36.578124 33.40625 0 62.140624-20.382812 74.421874-49.359374 26.28125 12.464843 43.921876 20.304687 52.492188 23.332031 13.476562 4.757812 28.882812 5.523437 43.378906 2.15625 16.070313-3.734375 30.117188-12.21875 40.621094-24.539063 9.183594-10.761718 16.707031-18.984375 25.789062-23.894531-4.996093 125.695313-108.796874 226.417969-235.699218 226.417969zm0 0"/><path d="m251.441406 352.789062c-33.613281 0-58.054687-25.648437-58.324218-25.9375-3.773438-4.050781-10.117188-4.285156-14.183594-.523437-4.070313 3.769531-4.3125 10.128906-.539063 14.199219 1.222657 1.320312 30.464844 32.359375 73.046875 32.359375 5.550782 0 10.046875-4.5 10.046875-10.046875 0-5.550782-4.496093-10.050782-10.046875-10.050782zm0 0"/><path d="m279.179688 351.3125-.269532.175781c-4.652344 3.023438-5.972656 9.242188-2.949218 13.898438 1.925781 2.960937 5.144531 4.574219 8.433593 4.574219 1.875 0 3.773438-.523438 5.464844-1.621094l.269531-.175782c4.652344-3.023437 5.976563-9.246093 2.953125-13.898437-3.023437-4.65625-9.246093-5.976563-13.902343-2.953125zm0 0"/><path d="m97.933594 184c3.488281 0 6.878906-1.820312 8.734375-5.066406 2.75-4.816406 1.078125-10.957032-3.742188-13.710938l-14.066406-8.035156c-4.816406-2.753906-10.957031-1.082031-13.707031 3.738281-2.753906 4.816407-1.082032 10.953125 3.738281 13.710938l14.066406 8.035156c1.574219.898437 3.285157 1.328125 4.976563 1.328125zm0 0"/><path d="m383.796875 173.332031 14.070313 8.039063c1.570312.898437 3.285156 1.324218 4.972656 1.324218 3.488281 0 6.878906-1.820312 8.734375-5.066406 2.753906-4.816406 1.078125-10.953125-3.738281-13.707031l-14.066407-8.039063c-4.820312-2.753906-10.957031-1.078124-13.710937 3.738282-2.753906 4.820312-1.078125 10.957031 3.738281 13.710937zm0 0"/><path d="m281.089844 137.335938 14.066406 8.039062c1.570312.898438 3.285156 1.324219 4.972656 1.324219 3.492188 0 6.878906-1.820313 8.734375-5.066407 2.753907-4.816406 1.082031-10.953124-3.738281-13.707031l-14.066406-8.039062c-4.816406-2.753907-10.957032-1.078125-13.710938 3.738281-2.75 4.820312-1.078125 10.957031 3.742188 13.710938zm0 0"/><path d="m392.65625 216.679688c-5.535156-.355469-10.320312 3.832031-10.683594 9.367187l-1.0625 16.167969c-.367187 5.539062 3.828125 10.320312 9.367188 10.683594.222656.015624.445312.023437.667968.023437 5.25 0 9.667969-4.078125 10.015626-9.390625l1.0625-16.164062c.363281-5.539063-3.828126-10.320313-9.367188-10.6875zm0 0"/><path d="m99.160156 245.628906 2.644532 15.984375c.816406 4.921875 5.074218 8.410157 9.902343 8.410157.542969 0 1.097657-.046876 1.652344-.140626 5.476563-.902343 9.179687-6.078124 8.273437-11.550781l-2.648437-15.984375c-.90625-5.476562-6.078125-9.183594-11.554687-8.273437-5.476563.90625-9.175782 6.082031-8.269532 11.554687zm0 0"/><path d="m351.769531 98.890625c.816407 4.917969 5.074219 8.40625 9.902344 8.40625.542969 0 1.097656-.046875 1.652344-.136719 5.476562-.90625 9.179687-6.078125 8.273437-11.554687l-2.648437-15.984375c-.90625-5.472656-6.078125-9.179688-11.550781-8.269532-5.476563.90625-9.179688 6.078126-8.273438 11.554688zm0 0"/><path d="m194.683594 160.246094c.816406 4.921875 5.074218 8.410156 9.902344 8.410156.542968 0 1.097656-.046875 1.652343-.136719 5.476563-.90625 9.179688-6.082031 8.273438-11.554687l-2.648438-15.984375c-.90625-5.476563-6.078125-9.183594-11.554687-8.269531-5.476563.902343-9.179688 6.078124-8.273438 11.550781zm0 0"/><path d="m135.433594 124.335938c.1875 0 .378906-.003907.566406-.015626l16.175781-.898437c5.542969-.308594 9.785157-5.050781 9.476563-10.589844-.304688-5.539062-5.054688-9.796875-10.589844-9.476562l-16.175781.898437c-5.539063.308594-9.78125 5.046875-9.476563 10.589844.296875 5.351562 4.730469 9.492188 10.023438 9.492188zm0 0"/><path d="m225.210938 74.324219c.1875 0 .375-.007813.566406-.015625l16.175781-.902344c5.542969-.308594 9.78125-5.046875 9.476563-10.589844-.308594-5.539062-5.027344-9.773437-10.589844-9.472656l-16.175782.898438c-5.542968.308593-9.785156 5.046874-9.476562 10.589843.296875 5.351563 4.730469 9.492188 10.023438 9.492188zm0 0"/></svg>