<svg height="512pt" viewBox="0 -52 512 512" width="512pt" xmlns="http://www.w3.org/2000/svg"><path d="m256 0c-141.386719 0-256 91.433594-256 204.222656 0 112.789063 114.613281 204.222656 256 204.222656s256-91.433593 256-204.222656c0-112.789062-114.613281-204.222656-256-204.222656zm0 232.007812c-47.84375 0-86.628906-27.980468-86.628906-62.496093-2.960938.195312 38.785156-21.289063 86.628906-21.289063s88.027344 25.136719 86.628906 21.289063c0 34.515625-38.785156 62.496093-86.628906 62.496093zm0 0" fill="#ffdaaa"/><path d="m0 204.222656c0 103.390625 96.3125 188.839844 221.269531 202.359375 8.714844-12.433593 22.53125-25.824219 43.910157-33.195312 47.195312-16.277344 67.039062-48.417969 67.039062-48.417969v-125.730469c-14.652344 19.519531-43.289062 32.769531-76.21875 32.769531-47.84375 0-86.628906-27.980468-86.628906-62.496093 0-34.519531 38.785156-62.5 86.628906-62.5 32.929688 0 61.566406 13.25 76.21875 32.769531v-130.574219c-24.074219-5.984375-49.675781-9.207031-76.21875-9.207031-141.386719 0-256 91.433594-256 204.222656zm0 0" fill="#ffc477"/><path d="m256 0c-141.386719 0-256 91.433594-256 204.222656 0 31.164063 8.730469 60.664063 24.375 87.089844 38.496094 27.480469 87.933594 14.101562 125.695312 22.589844 34.109376 7.667968 67.832032 37.808594 105.929688 37.808594s71.820312-30.140626 105.929688-37.808594c37.761718-8.488282 83.640624 7.121094 125.664062-22.570313 15.644531-26.421875 24.40625-55.945312 24.40625-87.109375 0-112.789062-114.613281-204.222656-256-204.222656zm0 232.007812c-47.84375 0-86.628906-27.980468-86.628906-62.496093 0-34.519531 38.785156-62.5 86.628906-62.5s86.628906 27.980469 86.628906 62.5c0 34.515625-38.785156 62.496093-86.628906 62.496093zm0 0" fill="#ffb0d0"/><path d="m24.375 291.3125c38.496094 27.480469 87.933594 14.101562 125.695312 22.589844 34.109376 7.667968 67.832032 37.808594 105.929688 37.808594 13.609375 0 26.664062-3.847657 39.375-9.144532 0 0-79.800781-24.773437-159.945312-92.015625-75.84375-63.628906-68.628907-183.902343-68.628907-183.902343-41.496093 36.296874-66.800781 84.582031-66.800781 137.574218 0 31.164063 8.730469 60.664063 24.375 87.089844zm0 0" fill="#ff97bd"/><path d="m435.90625 250.550781c0 14.226563-11.53125 25.757813-25.757812 25.757813-14.222657 0-25.753907-11.53125-25.753907-25.757813 0-14.222656 11.53125-25.753906 25.753907-25.753906 14.226562 0 25.757812 11.53125 25.757812 25.753906zm0 0" fill="#ffeb99"/><path d="m281.753906 291.066406c0 14.226563-11.53125 25.753906-25.753906 25.753906s-25.753906-11.527343-25.753906-25.753906c0-14.222656 11.53125-25.753906 25.753906-25.753906s25.753906 11.53125 25.753906 25.753906zm0 0" fill="#ffeb99"/><path d="m419.652344 102.324219c0 14.226562-11.53125 25.757812-25.753906 25.757812-14.222657 0-25.753907-11.53125-25.753907-25.757812 0-14.222657 11.53125-25.753907 25.753907-25.753907 14.222656 0 25.753906 11.53125 25.753906 25.753907zm0 0" fill="#ccf8ff"/><path d="m160.550781 88.058594c0 14.222656-11.53125 25.753906-25.753906 25.753906s-25.753906-11.53125-25.753906-25.753906 11.53125-25.753906 25.753906-25.753906 25.753906 11.53125 25.753906 25.753906zm0 0" fill="#ffeb99"/><path d="m116.742188 229.980469c0 14.222656-11.53125 25.753906-25.753907 25.753906-14.222656 0-25.753906-11.53125-25.753906-25.753906 0-14.226563 11.53125-25.753907 25.753906-25.753907 14.222657 0 25.753907 11.527344 25.753907 25.753907zm0 0" fill="#ccf8ff"/></svg>