<svg height="512pt" viewBox="0 0 512 512" width="512pt" xmlns="http://www.w3.org/2000/svg"><path d="m256 0c-141.152344 0-256 114.847656-256 256s114.847656 256 256 256c29.296875 0 58.496094-5.183594 86.832031-15.40625l19.183594-6.929688-11.296875-16.992187c-9.628906-14.449219-14.71875-31.28125-14.71875-48.671875 0-48.511719 39.488281-88 88-88 17.390625 0 34.222656 5.089844 48.6875 14.71875l16.992188 11.296875 6.929687-19.183594c10.207031-28.335937 15.390625-57.535156 15.390625-86.832031 0-141.152344-114.847656-256-256-256zm0 304c-26.464844 0-48-21.535156-48-48s21.535156-48 48-48 48 21.535156 48 48-21.535156 48-48 48zm0 0" fill="#ff668b"/><path d="m224 96h32v32h-32zm0 0" fill="#f7487a"/><path d="m352 128h32v32h-32zm0 0" fill="#f7487a"/><path d="m416 224h32v32h-32zm0 0" fill="#f7487a"/><path d="m128 160h32v32h-32zm0 0" fill="#f7487a"/><path d="m96 288h32v32h-32zm0 0" fill="#f7487a"/><path d="m192 416h32v32h-32zm0 0" fill="#f7487a"/><g fill="#fff"><path d="m288 64h32v32h-32zm0 0"/><path d="m288 128h32v32h-32zm0 0"/><path d="m352 192h32v32h-32zm0 0"/><path d="m160 96h32v32h-32zm0 0"/><path d="m64 224h32v32h-32zm0 0"/><path d="m128 352h32v32h-32zm0 0"/><path d="m240 368h32v32h-32zm0 0"/></g><path d="m256 176c-44.113281 0-80 35.886719-80 80s35.886719 80 80 80 80-35.886719 80-80-35.886719-80-80-80zm0 128c-26.464844 0-48-21.535156-48-48s21.535156-48 48-48 48 21.535156 48 48-21.535156 48-48 48zm0 0" fill="#f7487a"/><path d="m496.59375 310.832031-6.929688 19.183594-16.992187-11.296875c-14.449219-9.628906-31.28125-14.71875-48.671875-14.71875-48.511719 0-88 39.488281-88 88 0 5.328125.640625 10.542969 1.566406 15.710938 7.679688-40.75 43.488282-71.710938 86.433594-71.710938 17.390625 0 34.222656 5.089844 48.6875 14.71875l16.992188 11.296875 6.929687-19.183594c10.207031-28.335937 15.390625-57.535156 15.390625-86.832031 0-5.039062-.464844-9.953125-.753906-14.910156-1.628906 23.535156-6.429688 46.925781-14.652344 69.742187zm0 0" fill="#f7487a"/><path d="m345.585938 463.601562-2.753907.992188c-28.335937 10.222656-57.535156 15.40625-86.832031 15.40625-135.761719 0-246.863281-106.304688-255.183594-240-.335937 5.3125-.816406 10.59375-.816406 16 0 141.152344 114.847656 256 256 256 29.296875 0 58.496094-5.183594 86.832031-15.40625l19.183594-6.929688-11.296875-16.992187c-1.933594-2.894531-3.566406-5.984375-5.132812-9.070313zm0 0" fill="#f7487a"/></svg>