<svg height="451pt" viewBox="0 0 451.762 451" width="451pt" xmlns="http://www.w3.org/2000/svg"><path d="m225.878906 3.382812c-123.097656 0-222.878906 99.777344-222.878906 222.878907 0 70.820312 33.039062 133.917969 84.539062 174.738281l23.582032 16.359375c33.519531 20.160156 72.777344 31.78125 114.757812 31.78125 123.101563 0 222.882813-99.78125 222.882813-222.878906 0-123.101563-99.78125-222.878907-222.882813-222.878907zm0 308.21875c-47.117187 0-85.339844-38.21875-85.339844-85.339843 0-47.121094 38.222657-85.339844 85.339844-85.339844 47.121094 0 85.339844 38.21875 85.339844 85.339844 0 47.121093-38.21875 85.339843-85.339844 85.339843zm0 0" fill="#fce8cb"/><path d="m225.878906.382812c-124.550781 0-225.878906 101.328126-225.878906 225.878907 0 69.382812 31.226562 133.933593 85.671875 177.097656 1.296875 1.027344 3.1875.8125 4.214844-.488281 1.027343-1.296875.8125-3.1875-.488281-4.214844-53-42.015625-83.402344-104.851562-83.402344-172.394531.003906-121.242188 98.640625-219.878907 219.882812-219.878907 121.242188 0 219.882813 98.636719 219.882813 219.878907 0 121.242187-98.640625 219.878906-219.882813 219.878906-39.980468 0-79.128906-10.84375-113.214844-31.363281-1.421874-.851563-3.261718-.390625-4.117187 1.027344-.855469 1.417968-.398437 3.261718 1.023437 4.117187 35.019532 21.078125 75.238282 32.21875 116.308594 32.21875 124.550782 0 225.882813-101.328125 225.882813-225.878906s-101.332031-225.878907-225.882813-225.878907zm88.335938 225.878907c0-48.707031-39.625-88.335938-88.335938-88.335938-48.707031 0-88.332031 39.628907-88.332031 88.335938s39.625 88.332031 88.332031 88.332031c48.710938 0 88.335938-39.625 88.335938-88.332031zm-170.667969 0c0-45.398438 36.933594-82.335938 82.332031-82.335938 45.402344 0 82.335938 36.9375 82.335938 82.335938 0 45.398437-36.9375 82.332031-82.335938 82.332031-45.398437 0-82.332031-36.933594-82.332031-82.332031zm0 0" fill="#3a312a"/><path d="m225.878906 3.382812c-123.097656 0-222.878906 99.777344-222.878906 222.878907 0 26.160156 4.5 51.257812 12.78125 74.558593 1.679688.480469 3.4375.71875 5.277344.71875 11.0625 0 20.042968-8.957031 20.042968-20.019531v29.761719c0 12.941406 10.476563 23.417969 23.398438 23.417969 6.460938 0 12.320312-2.617188 16.558594-6.859375 4.242187-4.238282 6.863281-10.097656 6.863281-16.558594v-30.359375c0 10.4375 8.457031 18.898437 18.898437 18.898437 10.417969 0 18.878907-8.460937 18.878907-18.898437v57.699219c0 10.441406 8.460937 18.898437 18.902343 18.898437 10.4375 0 18.898438-8.457031 18.898438-18.898437v38.519531c0 8.839844 7.160156 16 16 16 4.421875 0 8.421875-1.800781 11.320312-4.679687 2.898438-2.898438 4.679688-6.898438 4.679688-11.320313v-38.519531c0 10.441406 8.460938 18.898437 18.898438 18.898437 10.441406 0 18.902343-8.457031 18.902343-18.898437v-10.421875c0 11.941406 9.660157 21.621093 21.597657 21.621093 5.980468 0 11.382812-2.417968 15.28125-6.339843 3.921874-3.898438 6.339843-9.320313 6.339843-15.28125v36.363281c0 10.417969 8.460938 18.878906 18.902344 18.878906 5.21875 0 9.9375-2.121094 13.339844-5.539062 3.378906-3.363282 5.476562-8.019532 5.539062-13.179688v-58.042968c0 11.941406 9.679688 21.601562 21.597657 21.601562 11.941406 0 21.621093-9.660156 21.621093-21.601562v-21.140626c0 11.5 9.320313 20.820313 20.820313 20.820313 5.738281 0 10.960937-2.339844 14.71875-6.097656 3.78125-3.761719 6.101562-8.960938 6.101562-14.722657v-31.097656c0 14.238282 11.539063 25.78125 25.78125 25.78125 7.636719 0 14.480469-3.320312 19.199219-8.601562 3.019531-14.640625 4.621094-29.820313 4.621094-45.359375 0-123.101563-99.78125-222.878907-222.882813-222.878907zm0 308.21875c-47.117187 0-85.339844-38.21875-85.339844-85.339843 0-47.121094 38.222657-85.339844 85.339844-85.339844 47.121094 0 85.339844 38.21875 85.339844 85.339844 0 47.121093-38.21875 85.339843-85.339844 85.339843zm0 0" fill="#d7e057"/><g fill="#3a312a"><path d="m225.878906.382812c-124.550781 0-225.878906 101.328126-225.878906 225.878907 0 25.953125 4.359375 51.375 12.953125 75.5625.324219.914062 1.070313 1.617187 2.003906 1.878906 1.941407.554687 3.996094.835937 6.101563.835937 6.746094 0 12.824218-2.910156 17.042968-7.542968v14.28125c0 14.570312 11.839844 26.421875 26.398438 26.421875 7.054688 0 13.691406-2.75 18.679688-7.738281 4.992187-4.988282 7.742187-11.625 7.742187-18.683594v-15.3125c3.992187 4.21875 9.644531 6.855468 15.898437 6.855468 6.246094 0 11.890626-2.632812 15.882813-6.847656v42.644532c0 12.078124 9.824219 21.902343 21.898437 21.902343 6.253907 0 11.90625-2.636719 15.902344-6.855469v23.472657c0 10.476562 8.523438 19 19 19 5.054688 0 9.824219-1.96875 13.441406-5.554688 3.582032-3.589843 5.558594-8.363281 5.558594-13.445312v-23.472657c3.992188 4.21875 9.644532 6.855469 15.898438 6.855469 10.359375 0 19.058594-7.230469 21.324218-16.90625 4.511719 5.617188 11.433594 9.214844 19.175782 9.214844 6.589844 0 12.773437-2.566406 17.394531-7.214844.425781-.421875.835937-.859375 1.226563-1.304687v20.25c0 12.0625 9.824218 21.878906 21.898437 21.878906 5.855469 0 11.347656-2.28125 15.457031-6.410156 4.085938-4.0625 6.363282-9.488282 6.414063-15.28125.015625-1.65625-1.316407-3.011719-2.972657-3.023438h-.027343c-1.644531 0-2.984375 1.324219-3 2.972656-.035157 4.199219-1.683594 8.132813-4.660157 11.085938-2.984374 3.003906-6.964843 4.65625-11.210937 4.65625-8.769531 0-15.898437-7.125-15.898437-15.878906v-36.355469c0-1.652344-1.34375-3-3-3-1.660157 0-3 1.347656-3 3 0 4.984375-1.9375 9.65625-5.46875 13.167969-3.5 3.519531-8.171876 5.457031-13.152344 5.457031-10.257813 0-18.601563-8.355469-18.601563-18.625 0-1.652344-1.339843-3-3-3-1.65625 0-3 1.347656-3 3v10.414063c0 8.769531-7.128906 15.898437-15.898437 15.898437-8.765625 0-15.898438-7.128906-15.898438-15.898437 0-1.65625-1.34375-3-3-3-1.660156 0-3 1.34375-3 3v38.519531c0 3.480469-1.351562 6.75-3.796875 9.195312-2.472656 2.453125-5.742187 3.804688-9.203125 3.804688-7.167968 0-13-5.832031-13-13v-38.519531c0-1.65625-1.34375-3-3-3-1.660156 0-3 1.34375-3 3 0 8.769531-7.132812 15.898437-15.902344 15.898437-8.765624 0-15.898437-7.128906-15.898437-15.898437v-57.699219c0-1.65625-1.34375-3-3-3-1.660156 0-3 1.34375-3 3 0 8.765625-7.125 15.898437-15.882813 15.898437-8.765624 0-15.898437-7.132812-15.898437-15.898437 0-1.65625-1.34375-3-3-3-1.660156 0-3 1.34375-3 3v30.359375c0 5.453125-2.125 10.582031-5.984375 14.441406-3.855469 3.855469-8.984375 5.976562-14.4375 5.976562-11.25 0-20.398438-9.160156-20.398438-20.417968v-29.761719c0-1.65625-1.34375-3-3-3-1.660156 0-3 1.34375-3 3 0 9.386719-7.644531 17.019531-17.042968 17.019531-1.023438 0-2.023438-.085937-2.992188-.261718-8.007812-23.082032-12.066406-47.296876-12.066406-72.015626 0-121.238281 98.636719-219.875 219.878906-219.875 121.242188 0 219.882813 98.636719 219.882813 219.878907 0 14.757812-1.480469 29.539062-4.394531 43.9375-4.28125 4.472656-10.226563 7.023437-16.425782 7.023437-12.5625 0-22.78125-10.21875-22.78125-22.78125 0-1.65625-1.34375-3-3-3s-3 1.34375-3 3v31.097656c0 4.777344-1.851562 9.25-5.222656 12.601563-3.367188 3.367187-7.839844 5.21875-12.597656 5.21875-9.824219 0-17.820313-7.992187-17.820313-17.820313 0-1.652343-1.339843-3-3-3-1.65625 0-3 1.347657-3 3v21.140626c0 10.257812-8.351562 18.601562-18.621093 18.601562-10.253907 0-18.597657-8.34375-18.597657-18.601562 0-1.65625-1.34375-3-3-3-1.660156 0-3 1.34375-3 3v29.121093c0 1.652344 1.339844 3 3 3 1.65625 0 3-1.347656 3-3v-13.039062c4.511719 5.214843 11.175781 8.519531 18.597657 8.519531 13.578124 0 24.621093-11.035156 24.621093-24.601562v-5.347657c4.367188 4.921875 10.738281 8.027344 17.820313 8.027344 6.359375 0 12.339844-2.476563 16.835937-6.96875 4.503907-4.480469 6.984375-10.464844 6.984375-16.851563v-13.527343c5.269532 6.8125 13.519532 11.210937 22.78125 11.210937 8.167969 0 15.984375-3.5 21.4375-9.605468.351563-.390626.59375-.875.699219-1.390626 3.109375-15.058593 4.683594-30.523437 4.683594-45.964843 0-124.550781-101.332031-225.878907-225.882813-225.878907zm0 137.539063c-48.710937 0-88.339844 39.628906-88.339844 88.339844 0 48.710937 39.628907 88.339843 88.339844 88.339843 48.710938 0 88.339844-39.628906 88.339844-88.339843 0-48.710938-39.628906-88.339844-88.339844-88.339844zm0 170.679687c-45.402344 0-82.339844-36.9375-82.339844-82.339843 0-45.402344 36.9375-82.339844 82.339844-82.339844s82.339844 36.9375 82.339844 82.339844c0 45.402343-36.9375 82.339843-82.339844 82.339843zm0 0"/><path d="m333.574219 142.027344-14.1875-14.191406c-1.171875-1.171876-3.070313-1.171876-4.242188 0-1.171875 1.171874-1.171875 3.070312 0 4.242187l14.191407 14.191406c.585937.585938 1.351562.878907 2.117187.878907s1.535156-.292969 2.121094-.878907c1.171875-1.171875 1.171875-3.070312 0-4.242187zm0 0"/><path d="m366.121094 176.710938c-.339844-1.625-1.925782-2.660157-3.550782-2.324219l-19.640624 4.085937c-1.625.339844-2.664063 1.925782-2.328126 3.546875.296876 1.417969 1.542969 2.390625 2.933594 2.390625.203125 0 .410156-.019531.613282-.0625l19.644531-4.089844c1.621093-.335937 2.664062-1.925781 2.328125-3.546874zm0 0"/><path d="m423.683594 217.03125-20.039063 1.058594c-1.65625.089844-2.925781 1.5-2.839843 3.15625.085937 1.601562 1.410156 2.839844 2.996093 2.839844.054688 0 .105469 0 .160157-.003907l20.039062-1.058593c1.65625-.089844 2.925781-1.5 2.839844-3.15625-.089844-1.652344-1.527344-2.886719-3.15625-2.835938zm0 0"/><path d="m375.621094 110.601562c-1.648438-.164062-3.128906 1.003907-3.3125 2.648438l-2.21875 19.941406c-.183594 1.648438 1.003906 3.132813 2.648437 3.316406.117188.011719.226563.015626.335938.015626 1.511719 0 2.808593-1.132813 2.980469-2.667969l2.21875-19.941407c.183593-1.644531-1.003907-3.128906-2.652344-3.3125zm0 0"/><path d="m316.949219 68.382812-13.457031-14.886718c-1.113282-1.226563-3.007813-1.324219-4.238282-.210938-1.230468 1.109375-1.324218 3.007813-.214844 4.234375l13.457032 14.886719c.59375.652344 1.40625.988281 2.226562.988281.714844 0 1.433594-.257812 2.007813-.777343 1.234375-1.109376 1.328125-3.007813.21875-4.234376zm0 0"/><path d="m192.808594 96.953125-14.1875-14.191406c-1.171875-1.171875-3.070313-1.171875-4.242188 0s-1.171875 3.070312 0 4.242187l14.1875 14.191406c.585938.585938 1.355469.878907 2.121094.878907s1.535156-.292969 2.121094-.878907c1.171875-1.171874 1.171875-3.070312 0-4.242187zm0 0"/><path d="m211.867188 56.59375c-.335938-1.621094-1.925782-2.671875-3.546876-2.324219l-19.644531 4.089844c-1.621093.335937-2.660156 1.925781-2.324219 3.546875.292969 1.417969 1.542969 2.390625 2.933594 2.390625.203125 0 .410156-.023437.613282-.0625l19.644531-4.089844c1.621093-.339843 2.664062-1.925781 2.324219-3.550781zm0 0"/><path d="m64.90625 148.324219c-.96875-1.339844-2.84375-1.640625-4.1875-.664063l-16.242188 11.78125c-1.339843.972656-1.636718 2.847656-.664062 4.191406.585938.808594 1.5 1.238282 2.429688 1.238282.609374 0 1.226562-.1875 1.757812-.570313l16.238281-11.785156c1.347657-.972656 1.644531-2.847656.667969-4.191406zm0 0"/><path d="m97.980469 98.605469c-1.433594-.828125-3.265625-.335938-4.097657 1.097656l-10.03125 17.378906c-.828124 1.433594-.335937 3.269531 1.097657 4.097657.472656.273437.988281.402343 1.496093.402343 1.035157 0 2.046876-.539062 2.601563-1.5l10.03125-17.378906c.832031-1.433594.339844-3.269531-1.097656-4.097656zm0 0"/><path d="m152.722656 50.105469c-1.625-.273438-3.183594.816406-3.464844 2.449219l-3.402343 19.773437c-.285157 1.632813.8125 3.1875 2.445312 3.46875.171875.027344.34375.039063.511719.039063 1.433594 0 2.703125-1.03125 2.953125-2.488282l3.40625-19.773437c.28125-1.632813-.816406-3.1875-2.449219-3.46875zm0 0"/><path d="m408.355469 165.011719c-1.4375-.828125-3.269531-.339844-4.097657 1.097656l-10.035156 17.375c-.832031 1.4375-.335937 3.269531 1.097656 4.097656.472657.273438.988282.402344 1.496094.402344 1.039063 0 2.046875-.539063 2.597656-1.5l10.035157-17.375c.832031-1.4375.339843-3.269531-1.09375-4.097656zm0 0"/><path d="m354.460938 218.015625c-1.433594-.828125-3.269532-.335937-4.097657 1.097656l-10.035156 17.378907c-.828125 1.433593-.335937 3.269531 1.101563 4.097656.46875.273437.984374.402344 1.496093.402344 1.039063 0 2.046875-.539063 2.601563-1.5l10.03125-17.378907c.828125-1.433593.335937-3.269531-1.097656-4.097656zm0 0"/><path d="m296.152344 93.4375c-1.433594-.828125-3.265625-.339844-4.097656 1.097656l-10.03125 17.375c-.828126 1.4375-.335938 3.269532 1.097656 4.097656.472656.273438.988281.402344 1.496094.402344 1.039062 0 2.046874-.539062 2.601562-1.5l10.03125-17.375c.828125-1.4375.339844-3.269531-1.097656-4.097656zm0 0"/><path d="m250.539062 87.75c-.207031-1.644531-1.699218-2.804688-3.351562-2.601562l-19.90625 2.511718c-1.644531.207032-2.808594 1.707032-2.601562 3.351563.191406 1.519531 1.484374 2.628906 2.972656 2.628906.125 0 .25-.007813.378906-.027344l19.910156-2.511719c1.644532-.207031 2.804688-1.707031 2.597656-3.351562zm0 0"/><path d="m258.460938 35.496094c-1.433594-.832032-3.265626-.339844-4.097657 1.097656l-10.03125 17.375c-.828125 1.4375-.335937 3.269531 1.097657 4.097656.472656.273438.988281.402344 1.496093.402344 1.039063 0 2.046875-.539062 2.601563-1.5l10.03125-17.375c.828125-1.4375.335937-3.269531-1.097656-4.097656zm0 0"/><path d="m353.734375 86.007812c-.429687-1.597656-2.074219-2.539062-3.675781-2.121093l-19.378906 5.195312c-1.601563.429688-2.550782 2.074219-2.121094 3.675781.355468 1.339844 1.570312 2.222657 2.894531 2.222657.257813 0 .519531-.035157.777344-.101563l19.382812-5.195312c1.601563-.429688 2.546875-2.074219 2.121094-3.675782zm0 0"/><path d="m128.214844 166-10.753906-16.941406c-.890626-1.398438-2.742188-1.8125-4.140626-.925782-1.398437.886719-1.8125 2.742188-.925781 4.140626l10.753907 16.941406c.570312.898437 1.542968 1.390625 2.535156 1.390625.550781 0 1.105468-.148438 1.605468-.464844 1.398438-.886719 1.8125-2.742187.925782-4.140625zm0 0"/><path d="m138.109375 94.367188c-1.652344-.179688-3.132813 1.003906-3.316406 2.652343l-2.21875 19.945313c-.183594 1.644531 1.003906 3.128906 2.652343 3.3125.113282.011718.222657.019531.335938.019531 1.507812 0 2.804688-1.136719 2.976562-2.667969l2.21875-19.945312c.183594-1.648438-1-3.128906-2.648437-3.316406zm0 0"/><path d="m45.507812 214.976562c-1.4375-.828124-3.269531-.335937-4.097656 1.097657l-10.03125 17.375c-.832031 1.4375-.335937 3.269531 1.097656 4.097656.472657.273437.988282.402344 1.496094.402344 1.035156 0 2.042969-.539063 2.597656-1.5l10.035157-17.375c.828125-1.4375.335937-3.269531-1.097657-4.097657zm0 0"/><path d="m96.523438 233.597656h-20.066407c-1.65625 0-3 1.34375-3 3s1.34375 3 3 3h20.066407c1.65625 0 3-1.34375 3-3s-1.34375-3-3-3zm0 0"/><path d="m96.292969 194.75-15.976563-12.140625c-1.320312-1-3.199218-.746094-4.203125.574219-1 1.320312-.746093 3.203125.574219 4.207031l15.972656 12.136719c.546875.414062 1.183594.613281 1.816406.613281.90625 0 1.800782-.40625 2.390626-1.1875 1-1.316406.746093-3.199219-.574219-4.203125zm0 0"/></g><path d="m424.941406 283.222656c-4.582031 0-8.941406-1.082031-12.78125-2.980468-21.160156 85.179687-91.339844 150.980468-178.878906 165.757812 99.660156-3.300781 182.738281-73.257812 205.980469-166.617188-4.320313 2.476563-9.261719 3.839844-14.320313 3.839844zm0 0" fill="#ccae8b"/><path d="m233.320312 6.519531c102.417969 17.320313 181.058594 104.480469 185.238282 210.78125l5.121094-.28125c1.640624-.039062 3.058593 1.203125 3.160156 2.839844.082031 1.660156-1.179688 3.082031-2.839844 3.160156l-5.28125.28125c.042969.980469.042969 1.980469.042969 2.960938 0 16.460937-1.78125 32.480469-5.183594 47.917969 3.34375 1.941406 7.222656 3.042968 11.363281 3.042968 6.199219 0 12.136719-2.542968 16.417969-7.023437 2.921875-14.398438 4.402344-29.179688 4.402344-43.9375 0-118.742188-94.621094-215.820313-212.441407-219.742188zm0 0" fill="#b9bc39"/></svg>