<?xml version="1.0" encoding="iso-8859-1"?>
<!-- Generator: Adobe Illustrator 19.0.0, SVG Export Plug-In . SVG Version: 6.00 Build 0)  -->
<svg xmlns="http://www.w3.org/2000/svg" xmlns:xlink="http://www.w3.org/1999/xlink" version="1.1" id="Layer_1" x="0px" y="0px" viewBox="0 0 490 490" style="enable-background:new 0 0 490 490;" xml:space="preserve" width="512" height="512">
<g>
	<path style="fill:#A267BF;" d="M490,245c0,32.08-6.16,62.72-17.38,90.8c-18.03,45.16-49.1,83.7-88.57,110.95   c-0.01,0.02-0.03,0.04-0.05,0.04c-2.63,1.81-5.3,3.58-8,5.3c-24.9,15.77-52.84,27.19-82.75,33.16c-15.6,3.12-31.73,4.75-48.25,4.75   c-9.2,0-18.28-0.51-27.21-1.5c-7.11-0.78-14.13-1.88-21.05-3.26h-0.01c-29.84-5.95-57.71-17.33-82.57-33.06   c-0.02-0.02-0.04-0.03-0.07-0.04c-2.78-1.76-5.51-3.58-8.21-5.44c-0.01,0-0.01-0.01-0.01-0.01c-7.42-5.12-14.53-10.64-21.32-16.53   c-29.32-25.43-52.54-57.71-67.17-94.36C6.16,307.72,0,277.08,0,245C0,109.69,109.69,0,245,0S490,109.69,490,245z"/>
	<path style="fill:#FBE073;" d="M245,67.83c-127.38,0-230.63,103.26-230.63,230.63c0,12.71,1.03,25.19,3.01,37.34   C53.45,426.16,141.77,490,245,490s191.55-63.84,227.62-154.2c1.98-12.15,3.01-24.63,3.01-37.34   C475.63,171.09,372.37,67.83,245,67.83z M245,380.54c-45.33,0-82.08-36.75-82.08-82.08c0-45.32,36.75-82.07,82.08-82.07   c45.32,0,82.07,36.75,82.07,82.07C327.07,343.79,290.32,380.54,245,380.54z"/>
	<path style="fill:#FFA733;" d="M43.27,298.46c0,48.96,15.25,94.36,41.28,131.7c-29.32-25.43-52.54-57.71-67.17-94.36   c-1.98-12.15-3.01-24.63-3.01-37.34C14.37,171.09,117.62,67.83,245,67.83c4.85,0,9.67,0.17,14.45,0.46   C138.8,75.75,43.27,175.95,43.27,298.46z"/>
	<path style="fill:#FC6C9C;" d="M419.47,226.2c-9.93-23.98-12.45-53.61-30.51-71.69c-18.08-18.06-47.71-20.58-71.69-30.51   c-23.14-9.6-45.67-29.12-72.27-29.12S195.87,114.4,172.73,124c-23.98,9.93-53.61,12.45-71.69,30.51   c-18.06,18.07-20.58,47.71-30.51,71.69c-9.6,23.14-29.12,45.67-29.12,72.27c0,26.6,19.52,49.13,29.12,72.27   c9.93,23.97,12.45,53.61,30.51,71.69c1.53,1.53,3.15,2.95,4.84,4.27c2.6,2.04,5.37,3.85,8.28,5.48   c17.47,9.74,39.76,12.96,58.57,20.76c8.01,3.32,15.95,7.83,24.01,12.3c15.6,3.12,31.74,4.76,48.26,4.76s32.65-1.63,48.25-4.75   c8.06-4.48,16.01-8.99,24.02-12.31c18.87-7.82,41.24-11.04,58.73-20.85c2.8-1.58,5.48-3.33,8-5.3c0.02,0,0.04-0.02,0.05-0.04   c1.72-1.33,3.36-2.77,4.91-4.32c18.06-18.08,20.58-47.72,30.51-71.69c9.6-23.14,29.12-45.67,29.12-72.27   C448.59,271.87,429.07,249.34,419.47,226.2z M245,380.54c-45.33,0-82.08-36.75-82.08-82.08c0-45.32,36.75-82.07,82.08-82.07   c45.32,0,82.07,36.75,82.07,82.07C327.07,343.79,290.32,380.54,245,380.54z"/>
	<path style="fill:#E63D73;" d="M116.19,442.43c-18.07-18.08-20.59-47.72-30.52-71.69c-9.6-23.14-29.11-45.67-29.11-72.27   c0-26.6,19.51-49.13,29.11-72.27c9.93-23.98,12.45-53.62,30.52-71.69c18.07-18.06,47.7-20.58,71.68-30.51   c20.91-8.68,41.33-25.45,64.7-28.6c-2.49-0.34-5.01-0.52-7.57-0.52c-26.6,0-49.13,19.52-72.27,29.12   c-23.98,9.93-53.61,12.45-71.69,30.51c-18.06,18.07-20.58,47.71-30.51,71.69c-9.6,23.14-29.12,45.67-29.12,72.27   c0,26.6,19.52,49.13,29.12,72.27c9.93,23.97,12.45,53.61,30.51,71.69c1.53,1.53,3.14,2.95,4.83,4.26c0,0,0,0.01,0.01,0.01   c2.58,2.03,5.33,3.82,8.21,5.44c0.03,0.01,0.05,0.02,0.07,0.04c17.47,9.74,39.76,12.96,58.57,20.76c8.01,3.32,15.94,7.82,24,12.3   h0.01c6.92,1.38,13.94,2.48,21.05,3.26c-10.11-5.47-19.97-11.44-29.92-15.56C163.89,463,134.26,460.5,116.19,442.43z"/>
	<path style="fill:#E63D73;" d="M259.447,379.245c4.694,0.834,9.517,1.294,14.45,1.294c45.321,0,82.068-36.747,82.068-82.079   c0-45.321-36.747-82.068-82.068-82.068c-4.933,0-9.756,0.46-14.45,1.294c38.428,6.831,67.621,40.385,67.621,80.774   C327.068,338.859,297.876,372.414,259.447,379.245z"/>
	<path style="fill:#FBE073;" d="M223.372,172.289c-0.847-0.71-1.525-1.646-1.929-2.759l-7.327-20.168   c-1.226-3.374,0.516-7.103,3.89-8.329c3.374-1.226,7.104,0.516,8.329,3.89l7.327,20.168c1.226,3.374-0.516,7.103-3.89,8.329   C227.512,174.241,225.092,173.73,223.372,172.289z"/>
	<path style="fill:#FBE073;" d="M389.38,271.382c-0.952,0.562-2.06,0.888-3.245,0.897l-21.457,0.175   c-3.589,0.029-6.523-2.857-6.553-6.447c-0.029-3.59,2.858-6.524,6.447-6.553l21.457-0.175c3.589-0.029,6.523,2.857,6.553,6.447   C392.602,268.131,391.313,270.242,389.38,271.382z"/>
	<path style="fill:#FBE073;" d="M151.666,392.886c-0.422-1.022-0.589-2.165-0.431-3.339l2.853-21.267   c0.477-3.558,3.748-6.055,7.306-5.578c3.558,0.477,6.056,3.749,5.578,7.307l-2.853,21.267c-0.477,3.558-3.748,6.055-7.306,5.578   C154.43,396.533,152.522,394.959,151.666,392.886z"/>
	<path style="fill:#FBE073;" d="M319.895,431.722c-0.422-1.022-0.589-2.165-0.431-3.339l2.853-21.267   c0.477-3.558,3.748-6.055,7.306-5.578c3.558,0.477,6.056,3.749,5.578,7.307l-2.853,21.267c-0.477,3.558-3.748,6.055-7.306,5.578   C322.659,435.369,320.751,433.795,319.895,431.722z"/>
	<path style="fill:#FBE073;" d="M122.532,256.878c-1.105,0-2.226-0.282-3.251-0.876l-18.57-10.751   c-3.106-1.799-4.167-5.775-2.369-8.882c1.799-3.107,5.776-4.167,8.882-2.368l18.57,10.751c3.106,1.799,4.167,5.775,2.369,8.882   C126.959,255.715,124.775,256.878,122.532,256.878z"/>
	<path style="fill:#27BA9E;" d="M276.178,173.012c-1.664,0-3.327-0.635-4.596-1.904l-10.751-10.751   c-2.539-2.538-2.539-6.654,0-9.192c2.538-2.539,6.654-2.539,9.192,0l10.751,10.751c2.539,2.538,2.539,6.654,0,9.192   C279.506,172.377,277.842,173.012,276.178,173.012z"/>
	<path style="fill:#27BA9E;" d="M403.336,321.316c-1.664,0-3.327-0.635-4.596-1.904l-10.751-10.751   c-2.539-2.538-2.539-6.654,0-9.192c2.538-2.539,6.654-2.539,9.192,0l10.751,10.751c2.539,2.538,2.539,6.654,0,9.192   C406.663,320.681,405,321.316,403.336,321.316z"/>
	<path style="fill:#27BA9E;" d="M211.19,445.698c-1.664,0-3.327-0.635-4.596-1.904l-10.751-10.751c-2.539-2.538-2.539-6.654,0-9.192   c2.538-2.539,6.654-2.539,9.192,0l10.751,10.751c2.539,2.538,2.539,6.654,0,9.192C214.517,445.063,212.853,445.698,211.19,445.698z   "/>
	<path style="fill:#27BA9E;" d="M316.667,184.765c-0.227-1.648,0.175-3.383,1.259-4.813l9.184-12.117   c2.168-2.861,6.246-3.422,9.107-1.254c2.861,2.168,3.422,6.246,1.254,9.107l-9.184,12.117c-2.168,2.861-6.246,3.422-9.107,1.254   C317.749,187.975,316.894,186.413,316.667,184.765z"/>
	<path style="fill:#5DB1CF;" d="M164.758,195.491c-1.664,0-3.327-0.635-4.596-1.904c-2.539-2.538-2.539-6.654,0-9.192l11.729-11.729   c2.538-2.539,6.654-2.539,9.192,0c2.539,2.538,2.539,6.654,0,9.192l-11.729,11.729   C168.085,194.857,166.422,195.491,164.758,195.491z"/>
	<path style="fill:#5DB1CF;" d="M383.518,204.971c-1.135,1.216-2.734,2-4.527,2.062c-3.588,0.125-6.597-2.683-6.722-6.27   l-0.576-16.577c-0.125-3.588,2.683-6.598,6.27-6.722c3.588-0.125,6.597,2.683,6.722,6.27l0.576,16.577   C385.324,202.106,384.653,203.755,383.518,204.971z"/>
	<path style="fill:#5DB1CF;" d="M121.201,330.368c-1.664,0-3.327-0.635-4.596-1.904c-2.539-2.538-2.539-6.654,0-9.192l11.729-11.729   c2.538-2.539,6.654-2.539,9.192,0c2.539,2.538,2.539,6.654,0,9.192l-11.729,11.729   C124.528,329.733,122.865,330.368,121.201,330.368z"/>
	<path style="fill:#5DB1CF;" d="M373.363,388.359c-1.664,0-3.327-0.635-4.596-1.904c-2.539-2.538-2.539-6.654,0-9.192l11.729-11.729   c2.538-2.539,6.654-2.539,9.192,0c2.539,2.538,2.539,6.654,0,9.192l-11.729,11.729C376.69,387.724,375.027,388.359,373.363,388.359   z"/>
	<path style="fill:#5DB1CF;" d="M268.23,432.035c-0.471,1.595-1.551,3.011-3.128,3.869c-3.154,1.715-7.101,0.55-8.816-2.604   l-7.926-14.571c-1.716-3.153-0.549-7.101,2.604-8.816c3.154-1.716,7.101-0.55,8.816,2.604l7.926,14.571   C268.564,428.664,268.701,430.439,268.23,432.035z"/>
</g>















</svg>
