<svg height="512pt" viewBox="0 0 512.001 512" width="512pt" xmlns="http://www.w3.org/2000/svg"><path d="m256 7.511719c-137.230469 0-248.484375 111.253906-248.484375 248.488281 0 137.230469 111.253906 248.484375 248.484375 248.484375 137.234375 0 248.488281-111.253906 248.488281-248.484375 0-137.234375-111.257812-248.488281-248.488281-248.488281zm0 325.523437c-42.546875 0-77.035156-34.488281-77.035156-77.039062 0-42.546875 34.488281-77.035156 77.035156-77.035156s77.035156 34.488281 77.035156 77.035156c0 42.550781-34.488281 77.039062-77.035156 77.039062zm0 0" fill="#ffc265"/><path d="m256 7.511719c-137.230469 0-248.484375 111.253906-248.484375 248.488281 0 67.902344 27.242187 129.445312 71.402344 174.296875 21.648437-3.679687 24.9375-19.035156 52.367187-19.035156 31.183594 0 31.183594 19.828125 62.351563 19.828125 31.171875 0 31.171875-19.828125 62.355469-19.828125 31.167968 0 31.167968 19.828125 62.351562 19.828125 31.179688 0 31.179688-19.828125 62.351562-19.828125 27.441407 0 30.730469 15.355469 52.390626 19.035156 44.160156-44.851563 71.402343-106.394531 71.402343-174.296875-.003906-137.234375-111.257812-248.488281-248.488281-248.488281zm0 325.523437c-42.546875 0-77.035156-34.488281-77.035156-77.039062 0-42.546875 34.488281-77.035156 77.035156-77.035156s77.035156 34.488281 77.035156 77.035156c0 42.550781-34.488281 77.039062-77.035156 77.039062zm0 0" fill="#64dcfc"/><path d="m438.964844 87.875c28.035156 40.234375 44.472656 89.132812 44.472656 141.882812 0 34.902344-7.347656 69.679688-21.628906 101.53125-4.992188 11.136719-10.84375 21.882813-17.417969 32.164063-8.25 12.910156-13.210937 23.675781-28.96875 28.675781-14.800781 4.695313-26.984375-.175781-40.710937-4.84375-12.160157-4.136718-25.09375 1.117188-35.296876 7.042969-8.851562 5.140625-18.265624 11.378906-28.980468 10.660156-12.910156-.863281-22.632813-10.542969-34.027344-15.445312-26.039062-11.175781-50.617188-4.960938-75.042969 6.90625-12.777343 6.214843-29.214843 5.414062-41.984375-.320313-2.9375-1.3125-5.742187-2.898437-8.628906-4.320312-17.011719-8.410156-36.664062-10.09375-55.027344-4.992188-13.660156 3.789063-23.582031 14.816406-37.847656 17.238282-2.003906-2.042969-3.976562-4.117188-5.921875-6.222657 8.070313 11.578125 17.089844 22.441407 26.960937 32.464844 21.648438-3.679687 24.9375-19.035156 52.371094-19.035156 31.179688 0 31.179688 19.828125 62.351563 19.828125s31.171875-19.828125 62.351562-19.828125c31.171875 0 31.171875 19.828125 62.351563 19.828125 31.183594 0 31.183594-19.828125 62.351562-19.828125 27.445313 0 30.730469 15.355469 52.390625 19.035156 44.160157-44.851563 71.402344-106.394531 71.402344-174.296875 0-64.839844-24.835937-123.882812-65.519531-168.125zm0 0" fill="#00d1fc"/><path d="m7.902344 269.960938c.273437 4.851562.683594 9.671874 1.222656 14.441406-.546875-4.78125-.960938-9.589844-1.222656-14.441406zm0 0" fill="#64dcfc"/><path d="m433.082031 430.296875c-6.582031 6.714844-13.570312 13.046875-20.898437 18.960937-7.894532-5.019531-15.695313-10.113281-31.488282-10.113281-31.171874 0-31.171874 19.824219-62.355468 19.824219-31.179688 0-31.179688-19.824219-62.351563-19.824219-31.179687 0-31.179687 19.824219-62.351562 19.824219s-31.171875-19.824219-62.351563-19.824219c-15.796875 0-23.582031 5.09375-31.480468 10.105469-7.328126-5.914062-14.304688-12.25-20.890626-18.953125 21.652344-3.679687 24.9375-19.035156 52.371094-19.035156 31.179688 0 31.179688 19.824219 62.351563 19.824219s31.171875-19.824219 62.351562-19.824219c31.171875 0 31.171875 19.824219 62.351563 19.824219 31.183594 0 31.183594-19.824219 62.355468-19.824219 27.441407 0 30.730469 15.355469 52.386719 19.035156zm0 0" fill="#ffb541"/><path d="m436.890625 426.335938c1.265625-1.332032 2.507813-2.675782 3.730469-4.039063-1.222656 1.363281-2.457032 2.707031-3.730469 4.039063zm0 0" fill="#64dcfc"/><path d="m504.097656 269.960938c-.261718 4.851562-.671875 9.660156-1.222656 14.441406.539062-4.769532.949219-9.589844 1.222656-14.441406zm0 0" fill="#64dcfc"/><path d="m256 147.058594c-60.167969 0-108.9375 48.773437-108.9375 108.9375 0 60.167968 48.769531 108.941406 108.9375 108.941406s108.9375-48.773438 108.9375-108.941406c0-60.164063-48.769531-108.9375-108.9375-108.9375zm0 185.976562c-42.546875 0-77.035156-34.488281-77.035156-77.039062 0-42.546875 34.488281-77.035156 77.035156-77.035156s77.035156 34.488281 77.035156 77.035156c0 42.550781-34.488281 77.039062-77.035156 77.039062zm0 0" fill="#ffc265"/><path d="m302.929688 48.550781c-1.492188 16.730469-3.398438 34.140625-12.078126 48.902344-11.917968 20.265625-41.363281 22.445313-53.308593 42.820313-12.730469 21.710937 8.488281 87.136718-32.851563 87.140624-6.625 0-12.667968-2.515624-17.226562-6.625-5.222656-4.710937-8.5-11.527343-8.5-19.105468v-13.691406c0-15.535157-12.601563-28.132813-28.136719-28.132813s-28.132813 12.597656-28.132813 28.132813v55.308593c0 14.199219-11.527343 25.726563-25.726562 25.726563h-1.554688c-14.203124 0-25.730468-11.527344-25.730468-25.738282v-70.851562c0-3.046875.292968-6.253906 0-9.28125-.851563-8.898438-3.445313-19.3125-10.671875-25.035156l-14.976563-11.859375c.613282-.992188 1.222656-1.972657 1.84375-2.957031 5.582032-8.820313 11.738282-17.273438 18.386719-25.324219 9.679687-11.71875 19.804687-22.03125 31.410156-31.816407 20.765625-17.507812 44.371094-31.609374 69.667969-41.582031 1.050781-.414062 2.105469-.824219 3.167969-1.222656.070312-.03125.148437-.0625.230469-.09375 27.140624-10.179687 56.546874-15.753906 87.257812-15.753906 17.058594 0 33.714844 1.722656 49.804688 5 1.308593.269531-1.257813 20.359375-1.503907 22.351562-.546875 4.449219-.957031 9.035157-1.371093 13.6875zm0 0" fill="#945b44"/><path d="m304.300781 34.863281c-.550781 4.449219-.953125 9.03125-1.375 13.691407-1.492187 16.730468-3.394531 34.136718-12.074219 48.902343-11.917968 20.265625-41.355468 22.441407-53.3125 42.816407-12.71875 21.710937 8.488282 87.140624-32.84375 87.140624-6.625 0-12.671874-2.515624-17.230468-6.625-5.222656-4.710937-8.5-11.527343-8.5-19.105468v-13.691406c0-15.535157-12.597656-28.132813-28.132813-28.132813-15.535156 0-28.136719 12.597656-28.136719 28.132813v55.308593c0 14.199219-11.523437 25.726563-25.726562 25.726563h-1.554688c-14.203124 0-25.726562-11.527344-25.726562-25.738282v-70.851562c0-3.046875.289062-6.253906 0-9.28125-.855469-8.898438-3.449219-19.3125-10.675781-25.035156l-14.972657-11.859375c.609376-.992188 1.222657-1.972657 1.84375-2.957031 2.195313-3.46875 4.480469-6.886719 6.855469-10.242188.339844.179688.679688.371094 1.042969.570312 15.179688 8.550782 24.257812 20.746094 28.1875 37.921876 2.808594 12.265624 2.859375 24.96875 2.898438 37.546874.03125 8.992188.054687 17.984376.085937 26.976563.023437 7.800781-2.160156 20.308594 7.636719 23.757813 3.320312 1.167968 7.472656.523437 10.269531-1.652344 5.523437-4.289063 5.949219-12.25 5.945313-18.65625-.011719-18.210938-.574219-36.105469.316406-54.449219 1.351562-27.824219 35.207031-35.347656 57.085937-30.664063 10.53125 2.253907 18.984375 9.789063 24.433594 18.773438 4.515625 7.445312 3.617187 15.339844 4.328125 23.734375.679688 8.066406-.902344 21.410156 9.425781 23.148437 13.394531 2.253907 10.734375-16.71875 10.433594-24.726562-.457031-12.085938-1.859375-24.277344.210937-36.296875 5.570313-32.386719 48.59375-32.113281 63.59375-57.617187 8.257813-14.03125 10.0625-30.589844 11.488282-46.488282.730468-8.277344 1.832031-16.460937 2.613281-24.726562 4.390625.652344 8.75 1.425781 13.070313 2.296875 1.3125.273437-1.265626 20.359375-1.503907 22.351562zm0 0" fill="#87523e"/><path d="m437.019531 74.976562c-17.492187-17.488281-37.460937-32.480468-59.207031-44.277343-39.125-21.222657-83.761719-31.683594-128.078125-30.6250002-.324219.0078124-.644531.0234374-.964844.0312502-11.292969.3125-22.382812 1.34375-33.546875 3.121093-9.386718 1.492188-18.691406 3.511719-27.855468 6.042969-43.28125 11.96875-83.085938 35.800781-114.296876 67.664063-47.132812 48.125-73.070312 111.59375-73.070312 179.0625 0 86.207031 42.988281 166.09375 114.988281 213.695312 3.464844 2.289063 8.128907 1.339844 10.417969-2.125 2.289062-3.460937 1.339844-8.125-2.125-10.414062-10.71875-7.089844-20.753906-14.9375-30.054688-23.449219 4.171876-1.902344 7.667969-4.117187 10.925782-6.191406 7.371094-4.6875 13.738281-8.734375 27.136718-8.734375 13.402344 0 19.769532 4.050781 27.144532 8.742187 8.171875 5.195313 17.433594 11.082031 35.207031 11.082031 17.769531 0 27.03125-5.886718 35.203125-11.082031 7.375-4.691406 13.742188-8.742187 27.148438-8.742187 13.394531 0 19.761718 4.050781 27.136718 8.738281 8.171875 5.195313 17.433594 11.085937 35.214844 11.085937s27.042969-5.890624 35.214844-11.085937c7.375-4.6875 13.742187-8.738281 27.136718-8.738281 13.402344 0 19.769532 4.050781 27.144532 8.734375 3.253906 2.070312 6.742187 4.277343 10.90625 6.179687-44.539063 40.875-101.917969 63.269532-162.746094 63.269532-36.164062 0-70.933594-7.8125-103.339844-23.21875-3.753906-1.78125-8.234375-.1875-10.015625 3.5625-1.785156 3.75-.191406 8.234374 3.558594 10.015624 34.441406 16.375 71.378906 24.675782 109.796875 24.675782 34.757812 0 69.429688-7 101.355469-20.765625 30.667969-13.21875 58.175781-32.582031 81.1875-56.253907 39.414062-40.542968 65.628906-93.734374 71.886719-150.378906 1.050781-9.496094 1.570312-19.046875 1.570312-28.601562 0-68.378906-26.628906-132.667969-74.980469-181.019532zm-366.957031 27.792969c9.15625-11.085937 19.46875-21.589843 30.457031-30.859375 20.246094-17.070312 42.984375-30.640625 67.554688-40.328125l.144531-.054687c.980469-.382813 1.957031-.765625 2.945312-1.136719.085938-.03125.167969-.066406.253907-.101563l-.039063.015626c13.488282-5.0625 27.332032-8.875 41.441406-11.425782.035157-.007812.074219-.011718.109376-.019531 3.195312-.574219 6.199218-1.046875 9.398437-1.492187 22.019531-3.074219 43.53125-3.160157 65.597656-.238282.015625.003906.035157.007813.050781.007813 3.511719.464843 7.003907 1.007812 10.480469 1.625-.214843 2.902343-.664062 7.527343-1.570312 14.789062l-.046875.394531c-.566406 4.578126-.988282 9.335938-1.398438 13.9375-1.546875 17.371094-3.449218 32.800782-11.070312 45.757813-4.890625 8.316406-14.027344 13.285156-23.699219 18.546875-11.097656 6.035156-22.574219 12.273438-29.613281 24.28125-5.484375 9.351562-5.765625 23.347656-6.066406 38.167969-.644532 31.914062-3.609376 45.257812-20.300782 45.257812-4.507812 0-8.839844-1.667969-12.191406-4.691406-3.824219-3.449219-6.019531-8.375-6.019531-13.519531v-13.691406c0-19.65625-15.992188-35.652344-35.652344-35.652344-19.65625 0-35.648437 15.996094-35.648437 35.652344v55.304687c0 10.042969-8.171876 18.210937-18.210938 18.210937h-1.554688c-10.042968 0-18.210937-8.171874-18.210937-18.21875v-70.851562c0-.933594.03125-1.882812.058594-2.839844.070312-2.1875.148437-4.664062-.09375-7.160156-1.34375-14.019531-5.882813-24.1875-13.492188-30.210938l-9.671875-7.660156c4.875-7.464844 10.265625-14.785156 16.058594-21.796875zm108.460938 119.390625c-4.546876 10.367188-7.074219 21.8125-7.074219 33.835938 0 46.625 37.929687 84.554687 84.550781 84.554687s84.554688-37.929687 84.554688-84.554687c0-20.980469-7.742188-41.105469-21.792969-56.660156-2.78125-3.082032-7.535157-3.324219-10.617188-.539063-3.082031 2.78125-3.324219 7.535156-.539062 10.617187 11.550781 12.789063 17.914062 29.332032 17.914062 46.582032 0 38.332031-31.1875 69.519531-69.519531 69.519531s-69.519531-31.1875-69.519531-69.519531c0-8.476563 1.539062-16.597656 4.335937-24.109375 4.316406 1.984375 9.039063 3.042969 13.878906 3.042969 15.101563 0 25.761719-7.558594 30.832032-21.859376 2.613281-7.371093 3.617187-15.867187 4.074218-24.609374 5.261719-1.285157 10.75-1.984376 16.398438-1.984376 8.953125 0 17.664062 1.675782 25.890625 4.980469 3.855469 1.546875 8.230469-.320312 9.777344-4.175781 1.550781-3.851562-.320313-8.230469-4.171875-9.777344-10.019532-4.019531-20.613282-6.0625-31.496094-6.0625-5.449219 0-10.773438.539063-15.9375 1.535156.128906-6.03125.300781-12.0625.902344-17.265624 4.910156-.734376 9.925781-1.140626 15.035156-1.140626 55.925781 0 101.425781 45.5 101.425781 101.425782 0 55.925781-45.5 101.425781-101.425781 101.425781s-101.425781-45.5-101.425781-101.425781c0-20.664063 6.21875-39.898438 16.875-55.945313v1.632813c0 7.460937 2.53125 14.667968 7.074219 20.476562zm259.386718 191.871094c0-.003906-.003906-.003906-.003906-.007812-2.371094 2.726562-4.808594 5.40625-7.3125 8.035156-5.792969-1.578125-9.972656-4.234375-14.691406-7.234375-8.171875-5.191407-17.433594-11.082031-35.207032-11.082031-17.773437 0-27.035156 5.890624-35.203124 11.085937-7.375 4.691406-13.746094 8.742187-27.148438 8.742187-13.40625 0-19.773438-4.050781-27.148438-8.742187-8.171874-5.195313-17.433593-11.085937-35.203124-11.085937-17.78125 0-27.042969 5.890624-35.21875 11.089843-7.371094 4.6875-13.738282 8.738281-27.136719 8.738281-13.394531 0-19.761719-4.050781-27.136719-8.738281-8.171875-5.199219-17.433594-11.089843-35.214844-11.089843-17.769531 0-27.03125 5.890624-35.199218 11.082031-4.714844 3-8.894532 5.65625-14.679688 7.234375-1.566406-1.644532-3.097656-3.3125-4.609375-4.992188-.003906.019532-.011719.035156-.015625.054688-39.359375-43.71875-61.746094-100.773438-61.746094-161.125 0-42.214844 10.78125-82.773438 31.042969-118.527344l8.265625 6.542969c5.328125 4.21875 7.214844 13.128906 7.859375 19.863281.148437 1.546875.09375 3.347656.03125 5.257812-.035156 1.109376-.066406 2.214844-.066406 3.304688v70.851562c0 18.335938 14.914062 33.253907 33.246093 33.253907h1.554688c18.328125 0 33.242188-14.914063 33.242188-33.246094v-55.304687c0-11.367188 9.25-20.617188 20.617187-20.617188 7.957031 0 14.859375 4.535156 18.296875 11.152344-18.390625 20.597656-29.585938 47.75-29.585938 77.46875 0 64.21875 52.242188 116.460937 116.460938 116.460937 64.214844 0 116.460938-52.242187 116.460938-116.460937 0-64.214844-52.246094-116.460938-116.460938-116.460938-3.007812 0-5.988281.121094-8.941406.347656 5.195312-6 12.8125-10.148437 20.796875-14.488281 11.046875-6.007812 22.472656-12.21875 29.476562-24.132812 9.195313-15.632813 11.4375-33.539063 13.085938-52.042969.417969-4.683594.808593-9.109375 1.34375-13.4375l.046875-.371094c.222656-1.792968.902344-7.246094 1.382812-12.398437.035156-.398438.070313-.78125.101563-1.152344 42.457031 10.308594 81.414062 32.066406 113.097656 63.75 45.511719 45.511719 70.574219 106.023437 70.574219 170.386719 0 58.703125-20.859375 114.195312-59.054688 158.035156zm0 0"/></svg>