<?xml version="1.0" encoding="iso-8859-1"?>
<!-- Generator: Adobe Illustrator 19.0.0, SVG Export Plug-In . SVG Version: 6.00 Build 0)  -->
<svg version="1.1" id="Capa_1" xmlns="http://www.w3.org/2000/svg" xmlns:xlink="http://www.w3.org/1999/xlink" x="0px" y="0px"
	 viewBox="0 0 512 512" style="enable-background:new 0 0 512 512;" xml:space="preserve">
<path style="fill:#D8AD8F;" d="M506.55,203.275c-1.401-6.768-3.091-13.434-5.027-19.996C470.185,77.315,372.122,0,256,0
	C114.618,0,0,114.618,0,256c0,64.798,24.075,123.962,63.758,169.063c3.74,4.244,7.613,8.365,11.62,12.352
	C121.675,483.505,185.515,512,256,512c141.382,0,256-114.618,256-256C512,237.931,510.125,220.294,506.55,203.275z M256,169.702
	c47.656,0,86.298,38.642,86.298,86.298S303.656,342.298,256,342.298S169.702,303.656,169.702,256S208.344,169.702,256,169.702z"/>
<path style="fill:#C19476;" d="M501.523,183.279C470.185,77.315,372.122,0,256,0C114.618,0,0,114.618,0,256
	c0,64.798,24.075,123.962,63.758,169.063c3.74,4.244,7.613,8.365,11.62,12.352c17.359-7.067,36.036-23.478,40.486-60.894
	c0.752-6.305,2.246-7.912,2.246-7.932c0.031-0.01,0.608-0.278,2.184-0.278c9.478,0,27.722,8.417,45.369,16.555
	c28.68,13.227,64.376,29.7,99.557,29.7c27.094,0,50.551-9.745,69.712-28.958c42.897-43.02,46.338-89.688,48.851-123.776
	c1.03-13.918,1.906-25.94,5.274-32.585c1.298-2.555,3.245-6.418,15.803-6.418c4.358,0,9.56,0.505,15.453,1.504
	c9.23,1.556,18.028,2.349,26.177,2.349c0.01,0,0.01,0,0.01,0c31.627,0,49.809-11.734,60.049-23.406
	C505.149,196.507,503.46,189.842,501.523,183.279z M256,342.298c-47.656,0-86.298-38.642-86.298-86.298s38.642-86.298,86.298-86.298
	s86.298,38.642,86.298,86.298S303.656,342.298,256,342.298z"/>
<path style="fill:#3AE8DB;" d="M400.267,44.493c-4.976-3.41-10.096-6.645-15.319-9.694C347.078,12.671,303.017,0,256,0
	C121.881,0,11.847,103.142,0.896,234.438c-0.433,5.192-0.711,10.436-0.834,15.72C0.021,252.096,0,254.043,0,256
	c0,64.798,24.075,123.962,63.758,169.063c17.152-4.718,32.935-18.152,36.757-50.366c9.2-77.49,141.063,82.641,223.477,0
	s4.121-181.59,98.897-165.602c44.36,7.489,68.641-5.625,78.634-25.816C484.628,126.146,448.335,77.346,400.267,44.493z M256,342.298
	c-47.656,0-86.298-38.642-86.298-86.298s38.642-86.298,86.298-86.298s86.298,38.642,86.298,86.298S303.656,342.298,256,342.298z"/>
<g>
	<path style="fill:#0CC9C3;" d="M256,154.249c-56.104,0-101.751,45.647-101.751,101.751S199.896,357.751,256,357.751
		S357.751,312.104,357.751,256S312.104,154.249,256,154.249z M256,342.298c-47.656,0-86.298-38.642-86.298-86.298
		s38.642-86.298,86.298-86.298s86.298,38.642,86.298,86.298S303.656,342.298,256,342.298z"/>
	<path style="fill:#0CC9C3;" d="M400.267,44.493l-8.509,4.183c-20.181,9.89-24.168,28.969-28.382,49.171
		c-2.38,11.394-4.636,22.159-10.003,31.204c-7.263,12.208-19.027,18.667-34.027,18.667c-7.5,0-15.937-1.545-25.816-4.698
		c-28.68-9.179-55.166-13.835-78.737-13.835c-50.015,0-83.62,21.284-99.866,63.274c-8.52,22.015-21.366,38.436-38.179,48.789
		c-13.557,8.365-29.401,12.599-47.079,12.599c-9.539,0-19.491-1.236-29.607-3.688c0.124-5.285,0.402-10.528,0.834-15.72
		C11.847,103.142,121.881,0,256,0c47.017,0,91.078,12.671,128.948,34.8C390.171,37.849,395.291,41.084,400.267,44.493z"/>
</g>
<path style="fill:#79F7EA;" d="M384.948,34.8c-59.596,29.236-13.145,117.039-86.71,93.499
	c-80.354-25.724-165.859-23.735-197.723,58.576c-22.705,58.669-72.741,54.692-99.619,47.564C11.847,103.142,121.881,0,256,0
	C303.017,0,347.078,12.671,384.948,34.8z"/>
<g>
	<path style="fill:#FCE68B;" d="M439.938,293.101c-1.977,0-3.955-0.755-5.463-2.263l-17.048-17.048
		c-3.018-3.017-3.018-7.909,0-10.927c3.017-3.017,7.909-3.017,10.927,0l17.048,17.048c3.018,3.017,3.018,7.909,0,10.927
		C443.892,292.346,441.915,293.101,439.938,293.101z"/>
	<path style="fill:#FCE68B;" d="M233.325,474.881c-1.977,0-3.955-0.755-5.463-2.263l-17.048-17.048
		c-3.018-3.017-3.018-7.909,0-10.927c3.017-3.017,7.909-3.017,10.927,0l17.048,17.048c3.018,3.017,3.018,7.909,0,10.927
		C237.28,474.126,235.302,474.881,233.325,474.881z"/>
</g>
<g>
	<path style="fill:#FEC007;" d="M280.52,90.584c-1.977,0-3.955-0.754-5.463-2.263l-17.048-17.048c-3.018-3.017-3.018-7.909,0-10.927
		c3.017-3.017,7.909-3.018,10.927,0l17.048,17.048c3.018,3.017,3.018,7.909,0,10.927C284.475,89.829,282.497,90.584,280.52,90.584z"
		/>
	<path style="fill:#FEC007;" d="M415.678,129.389c-1.977,0-3.955-0.754-5.463-2.263l-17.048-17.048
		c-3.018-3.017-3.018-7.909,0-10.927c3.017-3.017,7.909-3.018,10.927,0l17.048,17.048c3.018,3.017,3.018,7.909,0,10.927
		C419.633,128.634,417.655,129.389,415.678,129.389z"/>
	<path style="fill:#FEC007;" d="M100.518,304.321c-1.977,0-3.955-0.755-5.463-2.263c-3.018-3.017-3.018-7.909,0-10.927
		l17.048-17.048c3.017-3.017,7.909-3.017,10.927,0c3.018,3.017,3.018,7.909,0,10.927l-17.048,17.048
		C104.472,303.567,102.495,304.321,100.518,304.321z"/>
</g>
<path style="fill:#FCE68B;" d="M357.751,414.958c-1.977,0-3.955-0.754-5.463-2.263c-3.018-3.018-3.018-7.909,0-10.927l17.048-17.048
	c3.018-3.017,7.91-3.018,10.927,0c3.018,3.018,3.018,7.909,0,10.927l-17.048,17.048
	C361.706,414.203,359.728,414.958,357.751,414.958z"/>
<path style="fill:#FEC007;" d="M71.358,168.202c-1.977,0-3.955-0.755-5.463-2.263c-3.018-3.017-3.018-7.909,0-10.927l17.048-17.048
	c3.017-3.017,7.909-3.017,10.927,0c3.018,3.017,3.018,7.909,0,10.927l-17.048,17.048C75.313,167.448,73.336,168.202,71.358,168.202z
	"/>
<path style="fill:#FCE68B;" d="M161.178,445.265c-1.977,0-3.955-0.754-5.463-2.263c-3.018-3.018-3.018-7.909,0-10.927l17.048-17.048
	c3.018-3.018,7.91-3.018,10.927,0c3.018,3.018,3.018,7.909,0,10.927l-17.048,17.048C165.132,444.51,163.154,445.265,161.178,445.265
	z"/>
<path style="fill:#FEC007;" d="M192.922,74.456c-1.977,0-3.955-0.754-5.463-2.263c-3.018-3.017-3.018-7.909,0-10.927l17.048-17.048
	c3.017-3.017,7.909-3.018,10.927,0c3.018,3.017,3.018,7.909,0,10.927l-17.048,17.048C196.877,73.701,194.899,74.456,192.922,74.456z
	"/>
<g>
</g>
<g>
</g>
<g>
</g>
<g>
</g>
<g>
</g>
<g>
</g>
<g>
</g>
<g>
</g>
<g>
</g>
<g>
</g>
<g>
</g>
<g>
</g>
<g>
</g>
<g>
</g>
<g>
</g>
</svg>
