<?xml version="1.0" encoding="iso-8859-1"?>
<!-- Generator: Adobe Illustrator 19.0.0, SVG Export Plug-In . SVG Version: 6.00 Build 0)  -->
<svg xmlns="http://www.w3.org/2000/svg" xmlns:xlink="http://www.w3.org/1999/xlink" version="1.1" id="Capa_1" x="0px" y="0px" viewBox="0 0 512 512" style="enable-background:new 0 0 512 512;" xml:space="preserve" width="512" height="512">
<g>
	<g>
		<path style="fill:#F0C382;" d="M256,7.5C118.757,7.5,7.5,118.757,7.5,256c0,137.242,111.257,248.5,248.5,248.5    S504.5,393.242,504.5,256C504.5,118.757,393.243,7.5,256,7.5z M256,344.177c-48.699,0-88.177-39.478-88.177-88.177    s39.478-88.177,88.177-88.177s88.177,39.478,88.177,88.177S304.699,344.177,256,344.177z"/>
		<g>
			<path style="fill:#E3AA75;" d="M288.065,472.435c-137.243,0-248.5-111.258-248.5-248.5c0-60.457,21.608-115.855,57.498-158.938     C42.343,110.581,7.5,179.214,7.5,256c0,137.242,111.257,248.5,248.5,248.5c76.787,0,145.421-34.844,191.003-89.564     C403.921,450.827,348.522,472.435,288.065,472.435z"/>
		</g>
		<path style="fill:#FF9BA0;" d="M256,7.5c-83.43,0-157.201,41.158-202.269,104.23c13.61,0.143,46.185,3.546,57.281,32.128    c12.73,32.789-26.618,72.438,0,87.925c22.722,13.22,45.277-24.57,69.321-20.888c15.393-25.764,43.474-43.072,75.667-43.072    c48.699,0,88.177,39.478,88.177,88.177c0,30.535-15.527,57.433-39.109,73.26c19.445,9.592,38.139,13.293,53.982,6.233    c29.233-13.026,19.607-51.771,37.254-66.968c11.785-10.15,31.096-5.126,41.175,11.523c23.677,39.106,46.339,42.818,58.284,41.275    c5.661-20.822,8.737-42.708,8.737-65.323C504.5,118.757,393.243,7.5,256,7.5z"/>
		<path style="fill:#FF8087;" d="M497.846,296.61c-1.61,0.383-3.098,0.642-4.551,0.792l-0.105,0.011l-0.308,0.035    c-0.617,0.08-1.053,0.106-1.492,0.106c-3.566,0-16.508-2.161-33.339-29.96c-10.587-17.487-28.743-28.35-47.385-28.35    c-7.948,0-15.463,1.905-22.151,5.569c-5.437,2.979-12.207,1.978-17.01-1.942h0c-2.922-2.385-4.787-5.761-5.533-9.458    c-9.539-47.311-48.686-83.5-97.081-88.916c-4.286-0.479-8.623-0.723-12.892-0.723c-25.293-0.001-49.172,8.237-69.055,23.821    c-15.519,12.163-31.858,22.668-45.795,31.339c-1.994,1.241-3.94,2.5-5.841,3.731c-2.215,1.434-5.462,3.536-8.379,5.213    c0.711-2.661,1.711-6.048,2.998-10.149c5.242-16.713,12.421-39.602,3.502-62.575c-9.629-24.801-31.528-40.831-61.77-45.785    c-6.381,7.056-12.2,14.602-17.739,22.365c13.714,0.171,46.042,3.665,57.09,32.123c12.73,32.789-26.619,72.438,0,87.925    c22.722,13.22,45.278-24.57,69.32-20.888c16.826-28.161,48.808-46.219,84.751-42.616c42.749,4.285,76.863,40.338,78.983,83.249    c1.599,32.369-14.272,61.137-38.999,77.732c19.445,9.592,38.139,13.293,53.983,6.233c29.233-13.026,19.607-51.771,37.254-66.968    c11.785-10.15,31.096-5.126,41.175,11.523c23.604,38.987,46.195,42.792,58.17,41.286c2.266-8.367,4.241-16.854,5.641-25.545    L497.846,296.61z"/>
	</g>
	<g>
		<path d="M437.02,74.98C388.667,26.629,324.38,0,256,0S123.333,26.629,74.98,74.98C26.629,123.333,0,187.62,0,256    s26.629,132.667,74.98,181.02C123.333,485.371,187.62,512,256,512s132.667-26.629,181.02-74.98    C485.371,388.667,512,324.38,512,256S485.371,123.333,437.02,74.98z M426.413,426.413C380.894,471.932,320.374,497,256,497    s-124.894-25.068-170.413-70.587S15,320.374,15,256c0-49.632,14.916-96.965,42.602-136.907c2.937-0.135,10.791-0.205,19.356,2.163    c14.008,3.872,23.313,12.265,27.656,24.949c4.439,12.962,0.302,27.917-3.699,42.38c-4.96,17.93-10.583,38.252,6.665,49.628    c4.428,2.92,8.791,4.105,13.039,4.105c10.477,0,20.255-7.204,28.585-13.34c7.762-5.719,13.68-9.778,18.851-10.633    c-12.586,29.433-9.92,64.161,9.162,91.847c1.455,2.111,3.798,3.245,6.182,3.244c1.467,0,2.95-0.43,4.25-1.325    c3.411-2.351,4.27-7.021,1.919-10.432c-22.067-32.018-18.121-75.221,9.385-102.727c27.506-27.506,70.709-31.452,102.727-9.385    c3.412,2.352,8.082,1.491,10.432-1.919c2.351-3.411,1.492-8.081-1.919-10.432c-37.979-26.175-89.222-21.496-121.846,11.129    c-4.783,4.783-8.947,9.975-12.52,15.457c-13.332-3.239-25.488,5.708-35.519,13.098c-12.137,8.94-18.506,12.722-24.468,8.79    c-7.37-4.861-5.802-13.821-0.466-33.107c4.394-15.884,9.375-33.888,3.432-51.239c-8.869-25.901-32.161-35.002-50.16-36.957    c5.288-6.509,10.932-12.789,16.943-18.801C131.106,40.068,191.626,15,256,15s124.894,25.068,170.413,70.587S497,191.626,497,256    c0,19.391-2.291,38.427-6.714,56.814c-5.059,2.028-26.605,7.259-51.408-36.466c-6.311-11.125-16.171-18.485-27.053-20.193    c-8.63-1.354-16.844,1.077-23.124,6.85c-8.702,7.999-11.487,20.204-14.181,32.007c-3.256,14.269-6.333,27.747-18.868,33.709    c-9.401,4.471-21.221,3.786-35.223-2c1.092-0.996,2.171-2.012,3.225-3.066c32.624-32.625,37.304-83.868,11.129-121.846    c-2.351-3.41-7.02-4.27-10.432-1.919c-3.411,2.351-4.27,7.021-1.919,10.432c22.067,32.018,18.121,75.221-9.385,102.727    c-27.506,27.506-70.708,31.452-102.727,9.385c-3.411-2.352-8.082-1.491-10.432,1.919c-2.351,3.411-1.492,8.081,1.919,10.432    c16.446,11.335,35.375,16.883,54.207,16.883c17.778,0,35.456-4.974,50.876-14.668c12.767,6.428,24.532,9.653,35.194,9.653    c7.18,0,13.862-1.461,20.01-4.385c19.1-9.084,23.508-28.398,27.05-43.917c2.284-10.007,4.441-19.46,9.708-24.302    c3.645-3.351,7.802-3.522,10.646-3.074c6.245,0.98,12.35,5.756,16.332,12.776c14.047,24.764,29.787,39.571,46.783,44.012    c4.967,1.299,9.404,1.533,13.167,1.245C474.277,365.362,454.15,398.675,426.413,426.413z"/>
		<path d="M203.241,96.985l-16.032-8.016c-3.705-1.853-8.21-0.351-10.062,3.354c-1.853,3.705-0.351,8.21,3.354,10.062l16.032,8.016    c1.077,0.539,2.221,0.793,3.348,0.793c2.751,0,5.4-1.52,6.714-4.147C208.448,103.343,206.946,98.837,203.241,96.985z"/>
		<path d="M300.743,88.969l-16.032,8.016c-3.705,1.852-5.207,6.357-3.354,10.062c1.314,2.628,3.962,4.147,6.714,4.147    c1.127,0,2.271-0.255,3.348-0.793l16.032-8.016c3.705-1.852,5.207-6.357,3.354-10.062    C308.953,88.618,304.448,87.116,300.743,88.969z"/>
		<path d="M416.323,183.339c4.142,0,7.5-3.358,7.5-7.5v-8.016c0-4.142-3.358-7.5-7.5-7.5s-7.5,3.358-7.5,7.5v8.016    C408.823,179.981,412.181,183.339,416.323,183.339z"/>
		<path d="M92.964,298.793c-2.929-2.929-7.678-2.929-10.606,0c-2.929,2.929-2.929,7.678,0,10.606l8.016,8.016    c1.464,1.464,3.384,2.197,5.303,2.197s3.839-0.732,5.303-2.197c2.929-2.929,2.929-7.678,0-10.606L92.964,298.793z"/>
		<path d="M207.903,408.823c-4.142,0-7.5,3.358-7.5,7.5v16.032c0,4.142,3.358,7.5,7.5,7.5s7.5-3.358,7.5-7.5v-16.032    C215.403,412.181,212.045,408.823,207.903,408.823z"/>
		<path d="M360.209,376.758c-4.142,0-7.5,3.358-7.5,7.5v8.016c0,4.142,3.358,7.5,7.5,7.5s7.5-3.358,7.5-7.5v-8.016    C367.709,380.116,364.352,376.758,360.209,376.758z"/>
		<path d="M306.81,427.052l-8.016,8.016c-2.929,2.929-2.929,7.678,0,10.606c1.464,1.464,3.384,2.197,5.303,2.197    s3.839-0.732,5.303-2.197l8.016-8.016c2.929-2.929,2.929-7.678,0-10.606C314.487,424.123,309.738,424.123,306.81,427.052z"/>
		<path d="M239.968,40.081c-4.142,0-7.5,3.358-7.5,7.5v8.016c0,4.142,3.358,7.5,7.5,7.5s7.5-3.358,7.5-7.5v-8.016    C247.468,43.438,244.11,40.081,239.968,40.081z"/>
		<path d="M344.177,159.291c1.919,0,3.839-0.732,5.303-2.197l8.016-8.016c2.929-2.929,2.929-7.678,0-10.606    c-2.929-2.929-7.678-2.929-10.606,0l-8.016,8.016c-2.929,2.929-2.929,7.678,0,10.606    C340.338,158.558,342.258,159.291,344.177,159.291z"/>
		<path d="M127.742,368.742h-8.016c-4.142,0-7.5,3.358-7.5,7.5s3.358,7.5,7.5,7.5h8.016c4.142,0,7.5-3.358,7.5-7.5    S131.884,368.742,127.742,368.742z"/>
		<path d="M368.226,103.177c4.142,0,7.5-3.358,7.5-7.5s-3.358-7.5-7.5-7.5h-0.08c-4.142,0-7.46,3.358-7.46,7.5    S364.083,103.177,368.226,103.177z"/>
		<path d="M159.807,144.291h-0.081c-4.142,0-7.459,3.358-7.459,7.5s3.398,7.5,7.54,7.5s7.5-3.358,7.5-7.5    S163.949,144.291,159.807,144.291z"/>
		<path d="M247.984,400.807h-0.08c-4.142,0-7.46,3.358-7.46,7.5s3.398,7.5,7.54,7.5s7.5-3.358,7.5-7.5    S252.126,400.807,247.984,400.807z"/>
		<path d="M135.838,320.645h-0.08c-4.142,0-7.46,3.358-7.46,7.5s3.398,7.5,7.54,7.5s7.5-3.358,7.5-7.5    S139.98,320.645,135.838,320.645z"/>
	</g>
</g>















</svg>
