<svg id="Capa_1" enable-background="new 0 0 512 512" height="512" viewBox="0 0 512 512" width="512" xmlns="http://www.w3.org/2000/svg"><path d="m437.02 74.98c-48.353-48.351-112.64-74.98-181.02-74.98s-132.667 26.629-181.02 74.98c-48.351 48.353-74.98 112.64-74.98 181.02s26.629 132.667 74.98 181.02c48.353 48.351 112.64 74.98 181.02 74.98s132.667-26.629 181.02-74.98c48.351-48.353 74.98-112.64 74.98-181.02s-26.629-132.667-74.98-181.02zm-181.02 246.02c-35.841 0-65-29.159-65-65s29.159-65 65-65 65 29.159 65 65-29.159 65-65 65z" fill="#ff6860"/><path d="m256 0v191c35.841 0 65 29.159 65 65s-29.159 65-65 65v191c68.38 0 132.667-26.629 181.02-74.98 48.351-48.353 74.98-112.64 74.98-181.02s-26.629-132.667-74.98-181.02c-48.353-48.351-112.64-74.98-181.02-74.98z" fill="#ff4436"/><path d="m236 131c-3.839 0-7.678-1.465-10.606-4.394-5.858-5.857-5.858-15.355 0-21.213l40-40c5.857-5.857 15.355-5.857 21.213 0s5.858 15.355 0 21.213l-40 40c-2.929 2.929-6.768 4.394-10.607 4.394z" fill="#eaf1ff"/><path d="m236 451c-3.839 0-7.678-1.465-10.606-4.394-5.858-5.857-5.858-15.355 0-21.213l40-40c5.857-5.857 15.355-5.857 21.213 0s5.858 15.355 0 21.213l-40 40c-2.929 2.929-6.768 4.394-10.607 4.394z" fill="#eaf1ff"/><path d="m142.863 186.147c-8.284 0-15-6.716-15-15v-56.568c0-8.284 6.716-15 15-15s15 6.716 15 15v56.568c0 8.285-6.716 15-15 15z" fill="#fff550"/><path d="m369.137 412.421c-8.284 0-15-6.716-15-15v-56.568c0-8.284 6.716-15 15-15s15 6.716 15 15v56.568c0 8.284-6.716 15-15 15z" fill="#ffdc14"/><path d="m116 291c-3.839 0-7.678-1.465-10.606-4.394l-40-40c-5.858-5.857-5.858-15.355 0-21.213 5.857-5.857 15.355-5.857 21.213 0l40 40c5.858 5.857 5.858 15.355 0 21.213-2.929 2.929-6.768 4.394-10.607 4.394z" fill="#eaf1ff"/><path d="m436 291c-3.839 0-7.678-1.465-10.606-4.394l-40-40c-5.858-5.857-5.858-15.355 0-21.213 5.857-5.857 15.355-5.857 21.213 0l40 40c5.858 5.857 5.858 15.355 0 21.213-2.929 2.929-6.768 4.394-10.607 4.394z" fill="#b1d5f1"/><path d="m171.147 384.137h-56.569c-8.284 0-15-6.716-15-15s6.716-15 15-15h56.569c8.284 0 15 6.716 15 15s-6.715 15-15 15z" fill="#fff550"/><path d="m397.421 157.863h-56.569c-8.284 0-15-6.716-15-15s6.716-15 15-15h56.569c8.284 0 15 6.716 15 15s-6.715 15-15 15z" fill="#ffdc14"/><g fill="#b1d5f1"><path d="m265.394 385.394-9.394 9.393v42.426l30.606-30.606c5.858-5.857 5.858-15.355 0-21.213-5.857-5.858-15.355-5.858-21.212 0z"/><path d="m265.394 65.394-9.394 9.393v42.426l30.606-30.606c5.858-5.857 5.858-15.355 0-21.213-5.857-5.858-15.355-5.858-21.212 0z"/></g></svg>