<svg height="397pt" viewBox="0 1 397.808 397" width="397pt" xmlns="http://www.w3.org/2000/svg"><path d="m198.902344.402344c-109.847656 0-198.902344 89.054687-198.902344 198.90625 0 109.847656 89.054688 198.902344 198.902344 198.902344 109.851562 0 198.90625-89.054688 198.90625-198.902344 0-109.851563-89.054688-198.90625-198.90625-198.90625zm0 274.710937c-41.796875 0-75.804688-34.007812-75.804688-75.804687 0-41.800782 34.007813-75.808594 75.804688-75.808594 41.800781 0 75.808594 34.007812 75.808594 75.808594 0 41.796875-34.007813 75.804687-75.808594 75.804687zm0 0" fill="#db9c2e"/><path d="m44.761719 199.308594c0-102.285156 77.210937-186.519532 176.523437-197.644532-7.347656-.824218-14.8125-1.261718-22.382812-1.261718-109.847656 0-198.902344 89.054687-198.902344 198.90625 0 109.847656 89.054688 198.902344 198.902344 198.902344 7.570312 0 15.035156-.4375 22.382812-1.261719-99.3125-11.125-176.523437-95.359375-176.523437-197.640625zm0 0" fill="#a56021"/><path d="m198.902344.402344c-109.847656 0-198.902344 89.054687-198.902344 198.90625 0 18.789062 2.609375 36.96875 7.476562 54.199218 0 0 11.316407 28.929688 37.492188 32.5v-.003906c2.511719.449219 5.097656.6875 7.742188.6875 16.632812 0 31.09375-9.292968 38.472656-22.96875v51.636719c0 12.542969 10.171875 22.710937 22.714844 22.710937 12.542968 0 22.710937-10.167968 22.710937-22.710937v-26.246094c8.332031 13.21875 24.085937 22.144531 42.160156 22.144531 14.03125 0 26.664063-5.378906 35.511719-13.96875v30.007813c0 12.542969 10.167969 22.710937 22.710938 22.710937 12.546874 0 22.714843-10.167968 22.714843-22.710937v-33.25c7.925781 11.089844 20.894531 18.328125 35.566407 18.328125 2.167968 0 4.296874-.164062 6.378906-.46875v26.578125c0 12.542969 10.167968 22.714844 22.710937 22.714844 12.546875 0 22.714844-10.171875 22.714844-22.714844v-73.71875c0 12.542969 10.167969 22.710937 22.710937 22.710937 12.546876 0 22.714844-10.167968 22.714844-22.710937v-19.746094c3.453125-14.679687 5.304688-29.976562 5.304688-45.710937 0-109.851563-89.054688-198.90625-198.90625-198.90625zm0 274.710937c-41.796875 0-75.804688-34.007812-75.804688-75.804687 0-41.800782 34.007813-75.808594 75.804688-75.808594 41.800781 0 75.808594 34.007812 75.808594 75.808594 0 41.796875-34.007813 75.804687-75.808594 75.804687zm0 0" fill="#ff624b"/><path d="m221.480469 1.671875c-7.347657-.828125-14.8125-1.269531-22.378907-1.269531-105.425781 0-191.679687 82.328125-198.460937 186.417968l-.011719-.015624c-.179687 1.265624-.324218 2.558593-.445312 3.871093-.1132815 2.757813-.183594 5.527344-.183594 8.3125 0 5.816407.277344 11.5625.761719 17.25.136719 1.25.273437 2.496094.429687 3.730469.53125 5.347656 1.277344 10.628906 2.214844 15.839844 1.078125 5.804687 2.386719 11.523437 3.953125 17.136718-.125-.664062-.246094-1.347656-.355469-2.066406.296875 1.21875.582032 2.355469.847656 3.394532 2.132813 4.859374 13.648438 28.515624 37.117188 31.730468 2.511719.449219 5.097656.6875 7.742188.6875 3.894531 0 7.660156-.527344 11.253906-1.488281-3.144532-6.757813-5.785156-13.371094-7.941406-19.425781-7.15625-20.589844-11.0625-42.707032-11.0625-65.75 0-102.652344 77.207031-187.195313 176.519531-198.355469zm0 0" fill="#ff4b34"/><path d="m9.84375 261.660156c-.761719-2.351562-1.492188-4.71875-2.167969-7.109375.566407 2.371094 1.3125 4.757813 2.167969 7.109375zm0 0" fill="#ff624b"/><g fill="#ff9079"><path d="m366.257812 165.378906c-2.707031 0-5.164062-1.84375-5.828124-4.59375-17.199219-71.171875-72.265626-103.394531-72.820313-103.714844-2.871094-1.640624-3.875-5.304687-2.234375-8.179687 1.640625-2.878906 5.300781-3.882813 8.175781-2.246094 2.441407 1.390625 60.082031 34.921875 78.546875 111.324219.777344 3.21875-1.203125 6.460938-4.425781 7.242188-.472656.113281-.949219.167968-1.414063.167968zm0 0"/><path d="m152.378906 82.660156c0 9.648438-7.820312 17.472656-17.46875 17.472656-9.648437 0-17.46875-7.824218-17.46875-17.472656 0-9.648437 7.820313-17.46875 17.46875-17.46875 9.648438 0 17.46875 7.820313 17.46875 17.46875zm0 0"/><path d="m118.351562 127.296875c0 9.648437-7.820312 17.46875-17.46875 17.46875-9.648437 0-17.472656-7.820313-17.472656-17.46875s7.824219-17.472656 17.472656-17.472656c9.648438 0 17.46875 7.824219 17.46875 17.472656zm0 0"/><path d="m338.160156 228.308594c0 9.648437-7.820312 17.46875-17.46875 17.46875-9.648437 0-17.46875-7.820313-17.46875-17.46875 0-9.648438 7.820313-17.46875 17.46875-17.46875 9.648438 0 17.46875 7.820312 17.46875 17.46875zm0 0"/></g></svg>