<svg height="512pt" viewBox="0 0 512 512" width="512pt" xmlns="http://www.w3.org/2000/svg"><path d="m512 256c0 141.386719-114.613281 256-256 256s-256-114.613281-256-256 114.613281-256 256-256 256 114.613281 256 256zm0 0" fill="#494970"/><path d="m256 73.320312c-128.390625 0-234.757812 94.28125-253.648438 217.390626 16.941407 124.964843 124.039063 221.289062 253.648438 221.289062s236.707031-96.324219 253.648438-221.289062c-18.890626-123.105469-125.257813-217.390626-253.648438-217.390626zm0 328.957032c-57.878906 0-104.796875-46.917969-104.796875-104.792969 0-57.878906 46.917969-104.796875 104.796875-104.796875s104.796875 46.917969 104.796875 104.796875c0 57.875-46.917969 104.792969-104.796875 104.792969zm0 0" fill="#e6ac6d"/><path d="m256 73.320312c-128.390625 0-234.757812 94.28125-253.648438 217.386719 5.027344 37.082031 17.988282 71.640625 37.128907 101.910157 2.886719 2.5625 5.109375 5.855468 6.375 9.589843 10.636719 15.265625 22.898437 29.316407 36.527343 41.902344 5.765626-4.058594 9.53125-10.761719 9.53125-18.347656v-16.351563c0-12.390625 10.046876-22.4375 22.4375-22.4375 12.394532 0 22.4375 10.042969 22.4375 22.4375v73.179688c13.882813 7.316406 28.507813 13.402344 43.75 18.097656.726563-2.207031 1.125-4.566406 1.125-7.019531v-38.730469c0-12.390625 10.046876-22.4375 22.4375-22.4375 12.394532 0 22.4375 10.046875 22.4375 22.4375v15.300781c0 12.394531 10.046876 22.441407 22.4375 22.441407 12.390626 0 22.4375-10.046876 22.4375-22.441407v-25.457031c1.859376-10.515625 11.023438-18.507812 22.070313-18.507812 12.394531 0 22.4375 10.042968 22.4375 22.4375v21.527343c0 12.394531 10.046875 22.4375 22.4375 22.4375s22.4375-10.042969 22.4375-22.4375v-60.828125c0-12.390625 10.046875-22.4375 22.4375-22.4375s22.4375 10.046875 22.4375 22.4375v16.351563c0 11.4375 8.554687 20.867187 19.617187 22.257812 9.003907-7.945312 17.445313-16.511719 25.257813-25.632812v-12.976563c0-12.390625 10.042969-22.4375 22.4375-22.4375.980469 0 1.941406.070313 2.886719.191406 17.296875-28.933593 29.042968-61.558593 33.773437-96.421874-18.859375-122.914063-125.070312-217.421876-253.644531-217.421876zm0 328.957032c-57.878906 0-104.796875-46.917969-104.796875-104.792969 0-57.878906 46.917969-104.796875 104.796875-104.796875s104.796875 46.917969 104.796875 104.796875c0 57.875-46.917969 104.792969-104.796875 104.792969zm0 0" fill="#fc757e"/><path d="m429.765625 371.15625c-31.984375 0-59.632813-18.523438-72.824219-45.425781-.371094 1.332031-.773437 2.648437-1.195312 3.957031-13.886719 43.039062-54.0625 72.589844-99.746094 72.589844-59.550781 0-107.386719-49.597656-104.683594-109.554688 1.980469-44.332031 30.121094-81.636718 75.230469-95.835937-36.882813 4.535156-68.992187-24.199219-68.992187-60.945313 0-23.25 12.917968-43.480468 31.964843-53.910156-97.992187 26.210938-171.972656 108.640625-187.167969 208.679688 5.644532 39.320312 17.933594 71.371093 37.128907 101.90625 2.886719 2.5625 5.109375 5.855468 6.375 9.589843 10.945312 15.703125 23.464843 29.839844 36.527343 41.902344 5.765626-4.058594 9.53125-10.761719 9.53125-18.347656v-16.351563c0-12.390625 10.046876-22.4375 22.4375-22.4375 12.394532 0 22.4375 10.042969 22.4375 22.4375v73.179688c13.882813 7.316406 28.507813 13.402344 43.75 18.097656.726563-2.207031 1.125-4.566406 1.125-7.019531v-38.730469c0-12.390625 10.046876-22.4375 22.4375-22.4375 12.394532 0 22.4375 10.046875 22.4375 22.4375v15.300781c0 12.394531 10.046876 22.441407 22.4375 22.441407 12.390626 0 22.4375-10.046876 22.4375-22.441407v-25.457031c1.859376-10.515625 11.023438-18.507812 22.070313-18.507812 12.394531 0 22.4375 10.042968 22.4375 22.4375v21.527343c0 12.394531 10.046875 22.4375 22.4375 22.4375s22.4375-10.042969 22.4375-22.4375v-60.828125c0-12.390625 10.046875-22.4375 22.4375-22.4375s22.4375 10.046875 22.4375 22.4375v16.351563c0 11.433593 8.550781 20.859375 19.601563 22.253906 9.433593-8.308594 17.605468-16.695313 25.273437-25.660156v-12.945313c0-13.429687 11.761719-23.976562 25.304687-22.246094 11.335938-18.976562 20.046876-39.019531 26.199219-60.367187-13.398437 26.316406-40.726562 44.359375-72.285156 44.359375zm0 0" fill="#f5585c"/><path d="m111.015625 361.867188-19.785156-7.976563c-4.492188-1.8125-6.667969-6.925781-4.855469-11.417969 1.8125-4.496094 6.925781-6.671875 11.417969-4.859375l19.785156 7.976563c4.492187 1.8125 6.667969 6.925781 4.855469 11.417968-1.8125 4.5-6.925782 6.667969-11.417969 4.859376zm0 0" fill="#f5585c"/><path d="m452.441406 294.699219-21.078125-3.28125c-4.789062-.746094-8.066406-5.230469-7.320312-10.023438.746093-4.789062 5.230469-8.066406 10.019531-7.320312l21.078125 3.28125c4.789063.746093 8.066406 5.234375 7.320313 10.023437-.742188 4.777344-5.21875 8.0625-10.019532 7.320313zm0 0" fill="#a0d5ff"/><path d="m451.027344 343.699219c-3.429688-3.425781-3.429688-8.984375-.003906-12.410157l15.082031-15.082031c3.429687-3.429687 8.984375-3.429687 12.410156-.003906 3.429687 3.429687 3.429687 8.984375.003906 12.410156l-15.082031 15.085938c-3.429688 3.425781-8.984375 3.425781-12.410156 0zm0 0" fill="#f5585c"/><path d="m391.402344 253.691406c-1.3125-4.664062 1.40625-9.507812 6.074218-10.820312l20.535157-5.769532c4.664062-1.308593 9.507812 1.410157 10.820312 6.078126 1.3125 4.664062-1.40625 9.507812-6.074219 10.820312l-20.535156 5.769531c-4.65625 1.304688-9.507812-1.402343-10.820312-6.078125zm0 0" fill="#f5585c"/><path d="m355.3125 200.945312c-4.648438-1.367187-7.308594-6.246093-5.941406-10.894531l6.015625-20.460937c1.367187-4.652344 6.246093-7.3125 10.894531-5.945313 4.648438 1.367188 7.308594 6.242188 5.941406 10.894531l-6.015625 20.464844c-1.367187 4.648438-6.246093 7.308594-10.894531 5.941406zm0 0" fill="#a0d5ff"/><path d="m252.390625 149.863281c-3.425781-3.425781-3.425781-8.980469 0-12.410156l15.082031-15.082031c3.429688-3.425782 8.984375-3.425782 12.410156 0 3.429688 3.429687 3.429688 8.984375 0 12.410156l-15.082031 15.082031c-3.429687 3.429688-8.980469 3.425781-12.410156 0zm0 0" fill="#fad964"/><path d="m158.015625 191.347656c-3.425781-3.425781-3.425781-8.984375 0-12.410156l15.085937-15.082031c3.425782-3.425781 8.980469-3.425781 12.410157 0 3.425781 3.429687 3.425781 8.984375 0 12.410156l-15.085938 15.082031c-3.425781 3.429688-8.980469 3.429688-12.410156 0zm0 0" fill="#f5585c"/><path d="m98.199219 196.039062c-3.425781-3.425781-3.425781-8.980468 0-12.410156l15.082031-15.082031c3.429688-3.425781 8.984375-3.425781 12.410156.003906 3.429688 3.425781 3.429688 8.980469 0 12.410157l-15.082031 15.078124c-3.425781 3.429688-8.980469 3.429688-12.410156 0zm0 0" fill="#c9cf4f"/><g fill="#a0d5ff"><path d="m35.222656 323.476562c-3.429687-3.429687-3.429687-8.984374 0-12.410156l15.082032-15.082031c3.425781-3.425781 8.980468-3.425781 12.410156 0 3.425781 3.425781 3.425781 8.980469 0 12.410156l-15.085938 15.082031c-3.425781 3.425782-8.980468 3.425782-12.40625 0zm0 0"/><path d="m98.605469 250.195312-20.234375-6.746093c-4.597656-1.53125-7.082032-6.503907-5.550782-11.097657 1.535157-4.597656 6.5-7.085937 11.101563-5.550781l20.234375 6.742188c4.597656 1.53125 7.082031 6.503906 5.550781 11.101562-1.542969 4.621094-6.527343 7.074219-11.101562 5.550781zm0 0"/><path d="m204.179688 142.324219-15.082032-15.082031c-3.425781-3.429688-3.425781-8.984376 0-12.410157 3.425782-3.425781 8.980469-3.425781 12.410156 0l15.082032 15.082031c3.425781 3.425782 3.425781 8.980469 0 12.410157-3.429688 3.425781-8.984375 3.425781-12.410156 0zm0 0"/></g><path d="m328.023438 149.863281-15.082032-15.082031c-3.425781-3.425781-3.425781-8.980469 0-12.410156 3.425782-3.425782 8.984375-3.425782 12.410156 0l15.082032 15.082031c3.425781 3.429687 3.425781 8.984375 0 12.410156-3.425782 3.429688-8.984375 3.429688-12.410156 0zm0 0" fill="#f5585c"/><path d="m411.453125 206.433594-15.082031-15.082032c-3.425782-3.429687-3.425782-8.984374 0-12.414062 3.425781-3.425781 8.984375-3.425781 12.410156 0l15.082031 15.082031c3.425781 3.429688 3.425781 8.984375 0 12.414063-3.429687 3.425781-8.984375 3.421875-12.410156 0zm0 0" fill="#fad964"/><path d="m100.140625 304.71875-15.082031-15.082031c-3.425782-3.429688-3.425782-8.984375 0-12.414063 3.425781-3.421875 8.984375-3.421875 12.410156 0l15.082031 15.082032c3.425781 3.429687 3.425781 8.984374 0 12.414062-3.429687 3.425781-8.984375 3.421875-12.410156 0zm0 0" fill="#fad964"/><path d="m396.371094 351.238281-15.085938-15.082031c-3.425781-3.429688-3.425781-8.984375 0-12.410156 3.429688-3.425782 8.984375-3.429688 12.410156 0l15.085938 15.082031c3.425781 3.429687 3.425781 8.984375 0 12.410156-3.429688 3.425781-8.984375 3.429688-12.410156 0zm0 0" fill="#c9cf4f"/></svg>