<svg id="Layer_3" enable-background="new 0 0 128 128" height="512" viewBox="0 0 128 128" width="512" xmlns="http://www.w3.org/2000/svg" xmlns:xlink="http://www.w3.org/1999/xlink"><linearGradient id="SVGID_1_" gradientUnits="userSpaceOnUse" x1="62.377" x2="63.708" y1="119.285" y2="74.005"><stop offset="0" stop-color="#d7773b"/><stop offset="1" stop-color="#e79f52"/></linearGradient><linearGradient id="SVGID_2_" gradientUnits="userSpaceOnUse" x1="63.795" x2="64.152" y1="37.6" y2="83.581"><stop offset="0" stop-color="#f88d9a"/><stop offset="1" stop-color="#f7648b"/></linearGradient><linearGradient id="lg1"><stop offset=".0423" stop-color="#fbc848"/><stop offset="1" stop-color="#fca845"/></linearGradient><linearGradient id="SVGID_3_" gradientUnits="userSpaceOnUse" x1="15.8" x2="20.2" xlink:href="#lg1" y1="42.5" y2="42.5"/><linearGradient id="SVGID_4_" gradientUnits="userSpaceOnUse" x1="51.8" x2="56.2" xlink:href="#lg1" y1="34.5" y2="34.5"/><linearGradient id="SVGID_5_" gradientUnits="userSpaceOnUse" x1="29.8" x2="34.2" xlink:href="#lg1" y1="59.5" y2="59.5"/><linearGradient id="SVGID_6_" gradientUnits="userSpaceOnUse" x1="36.8" x2="41.2" xlink:href="#lg1" y1="19.5" y2="19.5"/><linearGradient id="SVGID_7_" gradientUnits="userSpaceOnUse" x1="38.8" x2="43.2" xlink:href="#lg1" y1="33.5" y2="33.5"/><linearGradient id="lg2"><stop offset="0" stop-color="#aadff1"/><stop offset="1" stop-color="#d6eff8"/></linearGradient><linearGradient id="SVGID_8_" gradientTransform="matrix(-1 0 0 1 23 0)" gradientUnits="userSpaceOnUse" x1="-13.2" x2="-8.8" xlink:href="#lg2" y1="43.5" y2="43.5"/><linearGradient id="SVGID_9_" gradientTransform="matrix(-1 0 0 1 23 0)" gradientUnits="userSpaceOnUse" x1="2.8" x2="7.2" xlink:href="#lg2" y1="55.5" y2="55.5"/><linearGradient id="SVGID_10_" gradientTransform="matrix(-1 0 0 1 23 0)" gradientUnits="userSpaceOnUse" x1="-6.2" x2="-1.8" xlink:href="#lg2" y1="28.5" y2="28.5"/><linearGradient id="SVGID_11_" gradientTransform="matrix(-1 0 0 1 23 0)" gradientUnits="userSpaceOnUse" x1="-35.2" x2="-30.8" xlink:href="#lg2" y1="20.5" y2="20.5"/><linearGradient id="SVGID_12_" gradientTransform="matrix(-1 0 0 1 166 0)" gradientUnits="userSpaceOnUse" x1="50.8" x2="55.2" xlink:href="#lg1" y1="45.5" y2="45.5"/><linearGradient id="SVGID_13_" gradientTransform="matrix(-1 0 0 1 166 0)" gradientUnits="userSpaceOnUse" x1="86.8" x2="91.2" xlink:href="#lg1" y1="37.5" y2="37.5"/><linearGradient id="SVGID_14_" gradientTransform="matrix(-1 0 0 1 166 0)" gradientUnits="userSpaceOnUse" x1="64.8" x2="69.2" xlink:href="#lg1" y1="62.5" y2="62.5"/><linearGradient id="SVGID_15_" gradientTransform="matrix(-1 0 0 1 166 0)" gradientUnits="userSpaceOnUse" x1="71.8" x2="76.2" xlink:href="#lg1" y1="22.5" y2="22.5"/><linearGradient id="SVGID_16_" gradientTransform="matrix(-1 0 0 1 166 0)" gradientUnits="userSpaceOnUse" x1="73.8" x2="78.2" xlink:href="#lg1" y1="36.5" y2="36.5"/><linearGradient id="SVGID_17_" gradientUnits="userSpaceOnUse" x1="94.8" x2="99.2" xlink:href="#lg2" y1="46.5" y2="46.5"/><linearGradient id="SVGID_18_" gradientUnits="userSpaceOnUse" x1="110.8" x2="115.2" xlink:href="#lg2" y1="58.5" y2="58.5"/><linearGradient id="SVGID_19_" gradientUnits="userSpaceOnUse" x1="101.8" x2="106.2" xlink:href="#lg2" y1="31.5" y2="31.5"/><linearGradient id="SVGID_20_" gradientUnits="userSpaceOnUse" x1="72.8" x2="77.2" xlink:href="#lg2" y1="23.5" y2="23.5"/><linearGradient id="SVGID_21_" gradientTransform="matrix(-1 0 0 1 166 0)" gradientUnits="userSpaceOnUse" x1="99.8" x2="104.2" xlink:href="#lg1" y1="9.5" y2="9.5"/><path d="m63.999 2c-34.279 0-61.999 27.717-61.999 62 0 34.282 27.72 62.003 61.999 62.003 26.536 0 48.708-16.77 58.001-40.003 2-5 4-12 4-21.984-.002-34.283-27.72-62.016-62.001-62.016zm.001 85c-12.231 0-22-9.766-22-22 0-12.235 9.769-22.305 22-22.305 12.234 0 22 10.069 22 22.305 0 12.234-9.766 22-22 22z" fill="url(#SVGID_1_)"/><path d="m64 2c-34.281 0-61.998 27.733-62 62.016 0 9.984 2 16.984 4 21.984 6 3 12 0 12-5v-5c0-3.229 2.968-6 6-6s6 2.771 6 6v25c0 4.333 2.864 8 7 8s7-3.667 7-8v-4c0-3.229 2.691-6 6-6s6 2.771 6 6v9c0 4.333 3.589 8 8 8s8-3.667 8-8v-9c0-3.229 2.691-6 6-6s6 2.771 6 6v4c0 4.333 2.864 8 7 8s7-3.667 7-8v-25c0-3.229 2.968-6 6-6s6 2.771 6 6v5c0 5 6 8 12 5 2-5 4-12 4-21.984-.002-34.283-27.719-62.016-62-62.016zm0 85c-12.231 0-22-9.766-22-22 0-12.235 9.769-22.305 22-22.305 12.234 0 22 10.069 22 22.305 0 12.234-9.766 22-22 22z" fill="url(#SVGID_2_)"/><path d="m16 44c-.331-.442-.242-1.068.2-1.399l2.401-1.8c.442-.331 1.068-.242 1.4.2.331.442.242 1.068-.2 1.399l-2.401 1.8c-.442.331-1.069.242-1.4-.2z" fill="url(#SVGID_3_)"/><path d="m52 36c-.331-.442-.242-1.068.2-1.399l2.401-1.8c.442-.331 1.068-.242 1.4.2.331.442.242 1.068-.2 1.399l-2.401 1.8c-.442.331-1.069.242-1.4-.2z" fill="url(#SVGID_4_)"/><path d="m30 61c-.331-.442-.242-1.068.2-1.399l2.401-1.8c.442-.331 1.068-.242 1.4.2.331.442.242 1.068-.2 1.399l-2.401 1.8c-.442.331-1.069.242-1.4-.2z" fill="url(#SVGID_5_)"/><path d="m37 21c-.331-.442-.242-1.068.2-1.399l2.401-1.8c.442-.331 1.068-.242 1.4.2.331.442.242 1.068-.2 1.399l-2.401 1.8c-.442.331-1.069.242-1.4-.2z" fill="url(#SVGID_6_)"/><path d="m39 35c-.331-.442-.242-1.068.2-1.399l2.401-1.8c.442-.331 1.068-.242 1.4.2.331.442.242 1.068-.2 1.399l-2.401 1.8c-.442.331-1.069.242-1.4-.2z" fill="url(#SVGID_7_)"/><path d="m34.601 45.2-2.401-1.8c-.442-.332-.531-.958-.2-1.4.331-.442.958-.531 1.4-.2l2.401 1.8c.442.331.531.958.2 1.399-.332.443-.959.532-1.4.201z" fill="url(#SVGID_8_)"/><path d="m18.601 57.2-2.401-1.8c-.442-.332-.531-.958-.2-1.4.331-.442.958-.531 1.4-.2l2.401 1.8c.442.331.531.958.2 1.399-.332.443-.959.532-1.4.201z" fill="url(#SVGID_9_)"/><path d="m27.601 30.2-2.401-1.8c-.442-.332-.531-.958-.2-1.4.331-.442.958-.531 1.4-.2l2.401 1.8c.442.331.531.958.2 1.399-.332.443-.959.532-1.4.201z" fill="url(#SVGID_10_)"/><path d="m56.601 22.2-2.401-1.8c-.442-.332-.531-.958-.2-1.4.331-.442.958-.531 1.4-.2l2.401 1.8c.442.331.531.958.2 1.399-.332.443-.959.532-1.4.201z" fill="url(#SVGID_11_)"/><path d="m113.601 47.2-2.401-1.8c-.442-.331-.531-.958-.2-1.399.331-.442.958-.531 1.4-.2l2.401 1.8c.442.331.531.958.2 1.399-.332.442-.959.531-1.4.2z" fill="url(#SVGID_12_)"/><path d="m77.601 39.2-2.401-1.8c-.442-.332-.531-.958-.2-1.4.331-.442.958-.531 1.4-.2l2.401 1.8c.442.331.531.958.2 1.399-.332.443-.959.532-1.4.201z" fill="url(#SVGID_13_)"/><path d="m99.601 64.2-2.401-1.8c-.442-.332-.531-.958-.2-1.4.331-.442.958-.531 1.4-.2l2.401 1.8c.442.331.531.958.2 1.399-.332.443-.959.532-1.4.201z" fill="url(#SVGID_14_)"/><path d="m92.601 24.2-2.401-1.8c-.442-.332-.531-.958-.2-1.4.331-.442.958-.531 1.4-.2l2.401 1.8c.442.331.531.958.2 1.399-.332.443-.959.532-1.4.201z" fill="url(#SVGID_15_)"/><path d="m90.601 38.2-2.401-1.8c-.442-.332-.531-.958-.2-1.4.331-.442.958-.531 1.4-.2l2.401 1.8c.442.331.531.958.2 1.399-.332.443-.959.532-1.4.201z" fill="url(#SVGID_16_)"/><path d="m95 48c-.331-.442-.242-1.068.2-1.399l2.401-1.8c.442-.331 1.068-.242 1.4.2.331.442.242 1.068-.2 1.399l-2.401 1.8c-.442.331-1.069.242-1.4-.2z" fill="url(#SVGID_17_)"/><path d="m111 60c-.331-.442-.242-1.068.2-1.399l2.401-1.8c.442-.331 1.068-.242 1.4.2.331.442.242 1.068-.2 1.399l-2.401 1.8c-.442.331-1.069.242-1.4-.2z" fill="url(#SVGID_18_)"/><path d="m102 33c-.331-.442-.242-1.068.2-1.399l2.401-1.8c.442-.331 1.068-.242 1.4.2.331.442.242 1.068-.2 1.399l-2.401 1.8c-.442.331-1.069.242-1.4-.2z" fill="url(#SVGID_19_)"/><path d="m73 25c-.331-.442-.242-1.068.2-1.399l2.401-1.8c.442-.331 1.068-.242 1.4.2.331.442.242 1.068-.2 1.399l-2.401 1.8c-.442.331-1.069.242-1.4-.2z" fill="url(#SVGID_20_)"/><path d="m64.601 11.2-2.401-1.8c-.442-.332-.531-.958-.2-1.4.331-.442.958-.531 1.4-.2l2.401 1.8c.441.332.53.958.199 1.4-.331.442-.958.531-1.399.2z" fill="url(#SVGID_21_)"/></svg>