<?xml version="1.0" encoding="iso-8859-1"?>
<!-- Generator: Adobe Illustrator 19.0.0, SVG Export Plug-In . SVG Version: 6.00 Build 0)  -->
<svg version="1.1" id="Capa_1" xmlns="http://www.w3.org/2000/svg" xmlns:xlink="http://www.w3.org/1999/xlink" x="0px" y="0px"
	 viewBox="0 0 512.001 512.001" style="enable-background:new 0 0 512.001 512.001;" xml:space="preserve">
<path style="fill:#A06047;" d="M256.001,7.488C118.747,7.488,7.489,118.746,7.489,256s111.258,248.513,248.512,248.513
	S504.514,393.255,504.514,256S393.256,7.488,256.001,7.488z M256.001,345.863c-49.627,0-89.863-40.236-89.863-89.863
	s40.236-89.863,89.863-89.863s89.863,40.236,89.863,89.863S305.628,345.863,256.001,345.863z"/>
<path style="fill:#824730;" d="M256.001,7.488c-6.008,0-11.975,0.21-17.873,0.639C367.04,17.288,468.758,124.764,468.758,256
	S367.04,494.713,238.129,503.874c5.898,0.429,11.865,0.639,17.873,0.639c137.254,0,248.512-111.258,248.512-248.512
	S393.256,7.488,256.001,7.488z"/>
<path style="fill:#00DDC2;" d="M256.001,7.488C118.747,7.488,7.489,118.746,7.489,256c0,66.122,25.816,126.207,67.929,170.724
	c20.298-4.7,24.439-20.218,51.752-20.218c32.213,0,32.213,21.555,64.416,21.555s32.203-21.555,64.406-21.555
	c32.213,0,32.213,21.555,64.406,21.555c32.213,0,32.213-21.555,64.416-21.555c27.323,0,31.464,15.518,51.772,20.218
	c42.112-44.517,67.929-104.602,67.929-170.724C504.514,118.746,393.256,7.488,256.001,7.488z M256.001,345.863
	c-49.627,0-89.863-40.236-89.863-89.863s40.236-89.863,89.863-89.863s89.863,40.236,89.863,89.863S305.628,345.863,256.001,345.863z
	"/>
<path style="fill:#00BCA1;" d="M256.001,7.488c-6.008,0-11.975,0.21-17.873,0.639C367.04,17.288,468.758,124.764,468.758,256
	c0,60.035-21.286,115.09-56.722,158.041c7.554,4.65,13.771,10.189,24.549,12.684c42.112-44.517,67.929-104.602,67.929-170.724
	C504.514,118.746,393.256,7.488,256.001,7.488z"/>
<g>
	<circle style="fill:#FFE269;" cx="345.871" cy="129.95" r="19.617"/>
	<circle style="fill:#FFE269;" cx="430.421" cy="234.13" r="19.617"/>
	<circle style="fill:#FFE269;" cx="89.691" cy="227.92" r="19.617"/>
	<circle style="fill:#FFE269;" cx="132.301" cy="340.58" r="19.617"/>
	<circle style="fill:#FFE269;" cx="385.101" cy="345.5" r="19.617"/>
	<circle style="fill:#FFE269;" cx="191.791" cy="129.95" r="19.617"/>
</g>
<g>
	<path style="fill:#F7D443;" d="M365.483,129.953c0,10.837-8.782,19.619-19.619,19.619c-10.339,0-18.801-7.983-19.559-18.132
		c3.533,3.453,8.373,5.578,13.701,5.578c10.838,0,19.619-8.782,19.619-19.619c0-0.499-0.02-0.998-0.06-1.487
		C363.218,119.475,365.483,124.454,365.483,129.953z"/>
	<path style="fill:#F7D443;" d="M450.037,234.126c0,10.837-8.782,19.619-19.619,19.619c-10.329,0-18.791-7.983-19.549-18.132
		c3.523,3.453,8.353,5.578,13.691,5.578c10.838,0,19.619-8.782,19.619-19.619c0-0.499-0.02-0.998-0.06-1.487
		C447.772,223.648,450.037,228.628,450.037,234.126z"/>
	<path style="fill:#F7D443;" d="M109.307,227.919c0,10.827-8.782,19.609-19.619,19.609c-10.329,0-18.801-7.983-19.559-18.122
		c3.533,3.453,8.363,5.578,13.701,5.578c10.838,0,19.619-8.782,19.619-19.619c0-0.499-0.02-0.998-0.06-1.487
		C107.042,217.441,109.307,222.42,109.307,227.919z"/>
	<path style="fill:#F7D443;" d="M151.918,340.584c0,10.827-8.782,19.609-19.609,19.609c-10.339,0-18.801-7.983-19.559-18.122
		c3.533,3.453,8.363,5.578,13.701,5.578c10.828,0,19.609-8.782,19.609-19.619c0-0.499-0.02-0.998-0.06-1.487
		C149.653,330.106,151.918,335.086,151.918,340.584z"/>
	<path style="fill:#F7D443;" d="M404.712,345.494c0,10.837-8.782,19.619-19.609,19.619c-10.338,0-18.801-7.983-19.559-18.132
		c3.533,3.453,8.363,5.578,13.701,5.578c10.827,0,19.609-8.782,19.609-19.619c0-0.499-0.02-0.998-0.06-1.487
		C402.446,335.016,404.712,339.996,404.712,345.494z"/>
	<path style="fill:#F7D443;" d="M211.404,129.953c0,10.837-8.782,19.619-19.609,19.619c-10.338,0-18.801-7.983-19.559-18.132
		c3.523,3.453,8.362,5.578,13.701,5.578c10.827,0,19.609-8.782,19.609-19.619c0-0.499-0.02-0.998-0.06-1.487
		C209.139,119.475,211.404,124.454,211.404,129.953z"/>
</g>
<path d="M158.652,256c0,53.678,43.671,97.349,97.349,97.349s97.35-43.67,97.35-97.349s-43.671-97.348-97.35-97.348
	S158.652,202.322,158.652,256z M338.382,256c0,45.424-36.955,82.38-82.38,82.38s-82.38-36.955-82.38-82.38s36.955-82.38,82.38-82.38
	C301.426,173.621,338.382,210.576,338.382,256z"/>
<path d="M442.193,431.685C487.262,383.988,512,321.898,512,256c0-61.742-22.285-121.372-62.749-167.905
	c-2.711-3.12-7.438-3.449-10.559-0.737c-3.119,2.713-3.449,7.44-0.736,10.559c38.095,43.809,59.075,99.951,59.075,158.082
	c0,60.594-22.215,117.77-62.78,162.241c-4.915-1.747-8.771-4.3-13.076-7.181c-8.434-5.643-17.992-12.038-36.364-12.038
	c-18.373,0-27.931,6.397-36.365,12.041c-7.629,5.105-14.217,9.514-28.051,9.514c-13.821,0-20.406-4.407-28.029-9.51
	c-8.435-5.646-17.995-12.045-36.376-12.045c-18.376,0-27.934,6.398-36.367,12.042c-7.626,5.105-14.212,9.513-28.039,9.513
	s-20.413-4.408-28.04-9.512c-8.435-5.645-17.995-12.043-36.375-12.043c-18.367,0-27.923,6.396-36.354,12.04
	c-4.294,2.874-8.142,5.423-13.04,7.169c-11.65-12.788-21.953-26.811-30.639-41.848C26.094,339.954,14.97,298.325,14.97,256
	c0-64.382,25.072-124.91,70.596-170.435c45.526-45.524,106.054-70.596,170.435-70.596c54.574,0,106.043,17.786,148.843,51.435
	c3.251,2.554,7.954,1.99,10.51-1.258c2.554-3.25,1.991-7.955-1.258-10.509C368.632,18.893,313.964,0,256.001,0
	c-68.38,0-132.667,26.629-181.02,74.981C26.631,123.333,0.001,187.62,0.001,256c0,44.95,11.817,89.167,34.175,127.871
	c9.926,17.184,21.845,33.118,35.393,47.513c0.276,0.346,0.579,0.665,0.908,0.954c15.836,16.655,33.87,31.214,53.64,43.12
	c1.208,0.727,2.54,1.074,3.854,1.074c2.538,0,5.014-1.291,6.418-3.624c2.132-3.541,0.991-8.14-2.55-10.273
	c-15.521-9.346-29.912-20.423-42.913-32.933c3.851-1.948,7.144-4.146,10.215-6.201c7.625-5.103,14.209-9.51,28.029-9.51
	c13.833,0,20.421,4.409,28.05,9.514c8.434,5.644,17.992,12.041,36.366,12.041c18.375,0,27.933-6.398,36.366-12.042
	c7.626-5.105,14.213-9.513,28.04-9.513c13.834,0,20.422,4.409,28.05,9.515c8.432,5.643,17.988,12.04,36.356,12.04
	c18.382,0,27.942-6.398,36.376-12.043c7.627-5.104,14.213-9.512,28.039-9.512s20.413,4.407,28.039,9.51
	c3.075,2.057,6.373,4.257,10.231,6.207c-45.124,43.446-104.265,67.324-167.082,67.324c-28.439,0-56.275-4.903-82.736-14.573
	c-3.886-1.42-8.18,0.578-9.598,4.461c-1.419,3.882,0.578,8.18,4.46,9.599c28.111,10.274,57.677,15.482,87.874,15.482
	c68.38,0,132.667-26.629,181.02-74.981c1.755-1.755,3.472-3.536,5.169-5.333C442.191,431.687,442.192,431.686,442.193,431.685z"/>
<path d="M345.866,157.055c-14.943,0-27.102-12.158-27.102-27.102c0-14.943,12.158-27.101,27.102-27.101s27.101,12.158,27.101,27.101
	C372.967,144.897,360.81,157.055,345.866,157.055z M345.866,117.821c-6.69,0-12.133,5.443-12.133,12.132
	c0,6.69,5.443,12.133,12.133,12.133c6.689,0,12.132-5.443,12.132-12.133C357.998,123.264,352.555,117.821,345.866,117.821z"/>
<path d="M430.421,261.227c-14.943,0-27.101-12.158-27.101-27.101s12.157-27.101,27.101-27.101s27.102,12.158,27.102,27.101
	S445.365,261.227,430.421,261.227z M430.421,221.994c-6.689,0-12.132,5.443-12.132,12.132s5.443,12.132,12.132,12.132
	c6.69,0,12.133-5.443,12.133-12.132S437.112,221.994,430.421,221.994z"/>
<path d="M89.69,255.017c-14.943,0-27.101-12.158-27.101-27.101s12.157-27.101,27.101-27.101s27.102,12.158,27.102,27.101
	C116.791,242.859,104.633,255.017,89.69,255.017z M89.69,215.783c-6.689,0-12.132,5.443-12.132,12.132
	c0,6.69,5.443,12.132,12.132,12.132c6.69,0,12.133-5.443,12.133-12.132C101.823,221.226,96.38,215.783,89.69,215.783z"/>
<path d="M132.305,367.681c-14.943,0-27.101-12.158-27.101-27.101c0-14.943,12.157-27.101,27.101-27.101s27.102,12.158,27.102,27.101
	C159.407,355.524,147.249,367.681,132.305,367.681z M132.305,328.448c-6.689,0-12.132,5.443-12.132,12.132
	c0,6.69,5.443,12.132,12.132,12.132c6.69,0,12.133-5.443,12.133-12.132S138.995,328.448,132.305,328.448z"/>
<path d="M385.1,372.596c-14.943,0-27.102-12.158-27.102-27.101s12.158-27.101,27.102-27.101s27.101,12.158,27.101,27.101
	S400.043,372.596,385.1,372.596z M385.1,333.363c-6.69,0-12.133,5.443-12.133,12.132s5.443,12.132,12.133,12.132
	c6.689,0,12.132-5.443,12.132-12.132S391.789,333.363,385.1,333.363z"/>
<path d="M191.792,157.055c-14.943,0-27.102-12.158-27.102-27.102c0-14.943,12.158-27.101,27.102-27.101
	c14.943,0,27.101,12.158,27.101,27.101C218.893,144.897,206.736,157.055,191.792,157.055z M191.792,117.821
	c-6.69,0-12.133,5.443-12.133,12.132c0,6.69,5.443,12.133,12.133,12.133c6.689,0,12.132-5.443,12.132-12.133
	C203.924,123.264,198.482,117.821,191.792,117.821z"/>
<path d="M254.194,129.218c-1.651,0-3.312-0.544-4.697-1.662c-3.216-2.597-3.718-7.309-1.121-10.525l8.94-11.07
	c2.597-3.214,7.308-3.718,10.525-1.12c3.216,2.597,3.718,7.309,1.121,10.525l-8.94,11.07
	C258.542,128.267,256.378,129.218,254.194,129.218z"/>
<path d="M372.391,196.261c-0.601,0-1.211-0.073-1.82-0.225l-13.805-3.45c-4.01-1.002-6.448-5.066-5.447-9.076
	c1.003-4.011,5.072-6.444,9.076-5.447l13.805,3.45c4.01,1.002,6.448,5.066,5.447,9.076
	C378.797,193.99,375.744,196.261,372.391,196.261z"/>
<path d="M139.184,196.261c-0.601,0-1.211-0.073-1.82-0.225l-13.805-3.45c-4.01-1.002-6.448-5.066-5.447-9.076
	c1.003-4.011,5.072-6.444,9.076-5.447l13.805,3.45c4.01,1.002,6.448,5.066,5.447,9.076
	C145.59,193.99,142.538,196.261,139.184,196.261z"/>
<path d="M134.387,145.959c-3.192,0-6.147-2.057-7.145-5.264l-4.226-13.588c-1.227-3.947,0.977-8.142,4.924-9.369
	c3.953-1.229,8.142,0.977,9.37,4.924l4.226,13.588c1.227,3.947-0.977,8.142-4.924,9.369
	C135.871,145.85,135.122,145.959,134.387,145.959z"/>
<path d="M211.504,88.49c-0.69,0-1.392-0.096-2.087-0.298l-13.668-3.961c-3.97-1.15-6.256-5.302-5.105-9.272
	c1.15-3.971,5.305-6.255,9.272-5.106l13.668,3.961c3.97,1.15,6.256,5.302,5.105,9.272C217.74,86.362,214.75,88.49,211.504,88.49z"/>
<path d="M89.694,300.504c-0.69,0-1.392-0.096-2.087-0.298l-13.667-3.961c-3.97-1.151-6.256-5.302-5.105-9.272
	c1.15-3.97,5.306-6.255,9.272-5.105l13.667,3.961c3.97,1.151,6.256,5.302,5.105,9.272C95.93,298.375,92.939,300.504,89.694,300.504z
	"/>
<path d="M401.745,175.243c-1.044,0-2.104-0.22-3.116-0.684c-3.757-1.723-5.406-6.166-3.683-9.923l5.933-12.934
	c1.724-3.757,6.164-5.407,9.924-3.682c3.757,1.723,5.406,6.166,3.683,9.923l-5.933,12.934
	C407.293,173.623,404.581,175.243,401.745,175.243z"/>
<path d="M385.095,298.523c-1.044,0-2.104-0.22-3.116-0.684c-3.757-1.723-5.406-6.166-3.683-9.923l5.933-12.934
	c1.724-3.756,6.164-5.406,9.924-3.682c3.757,1.723,5.406,6.166,3.683,9.923l-5.933,12.934
	C390.643,296.903,387.931,298.523,385.095,298.523z"/>
<path d="M319.784,375.834c-2.839,0-5.554-1.623-6.811-4.374c-1.719-3.759-0.065-8.2,3.693-9.919l12.941-5.918
	c3.761-1.719,8.201-0.065,9.919,3.694c1.719,3.759,0.065,8.2-3.693,9.919l-12.941,5.918
	C321.883,375.616,320.824,375.834,319.784,375.834z"/>
<path d="M126.69,292.123c-1.234,0-2.485-0.306-3.639-0.95c-3.61-2.013-4.904-6.572-2.89-10.182l6.932-12.428
	c2.012-3.609,6.573-4.906,10.182-2.89c3.61,2.013,4.904,6.572,2.89,10.182l-6.932,12.428
	C131.864,290.738,129.315,292.123,126.69,292.123z"/>
<path d="M192.18,384.536c-2.256,0-4.485-1.015-5.958-2.947c-2.506-3.288-1.872-7.984,1.415-10.49l11.317-8.627
	c3.29-2.506,7.984-1.872,10.49,1.415c2.506,3.288,1.872,7.984-1.415,10.49l-11.317,8.627
	C195.356,384.037,193.762,384.536,192.18,384.536z"/>
<path d="M290.385,89.408c-1.842,0-3.687-0.675-5.133-2.038l-10.354-9.761c-3.007-2.835-3.148-7.572-0.312-10.58
	c2.834-3.009,7.572-3.147,10.58-0.312l10.354,9.761c3.007,2.835,3.148,7.572,0.312,10.58
	C294.36,88.62,292.374,89.408,290.385,89.408z"/>
<g>
</g>
<g>
</g>
<g>
</g>
<g>
</g>
<g>
</g>
<g>
</g>
<g>
</g>
<g>
</g>
<g>
</g>
<g>
</g>
<g>
</g>
<g>
</g>
<g>
</g>
<g>
</g>
<g>
</g>
</svg>
