<?xml version="1.0" encoding="iso-8859-1"?>
<!-- Generator: Adobe Illustrator 19.0.0, SVG Export Plug-In . SVG Version: 6.00 Build 0)  -->
<svg version="1.1" id="Capa_1" xmlns="http://www.w3.org/2000/svg" xmlns:xlink="http://www.w3.org/1999/xlink" x="0px" y="0px"
	 viewBox="0 0 484.6 484.6" style="enable-background:new 0 0 484.6 484.6;" xml:space="preserve">
<path style="fill:#FDC75B;" d="M474.3,242.3c0,35.2-7.8,68.6-21.9,98.5c-20-0.5-36.1-16.8-36.1-37v-47.1c0-4-1.6-7.6-4.2-10.3
	c-2.6-2.6-6.2-4.2-10.3-4.2c-8,0-14.5,6.5-14.5,14.5v23.2c0,4-1.6,7.6-4.2,10.3c-2.6,2.7-6.2,4.2-10.3,4.2c-8,0-14.5-6.4-14.5-14.5
	v-35.4c0-18.7-15.1-33.8-33.8-33.8h-1.1h-0.1c-12.5-32.4-44.1-55.4-81-55.4c-48,0-87,39-87,87v17.2c0,4.8-2,9.2-5.1,12.3
	s-7.5,5.1-12.3,5.1c-9.6,0-17.4-7.8-17.4-17.4v-52.2c0-4.8-2-9.2-5.1-12.3c-3.1-3.1-7.5-5.1-12.3-5.1c-9.6,0-17.4,7.8-17.4,17.4
	v75.4c0,4.8-2,9.2-5.1,12.3c-3.1,3.1-7.5,5.1-12.3,5.1c-9.6,0-17.4-7.8-17.4-17.4v-92.9c0-14.7-12-26.7-26.7-26.8
	C56.6,74,142,10.3,242.3,10.3C370.4,10.3,474.3,114.2,474.3,242.3z"/>
<path style="fill:#ED664C;" d="M155.3,242.3c0,48,39,87,87,87s87-39,87-87c0-11.1-2.1-21.8-5.9-31.5h1.1c18.7,0,33.8,15.1,33.8,33.8
	V280c0,8,6.5,14.5,14.5,14.5c4,0,7.6-1.6,10.3-4.2c2.7-2.6,4.2-6.2,4.2-10.3v-23.2c0-8,6.5-14.5,14.5-14.5c4,0,7.6,1.6,10.3,4.2
	c2.6,2.6,4.2,6.3,4.2,10.3v47.1c0,20.2,16.1,36.5,36.1,37c-37.1,78.8-117.2,133.4-210.1,133.4c-128.1,0-232-103.9-232-232
	c0-27.8,4.9-54.5,13.9-79.2c14.7,0.1,26.7,12,26.7,26.8v92.9c0,9.6,7.8,17.4,17.4,17.4c4.8,0,9.1-2,12.3-5.1
	c3.1-3.1,5.1-7.5,5.1-12.3v-75.5c0-9.6,7.8-17.4,17.4-17.4c4.8,0,9.2,2,12.3,5.1c3.1,3.1,5.1,7.5,5.1,12.3v52.2
	c0,9.6,7.8,17.4,17.4,17.4c4.8,0,9.1-2,12.3-5.1s5.1-7.5,5.1-12.3L155.3,242.3L155.3,242.3z"/>
<path d="M242.3,0C140.8,0,49.2,64.1,14.5,159.5C4.8,186,0,213.8,0,242.3c0,133.6,108.7,242.3,242.3,242.3
	c93.5,0,179.6-54.7,219.4-139.4c15.2-32.3,22.9-66.9,22.9-102.9C484.6,108.7,375.9,0,242.3,0z M242.3,464
	c-122.2,0-221.7-99.4-221.7-221.7c0-23.1,3.9-45.7,10.8-67.3c5.6,2.6,9.9,8.3,9.9,14.9v92.9c0,15.3,12.1,27.7,27.3,27.7
	c7.4,0,15.3-2.9,20.5-8.1s9.1-12.2,9.1-19.6v-75.5c0-3.9,2-7.1,6-7.1c1.9,0,1.7,0.7,3,2.1c0.9,1,0,2.6,0,5v52.2
	c0,15.3,13.9,27.7,29.1,27.7c5.7,0,11.9-1.8,16.5-5c15.3,33.8,49.6,57.4,89,57.4c53.7,0,97.5-43.7,97.5-97.3
	c0-5.7-1.8-11.3-2.7-16.7c5.9,4.3,8.6,11.2,8.6,19V280c0,13.7,12.5,24.8,26.1,24.8c6.6,0,13.4-2.6,18.1-7.2
	c4.7-4.7,7.8-10.9,7.8-17.6v-23.2c0-2.3,2-4.2,4.4-4.2c1.5,0,3.3,0.8,3.7,1.2c0.8,0.8,1.9,1.9,1.9,3v47.1
	c0,20.6,12.1,37.9,30.4,44.4C399.1,419,323.4,464,242.3,464z M319.2,242.3c0,42.3-34.5,76.7-76.8,76.7s-76.8-34.4-76.8-76.7
	s34.4-76.7,76.7-76.7c31.4,0,60.6,19.7,71.9,48.9l10.1-3.7l0,0l-10,3.7C317.7,223.3,319.2,232.6,319.2,242.3z M446.4,329.5
	c-11.3-3.1-19.1-13.3-19.1-25.6v-47.1c0-6.6-2.9-12.9-7.7-17.6c-4.7-4.6-10.9-7.2-17.5-7.2c-13.7,0-24.9,11.1-24.9,24.8V280
	c0,1.5-0.8,2.4-1.4,3c-0.5,0.6-2.7,1.2-4.2,1.2c-2.3,0-5.4-1.8-5.4-4.2v-35.4c0-22.3-15.6-40.8-37.1-43.6
	c-15.9-33.7-50.2-56-87.8-56c-53.7,0-97.1,43.7-97.1,97.3v17.2c0,1.9-0.4,3.7-1.8,5c-1.3,1.3-4.2,2.1-6.1,2.1
	c-3.9,0-8.2-3.2-8.2-7.1v-52.2c0-7.4-1.6-14.4-6.9-19.6c-5.2-5.2-10.6-8.1-18-8.1c-15.3,0-26.1,12.4-26.1,27.7v75.4
	c0,1.9-1.7,3.7-3,5s-3.1,2.1-4.9,2.1c-3.9,0-7-3.2-7-7.1v-92.9c0-15.4-10-28.6-23.5-34.2c34.5-81.2,114.8-135,203.7-135
	c122.4,0,221.9,99.5,221.9,221.7C464.3,272.7,458.3,302,446.4,329.5z"/>
<path d="M168,75.2l-20.6,20.6c-4,4-4,10.6,0,14.6c2,2,4.7,3,7.3,3s5.3-1,7.3-3l20.6-20.6c4-4,4-10.6,0-14.6
	C178.5,71.2,172,71.2,168,75.2z"/>
<path d="M275.4,85.5c-4-4-10.6-4-14.6,0s-4,10.6,0,14.6l15.5,15.5c2,2,4.7,3,7.3,3c2.6,0,5.3-1,7.3-3c4-4,4-10.6,0-14.6L275.4,85.5z
	"/>
<path d="M371.3,128.9c-5.7,0-10,4.6-10,10.3v36.1c0,5.7,4.3,10.3,10,10.3s10-4.6,10-10.3v-36.1C381.3,133.5,377,128.9,371.3,128.9z"
	/>
<path d="M95.8,116.4l-15.5,15.5c-4,4-4,10.6,0,14.6c2,2,4.7,3,7.3,3s5.3-1,7.3-3l15.5-15.5c4-4,4-10.6,0-14.6
	C106.4,112.4,99.8,112.4,95.8,116.4z"/>
<path d="M156.8,137.1c-4-4-10.6-4-14.6,0s-4,10.6,0,14.6l15.5,15.5c2,2,4.7,3,7.3,3s5.3-1,7.3-3c4-4,4-10.6,0-14.6L156.8,137.1z"/>
<path d="M226.8,98c-5.7,0-10.5,4.6-10.5,10.3v20.6c0,5.7,4.8,10.3,10.5,10.3s10.5-4.6,10.5-10.3v-20.6
	C237.3,102.6,232.5,98,226.8,98z"/>
<path d="M232.4,31.4l-12.9,12.9c-4,4-4,10.6,0,14.6c2,2,4.7,3,7.3,3s5.3-1,7.3-3L247,46c4-4,4-10.6,0-14.6
	C243,27.3,236.5,27.3,232.4,31.4z"/>
<path d="M335.5,98.4l-12.8,12.9c-4,4-4,10.6,0,14.6c2,2,4.7,3,7.3,3s5.3-1,7.3-3l12.9-12.9c4-4,4-10.6,0-14.6
	C346.1,94.4,339.6,94.4,335.5,98.4z"/>
<path d="M420.6,209.2c-4,4-4,10.6,0,14.6l20.6,20.6c2,2,4.7,3,7.3,3s5.3-1,7.3-3c4-4,4-10.6,0-14.6l-20.6-20.6
	C431.2,205.2,424.6,205.2,420.6,209.2z"/>
<path d="M319.6,61.8c0-5.7-4.6-10.5-10.3-10.5H299c-5.7,0-10.3,4.8-10.3,10.5s4.6,10.5,10.3,10.5h10.3
	C315,72.3,319.6,67.5,319.6,61.8z"/>
<path d="M400,187.7c2,2,4.7,3,7.3,3c2.6,0,5.3-1,7.3-3l15.5-15.5c4-4,4-10.6,0-14.6s-10.6-4-14.6,0L400,173.1
	C396,177.2,396,183.7,400,187.7z"/>
<path d="M324.8,144.3c-5.7,0-10.5,4.6-10.5,10.3v10.3c0,5.7,4.8,10.3,10.5,10.3s10.5-4.6,10.5-10.3v-10.3
	C335.3,149,330.5,144.3,324.8,144.3z"/>
<path d="M149.5,82.3c0-5.7-4.6-10-10.3-10h-15.5c-5.7,0-10.3,4.3-10.3,10s4.6,10,10.3,10h15.5C144.9,92.3,149.5,88,149.5,82.3z"/>
<g>
</g>
<g>
</g>
<g>
</g>
<g>
</g>
<g>
</g>
<g>
</g>
<g>
</g>
<g>
</g>
<g>
</g>
<g>
</g>
<g>
</g>
<g>
</g>
<g>
</g>
<g>
</g>
<g>
</g>
</svg>
