<?xml version="1.0" encoding="iso-8859-1"?>
<!-- Generator: Adobe Illustrator 19.0.0, SVG Export Plug-In . SVG Version: 6.00 Build 0)  -->
<svg version="1.1" id="Capa_1" xmlns="http://www.w3.org/2000/svg" xmlns:xlink="http://www.w3.org/1999/xlink" x="0px" y="0px"
	 viewBox="0 0 468.293 468.293" style="enable-background:new 0 0 468.293 468.293;" xml:space="preserve">
<g>
	<path style="fill:#E56353;" d="M234.146,0C104.831,0,0,104.831,0,234.146c0,129.315,104.831,234.146,234.146,234.146
		c129.316,0,234.146-104.831,234.146-234.146C468.293,104.831,363.462,0,234.146,0z M234.146,316.161
		c-45.295,0-82.014-36.719-82.014-82.014c0-45.296,36.719-82.015,82.014-82.015c45.296,0,82.015,36.719,82.015,82.015
		C316.161,279.442,279.442,316.161,234.146,316.161z"/>
	<path style="fill:#E56353;" d="M234.146,0C104.831,0,0,104.831,0,234.146h152.132c0-45.296,36.719-82.015,82.014-82.015
		c45.296,0,82.015,36.719,82.015,82.015h152.131C468.293,104.831,363.462,0,234.146,0z"/>
</g>
<g>
	<path style="fill:#FCD462;" d="M449.277,252.763c-10.288,0-18.615-8.285-18.953-18.617h-0.127
		c-0.338,10.332-8.666,18.617-18.954,18.617c-10.287,0-18.615-8.285-18.953-18.617h-0.127c-0.338,10.332-8.666,18.617-18.953,18.617
		c-10.288,0-18.615-8.285-18.953-18.617h-0.127c-0.338,10.332-8.666,18.617-18.953,18.617c-10.287,0-18.615-8.285-18.953-18.617
		h-0.063c0,45.295-36.719,82.014-82.015,82.014c-45.295,0-82.014-36.719-82.014-82.014h-0.063
		c-0.338,10.332-8.666,18.617-18.953,18.617c-10.288,0-18.615-8.285-18.953-18.617h-0.127c-0.338,10.332-8.666,18.617-18.954,18.617
		c-10.287,0-18.615-8.285-18.953-18.617h-0.127c-0.338,10.332-8.666,18.617-18.953,18.617c-10.288,0-18.615-8.285-18.953-18.617
		H37.97c-0.338,10.332-8.666,18.617-18.954,18.617c-10.287,0-18.615-8.285-18.953-18.617H0
		c0,129.315,104.831,234.146,234.146,234.146c129.316,0,234.146-104.831,234.146-234.146h-0.063
		C467.891,244.478,459.564,252.763,449.277,252.763z"/>
	<path style="fill:#FCD462;" d="M321.219,99.288c-2.328,2.544-5.848,3.112-7.866,1.265l-30.008-27.461
		c-2.018-1.847-1.763-5.403,0.565-7.947c2.328-2.544,5.848-3.112,7.866-1.265l30.008,27.461
		C323.802,93.187,323.547,96.744,321.219,99.288z"/>
</g>
<g>
	<path style="fill:#27A2DB;" d="M95.628,147.593c-2.328-2.544-5.848-3.112-7.866-1.265l-30.008,27.461
		c-2.018,1.847-1.763,5.403,0.565,7.947c2.328,2.544,5.848,3.112,7.866,1.265l30.008-27.461
		C98.211,153.693,97.956,150.137,95.628,147.593z"/>
</g>
<g>
	<path style="fill:#44C4A1;" d="M184.088,55.784c-2.328-2.544-5.848-3.112-7.866-1.265l-30.008,27.461
		c-2.018,1.847-1.763,5.403,0.565,7.947c2.328,2.544,5.848,3.112,7.866,1.265l30.008-27.461
		C186.67,61.885,186.416,58.328,184.088,55.784z"/>
</g>
<g>
	<path style="fill:#D5D6DB;" d="M215.827,81.029c-2.81,1.998-3.806,5.422-2.221,7.652l23.572,33.151
		c1.585,2.229,5.146,2.413,7.956,0.415s3.806-5.422,2.221-7.652l-23.572-33.151C222.198,79.214,218.637,79.031,215.827,81.029z"/>
</g>
<g>
	<path style="fill:#27A2DB;" d="M353.285,152.32c-2.81,1.998-3.806,5.422-2.221,7.652l23.572,33.151
		c1.585,2.229,5.146,2.413,7.956,0.415c2.81-1.998,3.806-5.422,2.221-7.652l-23.572-33.151
		C359.656,150.506,356.095,150.322,353.285,152.32z"/>
</g>
<circle style="fill:#44C4A1;" cx="242.263" cy="40.492" r="12.488"/>
<circle style="fill:#E1E6E9;" cx="144.852" cy="145.246" r="12.488"/>
<circle style="fill:#DC8744;" cx="385.561" cy="117.073" r="12.488"/>
<g>
</g>
<g>
</g>
<g>
</g>
<g>
</g>
<g>
</g>
<g>
</g>
<g>
</g>
<g>
</g>
<g>
</g>
<g>
</g>
<g>
</g>
<g>
</g>
<g>
</g>
<g>
</g>
<g>
</g>
</svg>
