<svg viewBox="0 0 512 512" xmlns="http://www.w3.org/2000/svg"><path d="m256 0c-141.386719 0-256 114.613281-256 256s114.613281 256 256 256 256-114.613281 256-256-114.613281-256-256-256zm0 352.617188c-53.359375 0-96.617188-43.257813-96.617188-96.617188s43.257813-96.617188 96.617188-96.617188 96.617188 43.257813 96.617188 96.617188-43.257813 96.617188-96.617188 96.617188zm0 0" fill="#9e5015"/><path d="m256 0v159.382812c53.359375 0 96.617188 43.257813 96.617188 96.617188s-43.257813 96.617188-96.617188 96.617188v159.382812c141.386719 0 256-114.613281 256-256s-114.613281-256-256-256zm0 0" fill="#8a4711"/><path d="m79.691406 334.25c42.273438 0 76.863282-32.792969 79.777344-74.324219-.050781-1.304687-.085938-2.609375-.085938-3.925781 0-53.359375 43.257813-96.617188 96.617188-96.617188s96.617188 43.257813 96.617188 96.617188c0 1.316406-.035157 2.621094-.085938 3.925781 2.914062 41.53125 37.503906 74.324219 79.777344 74.324219 41.546875 0 75.6875-31.671875 79.617187-72.1875.042969-2.015625.074219-4.035156.074219-6.0625 0-141.386719-114.613281-256-256-256s-256 114.613281-256 256c0 2.027344.03125 4.046875.078125 6.0625 3.925781 40.515625 38.066406 72.1875 79.613281 72.1875zm0 0" fill="#ff5f96"/><path d="m256 0v159.382812c53.359375 0 96.617188 43.257813 96.617188 96.617188 0 1.316406-.035157 2.621094-.085938 3.925781 2.914062 41.53125 37.503906 74.324219 79.777344 74.324219 41.546875 0 75.6875-31.671875 79.617187-72.1875.042969-2.015625.074219-4.035156.074219-6.0625 0-141.386719-114.613281-256-256-256zm0 0" fill="#ff468c"/><path d="m163.492188 99.308594 38.691406-38.691406 21.214844 21.214843-38.695313 38.691407zm0 0" fill="#fff04a"/><path d="m56.871094 262.289062 20.503906-50.734374 27.816406 11.242187-20.503906 50.734375zm0 0" fill="#64e1dc"/><g fill="#f7f7f7"><path d="m343.238281 140.453125 20.503907-50.730469 27.816406 11.238282-20.503906 50.734374zm0 0"/><path d="m90.148438 128.3125 27.917968-10.96875 20.011719 50.929688-27.917969 10.96875zm0 0"/><path d="m406.339844 276.800781 1.980468-29.933593 54.601563 3.609374-1.980469 29.9375zm0 0"/></g><path d="m399 175.640625 21.210938-21.214844 38.695312 38.695313-21.214844 21.214844zm0 0" fill="#ffda45"/><path d="m260.332031 86.902344 1.976563-29.933594 54.605468 3.613281-1.980468 29.933594zm0 0" fill="#00c8c8"/></svg>