<?xml version="1.0" encoding="iso-8859-1"?>
<!-- Generator: Adobe Illustrator 19.0.0, SVG Export Plug-In . SVG Version: 6.00 Build 0)  -->
<svg version="1.1" id="Capa_1" xmlns="http://www.w3.org/2000/svg" xmlns:xlink="http://www.w3.org/1999/xlink" x="0px" y="0px"
	 viewBox="0 0 484.6 484.6" style="enable-background:new 0 0 484.6 484.6;" xml:space="preserve">
<g>
	<path style="fill:#FDC75B;" d="M265.5,360.9c9.9,0,18,8.1,18,18c0,4.9-2,9.5-5.3,12.7c-3.2,3.3-7.8,5.3-12.7,5.3h-72.2
		c-9.9,0-18,8.1-18,18c0,4.9,2,9.5,5.3,12.7c3.2,3.3,7.8,5.3,12.7,5.3h7.7c22.8,0,41.2,18.5,41.2,41.2
		c-128,0.2-231.9-103.7-231.9-231.8h82.5c11.4,0,20.6,9.2,20.6,20.6c0,5.7-2.3,10.8-6,14.6c-3.8,3.7-8.9,6-14.6,6H69.3
		c-12.6,0-22.9,10.3-22.9,22.9c0,6.3,2.6,12.1,6.7,16.2s9.9,6.7,16.2,6.7h49c8.7,0,15.8,7.1,15.8,15.8c0,4.3,1.8,8.3,4.6,11.1
		c2.8,2.9,6.8,4.6,11.1,4.6h115.7V360.9z"/>
	<path style="fill:#FDC75B;" d="M474.3,242.3H464h-82.5c-11.4,0-20.6-9.2-20.6-20.6c0-5.7,2.3-10.8,6-14.6c3.8-3.7,8.9-6,14.6-6H405
		c12.6,0,22.9-10.3,22.9-22.9c0-6.3-2.6-12.1-6.7-16.2c-4.1-4.1-9.9-6.7-16.2-6.7h-49c-8.7,0-15.8-7.1-15.8-15.8
		c0-4.3-1.8-8.3-4.6-11.1c-2.8-2.9-6.8-4.6-11.1-4.6H208.8c-9.9,0-18-8.1-18-18c0-4.9,2-9.5,5.3-12.7c3.2-3.3,7.8-5.3,12.7-5.3H281
		c9.9,0,18-8.1,18-18c0-4.9-2-9.5-5.3-12.7c-3.2-3.3-7.8-5.3-12.7-5.3h-7.7c-22.7,0-41.1-18.3-41.2-41c3.4-0.2,6.9-0.3,10.3-0.3
		C370.4,10.3,474.3,114.2,474.3,242.3z"/>
</g>
<path style="fill:#ED664C;" d="M429.9,339c16.5,0,16.6-25.8,0-25.8C413.3,313.2,413.2,339,429.9,339z M474.3,242.3
	c0,128.1-103.9,232-232,232c0-22.8-18.5-41.2-41.2-41.2h-7.8c-4.9,0-9.5-2-12.7-5.3c-3.3-3.2-5.3-7.8-5.3-12.7c0-9.9,8.1-18,18-18
	h72.2c4.9,0,9.5-2,12.7-5.3c3.3-3.2,5.3-7.8,5.3-12.7c0-9.9-8.1-18-18-18H149.8c-4.3,0-8.3-1.8-11.1-4.6c-2.9-2.8-4.6-6.8-4.6-11.1
	c0-8.7-7.1-15.8-15.8-15.8h-49c-6.3,0-12.1-2.6-16.2-6.7s-6.7-9.9-6.7-16.2c0-12.6,10.3-22.9,22.9-22.9h23.5c5.7,0,10.8-2.3,14.6-6
	c3.7-3.8,6-8.9,6-14.6c0-11.4-9.2-20.6-20.6-20.6H10.3c0-124.7,98.4-226.4,221.7-231.7c0.2,22.7,18.6,41,41.2,41h7.7
	c4.9,0,9.5,2,12.7,5.3c3.3,3.2,5.3,7.8,5.3,12.7c0,9.9-8.1,18-18,18h-72.2c-4.9,0-9.5,2-12.7,5.3c-3.3,3.2-5.3,7.8-5.3,12.7
	c0,9.9,8.1,18,18,18h115.7c4.3,0,8.3,1.8,11.1,4.6c2.9,2.8,4.6,6.8,4.6,11.1c0,8.7,7.1,15.8,15.8,15.8h49c6.3,0,12.1,2.6,16.2,6.7
	c4.1,4.1,6.7,9.9,6.7,16.2c0,12.6-10.3,22.9-22.9,22.9h-23.5c-5.7,0-10.8,2.3-14.6,6c-3.7,3.8-6,8.9-6,14.6
	c0,11.4,9.2,20.6,20.6,20.6h82.5h10.4V242.3z M379.2,339c16.6,0,16.7-25.8,0-25.8C362.6,313.2,362.6,339,379.2,339z M369.7,291.5
	c16.6,0,16.7-25.8,0-25.8C353.1,265.8,353.1,291.5,369.7,291.5z M344.4,377c16.6,0,16.7-25.8,0-25.8
	C327.8,351.2,327.8,377,344.4,377z M329.3,242.3c0-48-39-87-87-87s-87,39-87,87s39,87,87,87S329.3,290.3,329.3,242.3z M145,92.2
	c16.6,0,16.7-25.8,0-25.8C128.5,66.4,128.4,92.2,145,92.2z M132.4,161.8c16.6,0,16.6-25.8,0-25.8S115.8,161.8,132.4,161.8z
	 M122.9,225.1c16.5,0,16.6-25.8,0-25.8S106.3,225.1,122.9,225.1z M94.4,130.1c16.6,0,16.7-25.8,0-25.8
	C77.8,104.3,77.8,130.1,94.4,130.1z M59.6,209.3c16.6,0,16.6-25.8,0-25.8S43,209.3,59.6,209.3z"/>
<path d="M430.3,339c16,0,16-25.8,0-25.8C413.3,313.2,413.3,339,430.3,339z"/>
<path d="M379.3,339c16,0,17-25.8,0-25.8S362.3,339,379.3,339z"/>
<path d="M369.3,265.8c-16,0-16,25.8,0,25.8C386.3,291.5,386.3,265.8,369.3,265.8z"/>
<path d="M344.3,351.2c-16,0-17,25.8,0,25.8S361.3,351.2,344.3,351.2z"/>
<path d="M145.3,92.2c16,0,16-25.8,0-25.8C128.3,66.4,128.3,92.2,145.3,92.2z"/>
<path d="M132.3,136c-17,0-17,25.8,0,25.8S149.3,136,132.3,136z"/>
<path d="M123.3,199.3c-17,0-17,25.8,0,25.8C139.3,225.1,139.3,199.3,123.3,199.3z"/>
<path d="M94.3,104.3c-16,0-17,25.8,0,25.8S111.3,104.3,94.3,104.3z"/>
<path d="M59.3,183.5c-16,0-16,25.8,0,25.8C76.3,209.3,76.3,183.5,59.3,183.5z"/>
<path d="M242.3,0c-3.7,0-7.3,0.1-10.8,0.3C101.7,5.9,0,112.3,0,242.3c0,133.6,108.7,242.3,242.3,242.3s242.3-108.7,242.3-242.3
	S375.9,0,242.3,0z M20.9,252.3h71.9c5.7,0,10.3,4.8,10.3,10.5c0,2.7-1.1,5.5-3,7.4c-2,2-4.6,3.2-7.4,3.2H69.3
	c-18.3,0-33.2,14.9-33.2,33.2c0,8.7,3.5,17.1,9.7,23.3c6.2,6.2,14.7,9.5,23.5,9.5h49c3,0,5.5,2.6,5.5,5.6c0,6.9,2.8,13.8,7.6,18.5
	c4.8,4.9,11.6,7.9,18.5,7.9h115.7c4.3,0,7.7,3.4,7.7,7.7c0,2.1-0.8,3.8-2.3,5.3c-1.4,1.4-3.3,2-5.4,2h-72.3
	c-15.6,0-28.4,12.9-28.4,28.5c0,7.6,3,14.3,8.3,19.5c5.3,5.4,12.5,7.9,20.1,7.9h7.7c13.3,0,24.6,8.8,29,20.6
	C116.9,456.7,26.1,365.3,20.9,252.3z M251.5,463.4c-4.9-23.4-25.6-41.1-50.5-41.1h-7.7c-2.1,0-4-0.6-5.5-2.1
	c-1.4-1.4-2.2-3.7-2.2-5.8c0-4.3,3.5-8.1,7.7-8.1h72.2c7.6,0,14.8-2.5,20-7.8c5.4-5.3,8.4-12.3,8.4-20c0-15.6-12.7-28.2-28.4-28.2
	H149.8c-1.5,0-2.8-0.4-3.9-1.6c-1-1-1.6-2.1-1.6-3.6c0-14.4-11.7-25.9-26.1-25.9H69.3c-3.3,0-6.6-1.5-8.9-3.8s-3.7-5.4-3.7-8.7
	c0-6.9,5.6-12.4,12.6-12.4h23.5c8.2,0,15.9-3.4,21.9-9.3c5.8-5.9,9-14.1,9-22.3c0-17.1-13.9-31.4-30.9-31.4H20.9
	c5-111,91.2-200.3,202.1-209.9c5.2,23,25.8,40.9,50.3,40.9h7.7c2.1,0,4,0.6,5.5,2.1c1.4,1.4,2.2,3.2,2.2,5.3c0,4.3-3.5,7.6-7.7,7.6
	h-72.2c-7.6,0-14.8,3-20,8.3c-5.4,5.3-8.4,12.1-8.4,19.7c0,15.6,12.7,28,28.4,28h115.7c1.5,0,2.8,0.9,3.9,2.1c1,1,1.6,2.4,1.6,3.8
	c0,14.4,11.7,26.1,26.1,26.1h49c3.3,0,6.6,1.5,8.9,3.8s3.7,5.4,3.7,8.7c0,6.9-5.6,12.4-12.6,12.4h-23.5c-8.2,0-15.9,3.4-21.9,9.3
	c-5.8,5.9-9,13.6-9,21.8c0,17.1,13.9,30.9,30.9,30.9h82.2C458.5,366.3,366.1,458.7,251.5,463.4z M381.5,231.3
	c-5.7,0-10.3-4.3-10.3-10c0-2.7,1.1-5.2,3-7.1c2-2,4.6-2.9,7.4-2.9h23.5c18.3,0,33.2-14.9,33.2-33.2c0-8.7-3.5-17.6-9.7-23.8
	s-14.7-10-23.5-10h-49c-3,0-5.5-2.1-5.5-5.1c0-6.9-2.8-13.6-7.6-18.3c-4.8-4.9-11.6-7.6-18.5-7.6H208.8c-4.3,0-7.7-3.4-7.7-7.7
	c0-2.1,0.8-4.3,2.3-5.8c1.4-1.4,3.3-2.5,5.4-2.5H281c15.6,0,28.4-12.4,28.4-28c0-7.6-3-14.6-8.3-19.8c-5.3-5.4-12.5-8.2-20.1-8.2
	h-7.7c-13.3,0-24.7-8.9-29.1-20.9c117.9,0.9,214.1,94.9,219.5,210.9H381.5z"/>
<path d="M242.3,145c-53.7,0-97.3,43.7-97.3,97.3c0,53.7,43.7,97.3,97.3,97.3s97.3-43.7,97.3-97.3C339.6,188.6,296,145,242.3,145z
	 M242.3,319c-42.3,0-76.7-34.4-76.7-76.7s34.4-76.7,76.7-76.7S319,200,319,242.3S284.6,319,242.3,319z"/>
<g>
</g>
<g>
</g>
<g>
</g>
<g>
</g>
<g>
</g>
<g>
</g>
<g>
</g>
<g>
</g>
<g>
</g>
<g>
</g>
<g>
</g>
<g>
</g>
<g>
</g>
<g>
</g>
<g>
</g>
</svg>
