<?xml version="1.0" encoding="iso-8859-1"?>
<!-- Generator: Adobe Illustrator 19.0.0, SVG Export Plug-In . SVG Version: 6.00 Build 0)  -->
<svg version="1.1" id="Capa_1" xmlns="http://www.w3.org/2000/svg" xmlns:xlink="http://www.w3.org/1999/xlink" x="0px" y="0px"
	 viewBox="0 0 512 512" style="enable-background:new 0 0 512 512;" xml:space="preserve">
<path style="fill:#FD8822;" d="M512,301c0,99.3-115.3,180-256,180S0,400.3,0,301c0-17.401,3.3-34.2,10.201-50.7
	c2.999-7.8,11.999-11.1,19.499-8.101h452.6c7.5-2.999,16.5,0.3,19.499,8.101C508.7,266.8,512,283.599,512,301z"/>
<path style="fill:#E5741A;" d="M512,301c0,99.3-115.3,180-256,180V242.199h226.3c7.5-2.999,16.5,0.3,19.499,8.101
	C508.7,266.8,512,283.599,512,301z"/>
<path style="fill:#FE73B1;" d="M512,211c0,21-5.4,41.4-15,60l-60.399,62.1c-17.1,0-32.701-8.401-42.301-22.8
	c-8.099-11.7-26.999-11.7-35.099,0c-9.6,14.399-25.201,22.8-42.599,22.8c-17.1,0-32.701-8.401-42.301-22.8c-4.2-6-11.1-9-18.3-8.701
	c-6.301,0.3-12.599,3.301-16.8,8.701c-9.6,14.399-25.201,22.8-42.599,22.8c-17.1,0-32.701-8.401-42.301-22.8
	c-8.099-11.7-26.999-11.7-35.099,0c-9.6,14.399-25.201,22.8-42.599,22.8L15,271c-9.6-18.6-15-39-15-60C0,111.7,115.3,31,256,31
	S512,111.7,512,211z"/>
<path style="fill:#FE52A2;" d="M512,211c0,21-5.4,41.4-15,60l-60.399,62.1c-17.1,0-32.701-8.401-42.301-22.8
	c-8.099-11.7-26.999-11.7-35.099,0c-9.6,14.399-25.201,22.8-42.599,22.8c-17.1,0-32.701-8.401-42.301-22.8c-4.2-6-11.1-9-18.3-8.701
	V31C396.7,31,512,111.7,512,211z"/>
<path style="fill:#994C10;" d="M361,196l-105,30l-105-30c0-31.201,52.8-45,105-45S361,164.799,361,196z"/>
<path style="fill:#BF6015;" d="M497,271c-11.4,23.099-30.399,43.799-53.2,61.199C397.301,368.2,330.399,391,256,391
	c-74.7,0-142.599-22.8-189.101-59.101C44.099,314.5,26.4,293.8,15,271c0.3,0,0.601,0,0.601,0C33,271,48.6,279.399,58.2,293.8
	c8.101,11.999,28.001,11.999,36.099,0c9.6-14.401,25.201-22.8,42.301-22.8c17.399,0,32.999,8.399,42.599,22.8
	c8.101,11.999,27.001,11.999,35.099,0c9.6-14.101,24.901-22.5,41.7-22.8c0.3,0,0.3,0,0.601,0c17.399,0,32.999,8.399,42.599,22.8
	c8.101,11.999,27.001,11.999,35.099,0c9.6-14.401,25.201-22.8,42.301-22.8c17.399,0,32.999,8.399,42.599,22.8
	c8.101,11.999,28.001,11.999,36.099,0C464.599,279.699,480.2,271.3,497,271z"/>
<path style="fill:#713708;" d="M361,196l-105,30v-75C308.2,151,361,164.799,361,196z"/>
<path style="fill:#994C10;" d="M497,271c-11.4,23.099-30.399,43.799-53.2,61.199C397.301,368.2,330.399,391,256,391V271
	c0.3,0,0.3,0,0.601,0c17.399,0,32.999,8.399,42.599,22.8c8.101,11.999,27.001,11.999,35.099,0c9.6-14.401,25.201-22.8,42.301-22.8
	c17.399,0,32.999,8.399,42.599,22.8c8.101,11.999,28.001,11.999,36.099,0C464.599,279.699,480.2,271.3,497,271z"/>
<path style="fill:#FE52A2;" d="M390.399,186.7C383.8,206.199,333.1,241,256,241c-76.199,0-127.8-33.6-134.399-57.001
	c-2.401-7.8,2.1-16.199,10.199-18.3c7.8-2.401,16.201,2.1,18.6,10.199C153.999,182.8,190,211,256,211
	c65.099,0,101.7-27.001,106.199-34.801c2.701-7.8,11.1-11.699,18.9-9C388.9,169.9,393.1,178.9,390.399,186.7z"/>
<path style="fill:#FE318F;" d="M390.399,186.7C383.8,206.199,333.1,241,256,241v-30c65.099,0,101.7-27.001,106.199-34.801
	c2.701-7.8,11.1-11.699,18.9-9C388.9,169.9,393.1,178.9,390.399,186.7z"/>
<g>
</g>
<g>
</g>
<g>
</g>
<g>
</g>
<g>
</g>
<g>
</g>
<g>
</g>
<g>
</g>
<g>
</g>
<g>
</g>
<g>
</g>
<g>
</g>
<g>
</g>
<g>
</g>
<g>
</g>
</svg>
