<svg height="512pt" viewBox="0 0 512 512" width="512pt" xmlns="http://www.w3.org/2000/svg"><path d="m256 9.996094c-135.859375 0-246 110.140625-246 246s110.140625 246 246 246 246-110.140625 246-246-110.140625-246-246-246zm0 332.167968c-47.589844 0-86.171875-38.578124-86.171875-86.167968s38.582031-86.171875 86.171875-86.171875 86.171875 38.582031 86.171875 86.171875-38.582031 86.167968-86.171875 86.167968zm0 0" fill="#e6b9a0"/><path d="m452.460938 276.503906h-4.472657c-10.226562 0-18.519531-8.289062-18.519531-18.507812 0-5.121094 1.691406-9.742188 4.652344-13.101563 2.96875-3.347656 7.21875-5.417969 12.328125-5.417969h24.421875c11.539062 0 21.96875-4.730468 29.449218-12.359374-2.820312-24.132813-9.128906-47.191407-18.429687-68.660157-3.511719-.980469-7.199219-1.5-11.019531-1.5h-78.492188c-11.890625 0-21.527344-9.640625-21.527344-21.53125 0-5.949219 2.410157-11.332031 6.308594-15.21875 3.890625-3.902343 9.28125-6.3125 15.21875-6.3125 9.871094 0 18.800782-4 25.269532-10.46875 6.023437-6.019531 9.902343-14.179687 10.410156-23.242187-17.859375-17.488282-38.378906-32.269532-60.898438-43.699219-33.390625-16.9375-71.160156-26.488281-111.160156-26.488281s-77.769531 9.550781-111.160156 26.488281c-16.800782 8.519531-32.488282 18.921875-46.789063 30.910156 3.527344 6.78125 10.621094 11.410157 18.777344 11.410157h10.570313c15.953124 0 28.871093 12.921874 28.871093 28.871093 0 7.96875-3.230469 15.179688-8.449219 20.410157-5.230468 5.21875-12.441406 8.449218-20.421874 8.449218h-69.320313c-6.65625 0-13.039063 1.160156-18.96875 3.28125-13.917969 25.9375-23.328125 54.660156-27.160156 85.117188 1.902343 2.722656 4.03125 5.261718 6.371093 7.601562 10.167969 10.179688 24.230469 16.46875 39.757813 16.46875h4.960937c15.191407 0 27.511719 12.3125 27.511719 27.5 0 7.601563-3.082031 14.480469-8.0625 19.453125-4.976562 4.976563-11.847656 8.058594-19.449219 8.058594h-1.429687c-17.46875 0-32.757813 9.390625-41.078125 23.390625 7.867188 26 19.929688 50.179688 35.398438 71.75 1.859374.230469 3.761718.339844 5.679687.339844h61.550781c9.75 0 17.648438 7.910156 17.648438 17.648437 0 4.871094-1.96875 9.289063-5.167969 12.480469-3.191406 3.191406-7.601563 5.171875-12.480469 5.171875h-16.480468c-5.238282 0-9.941407 2.269531-13.191407 5.878906 12.800781 11.28125 26.792969 21.238281 41.75 29.679688 35.671875 20.148437 76.871094 31.640625 120.761719 31.640625s85.089844-11.492188 120.761719-31.640625c16.796875-9.46875 32.359375-20.871094 46.410156-33.878907-1.050781-1.921874-2.382813-3.679687-3.921875-5.222656-4.148438-4.148437-9.871094-6.707031-16.199219-6.707031h-5.519531c-11.109375 0-20.109375-9.011719-20.109375-20.121094 0-5.550781 2.25-10.589843 5.886719-14.230469 3.640625-3.640624 8.671875-5.890624 14.222656-5.890624h54.929688c5.089843 0 10.019531-.710938 14.679687-2.019532 14.71875-24.539062 25.269531-51.859375 30.6875-80.980468-2.089844-3.257813-4.527344-6.28125-7.257813-9.007813-9.75-9.761719-23.230468-15.792969-38.109374-15.792969zm-196.460938 65.660156c-47.589844 0-86.171875-38.578124-86.171875-86.167968s38.582031-86.171875 86.171875-86.171875 86.171875 38.582031 86.171875 86.171875-38.582031 86.167968-86.171875 86.167968zm0 0" fill="#f5737f"/><path d="m512 255.996094c0-10.113282-.597656-20.132813-1.746094-30.027344 0-.003906 0-.011719 0-.011719 0-.019531-.003906-.03125-.007812-.042969-.171875-1.484374-.359375-2.964843-.558594-4.441406-.011719-.09375-.023438-.183594-.035156-.277344-7.457032-55.183593-32.582032-106.167968-72.632813-146.21875-12.011719-12.007812-25.21875-22.851562-39.347656-32.277343-19.183594-12.800781-40.105469-22.96875-62.03125-30.125-22.828125-7.453125-46.726563-11.585938-70.71875-12.417969-24.039063-.835938-48.1875 1.699219-71.523437 7.523438-20.738282 5.171874-40.808594 13.011718-59.578126 23.238281-19 10.347656-36.628906 23.144531-52.453124 37.894531-2.164063 2.019531-4.292969 4.074219-6.386719 6.164062-48.351563 48.351563-74.980469 112.640626-74.980469 181.019532s26.628906 132.664062 74.980469 181.019531c5.425781 5.425781 11.101562 10.628906 17 15.539063 41.617187 34.847656 92.640625 55.316406 146.957031 58.867187 28.921875 1.933594 58.203125-1.039063 86.128906-8.816406 26.4375-7.363281 51.617188-19.046875 74.320313-34.460938 13.484375-9.15625 26.105469-19.605469 37.628906-31.128906 48.355469-48.355469 74.984375-112.640625 74.984375-181.019531zm-88.191406 165.921875c-5.851563-4.777344-13.105469-7.371094-20.757813-7.371094h-5.519531c-5.578125 0-10.109375-4.542969-10.109375-10.121094 0-2.707031 1.050781-5.25 2.960937-7.160156 1.90625-1.90625 4.445313-2.960937 7.148438-2.960937h49.734375c-7.042969 9.699218-14.871094 18.929687-23.457031 27.613281zm-15.417969 14.28125c-11.386719 9.632812-23.636719 18.171875-36.550781 25.449219-30.589844 17.28125-64.902344 27.464843-100.082032 29.816406-10.496093.6875-21.019531.6875-31.515624 0-35.179688-2.351563-69.492188-12.535156-100.085938-29.820313-8.9375-5.042969-17.558594-10.679687-25.773438-16.851562h8.777344c7.386719 0 14.332032-2.875 19.542969-8.085938 5.230469-5.214843 8.109375-12.164062 8.109375-19.5625 0-15.246093-12.40625-27.648437-27.652344-27.648437h-61.550781c-.082031 0-.164063 0-.246094-.003906-12.851562-18.6875-22.878906-39-29.859375-60.507813 7.089844-9.324219 18.277344-14.972656 30.105469-14.972656h1.429687c10.015626 0 19.433594-3.902344 26.515626-10.980469 7.089843-7.074219 10.996093-16.496094 10.996093-26.527344 0-20.675781-16.828125-37.5-37.511719-37.5h-4.960937c-12.355469 0-23.964844-4.808594-32.6875-13.539062-1.042969-1.042969-2.039063-2.140625-2.980469-3.28125 3.703125-25.90625 11.644532-50.785156 23.632813-74.066406 3.910156-1.050782 7.945312-1.582032 12.035156-1.582032h69.320313c10.378906 0 20.140624-4.039062 27.5-11.386718 7.332031-7.347657 11.371093-17.105469 11.371093-27.472657 0-21.433593-17.4375-38.871093-38.871093-38.871093h-10.570313c-1.292969 0-2.554687-.222657-3.730469-.640626 11.386719-8.679687 23.546875-16.3125 36.265625-22.761718 14.339844-7.273438 29.175781-12.996094 44.421875-17.15625 31.710938-8.613282 65.242188-10.488282 97.734375-5.605469 8.996094 1.351563 17.914063 3.222656 26.691407 5.605469 15.246093 4.160156 30.082031 9.878906 44.421874 17.15625 16.089844 8.164062 31.140626 18.121094 44.933594 29.691406 3.378906 2.84375 6.6875 5.777344 9.90625 8.804688-1.070312 4.683593-3.441406 9.003906-6.894531 12.453124-4.863281 4.863282-11.324219 7.542969-18.199219 7.542969-8.429687 0-16.351562 3.285157-22.28125 9.230469-5.960937 5.945312-9.246094 13.867188-9.246094 22.300781 0 17.382813 14.144532 31.527344 31.527344 31.527344h78.492188c1.289062 0 2.574218.082031 3.84375.234375 7.292968 17.917969 12.328125 36.683594 15.007812 55.914062.003906.019532.007813.035157.007813.054688-5.390625 4.101562-11.945313 6.320312-18.859375 6.320312h-24.421875c-7.753907 0-14.789063 3.121094-19.832031 8.808594-4.609376 5.230469-7.144532 12.230469-7.144532 19.710938 0 15.71875 12.792969 28.507812 28.519532 28.507812h4.46875c11.730468 0 22.753906 4.566406 31.039062 12.863282 1.324219 1.324218 2.5625 2.726562 3.703125 4.199218-5.039063 24.652344-13.945313 48.148438-26.519531 69.972656-2.703125.507813-5.457032.765626-8.222656.765626h-54.929688c-8.042969 0-15.605469 3.132812-21.289062 8.820312-5.6875 5.683594-8.820313 13.25-8.820313 21.300781 0 16.609375 13.507813 30.121094 30.109375 30.121094h5.519531c2.019531 0 3.96875.457031 5.726563 1.328125-.128906.109375-.257813.21875-.386719.324219zm-319.265625-13.328125c-4.324219-4.324219-8.453125-8.785156-12.394531-13.375h46.429687c4.21875 0 7.652344 3.429687 7.652344 7.648437 0 2.046875-.792969 3.964844-2.242188 5.410157-1.445312 1.445312-3.367187 2.238281-5.410156 2.238281h-16.480468c-4.378907 0-8.652344 1.046875-12.488282 2.980469-1.707031-1.605469-3.402344-3.234376-5.066406-4.902344zm-69.125-166.875c0-2.980469.074219-5.945313.183594-8.90625 11.027344 7.734375 24.132812 11.914062 37.894531 11.914062h4.960937c9.65625 0 17.511719 7.851563 17.511719 17.5 0 4.683594-1.820312 9.074219-5.128906 12.378906-3.3125 3.308594-7.707031 5.132813-12.382813 5.132813h-1.429687c-13.277344 0-26.023437 4.648437-36.152344 12.757813-3.597656-16.492188-5.457031-33.492188-5.457031-50.777344zm445.410156-109.039063h-73.03125c-6.355468 0-11.527344-5.175781-11.527344-11.53125 0-3.082031 1.195313-5.972656 3.390626-8.15625 2.167968-2.175781 5.058593-3.375 8.140624-3.375 12.214844 0 23.699219-4.757812 32.339844-13.398437 3.234375-3.230469 5.925782-6.902344 8.035156-10.863282 12.898438 14.542969 23.828126 30.425782 32.652344 47.324219zm26.589844 109.039063c0 7.84375-.382812 15.632812-1.132812 23.339844-11.007813-8.320313-24.355469-12.832032-38.40625-12.832032h-4.472657c-4.695312 0-8.519531-3.816406-8.519531-8.507812 0-2.609375.765625-4.914063 2.132812-6.46875 1.210938-1.359375 2.839844-2.050782 4.847657-2.050782h24.421875c7.324218 0 14.394531-1.535156 20.871094-4.421874.164062 3.632812.257812 7.28125.257812 10.941406zm-402.875-166.875c2.558594-2.5625 5.175781-5.050782 7.828125-7.476563 5.492187 4.554688 12.464844 7.160157 19.878906 7.160157h10.570313c10.402344 0 18.867187 8.464843 18.867187 18.871093 0 5.03125-1.960937 9.773438-5.511719 13.332031-3.574218 3.5625-8.316406 5.527344-13.355468 5.527344h-68.796875c8.78125-13.328125 18.96875-25.867187 30.519531-37.414062zm0 0"/><path d="m334.605469 219.296875c-5.242188 1.746094-8.078125 7.40625-6.335938 12.648437 2.589844 7.777344 3.902344 15.867188 3.902344 24.050782 0 42-34.171875 76.171875-76.171875 76.171875-38.0625 0-69.695312-28.066407-75.289062-64.585938-.582032-3.777343-.882813-7.648437-.882813-11.585937s.300781-7.804688.882813-11.582032c5.59375-36.523437 37.226562-64.585937 75.289062-64.585937 4.789062 0 9.648438.46875 14.445312 1.386719 5.421876 1.042968 10.664063-2.511719 11.707032-7.9375 1.039062-5.425782-2.515625-10.664063-7.9375-11.707032-6.035156-1.15625-12.164063-1.742187-18.214844-1.742187-53.027344 0-96.171875 43.140625-96.171875 96.171875 0 53.027344 43.144531 96.167969 96.171875 96.167969s96.167969-43.140625 96.167969-96.167969c0-10.332031-1.652344-20.546875-4.921875-30.367188-1.742188-5.242187-7.402344-8.074218-12.640625-6.335937zm0 0"/><path d="m297.777344 105.902344 23.730468 20.101562c1.878907 1.59375 4.175782 2.371094 6.457032 2.371094 2.839844 0 5.65625-1.199219 7.636718-3.535156 3.570313-4.214844 3.046876-10.523438-1.167968-14.09375l-23.730469-20.105469c-4.210937-3.570313-10.523437-3.046875-14.09375 1.167969-3.570313 4.210937-3.046875 10.523437 1.167969 14.09375zm0 0"/><path d="m133.996094 196.03125-29.523438-9.785156c-5.242187-1.734375-10.898437 1.105468-12.636718 6.347656-1.738282 5.242188 1.105468 10.898438 6.347656 12.636719l29.519531 9.785156c1.046875.347656 2.105469.511719 3.148437.511719 4.195313 0 8.097657-2.660156 9.492188-6.855469 1.738281-5.246094-1.105469-10.902344-6.347656-12.640625zm0 0"/><path d="m415.566406 339.152344c2.40625 0 4.820313-.863282 6.738282-2.613282l22.972656-20.964843c4.082031-3.722657 4.371094-10.046875.648437-14.128907-3.722656-4.078124-10.050781-4.367187-14.128906-.644531l-22.976563 20.964844c-4.078124 3.722656-4.367187 10.046875-.644531 14.125 1.972657 2.164063 4.679688 3.261719 7.390625 3.261719zm0 0"/><path d="m208.789062 99.101562c2.40625 0 4.820313-.863281 6.738282-2.613281l22.976562-20.964843c4.078125-3.722657 4.367188-10.046876.644532-14.128907-3.722657-4.078125-10.046876-4.367187-14.125-.644531l-22.976563 20.964844c-4.078125 3.722656-4.367187 10.046875-.644531 14.125 1.972656 2.164062 4.675781 3.261718 7.386718 3.261718zm0 0"/><path d="m236.214844 442.042969-23.390625-20.5c-4.152344-3.640625-10.472657-3.226563-14.113281.925781-3.640626 4.15625-3.222657 10.472656.929687 14.113281l23.390625 20.5c1.898438 1.664063 4.246094 2.480469 6.585938 2.480469 2.78125 0 5.546874-1.152344 7.523437-3.410156 3.640625-4.152344 3.226563-10.46875-.925781-14.109375zm0 0"/><path d="m324.375 388.03125-31.09375-.738281c-5.503906-.160157-10.101562 4.238281-10.234375 9.761719-.128906 5.523437 4.238281 10.105468 9.761719 10.234374l31.089844.734376c.082031.003906.164062.003906.242187.003906 5.414063 0 9.863281-4.320313 9.992187-9.761719.132813-5.523437-4.238281-10.105469-9.757812-10.234375zm0 0"/><path d="m135.78125 320.621094c-4.65625-2.96875-10.839844-1.597656-13.808594 3.058594l-16.710937 26.230468c-2.964844 4.65625-1.597657 10.839844 3.0625 13.808594 1.664062 1.058594 3.523437 1.566406 5.363281 1.566406 3.304688 0 6.539062-1.636718 8.445312-4.628906l16.710938-26.230469c2.964844-4.65625 1.59375-10.835937-3.0625-13.804687zm0 0"/><path d="m321.058594 185.796875c-3.039063-4.519531-9.320313-5.808594-13.867188-2.773437-4.539062 3.03125-5.773437 9.335937-2.761718 13.871093 3.019531 4.542969 9.332031 5.765625 13.859374 2.761719 4.539063-3.011719 5.789063-9.335938 2.769532-13.859375zm0 0"/></svg>